G04 #@! TF.GenerationSoftware,KiCad,Pcbnew,(5.0.2)-1*
G04 #@! TF.CreationDate,2020-07-22T07:53:00+02:00*
G04 #@! TF.ProjectId,32mz_gauge_main_v31,33326d7a-5f67-4617-9567-655f6d61696e,rev?*
G04 #@! TF.SameCoordinates,Original*
G04 #@! TF.FileFunction,Soldermask,Top*
G04 #@! TF.FilePolarity,Negative*
%FSLAX46Y46*%
G04 Gerber Fmt 4.6, Leading zero omitted, Abs format (unit mm)*
G04 Created by KiCad (PCBNEW (5.0.2)-1) date 7/22/2020 07:53:00*
%MOMM*%
%LPD*%
G01*
G04 APERTURE LIST*
%ADD10C,0.100000*%
G04 APERTURE END LIST*
D10*
G36*
X120130000Y-115219000D02*
X119630000Y-115219000D01*
X119630000Y-114369000D01*
X120130000Y-114369000D01*
X120130000Y-115219000D01*
X120130000Y-115219000D01*
G37*
G36*
X119130000Y-115219000D02*
X118630000Y-115219000D01*
X118630000Y-114369000D01*
X119130000Y-114369000D01*
X119130000Y-115219000D01*
X119130000Y-115219000D01*
G37*
G36*
X123896500Y-115004000D02*
X122696500Y-115004000D01*
X122696500Y-114104000D01*
X123896500Y-114104000D01*
X123896500Y-115004000D01*
X123896500Y-115004000D01*
G37*
G36*
X126096500Y-115004000D02*
X124896500Y-115004000D01*
X124896500Y-114104000D01*
X126096500Y-114104000D01*
X126096500Y-115004000D01*
X126096500Y-115004000D01*
G37*
G36*
X120130000Y-113469000D02*
X119630000Y-113469000D01*
X119630000Y-112619000D01*
X120130000Y-112619000D01*
X120130000Y-113469000D01*
X120130000Y-113469000D01*
G37*
G36*
X119130000Y-113469000D02*
X118630000Y-113469000D01*
X118630000Y-112619000D01*
X119130000Y-112619000D01*
X119130000Y-113469000D01*
X119130000Y-113469000D01*
G37*
G36*
X117134000Y-113451000D02*
X115784000Y-113451000D01*
X115784000Y-112101000D01*
X117134000Y-112101000D01*
X117134000Y-113451000D01*
X117134000Y-113451000D01*
G37*
G36*
X114591323Y-112110767D02*
X114718561Y-112149364D01*
X114835824Y-112212042D01*
X114938606Y-112296394D01*
X115022958Y-112399176D01*
X115085636Y-112516439D01*
X115124233Y-112643677D01*
X115137266Y-112776000D01*
X115124233Y-112908323D01*
X115085636Y-113035561D01*
X115022958Y-113152824D01*
X114938606Y-113255606D01*
X114835824Y-113339958D01*
X114718561Y-113402636D01*
X114591323Y-113441233D01*
X114492159Y-113451000D01*
X114425841Y-113451000D01*
X114326677Y-113441233D01*
X114199439Y-113402636D01*
X114082176Y-113339958D01*
X113979394Y-113255606D01*
X113895042Y-113152824D01*
X113832364Y-113035561D01*
X113793767Y-112908323D01*
X113780734Y-112776000D01*
X113793767Y-112643677D01*
X113832364Y-112516439D01*
X113895042Y-112399176D01*
X113979394Y-112296394D01*
X114082176Y-112212042D01*
X114199439Y-112149364D01*
X114326677Y-112110767D01*
X114425841Y-112101000D01*
X114492159Y-112101000D01*
X114591323Y-112110767D01*
X114591323Y-112110767D01*
G37*
G36*
X126096500Y-112654500D02*
X124896500Y-112654500D01*
X124896500Y-111754500D01*
X126096500Y-111754500D01*
X126096500Y-112654500D01*
X126096500Y-112654500D01*
G37*
G36*
X123896500Y-112654500D02*
X122696500Y-112654500D01*
X122696500Y-111754500D01*
X123896500Y-111754500D01*
X123896500Y-112654500D01*
X123896500Y-112654500D01*
G37*
G36*
X104717000Y-112397000D02*
X103817000Y-112397000D01*
X103817000Y-111197000D01*
X104717000Y-111197000D01*
X104717000Y-112397000D01*
X104717000Y-112397000D01*
G37*
G36*
X108625000Y-111673000D02*
X107275000Y-111673000D01*
X107275000Y-110323000D01*
X108625000Y-110323000D01*
X108625000Y-111673000D01*
X108625000Y-111673000D01*
G37*
G36*
X117977000Y-111024000D02*
X117227000Y-111024000D01*
X117227000Y-109824000D01*
X117977000Y-109824000D01*
X117977000Y-111024000D01*
X117977000Y-111024000D01*
G37*
G36*
X113659000Y-111024000D02*
X112909000Y-111024000D01*
X112909000Y-109824000D01*
X113659000Y-109824000D01*
X113659000Y-111024000D01*
X113659000Y-111024000D01*
G37*
G36*
X123896500Y-110368500D02*
X122696500Y-110368500D01*
X122696500Y-109468500D01*
X123896500Y-109468500D01*
X123896500Y-110368500D01*
X123896500Y-110368500D01*
G37*
G36*
X126096500Y-110368500D02*
X124896500Y-110368500D01*
X124896500Y-109468500D01*
X126096500Y-109468500D01*
X126096500Y-110368500D01*
X126096500Y-110368500D01*
G37*
G36*
X104717000Y-110197000D02*
X103817000Y-110197000D01*
X103817000Y-108997000D01*
X104717000Y-108997000D01*
X104717000Y-110197000D01*
X104717000Y-110197000D01*
G37*
G36*
X98070000Y-109976000D02*
X96870000Y-109976000D01*
X96870000Y-109226000D01*
X98070000Y-109226000D01*
X98070000Y-109976000D01*
X98070000Y-109976000D01*
G37*
G36*
X96170000Y-109976000D02*
X94970000Y-109976000D01*
X94970000Y-109226000D01*
X96170000Y-109226000D01*
X96170000Y-109976000D01*
X96170000Y-109976000D01*
G37*
G36*
X108082323Y-108332767D02*
X108209561Y-108371364D01*
X108326824Y-108434042D01*
X108429606Y-108518394D01*
X108513958Y-108621176D01*
X108576636Y-108738439D01*
X108615233Y-108865677D01*
X108628266Y-108998000D01*
X108615233Y-109130323D01*
X108576636Y-109257561D01*
X108513958Y-109374824D01*
X108429606Y-109477606D01*
X108326824Y-109561958D01*
X108209561Y-109624636D01*
X108082323Y-109663233D01*
X107983159Y-109673000D01*
X107916841Y-109673000D01*
X107817677Y-109663233D01*
X107690439Y-109624636D01*
X107573176Y-109561958D01*
X107470394Y-109477606D01*
X107386042Y-109374824D01*
X107323364Y-109257561D01*
X107284767Y-109130323D01*
X107271734Y-108998000D01*
X107284767Y-108865677D01*
X107323364Y-108738439D01*
X107386042Y-108621176D01*
X107470394Y-108518394D01*
X107573176Y-108434042D01*
X107690439Y-108371364D01*
X107817677Y-108332767D01*
X107916841Y-108323000D01*
X107983159Y-108323000D01*
X108082323Y-108332767D01*
X108082323Y-108332767D01*
G37*
G36*
X117977000Y-109124000D02*
X117227000Y-109124000D01*
X117227000Y-107924000D01*
X117977000Y-107924000D01*
X117977000Y-109124000D01*
X117977000Y-109124000D01*
G37*
G36*
X113659000Y-109124000D02*
X112909000Y-109124000D01*
X112909000Y-107924000D01*
X113659000Y-107924000D01*
X113659000Y-109124000D01*
X113659000Y-109124000D01*
G37*
G36*
X108082323Y-106332767D02*
X108209561Y-106371364D01*
X108326824Y-106434042D01*
X108429606Y-106518394D01*
X108513958Y-106621176D01*
X108576636Y-106738439D01*
X108615233Y-106865677D01*
X108628266Y-106998000D01*
X108615233Y-107130323D01*
X108576636Y-107257561D01*
X108513958Y-107374824D01*
X108429606Y-107477606D01*
X108326824Y-107561958D01*
X108209561Y-107624636D01*
X108082323Y-107663233D01*
X107983159Y-107673000D01*
X107916841Y-107673000D01*
X107817677Y-107663233D01*
X107690439Y-107624636D01*
X107573176Y-107561958D01*
X107470394Y-107477606D01*
X107386042Y-107374824D01*
X107323364Y-107257561D01*
X107284767Y-107130323D01*
X107271734Y-106998000D01*
X107284767Y-106865677D01*
X107323364Y-106738439D01*
X107386042Y-106621176D01*
X107470394Y-106518394D01*
X107573176Y-106434042D01*
X107690439Y-106371364D01*
X107817677Y-106332767D01*
X107916841Y-106323000D01*
X107983159Y-106323000D01*
X108082323Y-106332767D01*
X108082323Y-106332767D01*
G37*
G36*
X105017000Y-107511000D02*
X103517000Y-107511000D01*
X103517000Y-106611000D01*
X105017000Y-106611000D01*
X105017000Y-107511000D01*
X105017000Y-107511000D01*
G37*
G36*
X86247000Y-107196000D02*
X82947000Y-107196000D01*
X82947000Y-105196000D01*
X86247000Y-105196000D01*
X86247000Y-107196000D01*
X86247000Y-107196000D01*
G37*
G36*
X116599845Y-106199215D02*
X116690839Y-106236906D01*
X116696966Y-106241000D01*
X116772734Y-106291627D01*
X116842373Y-106361266D01*
X116842375Y-106361269D01*
X116897094Y-106443161D01*
X116934785Y-106534155D01*
X116950071Y-106611000D01*
X116954000Y-106630755D01*
X116954000Y-106729245D01*
X116934785Y-106825845D01*
X116897095Y-106916837D01*
X116842373Y-106998734D01*
X116772734Y-107068373D01*
X116772731Y-107068375D01*
X116690839Y-107123094D01*
X116690838Y-107123095D01*
X116690837Y-107123095D01*
X116673387Y-107130323D01*
X116599845Y-107160785D01*
X116503246Y-107180000D01*
X116404754Y-107180000D01*
X116308155Y-107160785D01*
X116234613Y-107130323D01*
X116217163Y-107123095D01*
X116217162Y-107123095D01*
X116217161Y-107123094D01*
X116135269Y-107068375D01*
X116135266Y-107068373D01*
X116065627Y-106998734D01*
X116010905Y-106916837D01*
X115973215Y-106825845D01*
X115954000Y-106729245D01*
X115954000Y-106630755D01*
X115957930Y-106611000D01*
X115973215Y-106534155D01*
X116010906Y-106443161D01*
X116065625Y-106361269D01*
X116065627Y-106361266D01*
X116135266Y-106291627D01*
X116211034Y-106241000D01*
X116217161Y-106236906D01*
X116308155Y-106199215D01*
X116404754Y-106180000D01*
X116503246Y-106180000D01*
X116599845Y-106199215D01*
X116599845Y-106199215D01*
G37*
G36*
X114699845Y-106199215D02*
X114790839Y-106236906D01*
X114796966Y-106241000D01*
X114872734Y-106291627D01*
X114942373Y-106361266D01*
X114942375Y-106361269D01*
X114997094Y-106443161D01*
X115034785Y-106534155D01*
X115050071Y-106611000D01*
X115054000Y-106630755D01*
X115054000Y-106729245D01*
X115034785Y-106825845D01*
X114997095Y-106916837D01*
X114942373Y-106998734D01*
X114872734Y-107068373D01*
X114872731Y-107068375D01*
X114790839Y-107123094D01*
X114790838Y-107123095D01*
X114790837Y-107123095D01*
X114773387Y-107130323D01*
X114699845Y-107160785D01*
X114603246Y-107180000D01*
X114504754Y-107180000D01*
X114408155Y-107160785D01*
X114334613Y-107130323D01*
X114317163Y-107123095D01*
X114317162Y-107123095D01*
X114317161Y-107123094D01*
X114235269Y-107068375D01*
X114235266Y-107068373D01*
X114165627Y-106998734D01*
X114110905Y-106916837D01*
X114073215Y-106825845D01*
X114054000Y-106729245D01*
X114054000Y-106630755D01*
X114057930Y-106611000D01*
X114073215Y-106534155D01*
X114110906Y-106443161D01*
X114165625Y-106361269D01*
X114165627Y-106361266D01*
X114235266Y-106291627D01*
X114311034Y-106241000D01*
X114317161Y-106236906D01*
X114408155Y-106199215D01*
X114504754Y-106180000D01*
X114603246Y-106180000D01*
X114699845Y-106199215D01*
X114699845Y-106199215D01*
G37*
G36*
X118433000Y-106475000D02*
X117533000Y-106475000D01*
X117533000Y-105275000D01*
X118433000Y-105275000D01*
X118433000Y-106475000D01*
X118433000Y-106475000D01*
G37*
G36*
X104622160Y-105344255D02*
X104655215Y-105347511D01*
X104697628Y-105360377D01*
X104740042Y-105373243D01*
X104818217Y-105415029D01*
X104886738Y-105471262D01*
X104942971Y-105539783D01*
X104984757Y-105617958D01*
X105010489Y-105702786D01*
X105019177Y-105791000D01*
X105010489Y-105879214D01*
X104984757Y-105964042D01*
X104942971Y-106042217D01*
X104886738Y-106110738D01*
X104818217Y-106166971D01*
X104740042Y-106208757D01*
X104697628Y-106221623D01*
X104655215Y-106234489D01*
X104630684Y-106236905D01*
X104589106Y-106241000D01*
X103944894Y-106241000D01*
X103903316Y-106236905D01*
X103878785Y-106234489D01*
X103836372Y-106221623D01*
X103793958Y-106208757D01*
X103715783Y-106166971D01*
X103647262Y-106110738D01*
X103591029Y-106042217D01*
X103549243Y-105964042D01*
X103523511Y-105879214D01*
X103514823Y-105791000D01*
X103523511Y-105702786D01*
X103549243Y-105617958D01*
X103591029Y-105539783D01*
X103647262Y-105471262D01*
X103715783Y-105415029D01*
X103793958Y-105373243D01*
X103836372Y-105360377D01*
X103878785Y-105347511D01*
X103911840Y-105344255D01*
X103944894Y-105341000D01*
X104589106Y-105341000D01*
X104622160Y-105344255D01*
X104622160Y-105344255D01*
G37*
G36*
X108082323Y-104332767D02*
X108209561Y-104371364D01*
X108326824Y-104434042D01*
X108429606Y-104518394D01*
X108513958Y-104621176D01*
X108576636Y-104738439D01*
X108615233Y-104865677D01*
X108628266Y-104998000D01*
X108615233Y-105130323D01*
X108576636Y-105257561D01*
X108513958Y-105374824D01*
X108429606Y-105477606D01*
X108326824Y-105561958D01*
X108209561Y-105624636D01*
X108082323Y-105663233D01*
X107983159Y-105673000D01*
X107916841Y-105673000D01*
X107817677Y-105663233D01*
X107690439Y-105624636D01*
X107573176Y-105561958D01*
X107470394Y-105477606D01*
X107386042Y-105374824D01*
X107323364Y-105257561D01*
X107284767Y-105130323D01*
X107271734Y-104998000D01*
X107284767Y-104865677D01*
X107323364Y-104738439D01*
X107386042Y-104621176D01*
X107470394Y-104518394D01*
X107573176Y-104434042D01*
X107690439Y-104371364D01*
X107817677Y-104332767D01*
X107916841Y-104323000D01*
X107983159Y-104323000D01*
X108082323Y-104332767D01*
X108082323Y-104332767D01*
G37*
G36*
X126021888Y-103710439D02*
X126144733Y-103761323D01*
X126255290Y-103835195D01*
X126349305Y-103929210D01*
X126423177Y-104039767D01*
X126474061Y-104162612D01*
X126500000Y-104293017D01*
X126500000Y-104425983D01*
X126474061Y-104556388D01*
X126423177Y-104679233D01*
X126349305Y-104789790D01*
X126255290Y-104883805D01*
X126144733Y-104957677D01*
X126021888Y-105008561D01*
X125891483Y-105034500D01*
X125758517Y-105034500D01*
X125628112Y-105008561D01*
X125505267Y-104957677D01*
X125394710Y-104883805D01*
X125300695Y-104789790D01*
X125226823Y-104679233D01*
X125175939Y-104556388D01*
X125150000Y-104425983D01*
X125150000Y-104293017D01*
X125175939Y-104162612D01*
X125226823Y-104039767D01*
X125300695Y-103929210D01*
X125394710Y-103835195D01*
X125505267Y-103761323D01*
X125628112Y-103710439D01*
X125758517Y-103684500D01*
X125891483Y-103684500D01*
X126021888Y-103710439D01*
X126021888Y-103710439D01*
G37*
G36*
X124021888Y-103710439D02*
X124144733Y-103761323D01*
X124255290Y-103835195D01*
X124349305Y-103929210D01*
X124423177Y-104039767D01*
X124474061Y-104162612D01*
X124500000Y-104293017D01*
X124500000Y-104425983D01*
X124474061Y-104556388D01*
X124423177Y-104679233D01*
X124349305Y-104789790D01*
X124255290Y-104883805D01*
X124144733Y-104957677D01*
X124021888Y-105008561D01*
X123891483Y-105034500D01*
X123758517Y-105034500D01*
X123628112Y-105008561D01*
X123505267Y-104957677D01*
X123394710Y-104883805D01*
X123300695Y-104789790D01*
X123226823Y-104679233D01*
X123175939Y-104556388D01*
X123150000Y-104425983D01*
X123150000Y-104293017D01*
X123175939Y-104162612D01*
X123226823Y-104039767D01*
X123300695Y-103929210D01*
X123394710Y-103835195D01*
X123505267Y-103761323D01*
X123628112Y-103710439D01*
X123758517Y-103684500D01*
X123891483Y-103684500D01*
X124021888Y-103710439D01*
X124021888Y-103710439D01*
G37*
G36*
X104622160Y-104074255D02*
X104655215Y-104077511D01*
X104697628Y-104090377D01*
X104740042Y-104103243D01*
X104818217Y-104145029D01*
X104886738Y-104201262D01*
X104942971Y-104269783D01*
X104984757Y-104347958D01*
X104984757Y-104347959D01*
X105010489Y-104432785D01*
X105019177Y-104521000D01*
X105010489Y-104609215D01*
X105006860Y-104621178D01*
X104984757Y-104694042D01*
X104942971Y-104772217D01*
X104886738Y-104840738D01*
X104818217Y-104896971D01*
X104740042Y-104938757D01*
X104697628Y-104951623D01*
X104655215Y-104964489D01*
X104622160Y-104967744D01*
X104589106Y-104971000D01*
X103944894Y-104971000D01*
X103911840Y-104967744D01*
X103878785Y-104964489D01*
X103836372Y-104951623D01*
X103793958Y-104938757D01*
X103715783Y-104896971D01*
X103647262Y-104840738D01*
X103591029Y-104772217D01*
X103549243Y-104694042D01*
X103527140Y-104621178D01*
X103523511Y-104609215D01*
X103514823Y-104521000D01*
X103523511Y-104432785D01*
X103549243Y-104347959D01*
X103549243Y-104347958D01*
X103591029Y-104269783D01*
X103647262Y-104201262D01*
X103715783Y-104145029D01*
X103793958Y-104103243D01*
X103836372Y-104090377D01*
X103878785Y-104077511D01*
X103911840Y-104074255D01*
X103944894Y-104071000D01*
X104589106Y-104071000D01*
X104622160Y-104074255D01*
X104622160Y-104074255D01*
G37*
G36*
X118433000Y-104275000D02*
X117533000Y-104275000D01*
X117533000Y-103075000D01*
X118433000Y-103075000D01*
X118433000Y-104275000D01*
X118433000Y-104275000D01*
G37*
G36*
X90897000Y-104046000D02*
X88397000Y-104046000D01*
X88397000Y-103146000D01*
X90897000Y-103146000D01*
X90897000Y-104046000D01*
X90897000Y-104046000D01*
G37*
G36*
X126021888Y-101710439D02*
X126144733Y-101761323D01*
X126255290Y-101835195D01*
X126349305Y-101929210D01*
X126423177Y-102039767D01*
X126474061Y-102162612D01*
X126500000Y-102293017D01*
X126500000Y-102425983D01*
X126474061Y-102556388D01*
X126423177Y-102679233D01*
X126349305Y-102789790D01*
X126255290Y-102883805D01*
X126144733Y-102957677D01*
X126021888Y-103008561D01*
X125891483Y-103034500D01*
X125758517Y-103034500D01*
X125628112Y-103008561D01*
X125505267Y-102957677D01*
X125394710Y-102883805D01*
X125300695Y-102789790D01*
X125226823Y-102679233D01*
X125175939Y-102556388D01*
X125150000Y-102425983D01*
X125150000Y-102293017D01*
X125175939Y-102162612D01*
X125226823Y-102039767D01*
X125300695Y-101929210D01*
X125394710Y-101835195D01*
X125505267Y-101761323D01*
X125628112Y-101710439D01*
X125758517Y-101684500D01*
X125891483Y-101684500D01*
X126021888Y-101710439D01*
X126021888Y-101710439D01*
G37*
G36*
X124021888Y-101710439D02*
X124144733Y-101761323D01*
X124255290Y-101835195D01*
X124349305Y-101929210D01*
X124423177Y-102039767D01*
X124474061Y-102162612D01*
X124500000Y-102293017D01*
X124500000Y-102425983D01*
X124474061Y-102556388D01*
X124423177Y-102679233D01*
X124349305Y-102789790D01*
X124255290Y-102883805D01*
X124144733Y-102957677D01*
X124021888Y-103008561D01*
X123891483Y-103034500D01*
X123758517Y-103034500D01*
X123628112Y-103008561D01*
X123505267Y-102957677D01*
X123394710Y-102883805D01*
X123300695Y-102789790D01*
X123226823Y-102679233D01*
X123175939Y-102556388D01*
X123150000Y-102425983D01*
X123150000Y-102293017D01*
X123175939Y-102162612D01*
X123226823Y-102039767D01*
X123300695Y-101929210D01*
X123394710Y-101835195D01*
X123505267Y-101761323D01*
X123628112Y-101710439D01*
X123758517Y-101684500D01*
X123891483Y-101684500D01*
X124021888Y-101710439D01*
X124021888Y-101710439D01*
G37*
G36*
X99950500Y-102693500D02*
X98410500Y-102693500D01*
X98410500Y-100893500D01*
X99950500Y-100893500D01*
X99950500Y-102693500D01*
X99950500Y-102693500D01*
G37*
G36*
X102630500Y-102693500D02*
X101090500Y-102693500D01*
X101090500Y-100893500D01*
X102630500Y-100893500D01*
X102630500Y-102693500D01*
X102630500Y-102693500D01*
G37*
G36*
X90897000Y-102546000D02*
X88397000Y-102546000D01*
X88397000Y-101646000D01*
X90897000Y-101646000D01*
X90897000Y-102546000D01*
X90897000Y-102546000D01*
G37*
G36*
X115914000Y-102144500D02*
X108114000Y-102144500D01*
X108114000Y-100644500D01*
X115914000Y-100644500D01*
X115914000Y-102144500D01*
X115914000Y-102144500D01*
G37*
G36*
X90897000Y-101046000D02*
X88397000Y-101046000D01*
X88397000Y-100146000D01*
X90897000Y-100146000D01*
X90897000Y-101046000D01*
X90897000Y-101046000D01*
G37*
G36*
X124021888Y-99710439D02*
X124144733Y-99761323D01*
X124255290Y-99835195D01*
X124349305Y-99929210D01*
X124423177Y-100039767D01*
X124474061Y-100162612D01*
X124500000Y-100293017D01*
X124500000Y-100425983D01*
X124474061Y-100556388D01*
X124423177Y-100679233D01*
X124349305Y-100789790D01*
X124255290Y-100883805D01*
X124144733Y-100957677D01*
X124021888Y-101008561D01*
X123891483Y-101034500D01*
X123758517Y-101034500D01*
X123628112Y-101008561D01*
X123505267Y-100957677D01*
X123394710Y-100883805D01*
X123300695Y-100789790D01*
X123226823Y-100679233D01*
X123175939Y-100556388D01*
X123150000Y-100425983D01*
X123150000Y-100293017D01*
X123175939Y-100162612D01*
X123226823Y-100039767D01*
X123300695Y-99929210D01*
X123394710Y-99835195D01*
X123505267Y-99761323D01*
X123628112Y-99710439D01*
X123758517Y-99684500D01*
X123891483Y-99684500D01*
X124021888Y-99710439D01*
X124021888Y-99710439D01*
G37*
G36*
X126021888Y-99710439D02*
X126144733Y-99761323D01*
X126255290Y-99835195D01*
X126349305Y-99929210D01*
X126423177Y-100039767D01*
X126474061Y-100162612D01*
X126500000Y-100293017D01*
X126500000Y-100425983D01*
X126474061Y-100556388D01*
X126423177Y-100679233D01*
X126349305Y-100789790D01*
X126255290Y-100883805D01*
X126144733Y-100957677D01*
X126021888Y-101008561D01*
X125891483Y-101034500D01*
X125758517Y-101034500D01*
X125628112Y-101008561D01*
X125505267Y-100957677D01*
X125394710Y-100883805D01*
X125300695Y-100789790D01*
X125226823Y-100679233D01*
X125175939Y-100556388D01*
X125150000Y-100425983D01*
X125150000Y-100293017D01*
X125175939Y-100162612D01*
X125226823Y-100039767D01*
X125300695Y-99929210D01*
X125394710Y-99835195D01*
X125505267Y-99761323D01*
X125628112Y-99710439D01*
X125758517Y-99684500D01*
X125891483Y-99684500D01*
X126021888Y-99710439D01*
X126021888Y-99710439D01*
G37*
G36*
X102630500Y-99893500D02*
X101090500Y-99893500D01*
X101090500Y-98093500D01*
X102630500Y-98093500D01*
X102630500Y-99893500D01*
X102630500Y-99893500D01*
G37*
G36*
X99950500Y-99893500D02*
X98410500Y-99893500D01*
X98410500Y-98093500D01*
X99950500Y-98093500D01*
X99950500Y-99893500D01*
X99950500Y-99893500D01*
G37*
G36*
X118464000Y-99594500D02*
X116964000Y-99594500D01*
X116964000Y-91794500D01*
X118464000Y-91794500D01*
X118464000Y-99594500D01*
X118464000Y-99594500D01*
G37*
G36*
X107064000Y-99594500D02*
X105564000Y-99594500D01*
X105564000Y-91794500D01*
X107064000Y-91794500D01*
X107064000Y-99594500D01*
X107064000Y-99594500D01*
G37*
G36*
X90897000Y-99546000D02*
X88397000Y-99546000D01*
X88397000Y-98646000D01*
X90897000Y-98646000D01*
X90897000Y-99546000D01*
X90897000Y-99546000D01*
G37*
G36*
X126021888Y-97710439D02*
X126144733Y-97761323D01*
X126255290Y-97835195D01*
X126349305Y-97929210D01*
X126423177Y-98039767D01*
X126474061Y-98162612D01*
X126500000Y-98293017D01*
X126500000Y-98425983D01*
X126474061Y-98556388D01*
X126423177Y-98679233D01*
X126349305Y-98789790D01*
X126255290Y-98883805D01*
X126144733Y-98957677D01*
X126021888Y-99008561D01*
X125891483Y-99034500D01*
X125758517Y-99034500D01*
X125628112Y-99008561D01*
X125505267Y-98957677D01*
X125394710Y-98883805D01*
X125300695Y-98789790D01*
X125226823Y-98679233D01*
X125175939Y-98556388D01*
X125150000Y-98425983D01*
X125150000Y-98293017D01*
X125175939Y-98162612D01*
X125226823Y-98039767D01*
X125300695Y-97929210D01*
X125394710Y-97835195D01*
X125505267Y-97761323D01*
X125628112Y-97710439D01*
X125758517Y-97684500D01*
X125891483Y-97684500D01*
X126021888Y-97710439D01*
X126021888Y-97710439D01*
G37*
G36*
X124021888Y-97710439D02*
X124144733Y-97761323D01*
X124255290Y-97835195D01*
X124349305Y-97929210D01*
X124423177Y-98039767D01*
X124474061Y-98162612D01*
X124500000Y-98293017D01*
X124500000Y-98425983D01*
X124474061Y-98556388D01*
X124423177Y-98679233D01*
X124349305Y-98789790D01*
X124255290Y-98883805D01*
X124144733Y-98957677D01*
X124021888Y-99008561D01*
X123891483Y-99034500D01*
X123758517Y-99034500D01*
X123628112Y-99008561D01*
X123505267Y-98957677D01*
X123394710Y-98883805D01*
X123300695Y-98789790D01*
X123226823Y-98679233D01*
X123175939Y-98556388D01*
X123150000Y-98425983D01*
X123150000Y-98293017D01*
X123175939Y-98162612D01*
X123226823Y-98039767D01*
X123300695Y-97929210D01*
X123394710Y-97835195D01*
X123505267Y-97761323D01*
X123628112Y-97710439D01*
X123758517Y-97684500D01*
X123891483Y-97684500D01*
X124021888Y-97710439D01*
X124021888Y-97710439D01*
G37*
G36*
X86247000Y-97496000D02*
X82947000Y-97496000D01*
X82947000Y-95496000D01*
X86247000Y-95496000D01*
X86247000Y-97496000D01*
X86247000Y-97496000D01*
G37*
G36*
X124021888Y-95710439D02*
X124144733Y-95761323D01*
X124255290Y-95835195D01*
X124349305Y-95929210D01*
X124423177Y-96039767D01*
X124474061Y-96162612D01*
X124500000Y-96293017D01*
X124500000Y-96425983D01*
X124474061Y-96556388D01*
X124423177Y-96679233D01*
X124349305Y-96789790D01*
X124255290Y-96883805D01*
X124144733Y-96957677D01*
X124021888Y-97008561D01*
X123891483Y-97034500D01*
X123758517Y-97034500D01*
X123628112Y-97008561D01*
X123505267Y-96957677D01*
X123394710Y-96883805D01*
X123300695Y-96789790D01*
X123226823Y-96679233D01*
X123175939Y-96556388D01*
X123150000Y-96425983D01*
X123150000Y-96293017D01*
X123175939Y-96162612D01*
X123226823Y-96039767D01*
X123300695Y-95929210D01*
X123394710Y-95835195D01*
X123505267Y-95761323D01*
X123628112Y-95710439D01*
X123758517Y-95684500D01*
X123891483Y-95684500D01*
X124021888Y-95710439D01*
X124021888Y-95710439D01*
G37*
G36*
X126021888Y-95710439D02*
X126144733Y-95761323D01*
X126255290Y-95835195D01*
X126349305Y-95929210D01*
X126423177Y-96039767D01*
X126474061Y-96162612D01*
X126500000Y-96293017D01*
X126500000Y-96425983D01*
X126474061Y-96556388D01*
X126423177Y-96679233D01*
X126349305Y-96789790D01*
X126255290Y-96883805D01*
X126144733Y-96957677D01*
X126021888Y-97008561D01*
X125891483Y-97034500D01*
X125758517Y-97034500D01*
X125628112Y-97008561D01*
X125505267Y-96957677D01*
X125394710Y-96883805D01*
X125300695Y-96789790D01*
X125226823Y-96679233D01*
X125175939Y-96556388D01*
X125150000Y-96425983D01*
X125150000Y-96293017D01*
X125175939Y-96162612D01*
X125226823Y-96039767D01*
X125300695Y-95929210D01*
X125394710Y-95835195D01*
X125505267Y-95761323D01*
X125628112Y-95710439D01*
X125758517Y-95684500D01*
X125891483Y-95684500D01*
X126021888Y-95710439D01*
X126021888Y-95710439D01*
G37*
G36*
X97859000Y-95108500D02*
X96959000Y-95108500D01*
X96959000Y-93908500D01*
X97859000Y-93908500D01*
X97859000Y-95108500D01*
X97859000Y-95108500D01*
G37*
G36*
X126021888Y-93710439D02*
X126144733Y-93761323D01*
X126255290Y-93835195D01*
X126349305Y-93929210D01*
X126423177Y-94039767D01*
X126474061Y-94162612D01*
X126500000Y-94293017D01*
X126500000Y-94425983D01*
X126474061Y-94556388D01*
X126423177Y-94679233D01*
X126349305Y-94789790D01*
X126255290Y-94883805D01*
X126144733Y-94957677D01*
X126021888Y-95008561D01*
X125891483Y-95034500D01*
X125758517Y-95034500D01*
X125628112Y-95008561D01*
X125505267Y-94957677D01*
X125394710Y-94883805D01*
X125300695Y-94789790D01*
X125226823Y-94679233D01*
X125175939Y-94556388D01*
X125150000Y-94425983D01*
X125150000Y-94293017D01*
X125175939Y-94162612D01*
X125226823Y-94039767D01*
X125300695Y-93929210D01*
X125394710Y-93835195D01*
X125505267Y-93761323D01*
X125628112Y-93710439D01*
X125758517Y-93684500D01*
X125891483Y-93684500D01*
X126021888Y-93710439D01*
X126021888Y-93710439D01*
G37*
G36*
X124021888Y-93710439D02*
X124144733Y-93761323D01*
X124255290Y-93835195D01*
X124349305Y-93929210D01*
X124423177Y-94039767D01*
X124474061Y-94162612D01*
X124500000Y-94293017D01*
X124500000Y-94425983D01*
X124474061Y-94556388D01*
X124423177Y-94679233D01*
X124349305Y-94789790D01*
X124255290Y-94883805D01*
X124144733Y-94957677D01*
X124021888Y-95008561D01*
X123891483Y-95034500D01*
X123758517Y-95034500D01*
X123628112Y-95008561D01*
X123505267Y-94957677D01*
X123394710Y-94883805D01*
X123300695Y-94789790D01*
X123226823Y-94679233D01*
X123175939Y-94556388D01*
X123150000Y-94425983D01*
X123150000Y-94293017D01*
X123175939Y-94162612D01*
X123226823Y-94039767D01*
X123300695Y-93929210D01*
X123394710Y-93835195D01*
X123505267Y-93761323D01*
X123628112Y-93710439D01*
X123758517Y-93684500D01*
X123891483Y-93684500D01*
X124021888Y-93710439D01*
X124021888Y-93710439D01*
G37*
G36*
X91405000Y-93380393D02*
X91405601Y-93392632D01*
X91407903Y-93416000D01*
X91405601Y-93439368D01*
X91405000Y-93451607D01*
X91405000Y-93496003D01*
X91396798Y-93528743D01*
X91396318Y-93533621D01*
X91362010Y-93646721D01*
X91306296Y-93750955D01*
X91231317Y-93842317D01*
X91139955Y-93917296D01*
X91035721Y-93973010D01*
X90922621Y-94007318D01*
X90834474Y-94016000D01*
X90075526Y-94016000D01*
X89987379Y-94007318D01*
X89874279Y-93973010D01*
X89770045Y-93917296D01*
X89678683Y-93842317D01*
X89603704Y-93750955D01*
X89547990Y-93646721D01*
X89513682Y-93533621D01*
X89513201Y-93528742D01*
X89508421Y-93504712D01*
X89505000Y-93496454D01*
X89505000Y-93451607D01*
X89504399Y-93439368D01*
X89502097Y-93416000D01*
X89504399Y-93392632D01*
X89505000Y-93380393D01*
X89505000Y-92216000D01*
X91405000Y-92216000D01*
X91405000Y-93380393D01*
X91405000Y-93380393D01*
G37*
G36*
X93282434Y-91702144D02*
X93366475Y-91718861D01*
X93498416Y-91773513D01*
X93498417Y-91773514D01*
X93617164Y-91852858D01*
X93718142Y-91953836D01*
X93718144Y-91953839D01*
X93797487Y-92072584D01*
X93852139Y-92204525D01*
X93880000Y-92344594D01*
X93880000Y-92487406D01*
X93852139Y-92627475D01*
X93797487Y-92759416D01*
X93730954Y-92858990D01*
X93718142Y-92878164D01*
X93617164Y-92979142D01*
X93617161Y-92979144D01*
X93498416Y-93058487D01*
X93366475Y-93113139D01*
X93282434Y-93129856D01*
X93226408Y-93141000D01*
X93083592Y-93141000D01*
X93027566Y-93129856D01*
X92943525Y-93113139D01*
X92811584Y-93058487D01*
X92692839Y-92979144D01*
X92692836Y-92979142D01*
X92591858Y-92878164D01*
X92579046Y-92858990D01*
X92512513Y-92759416D01*
X92457861Y-92627475D01*
X92430000Y-92487406D01*
X92430000Y-92344594D01*
X92457861Y-92204525D01*
X92512513Y-92072584D01*
X92591856Y-91953839D01*
X92591858Y-91953836D01*
X92692836Y-91852858D01*
X92811583Y-91773514D01*
X92811584Y-91773513D01*
X92943525Y-91718861D01*
X93027566Y-91702144D01*
X93083592Y-91691000D01*
X93226408Y-91691000D01*
X93282434Y-91702144D01*
X93282434Y-91702144D01*
G37*
G36*
X126021888Y-91710439D02*
X126144733Y-91761323D01*
X126255290Y-91835195D01*
X126349305Y-91929210D01*
X126423177Y-92039767D01*
X126474061Y-92162612D01*
X126500000Y-92293017D01*
X126500000Y-92425983D01*
X126474061Y-92556388D01*
X126423177Y-92679233D01*
X126349305Y-92789790D01*
X126255290Y-92883805D01*
X126144733Y-92957677D01*
X126021888Y-93008561D01*
X125891483Y-93034500D01*
X125758517Y-93034500D01*
X125628112Y-93008561D01*
X125505267Y-92957677D01*
X125394710Y-92883805D01*
X125300695Y-92789790D01*
X125226823Y-92679233D01*
X125175939Y-92556388D01*
X125150000Y-92425983D01*
X125150000Y-92293017D01*
X125175939Y-92162612D01*
X125226823Y-92039767D01*
X125300695Y-91929210D01*
X125394710Y-91835195D01*
X125505267Y-91761323D01*
X125628112Y-91710439D01*
X125758517Y-91684500D01*
X125891483Y-91684500D01*
X126021888Y-91710439D01*
X126021888Y-91710439D01*
G37*
G36*
X124021888Y-91710439D02*
X124144733Y-91761323D01*
X124255290Y-91835195D01*
X124349305Y-91929210D01*
X124423177Y-92039767D01*
X124474061Y-92162612D01*
X124500000Y-92293017D01*
X124500000Y-92425983D01*
X124474061Y-92556388D01*
X124423177Y-92679233D01*
X124349305Y-92789790D01*
X124255290Y-92883805D01*
X124144733Y-92957677D01*
X124021888Y-93008561D01*
X123891483Y-93034500D01*
X123758517Y-93034500D01*
X123628112Y-93008561D01*
X123505267Y-92957677D01*
X123394710Y-92883805D01*
X123300695Y-92789790D01*
X123226823Y-92679233D01*
X123175939Y-92556388D01*
X123150000Y-92425983D01*
X123150000Y-92293017D01*
X123175939Y-92162612D01*
X123226823Y-92039767D01*
X123300695Y-91929210D01*
X123394710Y-91835195D01*
X123505267Y-91761323D01*
X123628112Y-91710439D01*
X123758517Y-91684500D01*
X123891483Y-91684500D01*
X124021888Y-91710439D01*
X124021888Y-91710439D01*
G37*
G36*
X97859000Y-92908500D02*
X96959000Y-92908500D01*
X96959000Y-91708500D01*
X97859000Y-91708500D01*
X97859000Y-92908500D01*
X97859000Y-92908500D01*
G37*
G36*
X91405000Y-91666000D02*
X89505000Y-91666000D01*
X89505000Y-90166000D01*
X91405000Y-90166000D01*
X91405000Y-91666000D01*
X91405000Y-91666000D01*
G37*
G36*
X93830000Y-91416000D02*
X92480000Y-91416000D01*
X92480000Y-88416000D01*
X93830000Y-88416000D01*
X93830000Y-91416000D01*
X93830000Y-91416000D01*
G37*
G36*
X126021888Y-89710439D02*
X126144733Y-89761323D01*
X126255290Y-89835195D01*
X126349305Y-89929210D01*
X126423177Y-90039767D01*
X126474061Y-90162612D01*
X126500000Y-90293017D01*
X126500000Y-90425983D01*
X126474061Y-90556388D01*
X126423177Y-90679233D01*
X126349305Y-90789790D01*
X126255290Y-90883805D01*
X126144733Y-90957677D01*
X126021888Y-91008561D01*
X125891483Y-91034500D01*
X125758517Y-91034500D01*
X125628112Y-91008561D01*
X125505267Y-90957677D01*
X125394710Y-90883805D01*
X125300695Y-90789790D01*
X125226823Y-90679233D01*
X125175939Y-90556388D01*
X125150000Y-90425983D01*
X125150000Y-90293017D01*
X125175939Y-90162612D01*
X125226823Y-90039767D01*
X125300695Y-89929210D01*
X125394710Y-89835195D01*
X125505267Y-89761323D01*
X125628112Y-89710439D01*
X125758517Y-89684500D01*
X125891483Y-89684500D01*
X126021888Y-89710439D01*
X126021888Y-89710439D01*
G37*
G36*
X124021888Y-89710439D02*
X124144733Y-89761323D01*
X124255290Y-89835195D01*
X124349305Y-89929210D01*
X124423177Y-90039767D01*
X124474061Y-90162612D01*
X124500000Y-90293017D01*
X124500000Y-90425983D01*
X124474061Y-90556388D01*
X124423177Y-90679233D01*
X124349305Y-90789790D01*
X124255290Y-90883805D01*
X124144733Y-90957677D01*
X124021888Y-91008561D01*
X123891483Y-91034500D01*
X123758517Y-91034500D01*
X123628112Y-91008561D01*
X123505267Y-90957677D01*
X123394710Y-90883805D01*
X123300695Y-90789790D01*
X123226823Y-90679233D01*
X123175939Y-90556388D01*
X123150000Y-90425983D01*
X123150000Y-90293017D01*
X123175939Y-90162612D01*
X123226823Y-90039767D01*
X123300695Y-89929210D01*
X123394710Y-89835195D01*
X123505267Y-89761323D01*
X123628112Y-89710439D01*
X123758517Y-89684500D01*
X123891483Y-89684500D01*
X124021888Y-89710439D01*
X124021888Y-89710439D01*
G37*
G36*
X115914000Y-90744500D02*
X108114000Y-90744500D01*
X108114000Y-89244500D01*
X115914000Y-89244500D01*
X115914000Y-90744500D01*
X115914000Y-90744500D01*
G37*
G36*
X97897500Y-89960000D02*
X97047500Y-89960000D01*
X97047500Y-89110000D01*
X97897500Y-89110000D01*
X97897500Y-89960000D01*
X97897500Y-89960000D01*
G37*
G36*
X91405000Y-89666000D02*
X89505000Y-89666000D01*
X89505000Y-88166000D01*
X91405000Y-88166000D01*
X91405000Y-89666000D01*
X91405000Y-89666000D01*
G37*
G36*
X95954000Y-89076000D02*
X95054000Y-89076000D01*
X95054000Y-87876000D01*
X95954000Y-87876000D01*
X95954000Y-89076000D01*
X95954000Y-89076000D01*
G37*
G36*
X126021888Y-87710439D02*
X126144733Y-87761323D01*
X126255290Y-87835195D01*
X126349305Y-87929210D01*
X126423177Y-88039767D01*
X126474061Y-88162612D01*
X126500000Y-88293017D01*
X126500000Y-88425983D01*
X126474061Y-88556388D01*
X126423177Y-88679233D01*
X126349305Y-88789790D01*
X126255290Y-88883805D01*
X126144733Y-88957677D01*
X126021888Y-89008561D01*
X125891483Y-89034500D01*
X125758517Y-89034500D01*
X125628112Y-89008561D01*
X125505267Y-88957677D01*
X125394710Y-88883805D01*
X125300695Y-88789790D01*
X125226823Y-88679233D01*
X125175939Y-88556388D01*
X125150000Y-88425983D01*
X125150000Y-88293017D01*
X125175939Y-88162612D01*
X125226823Y-88039767D01*
X125300695Y-87929210D01*
X125394710Y-87835195D01*
X125505267Y-87761323D01*
X125628112Y-87710439D01*
X125758517Y-87684500D01*
X125891483Y-87684500D01*
X126021888Y-87710439D01*
X126021888Y-87710439D01*
G37*
G36*
X124021888Y-87710439D02*
X124144733Y-87761323D01*
X124255290Y-87835195D01*
X124349305Y-87929210D01*
X124423177Y-88039767D01*
X124474061Y-88162612D01*
X124500000Y-88293017D01*
X124500000Y-88425983D01*
X124474061Y-88556388D01*
X124423177Y-88679233D01*
X124349305Y-88789790D01*
X124255290Y-88883805D01*
X124144733Y-88957677D01*
X124021888Y-89008561D01*
X123891483Y-89034500D01*
X123758517Y-89034500D01*
X123628112Y-89008561D01*
X123505267Y-88957677D01*
X123394710Y-88883805D01*
X123300695Y-88789790D01*
X123226823Y-88679233D01*
X123175939Y-88556388D01*
X123150000Y-88425983D01*
X123150000Y-88293017D01*
X123175939Y-88162612D01*
X123226823Y-88039767D01*
X123300695Y-87929210D01*
X123394710Y-87835195D01*
X123505267Y-87761323D01*
X123628112Y-87710439D01*
X123758517Y-87684500D01*
X123891483Y-87684500D01*
X124021888Y-87710439D01*
X124021888Y-87710439D01*
G37*
G36*
X93282434Y-86702144D02*
X93366475Y-86718861D01*
X93498416Y-86773513D01*
X93522776Y-86789790D01*
X93617164Y-86852858D01*
X93718142Y-86953836D01*
X93718144Y-86953839D01*
X93797487Y-87072584D01*
X93852139Y-87204525D01*
X93880000Y-87344594D01*
X93880000Y-87487406D01*
X93852139Y-87627475D01*
X93797487Y-87759416D01*
X93746854Y-87835193D01*
X93718142Y-87878164D01*
X93617164Y-87979142D01*
X93617161Y-87979144D01*
X93498416Y-88058487D01*
X93366475Y-88113139D01*
X93282434Y-88129856D01*
X93226408Y-88141000D01*
X93083592Y-88141000D01*
X93027566Y-88129856D01*
X92943525Y-88113139D01*
X92811584Y-88058487D01*
X92692839Y-87979144D01*
X92692836Y-87979142D01*
X92591858Y-87878164D01*
X92563146Y-87835193D01*
X92512513Y-87759416D01*
X92457861Y-87627475D01*
X92430000Y-87487406D01*
X92430000Y-87344594D01*
X92457861Y-87204525D01*
X92512513Y-87072584D01*
X92591856Y-86953839D01*
X92591858Y-86953836D01*
X92692836Y-86852858D01*
X92787224Y-86789790D01*
X92811584Y-86773513D01*
X92943525Y-86718861D01*
X93027566Y-86702144D01*
X93083592Y-86691000D01*
X93226408Y-86691000D01*
X93282434Y-86702144D01*
X93282434Y-86702144D01*
G37*
G36*
X105964000Y-87866500D02*
X104414000Y-87866500D01*
X104414000Y-87266500D01*
X105964000Y-87266500D01*
X105964000Y-87866500D01*
X105964000Y-87866500D01*
G37*
G36*
X100564000Y-87866500D02*
X99014000Y-87866500D01*
X99014000Y-87266500D01*
X100564000Y-87266500D01*
X100564000Y-87866500D01*
X100564000Y-87866500D01*
G37*
G36*
X90922621Y-85824682D02*
X91035721Y-85858990D01*
X91139955Y-85914704D01*
X91231317Y-85989683D01*
X91306296Y-86081045D01*
X91362010Y-86185279D01*
X91396318Y-86298379D01*
X91396318Y-86298381D01*
X91396798Y-86303255D01*
X91401579Y-86327288D01*
X91405000Y-86335546D01*
X91405000Y-86380393D01*
X91405601Y-86392632D01*
X91407903Y-86416000D01*
X91405601Y-86439368D01*
X91405000Y-86451607D01*
X91405000Y-87616000D01*
X89505000Y-87616000D01*
X89505000Y-86451607D01*
X89504399Y-86439368D01*
X89502097Y-86416000D01*
X89504399Y-86392632D01*
X89505000Y-86380393D01*
X89505000Y-86335997D01*
X89513202Y-86303255D01*
X89513682Y-86298381D01*
X89513682Y-86298379D01*
X89547990Y-86185279D01*
X89603704Y-86081045D01*
X89678683Y-85989683D01*
X89770045Y-85914704D01*
X89874279Y-85858990D01*
X89987379Y-85824682D01*
X90075526Y-85816000D01*
X90834474Y-85816000D01*
X90922621Y-85824682D01*
X90922621Y-85824682D01*
G37*
G36*
X126021888Y-85710439D02*
X126144733Y-85761323D01*
X126255290Y-85835195D01*
X126349305Y-85929210D01*
X126423177Y-86039767D01*
X126474061Y-86162612D01*
X126500000Y-86293017D01*
X126500000Y-86425983D01*
X126474061Y-86556388D01*
X126423177Y-86679233D01*
X126349305Y-86789790D01*
X126255290Y-86883805D01*
X126144733Y-86957677D01*
X126021888Y-87008561D01*
X125891483Y-87034500D01*
X125758517Y-87034500D01*
X125628112Y-87008561D01*
X125505267Y-86957677D01*
X125394710Y-86883805D01*
X125300695Y-86789790D01*
X125226823Y-86679233D01*
X125175939Y-86556388D01*
X125150000Y-86425983D01*
X125150000Y-86293017D01*
X125175939Y-86162612D01*
X125226823Y-86039767D01*
X125300695Y-85929210D01*
X125394710Y-85835195D01*
X125505267Y-85761323D01*
X125628112Y-85710439D01*
X125758517Y-85684500D01*
X125891483Y-85684500D01*
X126021888Y-85710439D01*
X126021888Y-85710439D01*
G37*
G36*
X124021888Y-85710439D02*
X124144733Y-85761323D01*
X124255290Y-85835195D01*
X124349305Y-85929210D01*
X124423177Y-86039767D01*
X124474061Y-86162612D01*
X124500000Y-86293017D01*
X124500000Y-86425983D01*
X124474061Y-86556388D01*
X124423177Y-86679233D01*
X124349305Y-86789790D01*
X124255290Y-86883805D01*
X124144733Y-86957677D01*
X124021888Y-87008561D01*
X123891483Y-87034500D01*
X123758517Y-87034500D01*
X123628112Y-87008561D01*
X123505267Y-86957677D01*
X123394710Y-86883805D01*
X123300695Y-86789790D01*
X123226823Y-86679233D01*
X123175939Y-86556388D01*
X123150000Y-86425983D01*
X123150000Y-86293017D01*
X123175939Y-86162612D01*
X123226823Y-86039767D01*
X123300695Y-85929210D01*
X123394710Y-85835195D01*
X123505267Y-85761323D01*
X123628112Y-85710439D01*
X123758517Y-85684500D01*
X123891483Y-85684500D01*
X124021888Y-85710439D01*
X124021888Y-85710439D01*
G37*
G36*
X95954000Y-86876000D02*
X95054000Y-86876000D01*
X95054000Y-85676000D01*
X95954000Y-85676000D01*
X95954000Y-86876000D01*
X95954000Y-86876000D01*
G37*
G36*
X100564000Y-86596500D02*
X99014000Y-86596500D01*
X99014000Y-85996500D01*
X100564000Y-85996500D01*
X100564000Y-86596500D01*
X100564000Y-86596500D01*
G37*
G36*
X105964000Y-86596500D02*
X104414000Y-86596500D01*
X104414000Y-85996500D01*
X105964000Y-85996500D01*
X105964000Y-86596500D01*
X105964000Y-86596500D01*
G37*
G36*
X105964000Y-85326500D02*
X104414000Y-85326500D01*
X104414000Y-84726500D01*
X105964000Y-84726500D01*
X105964000Y-85326500D01*
X105964000Y-85326500D01*
G37*
G36*
X100564000Y-85326500D02*
X99014000Y-85326500D01*
X99014000Y-84726500D01*
X100564000Y-84726500D01*
X100564000Y-85326500D01*
X100564000Y-85326500D01*
G37*
G36*
X124021888Y-83710439D02*
X124144733Y-83761323D01*
X124255290Y-83835195D01*
X124349305Y-83929210D01*
X124423177Y-84039767D01*
X124474061Y-84162612D01*
X124500000Y-84293017D01*
X124500000Y-84425983D01*
X124474061Y-84556388D01*
X124423177Y-84679233D01*
X124349305Y-84789790D01*
X124255290Y-84883805D01*
X124144733Y-84957677D01*
X124021888Y-85008561D01*
X123891483Y-85034500D01*
X123758517Y-85034500D01*
X123628112Y-85008561D01*
X123505267Y-84957677D01*
X123394710Y-84883805D01*
X123300695Y-84789790D01*
X123226823Y-84679233D01*
X123175939Y-84556388D01*
X123150000Y-84425983D01*
X123150000Y-84293017D01*
X123175939Y-84162612D01*
X123226823Y-84039767D01*
X123300695Y-83929210D01*
X123394710Y-83835195D01*
X123505267Y-83761323D01*
X123628112Y-83710439D01*
X123758517Y-83684500D01*
X123891483Y-83684500D01*
X124021888Y-83710439D01*
X124021888Y-83710439D01*
G37*
G36*
X126021888Y-83710439D02*
X126144733Y-83761323D01*
X126255290Y-83835195D01*
X126349305Y-83929210D01*
X126423177Y-84039767D01*
X126474061Y-84162612D01*
X126500000Y-84293017D01*
X126500000Y-84425983D01*
X126474061Y-84556388D01*
X126423177Y-84679233D01*
X126349305Y-84789790D01*
X126255290Y-84883805D01*
X126144733Y-84957677D01*
X126021888Y-85008561D01*
X125891483Y-85034500D01*
X125758517Y-85034500D01*
X125628112Y-85008561D01*
X125505267Y-84957677D01*
X125394710Y-84883805D01*
X125300695Y-84789790D01*
X125226823Y-84679233D01*
X125175939Y-84556388D01*
X125150000Y-84425983D01*
X125150000Y-84293017D01*
X125175939Y-84162612D01*
X125226823Y-84039767D01*
X125300695Y-83929210D01*
X125394710Y-83835195D01*
X125505267Y-83761323D01*
X125628112Y-83710439D01*
X125758517Y-83684500D01*
X125891483Y-83684500D01*
X126021888Y-83710439D01*
X126021888Y-83710439D01*
G37*
G36*
X115283500Y-84893500D02*
X114083500Y-84893500D01*
X114083500Y-84143500D01*
X115283500Y-84143500D01*
X115283500Y-84893500D01*
X115283500Y-84893500D01*
G37*
G36*
X117183500Y-84893500D02*
X115983500Y-84893500D01*
X115983500Y-84143500D01*
X117183500Y-84143500D01*
X117183500Y-84893500D01*
X117183500Y-84893500D01*
G37*
G36*
X86247000Y-84641500D02*
X82947000Y-84641500D01*
X82947000Y-82641500D01*
X86247000Y-82641500D01*
X86247000Y-84641500D01*
X86247000Y-84641500D01*
G37*
G36*
X105964000Y-84056500D02*
X104414000Y-84056500D01*
X104414000Y-83456500D01*
X105964000Y-83456500D01*
X105964000Y-84056500D01*
X105964000Y-84056500D01*
G37*
G36*
X100564000Y-84056500D02*
X99014000Y-84056500D01*
X99014000Y-83456500D01*
X100564000Y-83456500D01*
X100564000Y-84056500D01*
X100564000Y-84056500D01*
G37*
G36*
X124500000Y-83034500D02*
X123150000Y-83034500D01*
X123150000Y-81684500D01*
X124500000Y-81684500D01*
X124500000Y-83034500D01*
X124500000Y-83034500D01*
G37*
G36*
X108654823Y-81694267D02*
X108782061Y-81732864D01*
X108899324Y-81795542D01*
X109002106Y-81879894D01*
X109086458Y-81982676D01*
X109149136Y-82099939D01*
X109187733Y-82227177D01*
X109200766Y-82359500D01*
X109187733Y-82491823D01*
X109149136Y-82619061D01*
X109086458Y-82736324D01*
X109002106Y-82839106D01*
X108899324Y-82923458D01*
X108782061Y-82986136D01*
X108654823Y-83024733D01*
X108555659Y-83034500D01*
X108489341Y-83034500D01*
X108390177Y-83024733D01*
X108262939Y-82986136D01*
X108145676Y-82923458D01*
X108042894Y-82839106D01*
X107958542Y-82736324D01*
X107895864Y-82619061D01*
X107857267Y-82491823D01*
X107844234Y-82359500D01*
X107857267Y-82227177D01*
X107895864Y-82099939D01*
X107958542Y-81982676D01*
X108042894Y-81879894D01*
X108145676Y-81795542D01*
X108262939Y-81732864D01*
X108390177Y-81694267D01*
X108489341Y-81684500D01*
X108555659Y-81684500D01*
X108654823Y-81694267D01*
X108654823Y-81694267D01*
G37*
G36*
X126021888Y-81710439D02*
X126144733Y-81761323D01*
X126255290Y-81835195D01*
X126349305Y-81929210D01*
X126423177Y-82039767D01*
X126474061Y-82162612D01*
X126500000Y-82293017D01*
X126500000Y-82425983D01*
X126474061Y-82556388D01*
X126423177Y-82679233D01*
X126349305Y-82789790D01*
X126255290Y-82883805D01*
X126144733Y-82957677D01*
X126021888Y-83008561D01*
X125891483Y-83034500D01*
X125758517Y-83034500D01*
X125628112Y-83008561D01*
X125505267Y-82957677D01*
X125394710Y-82883805D01*
X125300695Y-82789790D01*
X125226823Y-82679233D01*
X125175939Y-82556388D01*
X125150000Y-82425983D01*
X125150000Y-82293017D01*
X125175939Y-82162612D01*
X125226823Y-82039767D01*
X125300695Y-81929210D01*
X125394710Y-81835195D01*
X125505267Y-81761323D01*
X125628112Y-81710439D01*
X125758517Y-81684500D01*
X125891483Y-81684500D01*
X126021888Y-81710439D01*
X126021888Y-81710439D01*
G37*
G36*
X117197500Y-83034500D02*
X115847500Y-83034500D01*
X115847500Y-81684500D01*
X117197500Y-81684500D01*
X117197500Y-83034500D01*
X117197500Y-83034500D01*
G37*
G36*
X112654823Y-81694267D02*
X112782061Y-81732864D01*
X112899324Y-81795542D01*
X113002106Y-81879894D01*
X113086458Y-81982676D01*
X113149136Y-82099939D01*
X113187733Y-82227177D01*
X113200766Y-82359500D01*
X113187733Y-82491823D01*
X113149136Y-82619061D01*
X113086458Y-82736324D01*
X113002106Y-82839106D01*
X112899324Y-82923458D01*
X112782061Y-82986136D01*
X112654823Y-83024733D01*
X112555659Y-83034500D01*
X112489341Y-83034500D01*
X112390177Y-83024733D01*
X112262939Y-82986136D01*
X112145676Y-82923458D01*
X112042894Y-82839106D01*
X111958542Y-82736324D01*
X111895864Y-82619061D01*
X111857267Y-82491823D01*
X111844234Y-82359500D01*
X111857267Y-82227177D01*
X111895864Y-82099939D01*
X111958542Y-81982676D01*
X112042894Y-81879894D01*
X112145676Y-81795542D01*
X112262939Y-81732864D01*
X112390177Y-81694267D01*
X112489341Y-81684500D01*
X112555659Y-81684500D01*
X112654823Y-81694267D01*
X112654823Y-81694267D01*
G37*
G36*
X110654823Y-81694267D02*
X110782061Y-81732864D01*
X110899324Y-81795542D01*
X111002106Y-81879894D01*
X111086458Y-81982676D01*
X111149136Y-82099939D01*
X111187733Y-82227177D01*
X111200766Y-82359500D01*
X111187733Y-82491823D01*
X111149136Y-82619061D01*
X111086458Y-82736324D01*
X111002106Y-82839106D01*
X110899324Y-82923458D01*
X110782061Y-82986136D01*
X110654823Y-83024733D01*
X110555659Y-83034500D01*
X110489341Y-83034500D01*
X110390177Y-83024733D01*
X110262939Y-82986136D01*
X110145676Y-82923458D01*
X110042894Y-82839106D01*
X109958542Y-82736324D01*
X109895864Y-82619061D01*
X109857267Y-82491823D01*
X109844234Y-82359500D01*
X109857267Y-82227177D01*
X109895864Y-82099939D01*
X109958542Y-81982676D01*
X110042894Y-81879894D01*
X110145676Y-81795542D01*
X110262939Y-81732864D01*
X110390177Y-81694267D01*
X110489341Y-81684500D01*
X110555659Y-81684500D01*
X110654823Y-81694267D01*
X110654823Y-81694267D01*
G37*
G36*
X114654823Y-81694267D02*
X114782061Y-81732864D01*
X114899324Y-81795542D01*
X115002106Y-81879894D01*
X115086458Y-81982676D01*
X115149136Y-82099939D01*
X115187733Y-82227177D01*
X115200766Y-82359500D01*
X115187733Y-82491823D01*
X115149136Y-82619061D01*
X115086458Y-82736324D01*
X115002106Y-82839106D01*
X114899324Y-82923458D01*
X114782061Y-82986136D01*
X114654823Y-83024733D01*
X114555659Y-83034500D01*
X114489341Y-83034500D01*
X114390177Y-83024733D01*
X114262939Y-82986136D01*
X114145676Y-82923458D01*
X114042894Y-82839106D01*
X113958542Y-82736324D01*
X113895864Y-82619061D01*
X113857267Y-82491823D01*
X113844234Y-82359500D01*
X113857267Y-82227177D01*
X113895864Y-82099939D01*
X113958542Y-81982676D01*
X114042894Y-81879894D01*
X114145676Y-81795542D01*
X114262939Y-81732864D01*
X114390177Y-81694267D01*
X114489341Y-81684500D01*
X114555659Y-81684500D01*
X114654823Y-81694267D01*
X114654823Y-81694267D01*
G37*
G36*
X92890500Y-83026000D02*
X91640500Y-83026000D01*
X91640500Y-81526000D01*
X92890500Y-81526000D01*
X92890500Y-83026000D01*
X92890500Y-83026000D01*
G37*
G36*
X90897000Y-81491500D02*
X88397000Y-81491500D01*
X88397000Y-80591500D01*
X90897000Y-80591500D01*
X90897000Y-81491500D01*
X90897000Y-81491500D01*
G37*
G36*
X96275000Y-80710500D02*
X94275000Y-80710500D01*
X94275000Y-79210500D01*
X96275000Y-79210500D01*
X96275000Y-80710500D01*
X96275000Y-80710500D01*
G37*
G36*
X92890500Y-80526000D02*
X91640500Y-80526000D01*
X91640500Y-79026000D01*
X92890500Y-79026000D01*
X92890500Y-80526000D01*
X92890500Y-80526000D01*
G37*
G36*
X114625500Y-80333000D02*
X113425500Y-80333000D01*
X113425500Y-79433000D01*
X114625500Y-79433000D01*
X114625500Y-80333000D01*
X114625500Y-80333000D01*
G37*
G36*
X116825500Y-80333000D02*
X115625500Y-80333000D01*
X115625500Y-79433000D01*
X116825500Y-79433000D01*
X116825500Y-80333000D01*
X116825500Y-80333000D01*
G37*
G36*
X90897000Y-79991500D02*
X88397000Y-79991500D01*
X88397000Y-79091500D01*
X90897000Y-79091500D01*
X90897000Y-79991500D01*
X90897000Y-79991500D01*
G37*
G36*
X102575000Y-79560500D02*
X100575000Y-79560500D01*
X100575000Y-75760500D01*
X102575000Y-75760500D01*
X102575000Y-79560500D01*
X102575000Y-79560500D01*
G37*
G36*
X124196649Y-77820717D02*
X124235827Y-77824576D01*
X124311227Y-77847448D01*
X124386629Y-77870321D01*
X124525608Y-77944608D01*
X124647422Y-78044578D01*
X124747392Y-78166392D01*
X124821679Y-78305371D01*
X124867424Y-78456174D01*
X124882870Y-78613000D01*
X124867424Y-78769826D01*
X124821679Y-78920629D01*
X124747392Y-79059608D01*
X124647422Y-79181422D01*
X124525608Y-79281392D01*
X124386629Y-79355679D01*
X124342715Y-79369000D01*
X124235827Y-79401424D01*
X124196649Y-79405283D01*
X124118295Y-79413000D01*
X124039705Y-79413000D01*
X123961351Y-79405283D01*
X123922173Y-79401424D01*
X123815285Y-79369000D01*
X123771371Y-79355679D01*
X123632392Y-79281392D01*
X123510578Y-79181422D01*
X123410608Y-79059608D01*
X123336321Y-78920629D01*
X123290576Y-78769826D01*
X123275130Y-78613000D01*
X123290576Y-78456174D01*
X123336321Y-78305371D01*
X123410608Y-78166392D01*
X123510578Y-78044578D01*
X123632392Y-77944608D01*
X123771371Y-77870321D01*
X123846773Y-77847448D01*
X123922173Y-77824576D01*
X123961351Y-77820717D01*
X124039705Y-77813000D01*
X124118295Y-77813000D01*
X124196649Y-77820717D01*
X124196649Y-77820717D01*
G37*
G36*
X126736649Y-77820717D02*
X126775827Y-77824576D01*
X126851227Y-77847448D01*
X126926629Y-77870321D01*
X127065608Y-77944608D01*
X127187422Y-78044578D01*
X127287392Y-78166392D01*
X127361679Y-78305371D01*
X127407424Y-78456174D01*
X127422870Y-78613000D01*
X127407424Y-78769826D01*
X127361679Y-78920629D01*
X127287392Y-79059608D01*
X127187422Y-79181422D01*
X127065608Y-79281392D01*
X126926629Y-79355679D01*
X126882715Y-79369000D01*
X126775827Y-79401424D01*
X126736649Y-79405283D01*
X126658295Y-79413000D01*
X126579705Y-79413000D01*
X126501351Y-79405283D01*
X126462173Y-79401424D01*
X126355285Y-79369000D01*
X126311371Y-79355679D01*
X126172392Y-79281392D01*
X126050578Y-79181422D01*
X125950608Y-79059608D01*
X125876321Y-78920629D01*
X125830576Y-78769826D01*
X125815130Y-78613000D01*
X125830576Y-78456174D01*
X125876321Y-78305371D01*
X125950608Y-78166392D01*
X126050578Y-78044578D01*
X126172392Y-77944608D01*
X126311371Y-77870321D01*
X126386773Y-77847448D01*
X126462173Y-77824576D01*
X126501351Y-77820717D01*
X126579705Y-77813000D01*
X126658295Y-77813000D01*
X126736649Y-77820717D01*
X126736649Y-77820717D01*
G37*
G36*
X111786000Y-79369000D02*
X110586000Y-79369000D01*
X110586000Y-78619000D01*
X111786000Y-78619000D01*
X111786000Y-79369000D01*
X111786000Y-79369000D01*
G37*
G36*
X109886000Y-79369000D02*
X108686000Y-79369000D01*
X108686000Y-78619000D01*
X109886000Y-78619000D01*
X109886000Y-79369000D01*
X109886000Y-79369000D01*
G37*
G36*
X117905000Y-78809000D02*
X116705000Y-78809000D01*
X116705000Y-77909000D01*
X117905000Y-77909000D01*
X117905000Y-78809000D01*
X117905000Y-78809000D01*
G37*
G36*
X115705000Y-78809000D02*
X114505000Y-78809000D01*
X114505000Y-77909000D01*
X115705000Y-77909000D01*
X115705000Y-78809000D01*
X115705000Y-78809000D01*
G37*
G36*
X90897000Y-78491500D02*
X88397000Y-78491500D01*
X88397000Y-77591500D01*
X90897000Y-77591500D01*
X90897000Y-78491500D01*
X90897000Y-78491500D01*
G37*
G36*
X96275000Y-78410500D02*
X94275000Y-78410500D01*
X94275000Y-76910500D01*
X96275000Y-76910500D01*
X96275000Y-78410500D01*
X96275000Y-78410500D01*
G37*
G36*
X92890500Y-77692000D02*
X91640500Y-77692000D01*
X91640500Y-76192000D01*
X92890500Y-76192000D01*
X92890500Y-77692000D01*
X92890500Y-77692000D01*
G37*
G36*
X90897000Y-76991500D02*
X88397000Y-76991500D01*
X88397000Y-76091500D01*
X90897000Y-76091500D01*
X90897000Y-76991500D01*
X90897000Y-76991500D01*
G37*
G36*
X96275000Y-76110500D02*
X94275000Y-76110500D01*
X94275000Y-74610500D01*
X96275000Y-74610500D01*
X96275000Y-76110500D01*
X96275000Y-76110500D01*
G37*
G36*
X90897000Y-75491500D02*
X88397000Y-75491500D01*
X88397000Y-74591500D01*
X90897000Y-74591500D01*
X90897000Y-75491500D01*
X90897000Y-75491500D01*
G37*
G36*
X92890500Y-75192000D02*
X91640500Y-75192000D01*
X91640500Y-73692000D01*
X92890500Y-73692000D01*
X92890500Y-75192000D01*
X92890500Y-75192000D01*
G37*
G36*
X86247000Y-73441500D02*
X82947000Y-73441500D01*
X82947000Y-71441500D01*
X86247000Y-71441500D01*
X86247000Y-73441500D01*
X86247000Y-73441500D01*
G37*
G36*
X96608000Y-72478000D02*
X94908000Y-72478000D01*
X94908000Y-70778000D01*
X96608000Y-70778000D01*
X96608000Y-72478000D01*
X96608000Y-72478000D01*
G37*
G36*
X98464630Y-70790299D02*
X98624855Y-70838903D01*
X98772520Y-70917831D01*
X98901949Y-71024051D01*
X99008169Y-71153480D01*
X99087097Y-71301145D01*
X99135701Y-71461370D01*
X99152112Y-71628000D01*
X99135701Y-71794630D01*
X99087097Y-71954855D01*
X99008169Y-72102520D01*
X98901949Y-72231949D01*
X98772520Y-72338169D01*
X98624855Y-72417097D01*
X98464630Y-72465701D01*
X98339752Y-72478000D01*
X98256248Y-72478000D01*
X98131370Y-72465701D01*
X97971145Y-72417097D01*
X97823480Y-72338169D01*
X97694051Y-72231949D01*
X97587831Y-72102520D01*
X97508903Y-71954855D01*
X97460299Y-71794630D01*
X97443888Y-71628000D01*
X97460299Y-71461370D01*
X97508903Y-71301145D01*
X97587831Y-71153480D01*
X97694051Y-71024051D01*
X97823480Y-70917831D01*
X97971145Y-70838903D01*
X98131370Y-70790299D01*
X98256248Y-70778000D01*
X98339752Y-70778000D01*
X98464630Y-70790299D01*
X98464630Y-70790299D01*
G37*
G36*
X101004630Y-70790299D02*
X101164855Y-70838903D01*
X101312520Y-70917831D01*
X101441949Y-71024051D01*
X101548169Y-71153480D01*
X101627097Y-71301145D01*
X101675701Y-71461370D01*
X101692112Y-71628000D01*
X101675701Y-71794630D01*
X101627097Y-71954855D01*
X101548169Y-72102520D01*
X101441949Y-72231949D01*
X101312520Y-72338169D01*
X101164855Y-72417097D01*
X101004630Y-72465701D01*
X100879752Y-72478000D01*
X100796248Y-72478000D01*
X100671370Y-72465701D01*
X100511145Y-72417097D01*
X100363480Y-72338169D01*
X100234051Y-72231949D01*
X100127831Y-72102520D01*
X100048903Y-71954855D01*
X100000299Y-71794630D01*
X99983888Y-71628000D01*
X100000299Y-71461370D01*
X100048903Y-71301145D01*
X100127831Y-71153480D01*
X100234051Y-71024051D01*
X100363480Y-70917831D01*
X100511145Y-70838903D01*
X100671370Y-70790299D01*
X100796248Y-70778000D01*
X100879752Y-70778000D01*
X101004630Y-70790299D01*
X101004630Y-70790299D01*
G37*
G36*
X124196649Y-70200717D02*
X124235827Y-70204576D01*
X124311228Y-70227449D01*
X124386629Y-70250321D01*
X124525608Y-70324608D01*
X124647422Y-70424578D01*
X124747392Y-70546392D01*
X124821679Y-70685371D01*
X124821679Y-70685372D01*
X124867424Y-70836173D01*
X124882870Y-70993000D01*
X124867424Y-71149827D01*
X124844551Y-71225228D01*
X124821679Y-71300629D01*
X124747392Y-71439608D01*
X124647422Y-71561422D01*
X124525608Y-71661392D01*
X124386629Y-71735679D01*
X124311228Y-71758551D01*
X124235827Y-71781424D01*
X124196649Y-71785283D01*
X124118295Y-71793000D01*
X124039705Y-71793000D01*
X123961351Y-71785283D01*
X123922173Y-71781424D01*
X123846772Y-71758551D01*
X123771371Y-71735679D01*
X123632392Y-71661392D01*
X123510578Y-71561422D01*
X123410608Y-71439608D01*
X123336321Y-71300629D01*
X123313449Y-71225228D01*
X123290576Y-71149827D01*
X123275130Y-70993000D01*
X123290576Y-70836173D01*
X123336321Y-70685372D01*
X123336321Y-70685371D01*
X123410608Y-70546392D01*
X123510578Y-70424578D01*
X123632392Y-70324608D01*
X123771371Y-70250321D01*
X123846772Y-70227449D01*
X123922173Y-70204576D01*
X123961351Y-70200717D01*
X124039705Y-70193000D01*
X124118295Y-70193000D01*
X124196649Y-70200717D01*
X124196649Y-70200717D01*
G37*
G36*
X127419000Y-71793000D02*
X125819000Y-71793000D01*
X125819000Y-70193000D01*
X127419000Y-70193000D01*
X127419000Y-71793000D01*
X127419000Y-71793000D01*
G37*
M02*
