G04 #@! TF.GenerationSoftware,KiCad,Pcbnew,(5.0.2)-1*
G04 #@! TF.CreationDate,2020-07-22T07:53:00+02:00*
G04 #@! TF.ProjectId,32mz_gauge_main_v31,33326d7a-5f67-4617-9567-655f6d61696e,rev?*
G04 #@! TF.SameCoordinates,Original*
G04 #@! TF.FileFunction,Copper,L1,Top*
G04 #@! TF.FilePolarity,Positive*
%FSLAX46Y46*%
G04 Gerber Fmt 4.6, Leading zero omitted, Abs format (unit mm)*
G04 Created by KiCad (PCBNEW (5.0.2)-1) date 7/22/2020 07:53:00*
%MOMM*%
%LPD*%
G01*
G04 APERTURE LIST*
G04 #@! TA.AperFunction,SMDPad,CuDef*
%ADD10R,1.900000X1.200000*%
G04 #@! TD*
G04 #@! TA.AperFunction,ComponentPad*
%ADD11O,1.900000X1.200000*%
G04 #@! TD*
G04 #@! TA.AperFunction,SMDPad,CuDef*
%ADD12R,1.900000X1.500000*%
G04 #@! TD*
G04 #@! TA.AperFunction,ComponentPad*
%ADD13C,1.450000*%
G04 #@! TD*
G04 #@! TA.AperFunction,SMDPad,CuDef*
%ADD14R,1.350000X0.400000*%
G04 #@! TD*
G04 #@! TA.AperFunction,SMDPad,CuDef*
%ADD15R,1.500000X0.300000*%
G04 #@! TD*
G04 #@! TA.AperFunction,SMDPad,CuDef*
%ADD16R,0.300000X1.500000*%
G04 #@! TD*
G04 #@! TA.AperFunction,SMDPad,CuDef*
%ADD17R,1.250000X1.500000*%
G04 #@! TD*
G04 #@! TA.AperFunction,SMDPad,CuDef*
%ADD18R,1.200000X0.750000*%
G04 #@! TD*
G04 #@! TA.AperFunction,SMDPad,CuDef*
%ADD19R,0.500000X0.850000*%
G04 #@! TD*
G04 #@! TA.AperFunction,ComponentPad*
%ADD20O,1.350000X1.350000*%
G04 #@! TD*
G04 #@! TA.AperFunction,ComponentPad*
%ADD21R,1.350000X1.350000*%
G04 #@! TD*
G04 #@! TA.AperFunction,ComponentPad*
%ADD22C,1.350000*%
G04 #@! TD*
G04 #@! TA.AperFunction,SMDPad,CuDef*
%ADD23R,3.300000X2.000000*%
G04 #@! TD*
G04 #@! TA.AperFunction,SMDPad,CuDef*
%ADD24R,2.500000X0.900000*%
G04 #@! TD*
G04 #@! TA.AperFunction,ComponentPad*
%ADD25O,1.700000X1.700000*%
G04 #@! TD*
G04 #@! TA.AperFunction,ComponentPad*
%ADD26R,1.700000X1.700000*%
G04 #@! TD*
G04 #@! TA.AperFunction,ComponentPad*
%ADD27R,0.850000X0.850000*%
G04 #@! TD*
G04 #@! TA.AperFunction,SMDPad,CuDef*
%ADD28R,2.000000X1.500000*%
G04 #@! TD*
G04 #@! TA.AperFunction,SMDPad,CuDef*
%ADD29R,2.000000X3.800000*%
G04 #@! TD*
G04 #@! TA.AperFunction,SMDPad,CuDef*
%ADD30R,1.540000X1.800000*%
G04 #@! TD*
G04 #@! TA.AperFunction,SMDPad,CuDef*
%ADD31R,1.550000X0.600000*%
G04 #@! TD*
G04 #@! TA.AperFunction,ComponentPad*
%ADD32O,1.600000X1.600000*%
G04 #@! TD*
G04 #@! TA.AperFunction,ComponentPad*
%ADD33R,1.600000X1.600000*%
G04 #@! TD*
G04 #@! TA.AperFunction,ComponentPad*
%ADD34C,1.000000*%
G04 #@! TD*
G04 #@! TA.AperFunction,SMDPad,CuDef*
%ADD35R,0.900000X1.200000*%
G04 #@! TD*
G04 #@! TA.AperFunction,SMDPad,CuDef*
%ADD36R,1.200000X0.900000*%
G04 #@! TD*
G04 #@! TA.AperFunction,ComponentPad*
%ADD37R,1.500000X0.900000*%
G04 #@! TD*
G04 #@! TA.AperFunction,ComponentPad*
%ADD38O,1.500000X0.900000*%
G04 #@! TD*
G04 #@! TA.AperFunction,SMDPad,CuDef*
%ADD39R,0.750000X1.200000*%
G04 #@! TD*
G04 #@! TA.AperFunction,ViaPad*
%ADD40C,0.400000*%
G04 #@! TD*
G04 #@! TA.AperFunction,ViaPad*
%ADD41C,0.600000*%
G04 #@! TD*
G04 #@! TA.AperFunction,Conductor*
%ADD42C,1.000000*%
G04 #@! TD*
G04 #@! TA.AperFunction,Conductor*
%ADD43C,0.800000*%
G04 #@! TD*
G04 #@! TA.AperFunction,Conductor*
%ADD44C,0.300000*%
G04 #@! TD*
G04 #@! TA.AperFunction,Conductor*
%ADD45C,0.500000*%
G04 #@! TD*
G04 #@! TA.AperFunction,Conductor*
%ADD46C,0.200000*%
G04 #@! TD*
G04 #@! TA.AperFunction,Conductor*
%ADD47C,0.400000*%
G04 #@! TD*
G04 #@! TA.AperFunction,Conductor*
%ADD48C,0.254000*%
G04 #@! TD*
G04 APERTURE END LIST*
D10*
G04 #@! TO.P,J2,6*
G04 #@! TO.N,Net-(C1-Pad1)*
X90455000Y-87016000D03*
X90455000Y-92816000D03*
D11*
X90455000Y-93416000D03*
X90455000Y-86416000D03*
D12*
X90455000Y-88916000D03*
D13*
X93155000Y-92416000D03*
D14*
G04 #@! TO.P,J2,3*
G04 #@! TO.N,Net-(J2-Pad3)*
X93155000Y-89916000D03*
G04 #@! TO.P,J2,4*
G04 #@! TO.N,Net-(J2-Pad4)*
X93155000Y-90566000D03*
G04 #@! TO.P,J2,5*
G04 #@! TO.N,Net-(C1-Pad1)*
X93155000Y-91216000D03*
G04 #@! TO.P,J2,1*
G04 #@! TO.N,Net-(C1-Pad2)*
X93155000Y-88616000D03*
G04 #@! TO.P,J2,2*
G04 #@! TO.N,Net-(J2-Pad2)*
X93155000Y-89266000D03*
D13*
G04 #@! TO.P,J2,6*
G04 #@! TO.N,Net-(C1-Pad1)*
X93155000Y-87416000D03*
D12*
X90455000Y-90916000D03*
G04 #@! TD*
D15*
G04 #@! TO.P,U3,64*
G04 #@! TO.N,Net-(J3-Pad6)*
X117714000Y-91944500D03*
G04 #@! TO.P,U3,63*
G04 #@! TO.N,Net-(J3-Pad20)*
X117714000Y-92444500D03*
G04 #@! TO.P,U3,62*
G04 #@! TO.N,Net-(J3-Pad5)*
X117714000Y-92944500D03*
G04 #@! TO.P,U3,61*
G04 #@! TO.N,Net-(J3-Pad21)*
X117714000Y-93444500D03*
G04 #@! TO.P,U3,60*
G04 #@! TO.N,Net-(C10-Pad2)*
X117714000Y-93944500D03*
G04 #@! TO.P,U3,59*
G04 #@! TO.N,Net-(C1-Pad1)*
X117714000Y-94444500D03*
G04 #@! TO.P,U3,58*
G04 #@! TO.N,Net-(J3-Pad4)*
X117714000Y-94944500D03*
G04 #@! TO.P,U3,57*
G04 #@! TO.N,Net-(J3-Pad2)*
X117714000Y-95444500D03*
G04 #@! TO.P,U3,56*
G04 #@! TO.N,Net-(J3-Pad24)*
X117714000Y-95944500D03*
G04 #@! TO.P,U3,55*
G04 #@! TO.N,Net-(C1-Pad1)*
X117714000Y-96444500D03*
G04 #@! TO.P,U3,54*
G04 #@! TO.N,Net-(C10-Pad2)*
X117714000Y-96944500D03*
G04 #@! TO.P,U3,53*
G04 #@! TO.N,Net-(J3-Pad3)*
X117714000Y-97444500D03*
G04 #@! TO.P,U3,52*
G04 #@! TO.N,Net-(J3-Pad22)*
X117714000Y-97944500D03*
G04 #@! TO.P,U3,51*
G04 #@! TO.N,Net-(U3-Pad51)*
X117714000Y-98444500D03*
G04 #@! TO.P,U3,50*
G04 #@! TO.N,Net-(R7-Pad2)*
X117714000Y-98944500D03*
G04 #@! TO.P,U3,49*
G04 #@! TO.N,Net-(U3-Pad49)*
X117714000Y-99444500D03*
D16*
G04 #@! TO.P,U3,48*
G04 #@! TO.N,Net-(R16-Pad2)*
X115764000Y-101394500D03*
G04 #@! TO.P,U3,47*
G04 #@! TO.N,Net-(C20-Pad2)*
X115264000Y-101394500D03*
G04 #@! TO.P,U3,46*
G04 #@! TO.N,Net-(J3-Pad8)*
X114764000Y-101394500D03*
G04 #@! TO.P,U3,45*
G04 #@! TO.N,Net-(U3-Pad45)*
X114264000Y-101394500D03*
G04 #@! TO.P,U3,44*
G04 #@! TO.N,Net-(J3-Pad9)*
X113764000Y-101394500D03*
G04 #@! TO.P,U3,43*
G04 #@! TO.N,Net-(J3-Pad1)*
X113264000Y-101394500D03*
G04 #@! TO.P,U3,42*
G04 #@! TO.N,Net-(J3-Pad16)*
X112764000Y-101394500D03*
G04 #@! TO.P,U3,41*
G04 #@! TO.N,Net-(J3-Pad17)*
X112264000Y-101394500D03*
G04 #@! TO.P,U3,40*
G04 #@! TO.N,Net-(C1-Pad1)*
X111764000Y-101394500D03*
G04 #@! TO.P,U3,39*
G04 #@! TO.N,Net-(C10-Pad2)*
X111264000Y-101394500D03*
G04 #@! TO.P,U3,38*
G04 #@! TO.N,Net-(J7-Pad2)*
X110764000Y-101394500D03*
G04 #@! TO.P,U3,37*
G04 #@! TO.N,Net-(J2-Pad3)*
X110264000Y-101394500D03*
G04 #@! TO.P,U3,36*
G04 #@! TO.N,Net-(J2-Pad2)*
X109764000Y-101394500D03*
G04 #@! TO.P,U3,35*
G04 #@! TO.N,Net-(C1-Pad1)*
X109264000Y-101394500D03*
G04 #@! TO.P,U3,34*
G04 #@! TO.N,Net-(C10-Pad2)*
X108764000Y-101394500D03*
G04 #@! TO.P,U3,33*
G04 #@! TO.N,Net-(R8-Pad1)*
X108264000Y-101394500D03*
D15*
G04 #@! TO.P,U3,32*
G04 #@! TO.N,Net-(U3-Pad32)*
X106314000Y-99444500D03*
G04 #@! TO.P,U3,31*
G04 #@! TO.N,Net-(U2-Pad3)*
X106314000Y-98944500D03*
G04 #@! TO.P,U3,30*
G04 #@! TO.N,Net-(U3-Pad30)*
X106314000Y-98444500D03*
G04 #@! TO.P,U3,29*
G04 #@! TO.N,Net-(U3-Pad29)*
X106314000Y-97944500D03*
G04 #@! TO.P,U3,28*
G04 #@! TO.N,Net-(J8-Pad2)*
X106314000Y-97444500D03*
G04 #@! TO.P,U3,27*
G04 #@! TO.N,Net-(J8-Pad3)*
X106314000Y-96944500D03*
G04 #@! TO.P,U3,26*
G04 #@! TO.N,Net-(C10-Pad2)*
X106314000Y-96444500D03*
G04 #@! TO.P,U3,25*
G04 #@! TO.N,Net-(C1-Pad1)*
X106314000Y-95944500D03*
G04 #@! TO.P,U3,24*
G04 #@! TO.N,Net-(J8-Pad4)*
X106314000Y-95444500D03*
G04 #@! TO.P,U3,23*
G04 #@! TO.N,Net-(U3-Pad23)*
X106314000Y-94944500D03*
G04 #@! TO.P,U3,22*
G04 #@! TO.N,Net-(U3-Pad22)*
X106314000Y-94444500D03*
G04 #@! TO.P,U3,21*
G04 #@! TO.N,Net-(U3-Pad21)*
X106314000Y-93944500D03*
G04 #@! TO.P,U3,20*
G04 #@! TO.N,Net-(C1-Pad1)*
X106314000Y-93444500D03*
G04 #@! TO.P,U3,19*
G04 #@! TO.N,Net-(C10-Pad2)*
X106314000Y-92944500D03*
G04 #@! TO.P,U3,18*
G04 #@! TO.N,Net-(U3-Pad18)*
X106314000Y-92444500D03*
G04 #@! TO.P,U3,17*
G04 #@! TO.N,Net-(U3-Pad17)*
X106314000Y-91944500D03*
D16*
G04 #@! TO.P,U3,16*
G04 #@! TO.N,Net-(J1-Pad4)*
X108264000Y-89994500D03*
G04 #@! TO.P,U3,15*
G04 #@! TO.N,Net-(J1-Pad5)*
X108764000Y-89994500D03*
G04 #@! TO.P,U3,14*
G04 #@! TO.N,Net-(J7-Pad3)*
X109264000Y-89994500D03*
G04 #@! TO.P,U3,13*
G04 #@! TO.N,Net-(R10-Pad2)*
X109764000Y-89994500D03*
G04 #@! TO.P,U3,12*
G04 #@! TO.N,Net-(C19-Pad1)*
X110264000Y-89994500D03*
G04 #@! TO.P,U3,11*
G04 #@! TO.N,Net-(U3-Pad11)*
X110764000Y-89994500D03*
G04 #@! TO.P,U3,10*
G04 #@! TO.N,Net-(R14-Pad2)*
X111264000Y-89994500D03*
G04 #@! TO.P,U3,9*
G04 #@! TO.N,Net-(J1-Pad1)*
X111764000Y-89994500D03*
G04 #@! TO.P,U3,8*
G04 #@! TO.N,Net-(C10-Pad2)*
X112264000Y-89994500D03*
G04 #@! TO.P,U3,7*
G04 #@! TO.N,Net-(C1-Pad1)*
X112764000Y-89994500D03*
G04 #@! TO.P,U3,6*
G04 #@! TO.N,Net-(R2-Pad1)*
X113264000Y-89994500D03*
G04 #@! TO.P,U3,5*
G04 #@! TO.N,Net-(R3-Pad1)*
X113764000Y-89994500D03*
G04 #@! TO.P,U3,4*
G04 #@! TO.N,Net-(R4-Pad1)*
X114264000Y-89994500D03*
G04 #@! TO.P,U3,3*
G04 #@! TO.N,Net-(J3-Pad18)*
X114764000Y-89994500D03*
G04 #@! TO.P,U3,2*
G04 #@! TO.N,Net-(J3-Pad7)*
X115264000Y-89994500D03*
G04 #@! TO.P,U3,1*
G04 #@! TO.N,Net-(J3-Pad19)*
X115764000Y-89994500D03*
G04 #@! TD*
D17*
G04 #@! TO.P,C1,2*
G04 #@! TO.N,Net-(C1-Pad2)*
X92265500Y-82276000D03*
G04 #@! TO.P,C1,1*
G04 #@! TO.N,Net-(C1-Pad1)*
X92265500Y-79776000D03*
G04 #@! TD*
G04 #@! TO.P,C5,1*
G04 #@! TO.N,Net-(C10-Pad2)*
X92265500Y-76942000D03*
G04 #@! TO.P,C5,2*
G04 #@! TO.N,Net-(C1-Pad1)*
X92265500Y-74442000D03*
G04 #@! TD*
D18*
G04 #@! TO.P,C10,2*
G04 #@! TO.N,Net-(C10-Pad2)*
X111186000Y-78994000D03*
G04 #@! TO.P,C10,1*
G04 #@! TO.N,Net-(C1-Pad1)*
X109286000Y-78994000D03*
G04 #@! TD*
D19*
G04 #@! TO.P,D1,1*
G04 #@! TO.N,Net-(C10-Pad2)*
X118880000Y-113044000D03*
G04 #@! TO.P,D1,2*
G04 #@! TO.N,Net-(D1-Pad2)*
X118880000Y-114794000D03*
G04 #@! TO.P,D1,3*
G04 #@! TO.N,Net-(D1-Pad3)*
X119880000Y-113044000D03*
G04 #@! TO.P,D1,4*
G04 #@! TO.N,Net-(D1-Pad4)*
X119880000Y-114794000D03*
G04 #@! TD*
D20*
G04 #@! TO.P,J1,5*
G04 #@! TO.N,Net-(J1-Pad5)*
X108522500Y-82359500D03*
G04 #@! TO.P,J1,4*
G04 #@! TO.N,Net-(J1-Pad4)*
X110522500Y-82359500D03*
G04 #@! TO.P,J1,3*
G04 #@! TO.N,Net-(C1-Pad1)*
X112522500Y-82359500D03*
G04 #@! TO.P,J1,2*
G04 #@! TO.N,Net-(C10-Pad2)*
X114522500Y-82359500D03*
D21*
G04 #@! TO.P,J1,1*
G04 #@! TO.N,Net-(J1-Pad1)*
X116522500Y-82359500D03*
G04 #@! TD*
D22*
G04 #@! TO.P,J3,24*
G04 #@! TO.N,Net-(J3-Pad24)*
X125825000Y-104359500D03*
G04 #@! TO.P,J3,23*
G04 #@! TO.N,Net-(C1-Pad1)*
X125825000Y-102359500D03*
G04 #@! TO.P,J3,22*
G04 #@! TO.N,Net-(J3-Pad22)*
X125825000Y-100359500D03*
G04 #@! TO.P,J3,21*
G04 #@! TO.N,Net-(J3-Pad21)*
X125825000Y-98359500D03*
G04 #@! TO.P,J3,20*
G04 #@! TO.N,Net-(J3-Pad20)*
X125825000Y-96359500D03*
G04 #@! TO.P,J3,19*
G04 #@! TO.N,Net-(J3-Pad19)*
X125825000Y-94359500D03*
G04 #@! TO.P,J3,18*
G04 #@! TO.N,Net-(J3-Pad18)*
X125825000Y-92359500D03*
G04 #@! TO.P,J3,17*
G04 #@! TO.N,Net-(J3-Pad17)*
X125825000Y-90359500D03*
G04 #@! TO.P,J3,16*
G04 #@! TO.N,Net-(J3-Pad16)*
X125825000Y-88359500D03*
G04 #@! TO.P,J3,15*
G04 #@! TO.N,Net-(C19-Pad1)*
X125825000Y-86359500D03*
G04 #@! TO.P,J3,14*
G04 #@! TO.N,Net-(C10-Pad2)*
X125825000Y-84359500D03*
G04 #@! TO.P,J3,13*
X125825000Y-82359500D03*
G04 #@! TO.P,J3,12*
G04 #@! TO.N,Net-(C1-Pad1)*
X123825000Y-104359500D03*
G04 #@! TO.P,J3,11*
X123825000Y-102359500D03*
G04 #@! TO.P,J3,10*
G04 #@! TO.N,Net-(C1-Pad2)*
X123825000Y-100359500D03*
G04 #@! TO.P,J3,9*
G04 #@! TO.N,Net-(J3-Pad9)*
X123825000Y-98359500D03*
G04 #@! TO.P,J3,8*
G04 #@! TO.N,Net-(J3-Pad8)*
X123825000Y-96359500D03*
G04 #@! TO.P,J3,7*
G04 #@! TO.N,Net-(J3-Pad7)*
X123825000Y-94359500D03*
G04 #@! TO.P,J3,6*
G04 #@! TO.N,Net-(J3-Pad6)*
X123825000Y-92359500D03*
G04 #@! TO.P,J3,5*
G04 #@! TO.N,Net-(J3-Pad5)*
X123825000Y-90359500D03*
G04 #@! TO.P,J3,4*
G04 #@! TO.N,Net-(J3-Pad4)*
X123825000Y-88359500D03*
G04 #@! TO.P,J3,3*
G04 #@! TO.N,Net-(J3-Pad3)*
X123825000Y-86359500D03*
G04 #@! TO.P,J3,2*
G04 #@! TO.N,Net-(J3-Pad2)*
X123825000Y-84359500D03*
D21*
G04 #@! TO.P,J3,1*
G04 #@! TO.N,Net-(J3-Pad1)*
X123825000Y-82359500D03*
G04 #@! TD*
D23*
G04 #@! TO.P,J4,*
G04 #@! TO.N,*
X84597000Y-72441500D03*
X84597000Y-83641500D03*
D24*
G04 #@! TO.P,J4,5*
G04 #@! TO.N,Net-(J4-Pad5)*
X89647000Y-75041500D03*
G04 #@! TO.P,J4,4*
G04 #@! TO.N,Net-(J4-Pad4)*
X89647000Y-76541500D03*
G04 #@! TO.P,J4,3*
G04 #@! TO.N,Net-(J4-Pad3)*
X89647000Y-78041500D03*
G04 #@! TO.P,J4,2*
G04 #@! TO.N,Net-(C1-Pad1)*
X89647000Y-79541500D03*
G04 #@! TO.P,J4,1*
G04 #@! TO.N,Net-(J4-Pad1)*
X89647000Y-81041500D03*
G04 #@! TD*
D25*
G04 #@! TO.P,J5,3*
G04 #@! TO.N,Net-(C1-Pad1)*
X100838000Y-71628000D03*
G04 #@! TO.P,J5,2*
G04 #@! TO.N,Net-(C1-Pad2)*
X98298000Y-71628000D03*
D26*
G04 #@! TO.P,J5,1*
G04 #@! TO.N,Net-(J4-Pad1)*
X95758000Y-71628000D03*
G04 #@! TD*
D27*
G04 #@! TO.P,J6,1*
G04 #@! TO.N,Net-(J6-Pad1)*
X97472500Y-89535000D03*
G04 #@! TD*
D20*
G04 #@! TO.P,LS1,2*
G04 #@! TO.N,Net-(LS1-Pad2)*
X114459000Y-112776000D03*
D21*
G04 #@! TO.P,LS1,1*
G04 #@! TO.N,Net-(C10-Pad2)*
X116459000Y-112776000D03*
G04 #@! TD*
D28*
G04 #@! TO.P,U1,1*
G04 #@! TO.N,Net-(C1-Pad1)*
X95275000Y-75360500D03*
G04 #@! TO.P,U1,3*
G04 #@! TO.N,Net-(C1-Pad2)*
X95275000Y-79960500D03*
G04 #@! TO.P,U1,2*
G04 #@! TO.N,Net-(C10-Pad2)*
X95275000Y-77660500D03*
D29*
G04 #@! TO.P,U1,4*
X101575000Y-77660500D03*
G04 #@! TD*
D30*
G04 #@! TO.P,U2,4*
G04 #@! TO.N,Net-(C10-Pad2)*
X99180500Y-98993500D03*
G04 #@! TO.P,U2,3*
G04 #@! TO.N,Net-(U2-Pad3)*
X101860500Y-98993500D03*
G04 #@! TO.P,U2,2*
G04 #@! TO.N,Net-(C1-Pad1)*
X101860500Y-101793500D03*
G04 #@! TO.P,U2,1*
G04 #@! TO.N,Net-(C10-Pad2)*
X99180500Y-101793500D03*
G04 #@! TD*
D31*
G04 #@! TO.P,U4,8*
G04 #@! TO.N,Net-(R1-Pad1)*
X99789000Y-87566500D03*
G04 #@! TO.P,U4,7*
G04 #@! TO.N,Net-(J4-Pad5)*
X99789000Y-86296500D03*
G04 #@! TO.P,U4,6*
G04 #@! TO.N,Net-(J4-Pad4)*
X99789000Y-85026500D03*
G04 #@! TO.P,U4,5*
G04 #@! TO.N,Net-(J6-Pad1)*
X99789000Y-83756500D03*
G04 #@! TO.P,U4,4*
G04 #@! TO.N,Net-(U3-Pad18)*
X105189000Y-83756500D03*
G04 #@! TO.P,U4,3*
G04 #@! TO.N,Net-(C10-Pad2)*
X105189000Y-85026500D03*
G04 #@! TO.P,U4,2*
G04 #@! TO.N,Net-(C1-Pad1)*
X105189000Y-86296500D03*
G04 #@! TO.P,U4,1*
G04 #@! TO.N,Net-(U3-Pad17)*
X105189000Y-87566500D03*
G04 #@! TD*
D32*
G04 #@! TO.P,U5,4*
G04 #@! TO.N,Net-(R10-Pad2)*
X126619000Y-78613000D03*
G04 #@! TO.P,U5,2*
G04 #@! TO.N,Net-(C1-Pad1)*
X124079000Y-70993000D03*
G04 #@! TO.P,U5,3*
X124079000Y-78613000D03*
D33*
G04 #@! TO.P,U5,1*
G04 #@! TO.N,Net-(R9-Pad2)*
X126619000Y-70993000D03*
G04 #@! TD*
D34*
G04 #@! TO.P,Y1,2*
G04 #@! TO.N,Net-(C16-Pad2)*
X116454000Y-106680000D03*
G04 #@! TO.P,Y1,1*
G04 #@! TO.N,Net-(C20-Pad2)*
X114554000Y-106680000D03*
G04 #@! TD*
D20*
G04 #@! TO.P,J7,4*
G04 #@! TO.N,Net-(C1-Pad1)*
X107950000Y-104998000D03*
G04 #@! TO.P,J7,3*
G04 #@! TO.N,Net-(J7-Pad3)*
X107950000Y-106998000D03*
G04 #@! TO.P,J7,2*
G04 #@! TO.N,Net-(J7-Pad2)*
X107950000Y-108998000D03*
D21*
G04 #@! TO.P,J7,1*
G04 #@! TO.N,Net-(C10-Pad2)*
X107950000Y-110998000D03*
G04 #@! TD*
D23*
G04 #@! TO.P,J8,*
G04 #@! TO.N,*
X84597000Y-96496000D03*
X84597000Y-106196000D03*
D24*
G04 #@! TO.P,J8,4*
G04 #@! TO.N,Net-(J8-Pad4)*
X89647000Y-99096000D03*
G04 #@! TO.P,J8,3*
G04 #@! TO.N,Net-(J8-Pad3)*
X89647000Y-100596000D03*
G04 #@! TO.P,J8,2*
G04 #@! TO.N,Net-(J8-Pad2)*
X89647000Y-102096000D03*
G04 #@! TO.P,J8,1*
G04 #@! TO.N,Net-(C1-Pad1)*
X89647000Y-103596000D03*
G04 #@! TD*
D18*
G04 #@! TO.P,C13,2*
G04 #@! TO.N,Net-(C10-Pad2)*
X97470000Y-109601000D03*
G04 #@! TO.P,C13,1*
G04 #@! TO.N,Net-(C1-Pad1)*
X95570000Y-109601000D03*
G04 #@! TD*
G04 #@! TO.P,C14,1*
G04 #@! TO.N,Net-(C1-Pad1)*
X114683500Y-84518500D03*
G04 #@! TO.P,C14,2*
G04 #@! TO.N,Net-(C14-Pad2)*
X116583500Y-84518500D03*
G04 #@! TD*
D35*
G04 #@! TO.P,R1,2*
G04 #@! TO.N,Net-(C1-Pad1)*
X95504000Y-86276000D03*
G04 #@! TO.P,R1,1*
G04 #@! TO.N,Net-(R1-Pad1)*
X95504000Y-88476000D03*
G04 #@! TD*
D36*
G04 #@! TO.P,R2,1*
G04 #@! TO.N,Net-(R2-Pad1)*
X125496500Y-112204500D03*
G04 #@! TO.P,R2,2*
G04 #@! TO.N,Net-(D1-Pad4)*
X123296500Y-112204500D03*
G04 #@! TD*
G04 #@! TO.P,R3,2*
G04 #@! TO.N,Net-(D1-Pad3)*
X123296500Y-109918500D03*
G04 #@! TO.P,R3,1*
G04 #@! TO.N,Net-(R3-Pad1)*
X125496500Y-109918500D03*
G04 #@! TD*
G04 #@! TO.P,R4,1*
G04 #@! TO.N,Net-(R4-Pad1)*
X125496500Y-114554000D03*
G04 #@! TO.P,R4,2*
G04 #@! TO.N,Net-(D1-Pad2)*
X123296500Y-114554000D03*
G04 #@! TD*
G04 #@! TO.P,R6,1*
G04 #@! TO.N,Net-(J1-Pad1)*
X117305000Y-78359000D03*
G04 #@! TO.P,R6,2*
G04 #@! TO.N,Net-(C14-Pad2)*
X115105000Y-78359000D03*
G04 #@! TD*
D35*
G04 #@! TO.P,R7,2*
G04 #@! TO.N,Net-(R7-Pad2)*
X104267000Y-109597000D03*
G04 #@! TO.P,R7,1*
G04 #@! TO.N,Net-(C10-Pad2)*
X104267000Y-111797000D03*
G04 #@! TD*
G04 #@! TO.P,R8,2*
G04 #@! TO.N,Net-(C1-Pad2)*
X97409000Y-92308500D03*
G04 #@! TO.P,R8,1*
G04 #@! TO.N,Net-(R8-Pad1)*
X97409000Y-94508500D03*
G04 #@! TD*
D36*
G04 #@! TO.P,R15,2*
G04 #@! TO.N,Net-(C10-Pad2)*
X114025500Y-79883000D03*
G04 #@! TO.P,R15,1*
G04 #@! TO.N,Net-(C14-Pad2)*
X116225500Y-79883000D03*
G04 #@! TD*
D37*
G04 #@! TO.P,U7,1*
G04 #@! TO.N,Net-(C1-Pad1)*
X104267000Y-107061000D03*
D38*
G04 #@! TO.P,U7,3*
G04 #@! TO.N,Net-(C10-Pad2)*
X104267000Y-104521000D03*
G04 #@! TO.P,U7,2*
G04 #@! TO.N,Net-(U3-Pad23)*
X104267000Y-105791000D03*
G04 #@! TD*
D39*
G04 #@! TO.P,C16,1*
G04 #@! TO.N,Net-(C1-Pad1)*
X117602000Y-110424000D03*
G04 #@! TO.P,C16,2*
G04 #@! TO.N,Net-(C16-Pad2)*
X117602000Y-108524000D03*
G04 #@! TD*
G04 #@! TO.P,C20,2*
G04 #@! TO.N,Net-(C20-Pad2)*
X113284000Y-108524000D03*
G04 #@! TO.P,C20,1*
G04 #@! TO.N,Net-(C1-Pad1)*
X113284000Y-110424000D03*
G04 #@! TD*
D35*
G04 #@! TO.P,R16,2*
G04 #@! TO.N,Net-(R16-Pad2)*
X117983000Y-103675000D03*
G04 #@! TO.P,R16,1*
G04 #@! TO.N,Net-(C16-Pad2)*
X117983000Y-105875000D03*
G04 #@! TD*
D40*
G04 #@! TO.N,Net-(C1-Pad2)*
X99314000Y-82296000D03*
X91805002Y-88519000D03*
X96392998Y-95123000D03*
X111886992Y-109855000D03*
X93662500Y-80581500D03*
G04 #@! TO.N,Net-(C1-Pad1)*
X95885000Y-73914000D03*
X93218000Y-74739500D03*
X100330000Y-106680000D03*
X94615000Y-107950000D03*
X104394000Y-96139000D03*
X105004385Y-93297220D03*
X116332000Y-95377000D03*
X112903000Y-91440000D03*
X101600000Y-112903000D03*
X114427000Y-99060000D03*
X109601000Y-98383000D03*
X116586000Y-96266500D03*
X118999000Y-111125000D03*
X112649000Y-113918999D03*
X93750000Y-78994000D03*
G04 #@! TO.N,Net-(C10-Pad2)*
X112648992Y-84201000D03*
X97028000Y-78359000D03*
X97853500Y-101854000D03*
X108585000Y-99060000D03*
X103004990Y-85026500D03*
X100965000Y-88646000D03*
X132334000Y-109601000D03*
X100965000Y-93726000D03*
X114554000Y-97917000D03*
X100965000Y-83566000D03*
X107569000Y-91948000D03*
X122301000Y-80137000D03*
G04 #@! TO.N,Net-(J1-Pad1)*
X111696498Y-84835998D03*
G04 #@! TO.N,Net-(J2-Pad3)*
X110363000Y-99568000D03*
X95885000Y-92633450D03*
G04 #@! TO.N,Net-(J2-Pad2)*
X96502589Y-92674736D03*
X109855000Y-100203000D03*
G04 #@! TO.N,Net-(J3-Pad24)*
X121920000Y-98932998D03*
G04 #@! TO.N,Net-(J3-Pad17)*
X112264000Y-105152000D03*
X129413000Y-93218000D03*
G04 #@! TO.N,Net-(J3-Pad16)*
X113214000Y-104775000D03*
X128651000Y-91059000D03*
G04 #@! TO.N,Net-(J3-Pad9)*
X111760000Y-107315000D03*
X113814010Y-102878096D03*
G04 #@! TO.N,Net-(J3-Pad8)*
X114681000Y-103378000D03*
G04 #@! TO.N,Net-(J3-Pad6)*
X116662885Y-92031176D03*
G04 #@! TO.N,Net-(J3-Pad5)*
X116332000Y-92942002D03*
G04 #@! TO.N,Net-(J3-Pad4)*
X119126000Y-94742000D03*
X121285000Y-89408000D03*
G04 #@! TO.N,Net-(J3-Pad3)*
X118999000Y-97109500D03*
G04 #@! TO.N,Net-(J3-Pad2)*
X119320500Y-95444500D03*
G04 #@! TO.N,Net-(J3-Pad1)*
X113411000Y-104013000D03*
G04 #@! TO.N,Net-(J4-Pad5)*
X96837500Y-86055021D03*
X90805000Y-73787000D03*
X90868500Y-83820000D03*
G04 #@! TO.N,Net-(J4-Pad4)*
X94678500Y-84074000D03*
X91440000Y-75755500D03*
G04 #@! TO.N,Net-(J4-Pad3)*
X122364500Y-77216000D03*
X93789500Y-77851000D03*
D41*
G04 #@! TO.N,Net-(J4-Pad1)*
X89647000Y-83868500D03*
D40*
G04 #@! TO.N,Net-(J6-Pad1)*
X96603522Y-84955010D03*
G04 #@! TO.N,Net-(R2-Pad1)*
X127127000Y-113035000D03*
X106934000Y-87503000D03*
X113665000Y-87376000D03*
G04 #@! TO.N,Net-(R3-Pad1)*
X127127000Y-110871000D03*
X113792000Y-88138000D03*
X106934000Y-88265000D03*
G04 #@! TO.N,Net-(R4-Pad1)*
X127127000Y-115316000D03*
X106934000Y-86741000D03*
X115189000Y-87502998D03*
G04 #@! TO.N,Net-(R7-Pad2)*
X116332000Y-99187000D03*
X106426000Y-104267000D03*
X103124000Y-108839000D03*
G04 #@! TO.N,Net-(R8-Pad1)*
X98044000Y-95631000D03*
X107569000Y-98171000D03*
G04 #@! TO.N,Net-(R10-Pad2)*
X109728000Y-85217006D03*
G04 #@! TO.N,Net-(U3-Pad51)*
X104267000Y-101733500D03*
X116183002Y-98552000D03*
G04 #@! TO.N,Net-(U3-Pad49)*
X116609500Y-99949000D03*
X102743000Y-105537000D03*
G04 #@! TO.N,Net-(U3-Pad45)*
X104648000Y-101092000D03*
X114046000Y-99949000D03*
G04 #@! TO.N,Net-(U3-Pad30)*
X103087939Y-98715061D03*
X102860076Y-82258731D03*
G04 #@! TO.N,Net-(U3-Pad29)*
X106680000Y-78740000D03*
X104049061Y-98007939D03*
G04 #@! TO.N,Net-(U3-Pad23)*
X104267000Y-94869000D03*
G04 #@! TO.N,Net-(U3-Pad22)*
X104775000Y-94361010D03*
X121666000Y-79502000D03*
G04 #@! TO.N,Net-(U3-Pad21)*
X122047000Y-78613000D03*
X104139998Y-93472002D03*
G04 #@! TO.N,Net-(C19-Pad1)*
X110363012Y-86106000D03*
X117856000Y-85344018D03*
G04 #@! TO.N,Net-(J7-Pad3)*
X109093000Y-91693962D03*
G04 #@! TO.N,Net-(J7-Pad2)*
X110744000Y-104140000D03*
G04 #@! TO.N,Net-(R14-Pad2)*
X110514500Y-91694000D03*
X119126000Y-105537000D03*
G04 #@! TO.N,Net-(C14-Pad2)*
X117919500Y-83693000D03*
X116840000Y-81041010D03*
G04 #@! TD*
D42*
G04 #@! TO.N,Net-(C10-Pad2)*
X101575000Y-77660500D02*
X101575000Y-79082500D01*
X101575000Y-77660500D02*
X101575000Y-78969000D01*
G04 #@! TO.N,Net-(C1-Pad2)*
X98298000Y-71628000D02*
X98298000Y-79502000D01*
X97839500Y-79960500D02*
X95402000Y-79960500D01*
X98298000Y-79502000D02*
X97839500Y-79960500D01*
D43*
X95275000Y-79960500D02*
X96978500Y-79960500D01*
X96978500Y-79960500D02*
X99314000Y-82296000D01*
D44*
X91918000Y-88616000D02*
X91757500Y-88455500D01*
X93155000Y-88616000D02*
X91918000Y-88616000D01*
X91757500Y-88455500D02*
X91757500Y-88471498D01*
X91757500Y-88471498D02*
X91805002Y-88519000D01*
X97409000Y-92014998D02*
X97409000Y-92308500D01*
X94010002Y-88616000D02*
X97409000Y-92014998D01*
X93155000Y-88616000D02*
X94010002Y-88616000D01*
X97409000Y-92945512D02*
X96592997Y-93761515D01*
X97409000Y-92308500D02*
X97409000Y-92945512D01*
X96592997Y-93761515D02*
X96592997Y-94923001D01*
X96592997Y-94923001D02*
X96392998Y-95123000D01*
X95402000Y-79960500D02*
X93659510Y-79960500D01*
D45*
X92265500Y-82151000D02*
X93009500Y-81407000D01*
X92265500Y-82276000D02*
X92265500Y-82151000D01*
X93009500Y-81407000D02*
X93472000Y-81407000D01*
X93662500Y-81216500D02*
X93662500Y-80581500D01*
X93472000Y-81407000D02*
X93662500Y-81216500D01*
D44*
X93662500Y-79963490D02*
X93659510Y-79960500D01*
X93662500Y-80581500D02*
X93662500Y-79963490D01*
X93862499Y-80381501D02*
X94052999Y-80381501D01*
X93662500Y-80581500D02*
X93862499Y-80381501D01*
X94234000Y-80200500D02*
X94234000Y-79960500D01*
X94052999Y-80381501D02*
X94234000Y-80200500D01*
D45*
X95275000Y-79960500D02*
X94234000Y-79960500D01*
X94234000Y-79960500D02*
X93659510Y-79960500D01*
D46*
G04 #@! TO.N,Net-(C1-Pad1)*
X109286000Y-79123000D02*
X109286000Y-78994000D01*
D45*
X112522500Y-82359500D02*
X109286000Y-79123000D01*
D44*
X113197499Y-83034499D02*
X112522500Y-82359500D01*
D46*
X113212502Y-83049502D02*
X113197499Y-83034499D01*
X95402000Y-75360500D02*
X95236000Y-75360500D01*
D43*
X95885000Y-74877500D02*
X95402000Y-75360500D01*
X92984000Y-74442000D02*
X93218000Y-74676000D01*
X93218000Y-74676000D02*
X93218000Y-74739500D01*
X95885000Y-74358500D02*
X95885000Y-74877500D01*
X95885000Y-73914000D02*
X95885000Y-74358500D01*
D45*
X107950000Y-78994000D02*
X106826010Y-77870010D01*
X109286000Y-78994000D02*
X107950000Y-78994000D01*
X106826010Y-77870010D02*
X103505000Y-77870010D01*
D44*
X103505000Y-77870010D02*
X103441500Y-77870010D01*
X103505000Y-77870010D02*
X103333510Y-77870010D01*
D45*
X103104990Y-77641490D02*
X103104990Y-72370990D01*
X103333510Y-77870010D02*
X103104990Y-77641490D01*
X102362000Y-71628000D02*
X100838000Y-71628000D01*
X103104990Y-72370990D02*
X102362000Y-71628000D01*
X94114000Y-87416000D02*
X95504000Y-86026000D01*
X93155000Y-87416000D02*
X94114000Y-87416000D01*
X91455000Y-87416000D02*
X90455000Y-86416000D01*
X93155000Y-87416000D02*
X91455000Y-87416000D01*
X93155000Y-92416000D02*
X93155000Y-91631000D01*
D44*
X93155000Y-91631000D02*
X93155000Y-91216000D01*
X90979000Y-91440000D02*
X90455000Y-90916000D01*
X92583000Y-91440000D02*
X90979000Y-91440000D01*
X93155000Y-92416000D02*
X93155000Y-92012000D01*
X93155000Y-92012000D02*
X92583000Y-91440000D01*
X91524500Y-92816000D02*
X90455000Y-92816000D01*
X93155000Y-91216000D02*
X93124500Y-91216000D01*
X93124500Y-91216000D02*
X91524500Y-92816000D01*
X90455000Y-87016000D02*
X93768500Y-87016000D01*
X94758500Y-86026000D02*
X95504000Y-86026000D01*
X93768500Y-87016000D02*
X94758500Y-86026000D01*
D45*
X101860500Y-101793500D02*
X101533500Y-101793500D01*
X101533500Y-101793500D02*
X100838000Y-102489000D01*
X100838000Y-102489000D02*
X100838000Y-104838500D01*
X100838000Y-104838500D02*
X100330000Y-105346500D01*
X100330000Y-105346500D02*
X100330000Y-106680000D01*
X114683500Y-84518500D02*
X114300000Y-84518500D01*
X114300000Y-84518500D02*
X113220500Y-83439000D01*
X113220500Y-83057500D02*
X112522500Y-82359500D01*
X113220500Y-83439000D02*
X113220500Y-83057500D01*
D44*
X94615000Y-108646000D02*
X95570000Y-109601000D01*
X94615000Y-107950000D02*
X94615000Y-108646000D01*
D43*
X116205000Y-116205000D02*
X116840000Y-116840000D01*
X115570000Y-115570000D02*
X116840000Y-116840000D01*
X114300000Y-115570000D02*
X115570000Y-115570000D01*
D44*
X106264000Y-86296500D02*
X106553000Y-86007500D01*
X105189000Y-86296500D02*
X106264000Y-86296500D01*
X106553000Y-86007500D02*
X106553000Y-80391000D01*
X106553000Y-80391000D02*
X107950000Y-78994000D01*
X106314000Y-95944500D02*
X104588500Y-95944500D01*
X104588500Y-95944500D02*
X104394000Y-96139000D01*
X106314000Y-93444500D02*
X105234915Y-93444500D01*
X105234915Y-93444500D02*
X105087635Y-93297220D01*
X105087635Y-93297220D02*
X105004385Y-93297220D01*
X116586000Y-94444500D02*
X117714000Y-94444500D01*
X117714000Y-96444500D02*
X116764000Y-96444500D01*
X116586000Y-95377000D02*
X116332000Y-95377000D01*
X116586000Y-95377000D02*
X116586000Y-94444500D01*
X116586000Y-96266500D02*
X116586000Y-95377000D01*
X112764000Y-91301000D02*
X112764000Y-89994500D01*
X112903000Y-91440000D02*
X112764000Y-91301000D01*
D45*
X91404000Y-103596000D02*
X89647000Y-103596000D01*
X94615000Y-107950000D02*
X94615000Y-106807000D01*
X94615000Y-106807000D02*
X91404000Y-103596000D01*
D44*
X109264001Y-102235000D02*
X109264001Y-102168960D01*
X109264001Y-104984999D02*
X109264001Y-102235000D01*
X109251000Y-104998000D02*
X107950000Y-104998000D01*
X109264001Y-104984999D02*
X109251000Y-104998000D01*
D43*
X101882842Y-112903000D02*
X101600000Y-112903000D01*
X102898842Y-113919000D02*
X101882842Y-112903000D01*
X114300000Y-115570000D02*
X112649000Y-113919000D01*
X112649000Y-113919000D02*
X102898842Y-113919000D01*
D46*
X109264000Y-102234999D02*
X109264001Y-102235000D01*
X109264000Y-101394500D02*
X109264000Y-102234999D01*
X111764000Y-102171499D02*
X111764001Y-102171500D01*
X111764000Y-101394500D02*
X111764000Y-102171499D01*
D44*
X111346500Y-104998000D02*
X109251000Y-104998000D01*
X111506000Y-104838500D02*
X111346500Y-104998000D01*
X111506000Y-102682502D02*
X111506000Y-104838500D01*
X111764001Y-102171500D02*
X111764001Y-102424501D01*
X111764001Y-102424501D02*
X111506000Y-102682502D01*
X114144158Y-99060000D02*
X114427000Y-99060000D01*
X112268000Y-99060000D02*
X114144158Y-99060000D01*
X111764000Y-101394500D02*
X111764000Y-99564000D01*
X111764000Y-99564000D02*
X112268000Y-99060000D01*
X109264000Y-99408542D02*
X109601000Y-99071542D01*
X109264000Y-101394500D02*
X109264000Y-99408542D01*
X109601000Y-98425000D02*
X109601000Y-98383000D01*
X109601000Y-99071542D02*
X109601000Y-98383000D01*
X116764000Y-96444500D02*
X116586000Y-96266500D01*
X113411000Y-83248000D02*
X113212502Y-83049502D01*
X113411000Y-84582000D02*
X113411000Y-83248000D01*
X112764000Y-89994500D02*
X112764000Y-85229000D01*
X112764000Y-85229000D02*
X113411000Y-84582000D01*
D43*
X90455000Y-87016000D02*
X90455000Y-93416000D01*
D47*
X113284000Y-110424000D02*
X113959000Y-110424000D01*
D43*
X129664500Y-102359500D02*
X123825000Y-102359500D01*
X129794000Y-102489000D02*
X129664500Y-102359500D01*
X129794000Y-115570000D02*
X129794000Y-102489000D01*
X116840000Y-116840000D02*
X128524000Y-116840000D01*
X128524000Y-116840000D02*
X129794000Y-115570000D01*
D45*
X124079000Y-78613000D02*
X124587000Y-78613000D01*
X123952000Y-78486000D02*
X124079000Y-78613000D01*
X124079000Y-70993000D02*
X123952000Y-71120000D01*
X123952000Y-71120000D02*
X123952000Y-78486000D01*
X114300000Y-115570000D02*
X114173000Y-115443000D01*
D44*
X116927000Y-110424000D02*
X117602000Y-110424000D01*
X113959000Y-110424000D02*
X116927000Y-110424000D01*
X118303000Y-111125000D02*
X117602000Y-110424000D01*
X118999000Y-111125000D02*
X118303000Y-111125000D01*
D45*
X114173000Y-115443000D02*
X114173000Y-115062000D01*
D42*
X112141000Y-113919000D02*
X112141000Y-113157000D01*
X113284000Y-115062000D02*
X112141000Y-113919000D01*
D45*
X113284000Y-110424000D02*
X113284000Y-111524000D01*
X112649000Y-114201841D02*
X112649000Y-113918999D01*
X113284000Y-111524000D02*
X112649000Y-112159000D01*
X112649000Y-112159000D02*
X112649000Y-113918999D01*
X112649000Y-114427000D02*
X112649000Y-114201841D01*
X113284000Y-115062000D02*
X112649000Y-114427000D01*
X114173000Y-115062000D02*
X113284000Y-115062000D01*
D42*
X95059500Y-74739500D02*
X95885000Y-73914000D01*
X93218000Y-74739500D02*
X95059500Y-74739500D01*
X92920500Y-74442000D02*
X93218000Y-74739500D01*
X92265500Y-74442000D02*
X92920500Y-74442000D01*
X92031000Y-79541500D02*
X92265500Y-79776000D01*
X89647000Y-79541500D02*
X92031000Y-79541500D01*
D45*
X93047500Y-78994000D02*
X92265500Y-79776000D01*
X93750000Y-78994000D02*
X93047500Y-78994000D01*
D44*
G04 #@! TO.N,Net-(C10-Pad2)*
X112264000Y-89994500D02*
X112264000Y-84585992D01*
X112264000Y-84585992D02*
X112448993Y-84400999D01*
D46*
X112448993Y-84400999D02*
X112648992Y-84201000D01*
D44*
X95402000Y-77660500D02*
X96266000Y-77660500D01*
D43*
X96266000Y-77660500D02*
X97028000Y-78422500D01*
D44*
X97028000Y-78422500D02*
X97028000Y-78359000D01*
D43*
X94683500Y-76942000D02*
X95402000Y-77660500D01*
D45*
X99180500Y-101793500D02*
X99180500Y-98993500D01*
X99120000Y-101854000D02*
X99180500Y-101793500D01*
X97853500Y-101854000D02*
X99120000Y-101854000D01*
D44*
X114522500Y-80380000D02*
X114025500Y-79883000D01*
X114522500Y-82359500D02*
X114522500Y-80380000D01*
X114025500Y-79883000D02*
X114025500Y-79735500D01*
X113284000Y-78994000D02*
X111186000Y-78994000D01*
X114025500Y-79735500D02*
X113284000Y-78994000D01*
X97470000Y-109601000D02*
X98044000Y-109601000D01*
X98044000Y-109601000D02*
X99060000Y-108585000D01*
X99060000Y-108585000D02*
X99695000Y-108585000D01*
X112264000Y-95381000D02*
X111264000Y-96381000D01*
X111688500Y-96944500D02*
X111264000Y-96520000D01*
X111264000Y-96381000D02*
X111264000Y-96520000D01*
X111188500Y-96444500D02*
X111264000Y-96520000D01*
X112029500Y-92944500D02*
X112264000Y-92710000D01*
X112299500Y-93944500D02*
X112264000Y-93980000D01*
X112264000Y-92710000D02*
X112264000Y-93980000D01*
X112264000Y-93980000D02*
X112264000Y-95381000D01*
X108764000Y-96623500D02*
X108585000Y-96444500D01*
X108585000Y-96444500D02*
X111188500Y-96444500D01*
D45*
X108585000Y-99060000D02*
X108764000Y-99060000D01*
D44*
X108764000Y-101394500D02*
X108764000Y-99060000D01*
X108764000Y-99060000D02*
X108764000Y-96623500D01*
D45*
X105189000Y-85026500D02*
X103004990Y-85026500D01*
X102780000Y-111797000D02*
X104267000Y-111797000D01*
X99180500Y-101793500D02*
X99180500Y-108197500D01*
X99180500Y-108197500D02*
X102780000Y-111797000D01*
X107151000Y-111797000D02*
X107950000Y-110998000D01*
X104267000Y-111797000D02*
X107151000Y-111797000D01*
X100965000Y-88646000D02*
X100965000Y-88928842D01*
X100965000Y-88928842D02*
X100965000Y-93726000D01*
D44*
X107950000Y-92944500D02*
X112029500Y-92944500D01*
X106314000Y-92944500D02*
X107950000Y-92944500D01*
X107950000Y-96444500D02*
X108585000Y-96444500D01*
X106314000Y-96444500D02*
X107950000Y-96444500D01*
D45*
X108784999Y-98860001D02*
X108784999Y-97971001D01*
X108585000Y-99060000D02*
X108784999Y-98860001D01*
X109220000Y-97536000D02*
X111264000Y-97536000D01*
X108784999Y-97971001D02*
X109220000Y-97536000D01*
D44*
X111264000Y-96520000D02*
X111264000Y-97536000D01*
X111264000Y-97536000D02*
X111264000Y-101394500D01*
D45*
X111803500Y-97536000D02*
X112395000Y-96944500D01*
X111264000Y-97536000D02*
X111803500Y-97536000D01*
D44*
X117714000Y-96944500D02*
X112395000Y-96944500D01*
X112395000Y-96944500D02*
X111688500Y-96944500D01*
D45*
X112395000Y-96944500D02*
X113581500Y-96944500D01*
X113581500Y-96944500D02*
X114554000Y-97917000D01*
X114753999Y-95014501D02*
X115824000Y-93944500D01*
X114753999Y-97717001D02*
X114753999Y-95014501D01*
X114554000Y-97917000D02*
X114753999Y-97717001D01*
D44*
X117714000Y-93944500D02*
X115824000Y-93944500D01*
X115824000Y-93944500D02*
X112299500Y-93944500D01*
D45*
X114554000Y-94746000D02*
X112264000Y-92456000D01*
X114554000Y-97917000D02*
X114554000Y-94746000D01*
D44*
X112264000Y-89994500D02*
X112264000Y-92456000D01*
X112264000Y-92456000D02*
X112264000Y-92710000D01*
D45*
X107569000Y-92710000D02*
X107950000Y-93091000D01*
X107569000Y-91948000D02*
X107569000Y-92710000D01*
X107950000Y-96444500D02*
X107950000Y-93091000D01*
X107950000Y-93091000D02*
X107950000Y-92944500D01*
D43*
X132334000Y-89088406D02*
X132334000Y-109601000D01*
X125825000Y-84359500D02*
X127605094Y-84359500D01*
X127605094Y-84359500D02*
X132334000Y-89088406D01*
D47*
X117850000Y-112522000D02*
X118372000Y-113044000D01*
X116205000Y-112522000D02*
X117850000Y-112522000D01*
D44*
X118372000Y-113044000D02*
X118880000Y-113044000D01*
X118294500Y-112966500D02*
X118372000Y-113044000D01*
D42*
X94556500Y-76942000D02*
X95275000Y-77660500D01*
X92265500Y-76942000D02*
X94556500Y-76942000D01*
X101575000Y-80560500D02*
X101409500Y-80726000D01*
X101575000Y-77660500D02*
X101575000Y-80560500D01*
X101409500Y-80726000D02*
X101409500Y-82740500D01*
D44*
X101409500Y-83121500D02*
X100965000Y-83566000D01*
X101409500Y-82740500D02*
X101409500Y-83121500D01*
G04 #@! TO.N,Net-(D1-Pad2)*
X122281499Y-115569001D02*
X123296500Y-114554000D01*
X118999999Y-115569001D02*
X122281499Y-115569001D01*
X118999000Y-115570000D02*
X118999999Y-115569001D01*
X118880000Y-114794000D02*
X118999000Y-114913000D01*
X118999000Y-114913000D02*
X118999000Y-115570000D01*
G04 #@! TO.N,Net-(D1-Pad3)*
X120171000Y-113044000D02*
X123296500Y-109918500D01*
X119880000Y-113044000D02*
X120171000Y-113044000D01*
G04 #@! TO.N,Net-(D1-Pad4)*
X121836000Y-113665000D02*
X123296500Y-112204500D01*
X119880000Y-114794000D02*
X121009000Y-113665000D01*
X121009000Y-113665000D02*
X121836000Y-113665000D01*
G04 #@! TO.N,Net-(J1-Pad5)*
X108764000Y-89044500D02*
X108764000Y-89994500D01*
X108764000Y-88698000D02*
X108764000Y-89044500D01*
X108522500Y-82359500D02*
X108522500Y-88456500D01*
X108522500Y-88456500D02*
X108764000Y-88698000D01*
G04 #@! TO.N,Net-(J1-Pad4)*
X108264000Y-89994500D02*
X108264000Y-89044500D01*
X110522500Y-81376000D02*
X110522500Y-82359500D01*
X108264000Y-89044500D02*
X107823000Y-88603500D01*
X109855000Y-80708500D02*
X110522500Y-81376000D01*
X107188000Y-85217000D02*
X107188000Y-81470500D01*
X107188000Y-81470500D02*
X107950000Y-80708500D01*
X107823000Y-88603500D02*
X107823000Y-85852000D01*
X107823000Y-85852000D02*
X107188000Y-85217000D01*
X107950000Y-80708500D02*
X109855000Y-80708500D01*
D46*
G04 #@! TO.N,Net-(J1-Pad1)*
X116475500Y-82312500D02*
X116522500Y-82359500D01*
X111764000Y-84903500D02*
X111696498Y-84835998D01*
D44*
X111764000Y-89994500D02*
X111764000Y-84903500D01*
D45*
X116522500Y-82359500D02*
X116649500Y-82359500D01*
D44*
X116649500Y-82359500D02*
X117729000Y-81280000D01*
X117729000Y-78783000D02*
X117305000Y-78359000D01*
X117729000Y-81280000D02*
X117729000Y-78783000D01*
D46*
G04 #@! TO.N,Net-(J2-Pad3)*
X95885000Y-92350608D02*
X95885000Y-92633450D01*
X94030000Y-89916000D02*
X95885000Y-91771000D01*
X93155000Y-89916000D02*
X94030000Y-89916000D01*
X95885000Y-91771000D02*
X95885000Y-92350608D01*
X110363000Y-99850842D02*
X110363000Y-99568000D01*
X110264000Y-101394500D02*
X110264000Y-100534004D01*
X110363000Y-100435004D02*
X110363000Y-99850842D01*
X110264000Y-100534004D02*
X110363000Y-100435004D01*
G04 #@! TO.N,Net-(J2-Pad2)*
X96502589Y-92391894D02*
X96502589Y-92674736D01*
X93993842Y-89266000D02*
X96502589Y-91774747D01*
X93155000Y-89266000D02*
X93993842Y-89266000D01*
X96502589Y-91774747D02*
X96502589Y-92391894D01*
X109764000Y-100294000D02*
X109855000Y-100203000D01*
X109764000Y-101394500D02*
X109764000Y-100294000D01*
G04 #@! TO.N,Net-(J3-Pad24)*
X117714000Y-95944500D02*
X118931500Y-95944500D01*
X121720001Y-98732999D02*
X121920000Y-98932998D01*
X119131501Y-96144499D02*
X121720001Y-98732999D01*
X118931500Y-95944500D02*
X119131501Y-96144499D01*
G04 #@! TO.N,Net-(J3-Pad22)*
X125825000Y-99534000D02*
X125825000Y-100359500D01*
X118664000Y-97944500D02*
X120406502Y-99687002D01*
X117714000Y-97944500D02*
X118664000Y-97944500D01*
X120406502Y-99687002D02*
X122541003Y-99687002D01*
X122541003Y-99687002D02*
X122893504Y-99334501D01*
X122893504Y-99334501D02*
X125625501Y-99334501D01*
X125625501Y-99334501D02*
X125825000Y-99534000D01*
G04 #@! TO.N,Net-(J3-Pad21)*
X118971500Y-93444500D02*
X117714000Y-93444500D01*
X122861501Y-97334501D02*
X118971500Y-93444500D01*
X125825000Y-98359500D02*
X124800001Y-97334501D01*
X124800001Y-97334501D02*
X122861501Y-97334501D01*
G04 #@! TO.N,Net-(J3-Pad20)*
X119241500Y-92444500D02*
X117714000Y-92444500D01*
X122131501Y-95334501D02*
X119241500Y-92444500D01*
X125825000Y-96359500D02*
X124800001Y-95334501D01*
X124800001Y-95334501D02*
X122131501Y-95334501D01*
G04 #@! TO.N,Net-(J3-Pad19)*
X124810500Y-93345000D02*
X125825000Y-94359500D01*
X123190000Y-93345000D02*
X124810500Y-93345000D01*
X115764000Y-89994500D02*
X119839500Y-89994500D01*
X119839500Y-89994500D02*
X123190000Y-93345000D01*
G04 #@! TO.N,Net-(J3-Pad18)*
X114764000Y-89044500D02*
X115162500Y-88646000D01*
X114764000Y-89994500D02*
X114764000Y-89044500D01*
X125825000Y-91534000D02*
X125825000Y-92359500D01*
X115162500Y-88646000D02*
X119528998Y-88646000D01*
X119528998Y-88646000D02*
X122267497Y-91384499D01*
X122267497Y-91384499D02*
X125675499Y-91384499D01*
X125675499Y-91384499D02*
X125825000Y-91534000D01*
G04 #@! TO.N,Net-(J3-Pad17)*
X112264000Y-101394500D02*
X112264000Y-105152000D01*
D44*
G04 #@! TO.N,Net-(J3-Pad16)*
X113157000Y-104775000D02*
X113214000Y-104775000D01*
X112764000Y-101394500D02*
X112764000Y-104382000D01*
X112764000Y-104382000D02*
X113157000Y-104775000D01*
X125951500Y-88359500D02*
X128651000Y-91059000D01*
X125825000Y-88359500D02*
X125951500Y-88359500D01*
G04 #@! TO.N,Net-(J3-Pad9)*
X113764000Y-102828086D02*
X113814010Y-102878096D01*
X113764000Y-101394500D02*
X113764000Y-102828086D01*
X111760000Y-107315000D02*
X114014009Y-105060991D01*
X114014009Y-103078095D02*
X113814010Y-102878096D01*
X114014009Y-105060991D02*
X114014009Y-103078095D01*
D46*
G04 #@! TO.N,Net-(J3-Pad8)*
X114764000Y-102344500D02*
X114681000Y-102427500D01*
X114764000Y-101394500D02*
X114764000Y-102344500D01*
X114681000Y-102427500D02*
X114681000Y-103378000D01*
G04 #@! TO.N,Net-(J3-Pad7)*
X115264000Y-91134000D02*
X115264000Y-89994500D01*
X115570000Y-91440000D02*
X115264000Y-91134000D01*
X120015000Y-91440000D02*
X115570000Y-91440000D01*
X123825000Y-94359500D02*
X122934500Y-94359500D01*
X122934500Y-94359500D02*
X120015000Y-91440000D01*
G04 #@! TO.N,Net-(J3-Pad6)*
X116749561Y-91944500D02*
X116662885Y-92031176D01*
X117714000Y-91944500D02*
X116749561Y-91944500D01*
G04 #@! TO.N,Net-(J3-Pad5)*
X117711502Y-92942002D02*
X117714000Y-92944500D01*
X116332000Y-92942002D02*
X117711502Y-92942002D01*
G04 #@! TO.N,Net-(J3-Pad4)*
X117714000Y-94944500D02*
X118923500Y-94944500D01*
X118923500Y-94944500D02*
X119126000Y-94742000D01*
G04 #@! TO.N,Net-(J3-Pad3)*
X118664000Y-97444500D02*
X118999000Y-97109500D01*
X117714000Y-97444500D02*
X118664000Y-97444500D01*
G04 #@! TO.N,Net-(J3-Pad2)*
X117714000Y-95444500D02*
X119320500Y-95444500D01*
D44*
G04 #@! TO.N,Net-(J3-Pad1)*
X113264000Y-101394500D02*
X113264000Y-103866000D01*
X113264000Y-103866000D02*
X113411000Y-104013000D01*
G04 #@! TO.N,Net-(J4-Pad5)*
X97078979Y-86296500D02*
X97037499Y-86255020D01*
X99789000Y-86296500D02*
X97078979Y-86296500D01*
X97037499Y-86255020D02*
X96837500Y-86055021D01*
X90805000Y-73883500D02*
X89647000Y-75041500D01*
X90805000Y-73787000D02*
X90805000Y-73883500D01*
G04 #@! TO.N,Net-(J4-Pad4)*
X94878499Y-84273999D02*
X95108509Y-84273999D01*
X98235489Y-85505011D02*
X98714000Y-85026500D01*
X98714000Y-85026500D02*
X99789000Y-85026500D01*
X94678500Y-84074000D02*
X94878499Y-84273999D01*
X96339521Y-85505011D02*
X98235489Y-85505011D01*
X95108509Y-84273999D02*
X96339521Y-85505011D01*
X90447000Y-76541500D02*
X91233000Y-75755500D01*
X89647000Y-76541500D02*
X90447000Y-76541500D01*
X91233000Y-75755500D02*
X91440000Y-75755500D01*
G04 #@! TO.N,Net-(J4-Pad3)*
X91197000Y-78041500D02*
X89647000Y-78041500D01*
X91206499Y-78050999D02*
X91197000Y-78041500D01*
X93589501Y-78050999D02*
X91206499Y-78050999D01*
X93789500Y-77851000D02*
X93589501Y-78050999D01*
D42*
G04 #@! TO.N,Net-(J4-Pad1)*
X89647000Y-81041500D02*
X89647000Y-83868500D01*
D46*
G04 #@! TO.N,Net-(J6-Pad1)*
X97802032Y-83756500D02*
X96803521Y-84755011D01*
X96803521Y-84755011D02*
X96603522Y-84955010D01*
X99789000Y-83756500D02*
X97802032Y-83756500D01*
D44*
G04 #@! TO.N,Net-(R1-Pad1)*
X96663500Y-87566500D02*
X95504000Y-88726000D01*
X99789000Y-87566500D02*
X96663500Y-87566500D01*
D46*
G04 #@! TO.N,Net-(R2-Pad1)*
X126296500Y-112204500D02*
X127127000Y-113035000D01*
X125496500Y-112204500D02*
X126296500Y-112204500D01*
X113264000Y-87777000D02*
X113465001Y-87575999D01*
X113264000Y-89994500D02*
X113264000Y-87777000D01*
X113465001Y-87575999D02*
X113665000Y-87376000D01*
G04 #@! TO.N,Net-(R3-Pad1)*
X125496500Y-109918500D02*
X126296500Y-109918500D01*
X126296500Y-109918500D02*
X127127000Y-110749000D01*
X127127000Y-110749000D02*
X127127000Y-110871000D01*
X113792000Y-89966500D02*
X113764000Y-89994500D01*
X113792000Y-88138000D02*
X113792000Y-89966500D01*
G04 #@! TO.N,Net-(R4-Pad1)*
X125496500Y-114554000D02*
X126365000Y-114554000D01*
X126365000Y-114554000D02*
X127127000Y-115316000D01*
X114264000Y-89994500D02*
X114264000Y-88427998D01*
X114989001Y-87702997D02*
X115189000Y-87502998D01*
X114264000Y-88427998D02*
X114989001Y-87702997D01*
G04 #@! TO.N,Net-(R7-Pad2)*
X116574500Y-98944500D02*
X117714000Y-98944500D01*
X116332000Y-99187000D02*
X116574500Y-98944500D01*
D44*
X104267000Y-109597000D02*
X104267000Y-109447000D01*
X104267000Y-109447000D02*
X106426000Y-107288000D01*
X106426000Y-107288000D02*
X106426000Y-104549842D01*
X106426000Y-104549842D02*
X106426000Y-104267000D01*
X103517000Y-109597000D02*
X103124000Y-109204000D01*
X104267000Y-109597000D02*
X103517000Y-109597000D01*
X103124000Y-109121842D02*
X103124000Y-108839000D01*
X103124000Y-109204000D02*
X103124000Y-109121842D01*
D46*
G04 #@! TO.N,Net-(R8-Pad1)*
X98044000Y-95143500D02*
X97409000Y-94508500D01*
X98044000Y-95631000D02*
X98044000Y-95143500D01*
X107569000Y-98453842D02*
X107569000Y-98171000D01*
X107569000Y-99749500D02*
X107569000Y-98453842D01*
X108264000Y-101394500D02*
X108264000Y-100444500D01*
X108264000Y-100444500D02*
X107569000Y-99749500D01*
G04 #@! TO.N,Net-(R10-Pad2)*
X109764000Y-86501002D02*
X109481999Y-86219001D01*
X109764000Y-89994500D02*
X109764000Y-86501002D01*
X109481999Y-86219001D02*
X109481999Y-85463007D01*
X109528001Y-85417005D02*
X109728000Y-85217006D01*
X109481999Y-85463007D02*
X109528001Y-85417005D01*
D44*
G04 #@! TO.N,Net-(U2-Pad3)*
X101909500Y-98944500D02*
X101860500Y-98993500D01*
X105264000Y-98944500D02*
X105252500Y-98933000D01*
X106314000Y-98944500D02*
X105264000Y-98944500D01*
X105264000Y-98944500D02*
X104015000Y-100193500D01*
X102930500Y-100193500D02*
X101860500Y-99123500D01*
X101860500Y-99123500D02*
X101860500Y-98993500D01*
X104015000Y-100193500D02*
X102930500Y-100193500D01*
D46*
G04 #@! TO.N,Net-(U3-Pad51)*
X116290502Y-98444500D02*
X117714000Y-98444500D01*
X116183002Y-98552000D02*
X116290502Y-98444500D01*
G04 #@! TO.N,Net-(U3-Pad49)*
X117114000Y-99444500D02*
X116609500Y-99949000D01*
X117714000Y-99444500D02*
X117114000Y-99444500D01*
G04 #@! TO.N,Net-(U3-Pad45)*
X114264000Y-100167000D02*
X114264000Y-101394500D01*
X114046000Y-99949000D02*
X114264000Y-100167000D01*
D44*
G04 #@! TO.N,Net-(U3-Pad30)*
X104230939Y-98715061D02*
X103370781Y-98715061D01*
X106314000Y-98444500D02*
X105471120Y-98444500D01*
X105471120Y-98444500D02*
X105459612Y-98432992D01*
X104513008Y-98432992D02*
X104230939Y-98715061D01*
X105459612Y-98432992D02*
X104513008Y-98432992D01*
X103370781Y-98715061D02*
X103087939Y-98715061D01*
D46*
G04 #@! TO.N,Net-(U3-Pad29)*
X103992990Y-97944500D02*
X103935500Y-98001990D01*
X104112500Y-97944500D02*
X104049061Y-98007939D01*
X106314000Y-97944500D02*
X104112500Y-97944500D01*
G04 #@! TO.N,Net-(U3-Pad23)*
X106314000Y-94944500D02*
X104342500Y-94944500D01*
X104342500Y-94944500D02*
X104267000Y-94869000D01*
G04 #@! TO.N,Net-(U3-Pad22)*
X106314000Y-94444500D02*
X104858490Y-94444500D01*
X104858490Y-94444500D02*
X104775000Y-94361010D01*
G04 #@! TO.N,Net-(U3-Pad21)*
X104339997Y-93672001D02*
X104139998Y-93472002D01*
X105015002Y-93860990D02*
X104528986Y-93860990D01*
X106314000Y-93944500D02*
X105098512Y-93944500D01*
X105098512Y-93944500D02*
X105015002Y-93860990D01*
X104528986Y-93860990D02*
X104339997Y-93672001D01*
D44*
G04 #@! TO.N,Net-(U3-Pad18)*
X106314000Y-92444500D02*
X103620500Y-92444500D01*
X103620500Y-92444500D02*
X102108000Y-90932000D01*
X102108000Y-90932000D02*
X102108000Y-84709000D01*
X103060500Y-83756500D02*
X105189000Y-83756500D01*
X102108000Y-84709000D02*
X103060500Y-83756500D01*
D46*
G04 #@! TO.N,Net-(U3-Pad17)*
X106314000Y-91944500D02*
X103946000Y-91944500D01*
X103946000Y-91944500D02*
X103314500Y-91313000D01*
X103314500Y-91313000D02*
X103314500Y-88138000D01*
X103886000Y-87566500D02*
X105189000Y-87566500D01*
X103314500Y-88138000D02*
X103886000Y-87566500D01*
G04 #@! TO.N,Net-(C19-Pad1)*
X110264000Y-89994500D02*
X110264000Y-86205012D01*
X110264000Y-86205012D02*
X110363012Y-86106000D01*
X118138842Y-85344018D02*
X117856000Y-85344018D01*
X124809518Y-85344018D02*
X118138842Y-85344018D01*
X126650500Y-86359500D02*
X125825000Y-86359500D01*
X125825000Y-86359500D02*
X124809518Y-85344018D01*
G04 #@! TO.N,Net-(J7-Pad3)*
X109264000Y-89994500D02*
X109264000Y-91522962D01*
X109264000Y-91522962D02*
X109093000Y-91693962D01*
D44*
G04 #@! TO.N,Net-(J7-Pad2)*
X110764000Y-101394500D02*
X110764000Y-104120000D01*
X110764000Y-104120000D02*
X110744000Y-104140000D01*
D46*
G04 #@! TO.N,Net-(R14-Pad2)*
X111264000Y-90944500D02*
X110514500Y-91694000D01*
X111264000Y-89994500D02*
X111264000Y-90944500D01*
D44*
G04 #@! TO.N,Net-(J8-Pad4)*
X103818500Y-95444500D02*
X102997000Y-96266000D01*
X106314000Y-95444500D02*
X103818500Y-95444500D01*
X102997000Y-96266000D02*
X98615500Y-96266000D01*
X98615500Y-96266000D02*
X98552000Y-96329500D01*
X98552000Y-96329500D02*
X95059500Y-96329500D01*
X95059500Y-96329500D02*
X92265500Y-99123500D01*
X92238000Y-99096000D02*
X89647000Y-99096000D01*
X92265500Y-99123500D02*
X92238000Y-99096000D01*
G04 #@! TO.N,Net-(J8-Pad3)*
X106314000Y-96944500D02*
X95397000Y-96944500D01*
X95397000Y-96944500D02*
X92963996Y-99377504D01*
X92963996Y-99377504D02*
X92900496Y-99377504D01*
X91682000Y-100596000D02*
X89647000Y-100596000D01*
X92900496Y-99377504D02*
X91682000Y-100596000D01*
G04 #@! TO.N,Net-(J8-Pad2)*
X93726006Y-99631494D02*
X93726000Y-99631494D01*
X95913000Y-97444500D02*
X93726006Y-99631494D01*
X106314000Y-97444500D02*
X95913000Y-97444500D01*
X93726006Y-99631494D02*
X93662506Y-99631494D01*
X91198000Y-102096000D02*
X89647000Y-102096000D01*
X93662506Y-99631494D02*
X91198000Y-102096000D01*
G04 #@! TO.N,Net-(C14-Pad2)*
X115105000Y-78762500D02*
X116225500Y-79883000D01*
X115105000Y-78359000D02*
X115105000Y-78762500D01*
X116583500Y-84518500D02*
X117030500Y-84518500D01*
X116583500Y-84518500D02*
X116583500Y-84394000D01*
X116583500Y-84394000D02*
X117284500Y-83693000D01*
X117284500Y-83693000D02*
X117919500Y-83693000D01*
X116225500Y-80633000D02*
X116633510Y-81041010D01*
X116225500Y-79883000D02*
X116225500Y-80633000D01*
X116633510Y-81041010D02*
X116840000Y-81041010D01*
D46*
G04 #@! TO.N,Net-(C16-Pad2)*
X116332000Y-106558000D02*
X116454000Y-106680000D01*
X117602000Y-107828000D02*
X117602000Y-108524000D01*
X116454000Y-106680000D02*
X117602000Y-107828000D01*
X117259000Y-105875000D02*
X116454000Y-106680000D01*
X117983000Y-105875000D02*
X117259000Y-105875000D01*
G04 #@! TO.N,Net-(C20-Pad2)*
X115264000Y-102344500D02*
X115316000Y-102396500D01*
X115264000Y-101394500D02*
X115264000Y-102344500D01*
X115316000Y-105918000D02*
X114554000Y-106680000D01*
X115316000Y-102396500D02*
X115316000Y-105918000D01*
X113284000Y-107950000D02*
X113284000Y-108524000D01*
X114554000Y-106680000D02*
X113284000Y-107950000D01*
G04 #@! TO.N,Net-(R16-Pad2)*
X117221000Y-103675000D02*
X117983000Y-103675000D01*
X115764000Y-101394500D02*
X115764000Y-102218000D01*
X115764000Y-102218000D02*
X117221000Y-103675000D01*
G04 #@! TD*
D48*
G04 #@! TO.N,Net-(C10-Pad2)*
G36*
X128474000Y-76386538D02*
X128460581Y-76454000D01*
X128513745Y-76721273D01*
X128665143Y-76947857D01*
X128846447Y-77069000D01*
X128891727Y-77099255D01*
X129159000Y-77152419D01*
X129226461Y-77139000D01*
X132538000Y-77139000D01*
X132538001Y-117425000D01*
X129402710Y-117425000D01*
X130453777Y-116373934D01*
X130540193Y-116316193D01*
X130768948Y-115973837D01*
X130805852Y-115788309D01*
X130849276Y-115570001D01*
X130829000Y-115468066D01*
X130829000Y-102590934D01*
X130849276Y-102489000D01*
X130816478Y-102324112D01*
X130768948Y-102085163D01*
X130540193Y-101742807D01*
X130462563Y-101690937D01*
X130410693Y-101613307D01*
X130068337Y-101384552D01*
X129766435Y-101324500D01*
X129766434Y-101324500D01*
X129664500Y-101304224D01*
X129562566Y-101324500D01*
X126712619Y-101324500D01*
X126935564Y-101101555D01*
X127135000Y-100620075D01*
X127135000Y-100098925D01*
X126935564Y-99617445D01*
X126677619Y-99359500D01*
X126935564Y-99101555D01*
X127135000Y-98620075D01*
X127135000Y-98098925D01*
X126935564Y-97617445D01*
X126677619Y-97359500D01*
X126935564Y-97101555D01*
X127135000Y-96620075D01*
X127135000Y-96098925D01*
X126935564Y-95617445D01*
X126677619Y-95359500D01*
X126935564Y-95101555D01*
X127135000Y-94620075D01*
X127135000Y-94098925D01*
X126935564Y-93617445D01*
X126677619Y-93359500D01*
X126935564Y-93101555D01*
X126956128Y-93051908D01*
X128578000Y-93051908D01*
X128578000Y-93384092D01*
X128705121Y-93690990D01*
X128940010Y-93925879D01*
X129246908Y-94053000D01*
X129579092Y-94053000D01*
X129885990Y-93925879D01*
X130120879Y-93690990D01*
X130248000Y-93384092D01*
X130248000Y-93051908D01*
X130120879Y-92745010D01*
X129885990Y-92510121D01*
X129579092Y-92383000D01*
X129246908Y-92383000D01*
X128940010Y-92510121D01*
X128705121Y-92745010D01*
X128578000Y-93051908D01*
X126956128Y-93051908D01*
X127135000Y-92620075D01*
X127135000Y-92098925D01*
X126935564Y-91617445D01*
X126677619Y-91359500D01*
X126935564Y-91101555D01*
X127125310Y-90643467D01*
X127893120Y-91411277D01*
X127943121Y-91531990D01*
X128178010Y-91766879D01*
X128484908Y-91894000D01*
X128817092Y-91894000D01*
X129123990Y-91766879D01*
X129358879Y-91531990D01*
X129486000Y-91225092D01*
X129486000Y-90892908D01*
X129358879Y-90586010D01*
X129123990Y-90351121D01*
X129003277Y-90301120D01*
X127135000Y-88432843D01*
X127135000Y-88098925D01*
X126935564Y-87617445D01*
X126677619Y-87359500D01*
X126935564Y-87101555D01*
X126963371Y-87034422D01*
X127180405Y-86889405D01*
X127342854Y-86646283D01*
X127399899Y-86359500D01*
X127342854Y-86072717D01*
X127180405Y-85829595D01*
X126963371Y-85684578D01*
X126935564Y-85617445D01*
X126567055Y-85248936D01*
X126512045Y-85226150D01*
X125825000Y-84539105D01*
X125810858Y-84553248D01*
X125631253Y-84373643D01*
X125645395Y-84359500D01*
X126004605Y-84359500D01*
X126742147Y-85097042D01*
X126975328Y-85038281D01*
X127147522Y-84546400D01*
X127118375Y-84026066D01*
X126975328Y-83680719D01*
X126742147Y-83621958D01*
X126004605Y-84359500D01*
X125645395Y-84359500D01*
X125631253Y-84345358D01*
X125810858Y-84165753D01*
X125825000Y-84179895D01*
X126488905Y-83515990D01*
X126503781Y-83509828D01*
X126506717Y-83498178D01*
X126562542Y-83442353D01*
X126541663Y-83359500D01*
X126562542Y-83276647D01*
X126506717Y-83220822D01*
X126503781Y-83209172D01*
X126490373Y-83204478D01*
X125825000Y-82539105D01*
X125810858Y-82553248D01*
X125631253Y-82373643D01*
X125645395Y-82359500D01*
X126004605Y-82359500D01*
X126742147Y-83097042D01*
X126975328Y-83038281D01*
X127147522Y-82546400D01*
X127118375Y-82026066D01*
X126975328Y-81680719D01*
X126742147Y-81621958D01*
X126004605Y-82359500D01*
X125645395Y-82359500D01*
X125631253Y-82345358D01*
X125810858Y-82165753D01*
X125825000Y-82179895D01*
X126562542Y-81442353D01*
X126503781Y-81209172D01*
X126011900Y-81036978D01*
X125491566Y-81066125D01*
X125146219Y-81209172D01*
X125091416Y-81426646D01*
X124957809Y-81226691D01*
X124747765Y-81086343D01*
X124500000Y-81037060D01*
X123150000Y-81037060D01*
X122902235Y-81086343D01*
X122692191Y-81226691D01*
X122551843Y-81436735D01*
X122502560Y-81684500D01*
X122502560Y-83034500D01*
X122551843Y-83282265D01*
X122692191Y-83492309D01*
X122780539Y-83551342D01*
X122714436Y-83617445D01*
X122515000Y-84098925D01*
X122515000Y-84609018D01*
X118263514Y-84609018D01*
X118067919Y-84528000D01*
X118085592Y-84528000D01*
X118392490Y-84400879D01*
X118627379Y-84165990D01*
X118754500Y-83859092D01*
X118754500Y-83526908D01*
X118627379Y-83220010D01*
X118392490Y-82985121D01*
X118085592Y-82858000D01*
X117844940Y-82858000D01*
X117844940Y-82274217D01*
X118229408Y-81889749D01*
X118294953Y-81845953D01*
X118468454Y-81586292D01*
X118514000Y-81357316D01*
X118514000Y-81357312D01*
X118529378Y-81280000D01*
X118514000Y-81202688D01*
X118514000Y-79002253D01*
X118552440Y-78809000D01*
X118552440Y-78155000D01*
X121217538Y-78155000D01*
X121285000Y-78168419D01*
X121331157Y-78159238D01*
X121212000Y-78446908D01*
X121212000Y-78779092D01*
X121214533Y-78785206D01*
X121193010Y-78794121D01*
X120958121Y-79029010D01*
X120831000Y-79335908D01*
X120831000Y-79668092D01*
X120958121Y-79974990D01*
X121193010Y-80209879D01*
X121499908Y-80337000D01*
X121832092Y-80337000D01*
X122138990Y-80209879D01*
X122373879Y-79974990D01*
X122501000Y-79668092D01*
X122501000Y-79335908D01*
X122498467Y-79329794D01*
X122519990Y-79320879D01*
X122717421Y-79123448D01*
X122727260Y-79172909D01*
X123044423Y-79647577D01*
X123519091Y-79964740D01*
X123937667Y-80048000D01*
X124220333Y-80048000D01*
X124638909Y-79964740D01*
X125113577Y-79647577D01*
X125349000Y-79295242D01*
X125584423Y-79647577D01*
X126059091Y-79964740D01*
X126477667Y-80048000D01*
X126760333Y-80048000D01*
X127178909Y-79964740D01*
X127653577Y-79647577D01*
X127970740Y-79172909D01*
X128082113Y-78613000D01*
X127970740Y-78053091D01*
X127653577Y-77578423D01*
X127178909Y-77261260D01*
X126760333Y-77178000D01*
X126477667Y-77178000D01*
X126059091Y-77261260D01*
X125584423Y-77578423D01*
X125349000Y-77930758D01*
X125113577Y-77578423D01*
X124837000Y-77393620D01*
X124837000Y-72212380D01*
X125113577Y-72027577D01*
X125194215Y-71906894D01*
X125220843Y-72040765D01*
X125361191Y-72250809D01*
X125571235Y-72391157D01*
X125819000Y-72440440D01*
X127419000Y-72440440D01*
X127666765Y-72391157D01*
X127876809Y-72250809D01*
X128017157Y-72040765D01*
X128066440Y-71793000D01*
X128066440Y-70193000D01*
X128017157Y-69945235D01*
X127876809Y-69735191D01*
X127666765Y-69594843D01*
X127419000Y-69545560D01*
X125819000Y-69545560D01*
X125571235Y-69594843D01*
X125361191Y-69735191D01*
X125220843Y-69945235D01*
X125194215Y-70079106D01*
X125113577Y-69958423D01*
X124638909Y-69641260D01*
X124220333Y-69558000D01*
X123937667Y-69558000D01*
X123519091Y-69641260D01*
X123044423Y-69958423D01*
X122727260Y-70433091D01*
X122615887Y-70993000D01*
X122727260Y-71552909D01*
X123044423Y-72027577D01*
X123067000Y-72042663D01*
X123067001Y-76737632D01*
X122837490Y-76508121D01*
X122530592Y-76381000D01*
X122198408Y-76381000D01*
X121970000Y-76475609D01*
X121970000Y-69265000D01*
X128474001Y-69265000D01*
X128474000Y-76386538D01*
X128474000Y-76386538D01*
G37*
X128474000Y-76386538D02*
X128460581Y-76454000D01*
X128513745Y-76721273D01*
X128665143Y-76947857D01*
X128846447Y-77069000D01*
X128891727Y-77099255D01*
X129159000Y-77152419D01*
X129226461Y-77139000D01*
X132538000Y-77139000D01*
X132538001Y-117425000D01*
X129402710Y-117425000D01*
X130453777Y-116373934D01*
X130540193Y-116316193D01*
X130768948Y-115973837D01*
X130805852Y-115788309D01*
X130849276Y-115570001D01*
X130829000Y-115468066D01*
X130829000Y-102590934D01*
X130849276Y-102489000D01*
X130816478Y-102324112D01*
X130768948Y-102085163D01*
X130540193Y-101742807D01*
X130462563Y-101690937D01*
X130410693Y-101613307D01*
X130068337Y-101384552D01*
X129766435Y-101324500D01*
X129766434Y-101324500D01*
X129664500Y-101304224D01*
X129562566Y-101324500D01*
X126712619Y-101324500D01*
X126935564Y-101101555D01*
X127135000Y-100620075D01*
X127135000Y-100098925D01*
X126935564Y-99617445D01*
X126677619Y-99359500D01*
X126935564Y-99101555D01*
X127135000Y-98620075D01*
X127135000Y-98098925D01*
X126935564Y-97617445D01*
X126677619Y-97359500D01*
X126935564Y-97101555D01*
X127135000Y-96620075D01*
X127135000Y-96098925D01*
X126935564Y-95617445D01*
X126677619Y-95359500D01*
X126935564Y-95101555D01*
X127135000Y-94620075D01*
X127135000Y-94098925D01*
X126935564Y-93617445D01*
X126677619Y-93359500D01*
X126935564Y-93101555D01*
X126956128Y-93051908D01*
X128578000Y-93051908D01*
X128578000Y-93384092D01*
X128705121Y-93690990D01*
X128940010Y-93925879D01*
X129246908Y-94053000D01*
X129579092Y-94053000D01*
X129885990Y-93925879D01*
X130120879Y-93690990D01*
X130248000Y-93384092D01*
X130248000Y-93051908D01*
X130120879Y-92745010D01*
X129885990Y-92510121D01*
X129579092Y-92383000D01*
X129246908Y-92383000D01*
X128940010Y-92510121D01*
X128705121Y-92745010D01*
X128578000Y-93051908D01*
X126956128Y-93051908D01*
X127135000Y-92620075D01*
X127135000Y-92098925D01*
X126935564Y-91617445D01*
X126677619Y-91359500D01*
X126935564Y-91101555D01*
X127125310Y-90643467D01*
X127893120Y-91411277D01*
X127943121Y-91531990D01*
X128178010Y-91766879D01*
X128484908Y-91894000D01*
X128817092Y-91894000D01*
X129123990Y-91766879D01*
X129358879Y-91531990D01*
X129486000Y-91225092D01*
X129486000Y-90892908D01*
X129358879Y-90586010D01*
X129123990Y-90351121D01*
X129003277Y-90301120D01*
X127135000Y-88432843D01*
X127135000Y-88098925D01*
X126935564Y-87617445D01*
X126677619Y-87359500D01*
X126935564Y-87101555D01*
X126963371Y-87034422D01*
X127180405Y-86889405D01*
X127342854Y-86646283D01*
X127399899Y-86359500D01*
X127342854Y-86072717D01*
X127180405Y-85829595D01*
X126963371Y-85684578D01*
X126935564Y-85617445D01*
X126567055Y-85248936D01*
X126512045Y-85226150D01*
X125825000Y-84539105D01*
X125810858Y-84553248D01*
X125631253Y-84373643D01*
X125645395Y-84359500D01*
X126004605Y-84359500D01*
X126742147Y-85097042D01*
X126975328Y-85038281D01*
X127147522Y-84546400D01*
X127118375Y-84026066D01*
X126975328Y-83680719D01*
X126742147Y-83621958D01*
X126004605Y-84359500D01*
X125645395Y-84359500D01*
X125631253Y-84345358D01*
X125810858Y-84165753D01*
X125825000Y-84179895D01*
X126488905Y-83515990D01*
X126503781Y-83509828D01*
X126506717Y-83498178D01*
X126562542Y-83442353D01*
X126541663Y-83359500D01*
X126562542Y-83276647D01*
X126506717Y-83220822D01*
X126503781Y-83209172D01*
X126490373Y-83204478D01*
X125825000Y-82539105D01*
X125810858Y-82553248D01*
X125631253Y-82373643D01*
X125645395Y-82359500D01*
X126004605Y-82359500D01*
X126742147Y-83097042D01*
X126975328Y-83038281D01*
X127147522Y-82546400D01*
X127118375Y-82026066D01*
X126975328Y-81680719D01*
X126742147Y-81621958D01*
X126004605Y-82359500D01*
X125645395Y-82359500D01*
X125631253Y-82345358D01*
X125810858Y-82165753D01*
X125825000Y-82179895D01*
X126562542Y-81442353D01*
X126503781Y-81209172D01*
X126011900Y-81036978D01*
X125491566Y-81066125D01*
X125146219Y-81209172D01*
X125091416Y-81426646D01*
X124957809Y-81226691D01*
X124747765Y-81086343D01*
X124500000Y-81037060D01*
X123150000Y-81037060D01*
X122902235Y-81086343D01*
X122692191Y-81226691D01*
X122551843Y-81436735D01*
X122502560Y-81684500D01*
X122502560Y-83034500D01*
X122551843Y-83282265D01*
X122692191Y-83492309D01*
X122780539Y-83551342D01*
X122714436Y-83617445D01*
X122515000Y-84098925D01*
X122515000Y-84609018D01*
X118263514Y-84609018D01*
X118067919Y-84528000D01*
X118085592Y-84528000D01*
X118392490Y-84400879D01*
X118627379Y-84165990D01*
X118754500Y-83859092D01*
X118754500Y-83526908D01*
X118627379Y-83220010D01*
X118392490Y-82985121D01*
X118085592Y-82858000D01*
X117844940Y-82858000D01*
X117844940Y-82274217D01*
X118229408Y-81889749D01*
X118294953Y-81845953D01*
X118468454Y-81586292D01*
X118514000Y-81357316D01*
X118514000Y-81357312D01*
X118529378Y-81280000D01*
X118514000Y-81202688D01*
X118514000Y-79002253D01*
X118552440Y-78809000D01*
X118552440Y-78155000D01*
X121217538Y-78155000D01*
X121285000Y-78168419D01*
X121331157Y-78159238D01*
X121212000Y-78446908D01*
X121212000Y-78779092D01*
X121214533Y-78785206D01*
X121193010Y-78794121D01*
X120958121Y-79029010D01*
X120831000Y-79335908D01*
X120831000Y-79668092D01*
X120958121Y-79974990D01*
X121193010Y-80209879D01*
X121499908Y-80337000D01*
X121832092Y-80337000D01*
X122138990Y-80209879D01*
X122373879Y-79974990D01*
X122501000Y-79668092D01*
X122501000Y-79335908D01*
X122498467Y-79329794D01*
X122519990Y-79320879D01*
X122717421Y-79123448D01*
X122727260Y-79172909D01*
X123044423Y-79647577D01*
X123519091Y-79964740D01*
X123937667Y-80048000D01*
X124220333Y-80048000D01*
X124638909Y-79964740D01*
X125113577Y-79647577D01*
X125349000Y-79295242D01*
X125584423Y-79647577D01*
X126059091Y-79964740D01*
X126477667Y-80048000D01*
X126760333Y-80048000D01*
X127178909Y-79964740D01*
X127653577Y-79647577D01*
X127970740Y-79172909D01*
X128082113Y-78613000D01*
X127970740Y-78053091D01*
X127653577Y-77578423D01*
X127178909Y-77261260D01*
X126760333Y-77178000D01*
X126477667Y-77178000D01*
X126059091Y-77261260D01*
X125584423Y-77578423D01*
X125349000Y-77930758D01*
X125113577Y-77578423D01*
X124837000Y-77393620D01*
X124837000Y-72212380D01*
X125113577Y-72027577D01*
X125194215Y-71906894D01*
X125220843Y-72040765D01*
X125361191Y-72250809D01*
X125571235Y-72391157D01*
X125819000Y-72440440D01*
X127419000Y-72440440D01*
X127666765Y-72391157D01*
X127876809Y-72250809D01*
X128017157Y-72040765D01*
X128066440Y-71793000D01*
X128066440Y-70193000D01*
X128017157Y-69945235D01*
X127876809Y-69735191D01*
X127666765Y-69594843D01*
X127419000Y-69545560D01*
X125819000Y-69545560D01*
X125571235Y-69594843D01*
X125361191Y-69735191D01*
X125220843Y-69945235D01*
X125194215Y-70079106D01*
X125113577Y-69958423D01*
X124638909Y-69641260D01*
X124220333Y-69558000D01*
X123937667Y-69558000D01*
X123519091Y-69641260D01*
X123044423Y-69958423D01*
X122727260Y-70433091D01*
X122615887Y-70993000D01*
X122727260Y-71552909D01*
X123044423Y-72027577D01*
X123067000Y-72042663D01*
X123067001Y-76737632D01*
X122837490Y-76508121D01*
X122530592Y-76381000D01*
X122198408Y-76381000D01*
X121970000Y-76475609D01*
X121970000Y-69265000D01*
X128474001Y-69265000D01*
X128474000Y-76386538D01*
G36*
X119835592Y-100155539D02*
X119876597Y-100216907D01*
X120119719Y-100379356D01*
X120334114Y-100422002D01*
X120334118Y-100422002D01*
X120406502Y-100436400D01*
X120478886Y-100422002D01*
X122468619Y-100422002D01*
X122515000Y-100431228D01*
X122515000Y-100620075D01*
X122714436Y-101101555D01*
X122972381Y-101359500D01*
X122714436Y-101617445D01*
X122515000Y-102098925D01*
X122515000Y-102620075D01*
X122714436Y-103101555D01*
X122972381Y-103359500D01*
X122714436Y-103617445D01*
X122515000Y-104098925D01*
X122515000Y-104620075D01*
X122714436Y-105101555D01*
X123082945Y-105470064D01*
X123564425Y-105669500D01*
X124085575Y-105669500D01*
X124567055Y-105470064D01*
X124825000Y-105212119D01*
X125082945Y-105470064D01*
X125564425Y-105669500D01*
X126085575Y-105669500D01*
X126567055Y-105470064D01*
X126935564Y-105101555D01*
X127135000Y-104620075D01*
X127135000Y-104098925D01*
X126935564Y-103617445D01*
X126712619Y-103394500D01*
X128759001Y-103394500D01*
X128759000Y-115141289D01*
X128095290Y-115805000D01*
X127818869Y-115805000D01*
X127834879Y-115788990D01*
X127962000Y-115482092D01*
X127962000Y-115149908D01*
X127834879Y-114843010D01*
X127599990Y-114608121D01*
X127358567Y-114508121D01*
X126935911Y-114085465D01*
X126894905Y-114024095D01*
X126702470Y-113895514D01*
X126694657Y-113856235D01*
X126554309Y-113646191D01*
X126344265Y-113505843D01*
X126096500Y-113456560D01*
X124896500Y-113456560D01*
X124648735Y-113505843D01*
X124438691Y-113646191D01*
X124396500Y-113709334D01*
X124354309Y-113646191D01*
X124144265Y-113505843D01*
X123896500Y-113456560D01*
X123154598Y-113456560D01*
X123309218Y-113301940D01*
X123896500Y-113301940D01*
X124144265Y-113252657D01*
X124354309Y-113112309D01*
X124396500Y-113049166D01*
X124438691Y-113112309D01*
X124648735Y-113252657D01*
X124896500Y-113301940D01*
X126096500Y-113301940D01*
X126311690Y-113259137D01*
X126319121Y-113266567D01*
X126419121Y-113507990D01*
X126654010Y-113742879D01*
X126960908Y-113870000D01*
X127293092Y-113870000D01*
X127599990Y-113742879D01*
X127834879Y-113507990D01*
X127962000Y-113201092D01*
X127962000Y-112868908D01*
X127834879Y-112562010D01*
X127599990Y-112327121D01*
X127358567Y-112227121D01*
X126867411Y-111735965D01*
X126826405Y-111674595D01*
X126730692Y-111610642D01*
X126960908Y-111706000D01*
X127293092Y-111706000D01*
X127599990Y-111578879D01*
X127834879Y-111343990D01*
X127962000Y-111037092D01*
X127962000Y-110704908D01*
X127834879Y-110398010D01*
X127658800Y-110221931D01*
X127656905Y-110219095D01*
X127654069Y-110217200D01*
X127599990Y-110163121D01*
X127566834Y-110149388D01*
X126867411Y-109449965D01*
X126826405Y-109388595D01*
X126712970Y-109312800D01*
X126694657Y-109220735D01*
X126554309Y-109010691D01*
X126344265Y-108870343D01*
X126096500Y-108821060D01*
X124896500Y-108821060D01*
X124648735Y-108870343D01*
X124438691Y-109010691D01*
X124396500Y-109073834D01*
X124354309Y-109010691D01*
X124144265Y-108870343D01*
X123896500Y-108821060D01*
X122696500Y-108821060D01*
X122448735Y-108870343D01*
X122238691Y-109010691D01*
X122098343Y-109220735D01*
X122049060Y-109468500D01*
X122049060Y-110055782D01*
X120132738Y-111972105D01*
X120130000Y-111971560D01*
X119630000Y-111971560D01*
X119382235Y-112020843D01*
X119368084Y-112030299D01*
X119256309Y-111984000D01*
X119163750Y-111984000D01*
X119005000Y-112142750D01*
X119005000Y-112506185D01*
X118982560Y-112619000D01*
X118982560Y-113191000D01*
X118755000Y-113191000D01*
X118755000Y-113171000D01*
X118153750Y-113171000D01*
X117995000Y-113329750D01*
X117995000Y-113595310D01*
X118091673Y-113828699D01*
X118173375Y-113910400D01*
X118172191Y-113911191D01*
X118031843Y-114121235D01*
X117982560Y-114369000D01*
X117982560Y-115219000D01*
X118031843Y-115466765D01*
X118172191Y-115676809D01*
X118227175Y-115713548D01*
X118245366Y-115805000D01*
X117268711Y-115805000D01*
X116373937Y-114910227D01*
X116316193Y-114823807D01*
X115973837Y-114595052D01*
X115671935Y-114535000D01*
X115671934Y-114535000D01*
X115570000Y-114514724D01*
X115468066Y-114535000D01*
X114885250Y-114535000D01*
X114811049Y-114423951D01*
X114518310Y-114228348D01*
X114398159Y-114204449D01*
X114267229Y-114073518D01*
X114329978Y-114086000D01*
X114588022Y-114086000D01*
X114970136Y-114009993D01*
X115254777Y-113819802D01*
X115424301Y-113989327D01*
X115657690Y-114086000D01*
X116173250Y-114086000D01*
X116332000Y-113927250D01*
X116332000Y-112903000D01*
X116586000Y-112903000D01*
X116586000Y-113927250D01*
X116744750Y-114086000D01*
X117260310Y-114086000D01*
X117493699Y-113989327D01*
X117672327Y-113810698D01*
X117769000Y-113577309D01*
X117769000Y-113061750D01*
X117610250Y-112903000D01*
X116586000Y-112903000D01*
X116332000Y-112903000D01*
X116312000Y-112903000D01*
X116312000Y-112649000D01*
X116332000Y-112649000D01*
X116332000Y-111624750D01*
X116173250Y-111466000D01*
X115657690Y-111466000D01*
X115424301Y-111562673D01*
X115254777Y-111732198D01*
X114970136Y-111542007D01*
X114588022Y-111466000D01*
X114329978Y-111466000D01*
X114180706Y-111495692D01*
X114169000Y-111436839D01*
X114169000Y-111403700D01*
X114257157Y-111271765D01*
X114268696Y-111213756D01*
X114284801Y-111210552D01*
X114287124Y-111209000D01*
X116616358Y-111209000D01*
X116628843Y-111271765D01*
X116758628Y-111466000D01*
X116744750Y-111466000D01*
X116586000Y-111624750D01*
X116586000Y-112649000D01*
X117610250Y-112649000D01*
X117766560Y-112492690D01*
X117995000Y-112492690D01*
X117995000Y-112758250D01*
X118153750Y-112917000D01*
X118755000Y-112917000D01*
X118755000Y-112142750D01*
X118596250Y-111984000D01*
X118503691Y-111984000D01*
X118270302Y-112080673D01*
X118091673Y-112259301D01*
X117995000Y-112492690D01*
X117766560Y-112492690D01*
X117769000Y-112490250D01*
X117769000Y-111974691D01*
X117672327Y-111741302D01*
X117602465Y-111671440D01*
X117724009Y-111671440D01*
X117737047Y-111690953D01*
X117996708Y-111864454D01*
X118225684Y-111910000D01*
X118225688Y-111910000D01*
X118303000Y-111925378D01*
X118380312Y-111910000D01*
X118712197Y-111910000D01*
X118832908Y-111960000D01*
X119165092Y-111960000D01*
X119471990Y-111832879D01*
X119706879Y-111597990D01*
X119834000Y-111291092D01*
X119834000Y-110958908D01*
X119706879Y-110652010D01*
X119471990Y-110417121D01*
X119165092Y-110290000D01*
X118832908Y-110290000D01*
X118712197Y-110340000D01*
X118628157Y-110340000D01*
X118624440Y-110336283D01*
X118624440Y-109824000D01*
X118575157Y-109576235D01*
X118506845Y-109474000D01*
X118575157Y-109371765D01*
X118624440Y-109124000D01*
X118624440Y-107924000D01*
X118575157Y-107676235D01*
X118434809Y-107466191D01*
X118224765Y-107325843D01*
X118139054Y-107308794D01*
X118131905Y-107298095D01*
X118070538Y-107257091D01*
X117935887Y-107122440D01*
X118433000Y-107122440D01*
X118680765Y-107073157D01*
X118890809Y-106932809D01*
X119031157Y-106722765D01*
X119080440Y-106475000D01*
X119080440Y-106372000D01*
X119292092Y-106372000D01*
X119598990Y-106244879D01*
X119833879Y-106009990D01*
X119961000Y-105703092D01*
X119961000Y-105370908D01*
X119833879Y-105064010D01*
X119598990Y-104829121D01*
X119292092Y-104702000D01*
X118959908Y-104702000D01*
X118892830Y-104729785D01*
X119031157Y-104522765D01*
X119080440Y-104275000D01*
X119080440Y-103075000D01*
X119031157Y-102827235D01*
X118890809Y-102617191D01*
X118680765Y-102476843D01*
X118433000Y-102427560D01*
X117533000Y-102427560D01*
X117285235Y-102476843D01*
X117151589Y-102566143D01*
X116561440Y-101975994D01*
X116561440Y-100784000D01*
X116775592Y-100784000D01*
X117082490Y-100656879D01*
X117317379Y-100421990D01*
X117391958Y-100241940D01*
X118464000Y-100241940D01*
X118711765Y-100192657D01*
X118921809Y-100052309D01*
X119062157Y-99842265D01*
X119111440Y-99594500D01*
X119111440Y-99431387D01*
X119835592Y-100155539D01*
X119835592Y-100155539D01*
G37*
X119835592Y-100155539D02*
X119876597Y-100216907D01*
X120119719Y-100379356D01*
X120334114Y-100422002D01*
X120334118Y-100422002D01*
X120406502Y-100436400D01*
X120478886Y-100422002D01*
X122468619Y-100422002D01*
X122515000Y-100431228D01*
X122515000Y-100620075D01*
X122714436Y-101101555D01*
X122972381Y-101359500D01*
X122714436Y-101617445D01*
X122515000Y-102098925D01*
X122515000Y-102620075D01*
X122714436Y-103101555D01*
X122972381Y-103359500D01*
X122714436Y-103617445D01*
X122515000Y-104098925D01*
X122515000Y-104620075D01*
X122714436Y-105101555D01*
X123082945Y-105470064D01*
X123564425Y-105669500D01*
X124085575Y-105669500D01*
X124567055Y-105470064D01*
X124825000Y-105212119D01*
X125082945Y-105470064D01*
X125564425Y-105669500D01*
X126085575Y-105669500D01*
X126567055Y-105470064D01*
X126935564Y-105101555D01*
X127135000Y-104620075D01*
X127135000Y-104098925D01*
X126935564Y-103617445D01*
X126712619Y-103394500D01*
X128759001Y-103394500D01*
X128759000Y-115141289D01*
X128095290Y-115805000D01*
X127818869Y-115805000D01*
X127834879Y-115788990D01*
X127962000Y-115482092D01*
X127962000Y-115149908D01*
X127834879Y-114843010D01*
X127599990Y-114608121D01*
X127358567Y-114508121D01*
X126935911Y-114085465D01*
X126894905Y-114024095D01*
X126702470Y-113895514D01*
X126694657Y-113856235D01*
X126554309Y-113646191D01*
X126344265Y-113505843D01*
X126096500Y-113456560D01*
X124896500Y-113456560D01*
X124648735Y-113505843D01*
X124438691Y-113646191D01*
X124396500Y-113709334D01*
X124354309Y-113646191D01*
X124144265Y-113505843D01*
X123896500Y-113456560D01*
X123154598Y-113456560D01*
X123309218Y-113301940D01*
X123896500Y-113301940D01*
X124144265Y-113252657D01*
X124354309Y-113112309D01*
X124396500Y-113049166D01*
X124438691Y-113112309D01*
X124648735Y-113252657D01*
X124896500Y-113301940D01*
X126096500Y-113301940D01*
X126311690Y-113259137D01*
X126319121Y-113266567D01*
X126419121Y-113507990D01*
X126654010Y-113742879D01*
X126960908Y-113870000D01*
X127293092Y-113870000D01*
X127599990Y-113742879D01*
X127834879Y-113507990D01*
X127962000Y-113201092D01*
X127962000Y-112868908D01*
X127834879Y-112562010D01*
X127599990Y-112327121D01*
X127358567Y-112227121D01*
X126867411Y-111735965D01*
X126826405Y-111674595D01*
X126730692Y-111610642D01*
X126960908Y-111706000D01*
X127293092Y-111706000D01*
X127599990Y-111578879D01*
X127834879Y-111343990D01*
X127962000Y-111037092D01*
X127962000Y-110704908D01*
X127834879Y-110398010D01*
X127658800Y-110221931D01*
X127656905Y-110219095D01*
X127654069Y-110217200D01*
X127599990Y-110163121D01*
X127566834Y-110149388D01*
X126867411Y-109449965D01*
X126826405Y-109388595D01*
X126712970Y-109312800D01*
X126694657Y-109220735D01*
X126554309Y-109010691D01*
X126344265Y-108870343D01*
X126096500Y-108821060D01*
X124896500Y-108821060D01*
X124648735Y-108870343D01*
X124438691Y-109010691D01*
X124396500Y-109073834D01*
X124354309Y-109010691D01*
X124144265Y-108870343D01*
X123896500Y-108821060D01*
X122696500Y-108821060D01*
X122448735Y-108870343D01*
X122238691Y-109010691D01*
X122098343Y-109220735D01*
X122049060Y-109468500D01*
X122049060Y-110055782D01*
X120132738Y-111972105D01*
X120130000Y-111971560D01*
X119630000Y-111971560D01*
X119382235Y-112020843D01*
X119368084Y-112030299D01*
X119256309Y-111984000D01*
X119163750Y-111984000D01*
X119005000Y-112142750D01*
X119005000Y-112506185D01*
X118982560Y-112619000D01*
X118982560Y-113191000D01*
X118755000Y-113191000D01*
X118755000Y-113171000D01*
X118153750Y-113171000D01*
X117995000Y-113329750D01*
X117995000Y-113595310D01*
X118091673Y-113828699D01*
X118173375Y-113910400D01*
X118172191Y-113911191D01*
X118031843Y-114121235D01*
X117982560Y-114369000D01*
X117982560Y-115219000D01*
X118031843Y-115466765D01*
X118172191Y-115676809D01*
X118227175Y-115713548D01*
X118245366Y-115805000D01*
X117268711Y-115805000D01*
X116373937Y-114910227D01*
X116316193Y-114823807D01*
X115973837Y-114595052D01*
X115671935Y-114535000D01*
X115671934Y-114535000D01*
X115570000Y-114514724D01*
X115468066Y-114535000D01*
X114885250Y-114535000D01*
X114811049Y-114423951D01*
X114518310Y-114228348D01*
X114398159Y-114204449D01*
X114267229Y-114073518D01*
X114329978Y-114086000D01*
X114588022Y-114086000D01*
X114970136Y-114009993D01*
X115254777Y-113819802D01*
X115424301Y-113989327D01*
X115657690Y-114086000D01*
X116173250Y-114086000D01*
X116332000Y-113927250D01*
X116332000Y-112903000D01*
X116586000Y-112903000D01*
X116586000Y-113927250D01*
X116744750Y-114086000D01*
X117260310Y-114086000D01*
X117493699Y-113989327D01*
X117672327Y-113810698D01*
X117769000Y-113577309D01*
X117769000Y-113061750D01*
X117610250Y-112903000D01*
X116586000Y-112903000D01*
X116332000Y-112903000D01*
X116312000Y-112903000D01*
X116312000Y-112649000D01*
X116332000Y-112649000D01*
X116332000Y-111624750D01*
X116173250Y-111466000D01*
X115657690Y-111466000D01*
X115424301Y-111562673D01*
X115254777Y-111732198D01*
X114970136Y-111542007D01*
X114588022Y-111466000D01*
X114329978Y-111466000D01*
X114180706Y-111495692D01*
X114169000Y-111436839D01*
X114169000Y-111403700D01*
X114257157Y-111271765D01*
X114268696Y-111213756D01*
X114284801Y-111210552D01*
X114287124Y-111209000D01*
X116616358Y-111209000D01*
X116628843Y-111271765D01*
X116758628Y-111466000D01*
X116744750Y-111466000D01*
X116586000Y-111624750D01*
X116586000Y-112649000D01*
X117610250Y-112649000D01*
X117766560Y-112492690D01*
X117995000Y-112492690D01*
X117995000Y-112758250D01*
X118153750Y-112917000D01*
X118755000Y-112917000D01*
X118755000Y-112142750D01*
X118596250Y-111984000D01*
X118503691Y-111984000D01*
X118270302Y-112080673D01*
X118091673Y-112259301D01*
X117995000Y-112492690D01*
X117766560Y-112492690D01*
X117769000Y-112490250D01*
X117769000Y-111974691D01*
X117672327Y-111741302D01*
X117602465Y-111671440D01*
X117724009Y-111671440D01*
X117737047Y-111690953D01*
X117996708Y-111864454D01*
X118225684Y-111910000D01*
X118225688Y-111910000D01*
X118303000Y-111925378D01*
X118380312Y-111910000D01*
X118712197Y-111910000D01*
X118832908Y-111960000D01*
X119165092Y-111960000D01*
X119471990Y-111832879D01*
X119706879Y-111597990D01*
X119834000Y-111291092D01*
X119834000Y-110958908D01*
X119706879Y-110652010D01*
X119471990Y-110417121D01*
X119165092Y-110290000D01*
X118832908Y-110290000D01*
X118712197Y-110340000D01*
X118628157Y-110340000D01*
X118624440Y-110336283D01*
X118624440Y-109824000D01*
X118575157Y-109576235D01*
X118506845Y-109474000D01*
X118575157Y-109371765D01*
X118624440Y-109124000D01*
X118624440Y-107924000D01*
X118575157Y-107676235D01*
X118434809Y-107466191D01*
X118224765Y-107325843D01*
X118139054Y-107308794D01*
X118131905Y-107298095D01*
X118070538Y-107257091D01*
X117935887Y-107122440D01*
X118433000Y-107122440D01*
X118680765Y-107073157D01*
X118890809Y-106932809D01*
X119031157Y-106722765D01*
X119080440Y-106475000D01*
X119080440Y-106372000D01*
X119292092Y-106372000D01*
X119598990Y-106244879D01*
X119833879Y-106009990D01*
X119961000Y-105703092D01*
X119961000Y-105370908D01*
X119833879Y-105064010D01*
X119598990Y-104829121D01*
X119292092Y-104702000D01*
X118959908Y-104702000D01*
X118892830Y-104729785D01*
X119031157Y-104522765D01*
X119080440Y-104275000D01*
X119080440Y-103075000D01*
X119031157Y-102827235D01*
X118890809Y-102617191D01*
X118680765Y-102476843D01*
X118433000Y-102427560D01*
X117533000Y-102427560D01*
X117285235Y-102476843D01*
X117151589Y-102566143D01*
X116561440Y-101975994D01*
X116561440Y-100784000D01*
X116775592Y-100784000D01*
X117082490Y-100656879D01*
X117317379Y-100421990D01*
X117391958Y-100241940D01*
X118464000Y-100241940D01*
X118711765Y-100192657D01*
X118921809Y-100052309D01*
X119062157Y-99842265D01*
X119111440Y-99594500D01*
X119111440Y-99431387D01*
X119835592Y-100155539D01*
G36*
X97775500Y-98707750D02*
X97934250Y-98866500D01*
X99053500Y-98866500D01*
X99053500Y-98846500D01*
X99307500Y-98846500D01*
X99307500Y-98866500D01*
X99327500Y-98866500D01*
X99327500Y-99120500D01*
X99307500Y-99120500D01*
X99307500Y-100369750D01*
X99331250Y-100393500D01*
X99307500Y-100417250D01*
X99307500Y-101666500D01*
X99327500Y-101666500D01*
X99327500Y-101920500D01*
X99307500Y-101920500D01*
X99307500Y-103169750D01*
X99466250Y-103328500D01*
X99953000Y-103328500D01*
X99953001Y-104471921D01*
X99765847Y-104659075D01*
X99691951Y-104708451D01*
X99496348Y-105001191D01*
X99445000Y-105259336D01*
X99445000Y-105259339D01*
X99427663Y-105346500D01*
X99445000Y-105433661D01*
X99445001Y-106767165D01*
X99496349Y-107025310D01*
X99691952Y-107318049D01*
X99984691Y-107513652D01*
X100330000Y-107582338D01*
X100675310Y-107513652D01*
X100968049Y-107318049D01*
X101163652Y-107025310D01*
X101215000Y-106767165D01*
X101215000Y-105713078D01*
X101402153Y-105525925D01*
X101476049Y-105476549D01*
X101671652Y-105183810D01*
X101723000Y-104925665D01*
X101723000Y-104925661D01*
X101740337Y-104838501D01*
X101723000Y-104751341D01*
X101723000Y-104226999D01*
X102922592Y-104226999D01*
X103049498Y-104394000D01*
X104140000Y-104394000D01*
X104140000Y-103436000D01*
X103840000Y-103436000D01*
X103434456Y-103567192D01*
X103109987Y-103843592D01*
X102922592Y-104226999D01*
X101723000Y-104226999D01*
X101723000Y-103340940D01*
X102630500Y-103340940D01*
X102878265Y-103291657D01*
X103088309Y-103151309D01*
X103228657Y-102941265D01*
X103277940Y-102693500D01*
X103277940Y-100978500D01*
X103813000Y-100978500D01*
X103813000Y-101017755D01*
X103794010Y-101025621D01*
X103559121Y-101260510D01*
X103432000Y-101567408D01*
X103432000Y-101899592D01*
X103559121Y-102206490D01*
X103794010Y-102441379D01*
X104100908Y-102568500D01*
X104433092Y-102568500D01*
X104739990Y-102441379D01*
X104974879Y-102206490D01*
X105102000Y-101899592D01*
X105102000Y-101807745D01*
X105120990Y-101799879D01*
X105355879Y-101564990D01*
X105483000Y-101258092D01*
X105483000Y-100925908D01*
X105355879Y-100619010D01*
X105120990Y-100384121D01*
X104989147Y-100329510D01*
X105202198Y-100116459D01*
X105316235Y-100192657D01*
X105564000Y-100241940D01*
X107014062Y-100241940D01*
X107039095Y-100279405D01*
X107100465Y-100320411D01*
X107466560Y-100686507D01*
X107466560Y-102144500D01*
X107515843Y-102392265D01*
X107656191Y-102602309D01*
X107866235Y-102742657D01*
X108114000Y-102791940D01*
X108414000Y-102791940D01*
X108479002Y-102779010D01*
X108479001Y-103775944D01*
X108461136Y-103764007D01*
X108079022Y-103688000D01*
X107820978Y-103688000D01*
X107438864Y-103764007D01*
X107190258Y-103930121D01*
X107133879Y-103794010D01*
X106898990Y-103559121D01*
X106592092Y-103432000D01*
X106259908Y-103432000D01*
X105953010Y-103559121D01*
X105718121Y-103794010D01*
X105591000Y-104100908D01*
X105591000Y-104185245D01*
X105424013Y-103843592D01*
X105099544Y-103567192D01*
X104694000Y-103436000D01*
X104394000Y-103436000D01*
X104394000Y-104394000D01*
X104414000Y-104394000D01*
X104414000Y-104648000D01*
X104394000Y-104648000D01*
X104394000Y-104668000D01*
X104140000Y-104668000D01*
X104140000Y-104648000D01*
X103049498Y-104648000D01*
X102984673Y-104733306D01*
X102909092Y-104702000D01*
X102576908Y-104702000D01*
X102270010Y-104829121D01*
X102035121Y-105064010D01*
X101908000Y-105370908D01*
X101908000Y-105703092D01*
X102035121Y-106009990D01*
X102270010Y-106244879D01*
X102576908Y-106372000D01*
X102909092Y-106372000D01*
X102917819Y-106368385D01*
X102869560Y-106611000D01*
X102869560Y-107511000D01*
X102918843Y-107758765D01*
X103059191Y-107968809D01*
X103111858Y-108004000D01*
X102957908Y-108004000D01*
X102651010Y-108131121D01*
X102416121Y-108366010D01*
X102289000Y-108672908D01*
X102289000Y-109005092D01*
X102339000Y-109125803D01*
X102339000Y-109126688D01*
X102323622Y-109204000D01*
X102339000Y-109281312D01*
X102339000Y-109281315D01*
X102368204Y-109428133D01*
X102384546Y-109510291D01*
X102494144Y-109674315D01*
X102558047Y-109769953D01*
X102623592Y-109813749D01*
X102907251Y-110097408D01*
X102951047Y-110162953D01*
X103195243Y-110326121D01*
X103218843Y-110444765D01*
X103359191Y-110654809D01*
X103420320Y-110695654D01*
X103278673Y-110837302D01*
X103182000Y-111070691D01*
X103182000Y-111511250D01*
X103340750Y-111670000D01*
X104140000Y-111670000D01*
X104140000Y-111650000D01*
X104394000Y-111650000D01*
X104394000Y-111670000D01*
X105193250Y-111670000D01*
X105352000Y-111511250D01*
X105352000Y-111283750D01*
X106640000Y-111283750D01*
X106640000Y-111799310D01*
X106736673Y-112032699D01*
X106915302Y-112211327D01*
X107148691Y-112308000D01*
X107664250Y-112308000D01*
X107823000Y-112149250D01*
X107823000Y-111125000D01*
X108077000Y-111125000D01*
X108077000Y-112149250D01*
X108235750Y-112308000D01*
X108751309Y-112308000D01*
X108984698Y-112211327D01*
X109163327Y-112032699D01*
X109260000Y-111799310D01*
X109260000Y-111283750D01*
X109101250Y-111125000D01*
X108077000Y-111125000D01*
X107823000Y-111125000D01*
X106798750Y-111125000D01*
X106640000Y-111283750D01*
X105352000Y-111283750D01*
X105352000Y-111070691D01*
X105255327Y-110837302D01*
X105113680Y-110695654D01*
X105174809Y-110654809D01*
X105315157Y-110444765D01*
X105364440Y-110197000D01*
X105364440Y-109459717D01*
X106926411Y-107897747D01*
X106960465Y-107874993D01*
X107005543Y-107942457D01*
X107088669Y-107998000D01*
X107005543Y-108053543D01*
X106716007Y-108486864D01*
X106614336Y-108998000D01*
X106716007Y-109509136D01*
X106906198Y-109793777D01*
X106736673Y-109963301D01*
X106640000Y-110196690D01*
X106640000Y-110712250D01*
X106798750Y-110871000D01*
X107823000Y-110871000D01*
X107823000Y-110851000D01*
X108077000Y-110851000D01*
X108077000Y-110871000D01*
X109101250Y-110871000D01*
X109260000Y-110712250D01*
X109260000Y-110196690D01*
X109163327Y-109963301D01*
X108993802Y-109793777D01*
X109183993Y-109509136D01*
X109285664Y-108998000D01*
X109183993Y-108486864D01*
X108894457Y-108053543D01*
X108811331Y-107998000D01*
X108894457Y-107942457D01*
X109183993Y-107509136D01*
X109285664Y-106998000D01*
X109183993Y-106486864D01*
X108894457Y-106053543D01*
X108811331Y-105998000D01*
X108894457Y-105942457D01*
X109001003Y-105783000D01*
X109173688Y-105783000D01*
X109251000Y-105798378D01*
X109328312Y-105783000D01*
X111269188Y-105783000D01*
X111346500Y-105798378D01*
X111423812Y-105783000D01*
X111423816Y-105783000D01*
X111652792Y-105737454D01*
X111662259Y-105731128D01*
X111791010Y-105859879D01*
X112013009Y-105951834D01*
X111407723Y-106557120D01*
X111287010Y-106607121D01*
X111052121Y-106842010D01*
X110925000Y-107148908D01*
X110925000Y-107481092D01*
X111052121Y-107787990D01*
X111287010Y-108022879D01*
X111593908Y-108150000D01*
X111926092Y-108150000D01*
X112232990Y-108022879D01*
X112261560Y-107994309D01*
X112261560Y-109106353D01*
X112053084Y-109020000D01*
X111720900Y-109020000D01*
X111414002Y-109147121D01*
X111179113Y-109382010D01*
X111051992Y-109688908D01*
X111051992Y-110021092D01*
X111179113Y-110327990D01*
X111414002Y-110562879D01*
X111720900Y-110690000D01*
X112053084Y-110690000D01*
X112261560Y-110603647D01*
X112261560Y-111024000D01*
X112306498Y-111249923D01*
X112084846Y-111471575D01*
X112010951Y-111520951D01*
X111815348Y-111813691D01*
X111764000Y-112071836D01*
X111764000Y-112071839D01*
X111763396Y-112074875D01*
X111698146Y-112087854D01*
X111322712Y-112338711D01*
X111071854Y-112714145D01*
X111038068Y-112884000D01*
X105128026Y-112884000D01*
X105255327Y-112756698D01*
X105352000Y-112523309D01*
X105352000Y-112082750D01*
X105193250Y-111924000D01*
X104394000Y-111924000D01*
X104394000Y-111944000D01*
X104140000Y-111944000D01*
X104140000Y-111924000D01*
X103340750Y-111924000D01*
X103182000Y-112082750D01*
X103182000Y-112523309D01*
X103278673Y-112756698D01*
X103405974Y-112884000D01*
X103327553Y-112884000D01*
X102686779Y-112243227D01*
X102629035Y-112156807D01*
X102286679Y-111928052D01*
X101984777Y-111868000D01*
X101984776Y-111868000D01*
X101882842Y-111847724D01*
X101780908Y-111868000D01*
X101498065Y-111868000D01*
X101196163Y-111928052D01*
X100853807Y-112156807D01*
X100625052Y-112499163D01*
X100544724Y-112903000D01*
X100625052Y-113306837D01*
X100853807Y-113649193D01*
X101196163Y-113877948D01*
X101443223Y-113927091D01*
X102094907Y-114578776D01*
X102152649Y-114665193D01*
X102415438Y-114840783D01*
X102450476Y-114864195D01*
X88950000Y-111785139D01*
X88950000Y-104693440D01*
X90897000Y-104693440D01*
X91144765Y-104644157D01*
X91178223Y-104621801D01*
X93730001Y-107173580D01*
X93730000Y-108037164D01*
X93781348Y-108295309D01*
X93830000Y-108368122D01*
X93830000Y-108568688D01*
X93814622Y-108646000D01*
X93830000Y-108723312D01*
X93830000Y-108723316D01*
X93842002Y-108783652D01*
X93875546Y-108952291D01*
X94005251Y-109146408D01*
X94005254Y-109146411D01*
X94049048Y-109211953D01*
X94114590Y-109255747D01*
X94322560Y-109463717D01*
X94322560Y-109976000D01*
X94371843Y-110223765D01*
X94512191Y-110433809D01*
X94722235Y-110574157D01*
X94970000Y-110623440D01*
X96170000Y-110623440D01*
X96417765Y-110574157D01*
X96509102Y-110513127D01*
X96510302Y-110514327D01*
X96743691Y-110611000D01*
X97184250Y-110611000D01*
X97343000Y-110452250D01*
X97343000Y-109728000D01*
X97597000Y-109728000D01*
X97597000Y-110452250D01*
X97755750Y-110611000D01*
X98196309Y-110611000D01*
X98429698Y-110514327D01*
X98608327Y-110335699D01*
X98705000Y-110102310D01*
X98705000Y-109886750D01*
X98546250Y-109728000D01*
X97597000Y-109728000D01*
X97343000Y-109728000D01*
X97323000Y-109728000D01*
X97323000Y-109474000D01*
X97343000Y-109474000D01*
X97343000Y-108749750D01*
X97597000Y-108749750D01*
X97597000Y-109474000D01*
X98546250Y-109474000D01*
X98705000Y-109315250D01*
X98705000Y-109099690D01*
X98608327Y-108866301D01*
X98429698Y-108687673D01*
X98196309Y-108591000D01*
X97755750Y-108591000D01*
X97597000Y-108749750D01*
X97343000Y-108749750D01*
X97184250Y-108591000D01*
X96743691Y-108591000D01*
X96510302Y-108687673D01*
X96509102Y-108688873D01*
X96417765Y-108627843D01*
X96170000Y-108578560D01*
X95657718Y-108578560D01*
X95418938Y-108339780D01*
X95448652Y-108295310D01*
X95500000Y-108037165D01*
X95500000Y-106894161D01*
X95517337Y-106807000D01*
X95500000Y-106719839D01*
X95500000Y-106719835D01*
X95448652Y-106461690D01*
X95321382Y-106271218D01*
X95302424Y-106242845D01*
X95302423Y-106242844D01*
X95253049Y-106168951D01*
X95179156Y-106119577D01*
X92091425Y-103031847D01*
X92042049Y-102957951D01*
X91749310Y-102762348D01*
X91644811Y-102741562D01*
X91763953Y-102661953D01*
X91807749Y-102596408D01*
X92324907Y-102079250D01*
X97775500Y-102079250D01*
X97775500Y-102819810D01*
X97872173Y-103053199D01*
X98050802Y-103231827D01*
X98284191Y-103328500D01*
X98894750Y-103328500D01*
X99053500Y-103169750D01*
X99053500Y-101920500D01*
X97934250Y-101920500D01*
X97775500Y-102079250D01*
X92324907Y-102079250D01*
X94035046Y-100369112D01*
X94291959Y-100197447D01*
X94335755Y-100131902D01*
X95188407Y-99279250D01*
X97775500Y-99279250D01*
X97775500Y-100019810D01*
X97872173Y-100253199D01*
X98012475Y-100393500D01*
X97872173Y-100533801D01*
X97775500Y-100767190D01*
X97775500Y-101507750D01*
X97934250Y-101666500D01*
X99053500Y-101666500D01*
X99053500Y-100417250D01*
X99029750Y-100393500D01*
X99053500Y-100369750D01*
X99053500Y-99120500D01*
X97934250Y-99120500D01*
X97775500Y-99279250D01*
X95188407Y-99279250D01*
X96238157Y-98229500D01*
X97775500Y-98229500D01*
X97775500Y-98707750D01*
X97775500Y-98707750D01*
G37*
X97775500Y-98707750D02*
X97934250Y-98866500D01*
X99053500Y-98866500D01*
X99053500Y-98846500D01*
X99307500Y-98846500D01*
X99307500Y-98866500D01*
X99327500Y-98866500D01*
X99327500Y-99120500D01*
X99307500Y-99120500D01*
X99307500Y-100369750D01*
X99331250Y-100393500D01*
X99307500Y-100417250D01*
X99307500Y-101666500D01*
X99327500Y-101666500D01*
X99327500Y-101920500D01*
X99307500Y-101920500D01*
X99307500Y-103169750D01*
X99466250Y-103328500D01*
X99953000Y-103328500D01*
X99953001Y-104471921D01*
X99765847Y-104659075D01*
X99691951Y-104708451D01*
X99496348Y-105001191D01*
X99445000Y-105259336D01*
X99445000Y-105259339D01*
X99427663Y-105346500D01*
X99445000Y-105433661D01*
X99445001Y-106767165D01*
X99496349Y-107025310D01*
X99691952Y-107318049D01*
X99984691Y-107513652D01*
X100330000Y-107582338D01*
X100675310Y-107513652D01*
X100968049Y-107318049D01*
X101163652Y-107025310D01*
X101215000Y-106767165D01*
X101215000Y-105713078D01*
X101402153Y-105525925D01*
X101476049Y-105476549D01*
X101671652Y-105183810D01*
X101723000Y-104925665D01*
X101723000Y-104925661D01*
X101740337Y-104838501D01*
X101723000Y-104751341D01*
X101723000Y-104226999D01*
X102922592Y-104226999D01*
X103049498Y-104394000D01*
X104140000Y-104394000D01*
X104140000Y-103436000D01*
X103840000Y-103436000D01*
X103434456Y-103567192D01*
X103109987Y-103843592D01*
X102922592Y-104226999D01*
X101723000Y-104226999D01*
X101723000Y-103340940D01*
X102630500Y-103340940D01*
X102878265Y-103291657D01*
X103088309Y-103151309D01*
X103228657Y-102941265D01*
X103277940Y-102693500D01*
X103277940Y-100978500D01*
X103813000Y-100978500D01*
X103813000Y-101017755D01*
X103794010Y-101025621D01*
X103559121Y-101260510D01*
X103432000Y-101567408D01*
X103432000Y-101899592D01*
X103559121Y-102206490D01*
X103794010Y-102441379D01*
X104100908Y-102568500D01*
X104433092Y-102568500D01*
X104739990Y-102441379D01*
X104974879Y-102206490D01*
X105102000Y-101899592D01*
X105102000Y-101807745D01*
X105120990Y-101799879D01*
X105355879Y-101564990D01*
X105483000Y-101258092D01*
X105483000Y-100925908D01*
X105355879Y-100619010D01*
X105120990Y-100384121D01*
X104989147Y-100329510D01*
X105202198Y-100116459D01*
X105316235Y-100192657D01*
X105564000Y-100241940D01*
X107014062Y-100241940D01*
X107039095Y-100279405D01*
X107100465Y-100320411D01*
X107466560Y-100686507D01*
X107466560Y-102144500D01*
X107515843Y-102392265D01*
X107656191Y-102602309D01*
X107866235Y-102742657D01*
X108114000Y-102791940D01*
X108414000Y-102791940D01*
X108479002Y-102779010D01*
X108479001Y-103775944D01*
X108461136Y-103764007D01*
X108079022Y-103688000D01*
X107820978Y-103688000D01*
X107438864Y-103764007D01*
X107190258Y-103930121D01*
X107133879Y-103794010D01*
X106898990Y-103559121D01*
X106592092Y-103432000D01*
X106259908Y-103432000D01*
X105953010Y-103559121D01*
X105718121Y-103794010D01*
X105591000Y-104100908D01*
X105591000Y-104185245D01*
X105424013Y-103843592D01*
X105099544Y-103567192D01*
X104694000Y-103436000D01*
X104394000Y-103436000D01*
X104394000Y-104394000D01*
X104414000Y-104394000D01*
X104414000Y-104648000D01*
X104394000Y-104648000D01*
X104394000Y-104668000D01*
X104140000Y-104668000D01*
X104140000Y-104648000D01*
X103049498Y-104648000D01*
X102984673Y-104733306D01*
X102909092Y-104702000D01*
X102576908Y-104702000D01*
X102270010Y-104829121D01*
X102035121Y-105064010D01*
X101908000Y-105370908D01*
X101908000Y-105703092D01*
X102035121Y-106009990D01*
X102270010Y-106244879D01*
X102576908Y-106372000D01*
X102909092Y-106372000D01*
X102917819Y-106368385D01*
X102869560Y-106611000D01*
X102869560Y-107511000D01*
X102918843Y-107758765D01*
X103059191Y-107968809D01*
X103111858Y-108004000D01*
X102957908Y-108004000D01*
X102651010Y-108131121D01*
X102416121Y-108366010D01*
X102289000Y-108672908D01*
X102289000Y-109005092D01*
X102339000Y-109125803D01*
X102339000Y-109126688D01*
X102323622Y-109204000D01*
X102339000Y-109281312D01*
X102339000Y-109281315D01*
X102368204Y-109428133D01*
X102384546Y-109510291D01*
X102494144Y-109674315D01*
X102558047Y-109769953D01*
X102623592Y-109813749D01*
X102907251Y-110097408D01*
X102951047Y-110162953D01*
X103195243Y-110326121D01*
X103218843Y-110444765D01*
X103359191Y-110654809D01*
X103420320Y-110695654D01*
X103278673Y-110837302D01*
X103182000Y-111070691D01*
X103182000Y-111511250D01*
X103340750Y-111670000D01*
X104140000Y-111670000D01*
X104140000Y-111650000D01*
X104394000Y-111650000D01*
X104394000Y-111670000D01*
X105193250Y-111670000D01*
X105352000Y-111511250D01*
X105352000Y-111283750D01*
X106640000Y-111283750D01*
X106640000Y-111799310D01*
X106736673Y-112032699D01*
X106915302Y-112211327D01*
X107148691Y-112308000D01*
X107664250Y-112308000D01*
X107823000Y-112149250D01*
X107823000Y-111125000D01*
X108077000Y-111125000D01*
X108077000Y-112149250D01*
X108235750Y-112308000D01*
X108751309Y-112308000D01*
X108984698Y-112211327D01*
X109163327Y-112032699D01*
X109260000Y-111799310D01*
X109260000Y-111283750D01*
X109101250Y-111125000D01*
X108077000Y-111125000D01*
X107823000Y-111125000D01*
X106798750Y-111125000D01*
X106640000Y-111283750D01*
X105352000Y-111283750D01*
X105352000Y-111070691D01*
X105255327Y-110837302D01*
X105113680Y-110695654D01*
X105174809Y-110654809D01*
X105315157Y-110444765D01*
X105364440Y-110197000D01*
X105364440Y-109459717D01*
X106926411Y-107897747D01*
X106960465Y-107874993D01*
X107005543Y-107942457D01*
X107088669Y-107998000D01*
X107005543Y-108053543D01*
X106716007Y-108486864D01*
X106614336Y-108998000D01*
X106716007Y-109509136D01*
X106906198Y-109793777D01*
X106736673Y-109963301D01*
X106640000Y-110196690D01*
X106640000Y-110712250D01*
X106798750Y-110871000D01*
X107823000Y-110871000D01*
X107823000Y-110851000D01*
X108077000Y-110851000D01*
X108077000Y-110871000D01*
X109101250Y-110871000D01*
X109260000Y-110712250D01*
X109260000Y-110196690D01*
X109163327Y-109963301D01*
X108993802Y-109793777D01*
X109183993Y-109509136D01*
X109285664Y-108998000D01*
X109183993Y-108486864D01*
X108894457Y-108053543D01*
X108811331Y-107998000D01*
X108894457Y-107942457D01*
X109183993Y-107509136D01*
X109285664Y-106998000D01*
X109183993Y-106486864D01*
X108894457Y-106053543D01*
X108811331Y-105998000D01*
X108894457Y-105942457D01*
X109001003Y-105783000D01*
X109173688Y-105783000D01*
X109251000Y-105798378D01*
X109328312Y-105783000D01*
X111269188Y-105783000D01*
X111346500Y-105798378D01*
X111423812Y-105783000D01*
X111423816Y-105783000D01*
X111652792Y-105737454D01*
X111662259Y-105731128D01*
X111791010Y-105859879D01*
X112013009Y-105951834D01*
X111407723Y-106557120D01*
X111287010Y-106607121D01*
X111052121Y-106842010D01*
X110925000Y-107148908D01*
X110925000Y-107481092D01*
X111052121Y-107787990D01*
X111287010Y-108022879D01*
X111593908Y-108150000D01*
X111926092Y-108150000D01*
X112232990Y-108022879D01*
X112261560Y-107994309D01*
X112261560Y-109106353D01*
X112053084Y-109020000D01*
X111720900Y-109020000D01*
X111414002Y-109147121D01*
X111179113Y-109382010D01*
X111051992Y-109688908D01*
X111051992Y-110021092D01*
X111179113Y-110327990D01*
X111414002Y-110562879D01*
X111720900Y-110690000D01*
X112053084Y-110690000D01*
X112261560Y-110603647D01*
X112261560Y-111024000D01*
X112306498Y-111249923D01*
X112084846Y-111471575D01*
X112010951Y-111520951D01*
X111815348Y-111813691D01*
X111764000Y-112071836D01*
X111764000Y-112071839D01*
X111763396Y-112074875D01*
X111698146Y-112087854D01*
X111322712Y-112338711D01*
X111071854Y-112714145D01*
X111038068Y-112884000D01*
X105128026Y-112884000D01*
X105255327Y-112756698D01*
X105352000Y-112523309D01*
X105352000Y-112082750D01*
X105193250Y-111924000D01*
X104394000Y-111924000D01*
X104394000Y-111944000D01*
X104140000Y-111944000D01*
X104140000Y-111924000D01*
X103340750Y-111924000D01*
X103182000Y-112082750D01*
X103182000Y-112523309D01*
X103278673Y-112756698D01*
X103405974Y-112884000D01*
X103327553Y-112884000D01*
X102686779Y-112243227D01*
X102629035Y-112156807D01*
X102286679Y-111928052D01*
X101984777Y-111868000D01*
X101984776Y-111868000D01*
X101882842Y-111847724D01*
X101780908Y-111868000D01*
X101498065Y-111868000D01*
X101196163Y-111928052D01*
X100853807Y-112156807D01*
X100625052Y-112499163D01*
X100544724Y-112903000D01*
X100625052Y-113306837D01*
X100853807Y-113649193D01*
X101196163Y-113877948D01*
X101443223Y-113927091D01*
X102094907Y-114578776D01*
X102152649Y-114665193D01*
X102415438Y-114840783D01*
X102450476Y-114864195D01*
X88950000Y-111785139D01*
X88950000Y-104693440D01*
X90897000Y-104693440D01*
X91144765Y-104644157D01*
X91178223Y-104621801D01*
X93730001Y-107173580D01*
X93730000Y-108037164D01*
X93781348Y-108295309D01*
X93830000Y-108368122D01*
X93830000Y-108568688D01*
X93814622Y-108646000D01*
X93830000Y-108723312D01*
X93830000Y-108723316D01*
X93842002Y-108783652D01*
X93875546Y-108952291D01*
X94005251Y-109146408D01*
X94005254Y-109146411D01*
X94049048Y-109211953D01*
X94114590Y-109255747D01*
X94322560Y-109463717D01*
X94322560Y-109976000D01*
X94371843Y-110223765D01*
X94512191Y-110433809D01*
X94722235Y-110574157D01*
X94970000Y-110623440D01*
X96170000Y-110623440D01*
X96417765Y-110574157D01*
X96509102Y-110513127D01*
X96510302Y-110514327D01*
X96743691Y-110611000D01*
X97184250Y-110611000D01*
X97343000Y-110452250D01*
X97343000Y-109728000D01*
X97597000Y-109728000D01*
X97597000Y-110452250D01*
X97755750Y-110611000D01*
X98196309Y-110611000D01*
X98429698Y-110514327D01*
X98608327Y-110335699D01*
X98705000Y-110102310D01*
X98705000Y-109886750D01*
X98546250Y-109728000D01*
X97597000Y-109728000D01*
X97343000Y-109728000D01*
X97323000Y-109728000D01*
X97323000Y-109474000D01*
X97343000Y-109474000D01*
X97343000Y-108749750D01*
X97597000Y-108749750D01*
X97597000Y-109474000D01*
X98546250Y-109474000D01*
X98705000Y-109315250D01*
X98705000Y-109099690D01*
X98608327Y-108866301D01*
X98429698Y-108687673D01*
X98196309Y-108591000D01*
X97755750Y-108591000D01*
X97597000Y-108749750D01*
X97343000Y-108749750D01*
X97184250Y-108591000D01*
X96743691Y-108591000D01*
X96510302Y-108687673D01*
X96509102Y-108688873D01*
X96417765Y-108627843D01*
X96170000Y-108578560D01*
X95657718Y-108578560D01*
X95418938Y-108339780D01*
X95448652Y-108295310D01*
X95500000Y-108037165D01*
X95500000Y-106894161D01*
X95517337Y-106807000D01*
X95500000Y-106719839D01*
X95500000Y-106719835D01*
X95448652Y-106461690D01*
X95321382Y-106271218D01*
X95302424Y-106242845D01*
X95302423Y-106242844D01*
X95253049Y-106168951D01*
X95179156Y-106119577D01*
X92091425Y-103031847D01*
X92042049Y-102957951D01*
X91749310Y-102762348D01*
X91644811Y-102741562D01*
X91763953Y-102661953D01*
X91807749Y-102596408D01*
X92324907Y-102079250D01*
X97775500Y-102079250D01*
X97775500Y-102819810D01*
X97872173Y-103053199D01*
X98050802Y-103231827D01*
X98284191Y-103328500D01*
X98894750Y-103328500D01*
X99053500Y-103169750D01*
X99053500Y-101920500D01*
X97934250Y-101920500D01*
X97775500Y-102079250D01*
X92324907Y-102079250D01*
X94035046Y-100369112D01*
X94291959Y-100197447D01*
X94335755Y-100131902D01*
X95188407Y-99279250D01*
X97775500Y-99279250D01*
X97775500Y-100019810D01*
X97872173Y-100253199D01*
X98012475Y-100393500D01*
X97872173Y-100533801D01*
X97775500Y-100767190D01*
X97775500Y-101507750D01*
X97934250Y-101666500D01*
X99053500Y-101666500D01*
X99053500Y-100417250D01*
X99029750Y-100393500D01*
X99053500Y-100369750D01*
X99053500Y-99120500D01*
X97934250Y-99120500D01*
X97775500Y-99279250D01*
X95188407Y-99279250D01*
X96238157Y-98229500D01*
X97775500Y-98229500D01*
X97775500Y-98707750D01*
G36*
X104166235Y-88464657D02*
X104414000Y-88513940D01*
X105964000Y-88513940D01*
X106120428Y-88482825D01*
X106226121Y-88737990D01*
X106461010Y-88972879D01*
X106767908Y-89100000D01*
X107100092Y-89100000D01*
X107186676Y-89064136D01*
X107194604Y-89076000D01*
X107257047Y-89169453D01*
X107322592Y-89213249D01*
X107466560Y-89357217D01*
X107466560Y-90744500D01*
X107515843Y-90992265D01*
X107656191Y-91202309D01*
X107866235Y-91342657D01*
X108114000Y-91391940D01*
X108314304Y-91391940D01*
X108258000Y-91527870D01*
X108258000Y-91860054D01*
X108385121Y-92166952D01*
X108620010Y-92401841D01*
X108926908Y-92528962D01*
X109259092Y-92528962D01*
X109565990Y-92401841D01*
X109800879Y-92166952D01*
X109803742Y-92160040D01*
X109806621Y-92166990D01*
X110041510Y-92401879D01*
X110348408Y-92529000D01*
X110680592Y-92529000D01*
X110987490Y-92401879D01*
X111222379Y-92166990D01*
X111322379Y-91925567D01*
X111732537Y-91515410D01*
X111793905Y-91474405D01*
X111849006Y-91391940D01*
X111914000Y-91391940D01*
X111979133Y-91378984D01*
X112015664Y-91562639D01*
X112024546Y-91607291D01*
X112131180Y-91766879D01*
X112140179Y-91780347D01*
X112195121Y-91912990D01*
X112430010Y-92147879D01*
X112736908Y-92275000D01*
X113069092Y-92275000D01*
X113375990Y-92147879D01*
X113610879Y-91912990D01*
X113738000Y-91606092D01*
X113738000Y-91391940D01*
X113914000Y-91391940D01*
X114014000Y-91372049D01*
X114114000Y-91391940D01*
X114414000Y-91391940D01*
X114514000Y-91372049D01*
X114563928Y-91381980D01*
X114571646Y-91420782D01*
X114734095Y-91663905D01*
X114795465Y-91704911D01*
X114999089Y-91908535D01*
X115040095Y-91969905D01*
X115283217Y-92132354D01*
X115497612Y-92175000D01*
X115497615Y-92175000D01*
X115569999Y-92189398D01*
X115642383Y-92175000D01*
X115827885Y-92175000D01*
X115827885Y-92197268D01*
X115847796Y-92245337D01*
X115624121Y-92469012D01*
X115497000Y-92775910D01*
X115497000Y-93108094D01*
X115624121Y-93414992D01*
X115859010Y-93649881D01*
X116165908Y-93777002D01*
X116172019Y-93777002D01*
X116020047Y-93878547D01*
X115846546Y-94138208D01*
X115785621Y-94444500D01*
X115801001Y-94521820D01*
X115801001Y-94727130D01*
X115624121Y-94904010D01*
X115497000Y-95210908D01*
X115497000Y-95543092D01*
X115624121Y-95849990D01*
X115787184Y-96013053D01*
X115751000Y-96100408D01*
X115751000Y-96432592D01*
X115878121Y-96739490D01*
X116113010Y-96974379D01*
X116197261Y-97009277D01*
X116198047Y-97010453D01*
X116352528Y-97113675D01*
X116342336Y-97164914D01*
X116329000Y-97178250D01*
X116329000Y-97220810D01*
X116330498Y-97224427D01*
X116316560Y-97294500D01*
X116316560Y-97594500D01*
X116336451Y-97694500D01*
X116334587Y-97703871D01*
X116290502Y-97695102D01*
X116218118Y-97709500D01*
X116218114Y-97709500D01*
X116180409Y-97717000D01*
X116016910Y-97717000D01*
X115710012Y-97844121D01*
X115475123Y-98079010D01*
X115348002Y-98385908D01*
X115348002Y-98718092D01*
X115475123Y-99024990D01*
X115497000Y-99046867D01*
X115497000Y-99353092D01*
X115624121Y-99659990D01*
X115774500Y-99810369D01*
X115774500Y-99997060D01*
X115614000Y-99997060D01*
X115514000Y-100016951D01*
X115414000Y-99997060D01*
X115114000Y-99997060D01*
X115014000Y-100016951D01*
X114982298Y-100010645D01*
X114956354Y-99880217D01*
X114885345Y-99773945D01*
X114899990Y-99767879D01*
X115134879Y-99532990D01*
X115262000Y-99226092D01*
X115262000Y-98893908D01*
X115134879Y-98587010D01*
X114899990Y-98352121D01*
X114593092Y-98225000D01*
X114260908Y-98225000D01*
X114140197Y-98275000D01*
X112345312Y-98275000D01*
X112268000Y-98259622D01*
X112190688Y-98275000D01*
X112190684Y-98275000D01*
X111961708Y-98320546D01*
X111702047Y-98494047D01*
X111658251Y-98559592D01*
X111263590Y-98954253D01*
X111198048Y-98998047D01*
X111154254Y-99063589D01*
X111154251Y-99063592D01*
X111094750Y-99152641D01*
X111070879Y-99095010D01*
X110835990Y-98860121D01*
X110529092Y-98733000D01*
X110386000Y-98733000D01*
X110386000Y-98669803D01*
X110436000Y-98549092D01*
X110436000Y-98216908D01*
X110308879Y-97910010D01*
X110073990Y-97675121D01*
X109767092Y-97548000D01*
X109434908Y-97548000D01*
X109128010Y-97675121D01*
X108893121Y-97910010D01*
X108766000Y-98216908D01*
X108766000Y-98549092D01*
X108816000Y-98669803D01*
X108816000Y-98746385D01*
X108763590Y-98798795D01*
X108698048Y-98842589D01*
X108654254Y-98908131D01*
X108654251Y-98908134D01*
X108524546Y-99102251D01*
X108463622Y-99408542D01*
X108479001Y-99485858D01*
X108479001Y-99620054D01*
X108304000Y-99445054D01*
X108304000Y-98578514D01*
X108404000Y-98337092D01*
X108404000Y-98004908D01*
X108276879Y-97698010D01*
X108041990Y-97463121D01*
X107735092Y-97336000D01*
X107711440Y-97336000D01*
X107711440Y-97294500D01*
X107691549Y-97194500D01*
X107711440Y-97094500D01*
X107711440Y-96794500D01*
X107697502Y-96724427D01*
X107699000Y-96720810D01*
X107699000Y-96678250D01*
X107685664Y-96664914D01*
X107662157Y-96546735D01*
X107593845Y-96444500D01*
X107662157Y-96342265D01*
X107685664Y-96224086D01*
X107699000Y-96210750D01*
X107699000Y-96168190D01*
X107697502Y-96164573D01*
X107711440Y-96094500D01*
X107711440Y-95794500D01*
X107691549Y-95694500D01*
X107711440Y-95594500D01*
X107711440Y-95294500D01*
X107691549Y-95194500D01*
X107711440Y-95094500D01*
X107711440Y-94794500D01*
X107691549Y-94694500D01*
X107711440Y-94594500D01*
X107711440Y-94294500D01*
X107691549Y-94194500D01*
X107711440Y-94094500D01*
X107711440Y-93794500D01*
X107691549Y-93694500D01*
X107711440Y-93594500D01*
X107711440Y-93294500D01*
X107697502Y-93224427D01*
X107699000Y-93220810D01*
X107699000Y-93178250D01*
X107685664Y-93164914D01*
X107662157Y-93046735D01*
X107593845Y-92944500D01*
X107662157Y-92842265D01*
X107685664Y-92724086D01*
X107699000Y-92710750D01*
X107699000Y-92668190D01*
X107697502Y-92664573D01*
X107711440Y-92594500D01*
X107711440Y-92294500D01*
X107691549Y-92194500D01*
X107711440Y-92094500D01*
X107711440Y-91794500D01*
X107662157Y-91546735D01*
X107521809Y-91336691D01*
X107311765Y-91196343D01*
X107064000Y-91147060D01*
X105564000Y-91147060D01*
X105316235Y-91196343D01*
X105296544Y-91209500D01*
X104250447Y-91209500D01*
X104049500Y-91008554D01*
X104049500Y-88442446D01*
X104082943Y-88409003D01*
X104166235Y-88464657D01*
X104166235Y-88464657D01*
G37*
X104166235Y-88464657D02*
X104414000Y-88513940D01*
X105964000Y-88513940D01*
X106120428Y-88482825D01*
X106226121Y-88737990D01*
X106461010Y-88972879D01*
X106767908Y-89100000D01*
X107100092Y-89100000D01*
X107186676Y-89064136D01*
X107194604Y-89076000D01*
X107257047Y-89169453D01*
X107322592Y-89213249D01*
X107466560Y-89357217D01*
X107466560Y-90744500D01*
X107515843Y-90992265D01*
X107656191Y-91202309D01*
X107866235Y-91342657D01*
X108114000Y-91391940D01*
X108314304Y-91391940D01*
X108258000Y-91527870D01*
X108258000Y-91860054D01*
X108385121Y-92166952D01*
X108620010Y-92401841D01*
X108926908Y-92528962D01*
X109259092Y-92528962D01*
X109565990Y-92401841D01*
X109800879Y-92166952D01*
X109803742Y-92160040D01*
X109806621Y-92166990D01*
X110041510Y-92401879D01*
X110348408Y-92529000D01*
X110680592Y-92529000D01*
X110987490Y-92401879D01*
X111222379Y-92166990D01*
X111322379Y-91925567D01*
X111732537Y-91515410D01*
X111793905Y-91474405D01*
X111849006Y-91391940D01*
X111914000Y-91391940D01*
X111979133Y-91378984D01*
X112015664Y-91562639D01*
X112024546Y-91607291D01*
X112131180Y-91766879D01*
X112140179Y-91780347D01*
X112195121Y-91912990D01*
X112430010Y-92147879D01*
X112736908Y-92275000D01*
X113069092Y-92275000D01*
X113375990Y-92147879D01*
X113610879Y-91912990D01*
X113738000Y-91606092D01*
X113738000Y-91391940D01*
X113914000Y-91391940D01*
X114014000Y-91372049D01*
X114114000Y-91391940D01*
X114414000Y-91391940D01*
X114514000Y-91372049D01*
X114563928Y-91381980D01*
X114571646Y-91420782D01*
X114734095Y-91663905D01*
X114795465Y-91704911D01*
X114999089Y-91908535D01*
X115040095Y-91969905D01*
X115283217Y-92132354D01*
X115497612Y-92175000D01*
X115497615Y-92175000D01*
X115569999Y-92189398D01*
X115642383Y-92175000D01*
X115827885Y-92175000D01*
X115827885Y-92197268D01*
X115847796Y-92245337D01*
X115624121Y-92469012D01*
X115497000Y-92775910D01*
X115497000Y-93108094D01*
X115624121Y-93414992D01*
X115859010Y-93649881D01*
X116165908Y-93777002D01*
X116172019Y-93777002D01*
X116020047Y-93878547D01*
X115846546Y-94138208D01*
X115785621Y-94444500D01*
X115801001Y-94521820D01*
X115801001Y-94727130D01*
X115624121Y-94904010D01*
X115497000Y-95210908D01*
X115497000Y-95543092D01*
X115624121Y-95849990D01*
X115787184Y-96013053D01*
X115751000Y-96100408D01*
X115751000Y-96432592D01*
X115878121Y-96739490D01*
X116113010Y-96974379D01*
X116197261Y-97009277D01*
X116198047Y-97010453D01*
X116352528Y-97113675D01*
X116342336Y-97164914D01*
X116329000Y-97178250D01*
X116329000Y-97220810D01*
X116330498Y-97224427D01*
X116316560Y-97294500D01*
X116316560Y-97594500D01*
X116336451Y-97694500D01*
X116334587Y-97703871D01*
X116290502Y-97695102D01*
X116218118Y-97709500D01*
X116218114Y-97709500D01*
X116180409Y-97717000D01*
X116016910Y-97717000D01*
X115710012Y-97844121D01*
X115475123Y-98079010D01*
X115348002Y-98385908D01*
X115348002Y-98718092D01*
X115475123Y-99024990D01*
X115497000Y-99046867D01*
X115497000Y-99353092D01*
X115624121Y-99659990D01*
X115774500Y-99810369D01*
X115774500Y-99997060D01*
X115614000Y-99997060D01*
X115514000Y-100016951D01*
X115414000Y-99997060D01*
X115114000Y-99997060D01*
X115014000Y-100016951D01*
X114982298Y-100010645D01*
X114956354Y-99880217D01*
X114885345Y-99773945D01*
X114899990Y-99767879D01*
X115134879Y-99532990D01*
X115262000Y-99226092D01*
X115262000Y-98893908D01*
X115134879Y-98587010D01*
X114899990Y-98352121D01*
X114593092Y-98225000D01*
X114260908Y-98225000D01*
X114140197Y-98275000D01*
X112345312Y-98275000D01*
X112268000Y-98259622D01*
X112190688Y-98275000D01*
X112190684Y-98275000D01*
X111961708Y-98320546D01*
X111702047Y-98494047D01*
X111658251Y-98559592D01*
X111263590Y-98954253D01*
X111198048Y-98998047D01*
X111154254Y-99063589D01*
X111154251Y-99063592D01*
X111094750Y-99152641D01*
X111070879Y-99095010D01*
X110835990Y-98860121D01*
X110529092Y-98733000D01*
X110386000Y-98733000D01*
X110386000Y-98669803D01*
X110436000Y-98549092D01*
X110436000Y-98216908D01*
X110308879Y-97910010D01*
X110073990Y-97675121D01*
X109767092Y-97548000D01*
X109434908Y-97548000D01*
X109128010Y-97675121D01*
X108893121Y-97910010D01*
X108766000Y-98216908D01*
X108766000Y-98549092D01*
X108816000Y-98669803D01*
X108816000Y-98746385D01*
X108763590Y-98798795D01*
X108698048Y-98842589D01*
X108654254Y-98908131D01*
X108654251Y-98908134D01*
X108524546Y-99102251D01*
X108463622Y-99408542D01*
X108479001Y-99485858D01*
X108479001Y-99620054D01*
X108304000Y-99445054D01*
X108304000Y-98578514D01*
X108404000Y-98337092D01*
X108404000Y-98004908D01*
X108276879Y-97698010D01*
X108041990Y-97463121D01*
X107735092Y-97336000D01*
X107711440Y-97336000D01*
X107711440Y-97294500D01*
X107691549Y-97194500D01*
X107711440Y-97094500D01*
X107711440Y-96794500D01*
X107697502Y-96724427D01*
X107699000Y-96720810D01*
X107699000Y-96678250D01*
X107685664Y-96664914D01*
X107662157Y-96546735D01*
X107593845Y-96444500D01*
X107662157Y-96342265D01*
X107685664Y-96224086D01*
X107699000Y-96210750D01*
X107699000Y-96168190D01*
X107697502Y-96164573D01*
X107711440Y-96094500D01*
X107711440Y-95794500D01*
X107691549Y-95694500D01*
X107711440Y-95594500D01*
X107711440Y-95294500D01*
X107691549Y-95194500D01*
X107711440Y-95094500D01*
X107711440Y-94794500D01*
X107691549Y-94694500D01*
X107711440Y-94594500D01*
X107711440Y-94294500D01*
X107691549Y-94194500D01*
X107711440Y-94094500D01*
X107711440Y-93794500D01*
X107691549Y-93694500D01*
X107711440Y-93594500D01*
X107711440Y-93294500D01*
X107697502Y-93224427D01*
X107699000Y-93220810D01*
X107699000Y-93178250D01*
X107685664Y-93164914D01*
X107662157Y-93046735D01*
X107593845Y-92944500D01*
X107662157Y-92842265D01*
X107685664Y-92724086D01*
X107699000Y-92710750D01*
X107699000Y-92668190D01*
X107697502Y-92664573D01*
X107711440Y-92594500D01*
X107711440Y-92294500D01*
X107691549Y-92194500D01*
X107711440Y-92094500D01*
X107711440Y-91794500D01*
X107662157Y-91546735D01*
X107521809Y-91336691D01*
X107311765Y-91196343D01*
X107064000Y-91147060D01*
X105564000Y-91147060D01*
X105316235Y-91196343D01*
X105296544Y-91209500D01*
X104250447Y-91209500D01*
X104049500Y-91008554D01*
X104049500Y-88442446D01*
X104082943Y-88409003D01*
X104166235Y-88464657D01*
G36*
X99767375Y-72698625D02*
X100258582Y-73026839D01*
X100691744Y-73113000D01*
X100984256Y-73113000D01*
X101417418Y-73026839D01*
X101908625Y-72698625D01*
X102017742Y-72535320D01*
X102219991Y-72737570D01*
X102219990Y-75125500D01*
X101860750Y-75125500D01*
X101702000Y-75284250D01*
X101702000Y-77533500D01*
X101722000Y-77533500D01*
X101722000Y-77787500D01*
X101702000Y-77787500D01*
X101702000Y-80036750D01*
X101860750Y-80195500D01*
X102701309Y-80195500D01*
X102934698Y-80098827D01*
X103113327Y-79920199D01*
X103210000Y-79686810D01*
X103210000Y-78747780D01*
X103333509Y-78772347D01*
X103420669Y-78755010D01*
X105845000Y-78755010D01*
X105845000Y-78906092D01*
X105972121Y-79212990D01*
X106207010Y-79447879D01*
X106333549Y-79500293D01*
X106052590Y-79781253D01*
X105987048Y-79825047D01*
X105943254Y-79890589D01*
X105943251Y-79890592D01*
X105813546Y-80084709D01*
X105752622Y-80391000D01*
X105768001Y-80468317D01*
X105768001Y-82809060D01*
X104414000Y-82809060D01*
X104166235Y-82858343D01*
X103996885Y-82971500D01*
X103321260Y-82971500D01*
X103333066Y-82966610D01*
X103567955Y-82731721D01*
X103695076Y-82424823D01*
X103695076Y-82092639D01*
X103567955Y-81785741D01*
X103333066Y-81550852D01*
X103026168Y-81423731D01*
X102693984Y-81423731D01*
X102387086Y-81550852D01*
X102152197Y-81785741D01*
X102025076Y-82092639D01*
X102025076Y-82424823D01*
X102152197Y-82731721D01*
X102387086Y-82966610D01*
X102660314Y-83079784D01*
X102560091Y-83146751D01*
X102560089Y-83146753D01*
X102494547Y-83190547D01*
X102450753Y-83256089D01*
X101607590Y-84099253D01*
X101542048Y-84143047D01*
X101498254Y-84208589D01*
X101498251Y-84208592D01*
X101368546Y-84402709D01*
X101307622Y-84709000D01*
X101323001Y-84786317D01*
X101323000Y-90854688D01*
X101307622Y-90932000D01*
X101323000Y-91009312D01*
X101323000Y-91009315D01*
X101348733Y-91138684D01*
X101368546Y-91238291D01*
X101490484Y-91420783D01*
X101542047Y-91497953D01*
X101607592Y-91541749D01*
X103010753Y-92944911D01*
X103054547Y-93010453D01*
X103120089Y-93054247D01*
X103120091Y-93054249D01*
X103291283Y-93168636D01*
X103314208Y-93183954D01*
X103352370Y-93191545D01*
X103304998Y-93305910D01*
X103304998Y-93638094D01*
X103432119Y-93944992D01*
X103667008Y-94179881D01*
X103743547Y-94211584D01*
X103559121Y-94396010D01*
X103432000Y-94702908D01*
X103432000Y-94758640D01*
X103318091Y-94834751D01*
X103318089Y-94834753D01*
X103252547Y-94878547D01*
X103208753Y-94944089D01*
X102671843Y-95481000D01*
X98879000Y-95481000D01*
X98879000Y-95464908D01*
X98779000Y-95223486D01*
X98779000Y-95215888D01*
X98793399Y-95143500D01*
X98751012Y-94930409D01*
X98736354Y-94856717D01*
X98573905Y-94613595D01*
X98512537Y-94572590D01*
X98506440Y-94566493D01*
X98506440Y-93908500D01*
X98457157Y-93660735D01*
X98316809Y-93450691D01*
X98253666Y-93408500D01*
X98316809Y-93366309D01*
X98457157Y-93156265D01*
X98506440Y-92908500D01*
X98506440Y-91708500D01*
X98457157Y-91460735D01*
X98316809Y-91250691D01*
X98106765Y-91110343D01*
X97859000Y-91061060D01*
X97565220Y-91061060D01*
X97111600Y-90607440D01*
X97897500Y-90607440D01*
X98145265Y-90558157D01*
X98355309Y-90417809D01*
X98495657Y-90207765D01*
X98544940Y-89960000D01*
X98544940Y-89110000D01*
X98495657Y-88862235D01*
X98355309Y-88652191D01*
X98145265Y-88511843D01*
X97897500Y-88462560D01*
X97047500Y-88462560D01*
X96835410Y-88504747D01*
X96988657Y-88351500D01*
X98596885Y-88351500D01*
X98766235Y-88464657D01*
X99014000Y-88513940D01*
X100564000Y-88513940D01*
X100811765Y-88464657D01*
X101021809Y-88324309D01*
X101162157Y-88114265D01*
X101211440Y-87866500D01*
X101211440Y-87266500D01*
X101162157Y-87018735D01*
X101103868Y-86931500D01*
X101162157Y-86844265D01*
X101211440Y-86596500D01*
X101211440Y-85996500D01*
X101162157Y-85748735D01*
X101103868Y-85661500D01*
X101162157Y-85574265D01*
X101211440Y-85326500D01*
X101211440Y-84726500D01*
X101162157Y-84478735D01*
X101103868Y-84391500D01*
X101162157Y-84304265D01*
X101211440Y-84056500D01*
X101211440Y-83456500D01*
X101162157Y-83208735D01*
X101021809Y-82998691D01*
X100811765Y-82858343D01*
X100564000Y-82809060D01*
X100215967Y-82809060D01*
X100288948Y-82699836D01*
X100369276Y-82296000D01*
X100288948Y-81892163D01*
X100117934Y-81636223D01*
X98943421Y-80461710D01*
X99021518Y-80383613D01*
X99116289Y-80320289D01*
X99367146Y-79944855D01*
X99433000Y-79613783D01*
X99455235Y-79502000D01*
X99433000Y-79390217D01*
X99433000Y-77946250D01*
X99940000Y-77946250D01*
X99940000Y-79686810D01*
X100036673Y-79920199D01*
X100215302Y-80098827D01*
X100448691Y-80195500D01*
X101289250Y-80195500D01*
X101448000Y-80036750D01*
X101448000Y-77787500D01*
X100098750Y-77787500D01*
X99940000Y-77946250D01*
X99433000Y-77946250D01*
X99433000Y-75634190D01*
X99940000Y-75634190D01*
X99940000Y-77374750D01*
X100098750Y-77533500D01*
X101448000Y-77533500D01*
X101448000Y-75284250D01*
X101289250Y-75125500D01*
X100448691Y-75125500D01*
X100215302Y-75222173D01*
X100036673Y-75400801D01*
X99940000Y-75634190D01*
X99433000Y-75634190D01*
X99433000Y-72602281D01*
X99568000Y-72400239D01*
X99767375Y-72698625D01*
X99767375Y-72698625D01*
G37*
X99767375Y-72698625D02*
X100258582Y-73026839D01*
X100691744Y-73113000D01*
X100984256Y-73113000D01*
X101417418Y-73026839D01*
X101908625Y-72698625D01*
X102017742Y-72535320D01*
X102219991Y-72737570D01*
X102219990Y-75125500D01*
X101860750Y-75125500D01*
X101702000Y-75284250D01*
X101702000Y-77533500D01*
X101722000Y-77533500D01*
X101722000Y-77787500D01*
X101702000Y-77787500D01*
X101702000Y-80036750D01*
X101860750Y-80195500D01*
X102701309Y-80195500D01*
X102934698Y-80098827D01*
X103113327Y-79920199D01*
X103210000Y-79686810D01*
X103210000Y-78747780D01*
X103333509Y-78772347D01*
X103420669Y-78755010D01*
X105845000Y-78755010D01*
X105845000Y-78906092D01*
X105972121Y-79212990D01*
X106207010Y-79447879D01*
X106333549Y-79500293D01*
X106052590Y-79781253D01*
X105987048Y-79825047D01*
X105943254Y-79890589D01*
X105943251Y-79890592D01*
X105813546Y-80084709D01*
X105752622Y-80391000D01*
X105768001Y-80468317D01*
X105768001Y-82809060D01*
X104414000Y-82809060D01*
X104166235Y-82858343D01*
X103996885Y-82971500D01*
X103321260Y-82971500D01*
X103333066Y-82966610D01*
X103567955Y-82731721D01*
X103695076Y-82424823D01*
X103695076Y-82092639D01*
X103567955Y-81785741D01*
X103333066Y-81550852D01*
X103026168Y-81423731D01*
X102693984Y-81423731D01*
X102387086Y-81550852D01*
X102152197Y-81785741D01*
X102025076Y-82092639D01*
X102025076Y-82424823D01*
X102152197Y-82731721D01*
X102387086Y-82966610D01*
X102660314Y-83079784D01*
X102560091Y-83146751D01*
X102560089Y-83146753D01*
X102494547Y-83190547D01*
X102450753Y-83256089D01*
X101607590Y-84099253D01*
X101542048Y-84143047D01*
X101498254Y-84208589D01*
X101498251Y-84208592D01*
X101368546Y-84402709D01*
X101307622Y-84709000D01*
X101323001Y-84786317D01*
X101323000Y-90854688D01*
X101307622Y-90932000D01*
X101323000Y-91009312D01*
X101323000Y-91009315D01*
X101348733Y-91138684D01*
X101368546Y-91238291D01*
X101490484Y-91420783D01*
X101542047Y-91497953D01*
X101607592Y-91541749D01*
X103010753Y-92944911D01*
X103054547Y-93010453D01*
X103120089Y-93054247D01*
X103120091Y-93054249D01*
X103291283Y-93168636D01*
X103314208Y-93183954D01*
X103352370Y-93191545D01*
X103304998Y-93305910D01*
X103304998Y-93638094D01*
X103432119Y-93944992D01*
X103667008Y-94179881D01*
X103743547Y-94211584D01*
X103559121Y-94396010D01*
X103432000Y-94702908D01*
X103432000Y-94758640D01*
X103318091Y-94834751D01*
X103318089Y-94834753D01*
X103252547Y-94878547D01*
X103208753Y-94944089D01*
X102671843Y-95481000D01*
X98879000Y-95481000D01*
X98879000Y-95464908D01*
X98779000Y-95223486D01*
X98779000Y-95215888D01*
X98793399Y-95143500D01*
X98751012Y-94930409D01*
X98736354Y-94856717D01*
X98573905Y-94613595D01*
X98512537Y-94572590D01*
X98506440Y-94566493D01*
X98506440Y-93908500D01*
X98457157Y-93660735D01*
X98316809Y-93450691D01*
X98253666Y-93408500D01*
X98316809Y-93366309D01*
X98457157Y-93156265D01*
X98506440Y-92908500D01*
X98506440Y-91708500D01*
X98457157Y-91460735D01*
X98316809Y-91250691D01*
X98106765Y-91110343D01*
X97859000Y-91061060D01*
X97565220Y-91061060D01*
X97111600Y-90607440D01*
X97897500Y-90607440D01*
X98145265Y-90558157D01*
X98355309Y-90417809D01*
X98495657Y-90207765D01*
X98544940Y-89960000D01*
X98544940Y-89110000D01*
X98495657Y-88862235D01*
X98355309Y-88652191D01*
X98145265Y-88511843D01*
X97897500Y-88462560D01*
X97047500Y-88462560D01*
X96835410Y-88504747D01*
X96988657Y-88351500D01*
X98596885Y-88351500D01*
X98766235Y-88464657D01*
X99014000Y-88513940D01*
X100564000Y-88513940D01*
X100811765Y-88464657D01*
X101021809Y-88324309D01*
X101162157Y-88114265D01*
X101211440Y-87866500D01*
X101211440Y-87266500D01*
X101162157Y-87018735D01*
X101103868Y-86931500D01*
X101162157Y-86844265D01*
X101211440Y-86596500D01*
X101211440Y-85996500D01*
X101162157Y-85748735D01*
X101103868Y-85661500D01*
X101162157Y-85574265D01*
X101211440Y-85326500D01*
X101211440Y-84726500D01*
X101162157Y-84478735D01*
X101103868Y-84391500D01*
X101162157Y-84304265D01*
X101211440Y-84056500D01*
X101211440Y-83456500D01*
X101162157Y-83208735D01*
X101021809Y-82998691D01*
X100811765Y-82858343D01*
X100564000Y-82809060D01*
X100215967Y-82809060D01*
X100288948Y-82699836D01*
X100369276Y-82296000D01*
X100288948Y-81892163D01*
X100117934Y-81636223D01*
X98943421Y-80461710D01*
X99021518Y-80383613D01*
X99116289Y-80320289D01*
X99367146Y-79944855D01*
X99433000Y-79613783D01*
X99455235Y-79502000D01*
X99433000Y-79390217D01*
X99433000Y-77946250D01*
X99940000Y-77946250D01*
X99940000Y-79686810D01*
X100036673Y-79920199D01*
X100215302Y-80098827D01*
X100448691Y-80195500D01*
X101289250Y-80195500D01*
X101448000Y-80036750D01*
X101448000Y-77787500D01*
X100098750Y-77787500D01*
X99940000Y-77946250D01*
X99433000Y-77946250D01*
X99433000Y-75634190D01*
X99940000Y-75634190D01*
X99940000Y-77374750D01*
X100098750Y-77533500D01*
X101448000Y-77533500D01*
X101448000Y-75284250D01*
X101289250Y-75125500D01*
X100448691Y-75125500D01*
X100215302Y-75222173D01*
X100036673Y-75400801D01*
X99940000Y-75634190D01*
X99433000Y-75634190D01*
X99433000Y-72602281D01*
X99568000Y-72400239D01*
X99767375Y-72698625D01*
G36*
X103779000Y-84600190D02*
X103779000Y-84740750D01*
X103937750Y-84899500D01*
X105062000Y-84899500D01*
X105062000Y-84879500D01*
X105316000Y-84879500D01*
X105316000Y-84899500D01*
X105336000Y-84899500D01*
X105336000Y-85153500D01*
X105316000Y-85153500D01*
X105316000Y-85173500D01*
X105062000Y-85173500D01*
X105062000Y-85153500D01*
X103937750Y-85153500D01*
X103779000Y-85312250D01*
X103779000Y-85452810D01*
X103868768Y-85669528D01*
X103815843Y-85748735D01*
X103766560Y-85996500D01*
X103766560Y-86596500D01*
X103813316Y-86831559D01*
X103599217Y-86874146D01*
X103356095Y-87036595D01*
X103315090Y-87097963D01*
X102893000Y-87520054D01*
X102893000Y-85034157D01*
X103385658Y-84541500D01*
X103803310Y-84541500D01*
X103779000Y-84600190D01*
X103779000Y-84600190D01*
G37*
X103779000Y-84600190D02*
X103779000Y-84740750D01*
X103937750Y-84899500D01*
X105062000Y-84899500D01*
X105062000Y-84879500D01*
X105316000Y-84879500D01*
X105316000Y-84899500D01*
X105336000Y-84899500D01*
X105336000Y-85153500D01*
X105316000Y-85153500D01*
X105316000Y-85173500D01*
X105062000Y-85173500D01*
X105062000Y-85153500D01*
X103937750Y-85153500D01*
X103779000Y-85312250D01*
X103779000Y-85452810D01*
X103868768Y-85669528D01*
X103815843Y-85748735D01*
X103766560Y-85996500D01*
X103766560Y-86596500D01*
X103813316Y-86831559D01*
X103599217Y-86874146D01*
X103356095Y-87036595D01*
X103315090Y-87097963D01*
X102893000Y-87520054D01*
X102893000Y-85034157D01*
X103385658Y-84541500D01*
X103803310Y-84541500D01*
X103779000Y-84600190D01*
G36*
X111578043Y-83303957D02*
X112011364Y-83593493D01*
X112362797Y-83663397D01*
X112386848Y-83784309D01*
X112582451Y-84077049D01*
X112626000Y-84106148D01*
X112626000Y-84256842D01*
X112438194Y-84444649D01*
X112404377Y-84363008D01*
X112169488Y-84128119D01*
X111862590Y-84000998D01*
X111530406Y-84000998D01*
X111223508Y-84128119D01*
X110988619Y-84363008D01*
X110861498Y-84669906D01*
X110861498Y-85002090D01*
X110979001Y-85285768D01*
X110979001Y-85541120D01*
X110836002Y-85398121D01*
X110563000Y-85285040D01*
X110563000Y-85050914D01*
X110435879Y-84744016D01*
X110200990Y-84509127D01*
X109894092Y-84382006D01*
X109561908Y-84382006D01*
X109307500Y-84487385D01*
X109307500Y-83410503D01*
X109466957Y-83303957D01*
X109522500Y-83220831D01*
X109578043Y-83303957D01*
X110011364Y-83593493D01*
X110393478Y-83669500D01*
X110651522Y-83669500D01*
X111033636Y-83593493D01*
X111466957Y-83303957D01*
X111522500Y-83220831D01*
X111578043Y-83303957D01*
X111578043Y-83303957D01*
G37*
X111578043Y-83303957D02*
X112011364Y-83593493D01*
X112362797Y-83663397D01*
X112386848Y-83784309D01*
X112582451Y-84077049D01*
X112626000Y-84106148D01*
X112626000Y-84256842D01*
X112438194Y-84444649D01*
X112404377Y-84363008D01*
X112169488Y-84128119D01*
X111862590Y-84000998D01*
X111530406Y-84000998D01*
X111223508Y-84128119D01*
X110988619Y-84363008D01*
X110861498Y-84669906D01*
X110861498Y-85002090D01*
X110979001Y-85285768D01*
X110979001Y-85541120D01*
X110836002Y-85398121D01*
X110563000Y-85285040D01*
X110563000Y-85050914D01*
X110435879Y-84744016D01*
X110200990Y-84509127D01*
X109894092Y-84382006D01*
X109561908Y-84382006D01*
X109307500Y-84487385D01*
X109307500Y-83410503D01*
X109466957Y-83303957D01*
X109522500Y-83220831D01*
X109578043Y-83303957D01*
X110011364Y-83593493D01*
X110393478Y-83669500D01*
X110651522Y-83669500D01*
X111033636Y-83593493D01*
X111466957Y-83303957D01*
X111522500Y-83220831D01*
X111578043Y-83303957D01*
G36*
X113857560Y-78809000D02*
X113884081Y-78942331D01*
X113739750Y-78798000D01*
X113299191Y-78798000D01*
X113065802Y-78894673D01*
X112887173Y-79073301D01*
X112790500Y-79306690D01*
X112790500Y-79597250D01*
X112949250Y-79756000D01*
X113898500Y-79756000D01*
X113898500Y-79736000D01*
X114152500Y-79736000D01*
X114152500Y-79756000D01*
X114172500Y-79756000D01*
X114172500Y-80010000D01*
X114152500Y-80010000D01*
X114152500Y-80809250D01*
X114311250Y-80968000D01*
X114751809Y-80968000D01*
X114985198Y-80871327D01*
X115126846Y-80729680D01*
X115167691Y-80790809D01*
X115377735Y-80931157D01*
X115496380Y-80954757D01*
X115589066Y-81093472D01*
X115389691Y-81226691D01*
X115312356Y-81342430D01*
X115186133Y-81230022D01*
X114851900Y-81091590D01*
X114649500Y-81215276D01*
X114649500Y-82232500D01*
X114669500Y-82232500D01*
X114669500Y-82486500D01*
X114649500Y-82486500D01*
X114649500Y-82506500D01*
X114395500Y-82506500D01*
X114395500Y-82486500D01*
X114375500Y-82486500D01*
X114375500Y-82232500D01*
X114395500Y-82232500D01*
X114395500Y-81215276D01*
X114193100Y-81091590D01*
X113858867Y-81230022D01*
X113535656Y-81517858D01*
X113466957Y-81415043D01*
X113033636Y-81125507D01*
X112651522Y-81049500D01*
X112464079Y-81049500D01*
X111583329Y-80168750D01*
X112790500Y-80168750D01*
X112790500Y-80459310D01*
X112887173Y-80692699D01*
X113065802Y-80871327D01*
X113299191Y-80968000D01*
X113739750Y-80968000D01*
X113898500Y-80809250D01*
X113898500Y-80010000D01*
X112949250Y-80010000D01*
X112790500Y-80168750D01*
X111583329Y-80168750D01*
X111313002Y-79898424D01*
X111313002Y-79845252D01*
X111471750Y-80004000D01*
X111912309Y-80004000D01*
X112145698Y-79907327D01*
X112324327Y-79728699D01*
X112421000Y-79495310D01*
X112421000Y-79279750D01*
X112262250Y-79121000D01*
X111313000Y-79121000D01*
X111313000Y-79141000D01*
X111059000Y-79141000D01*
X111059000Y-79121000D01*
X111039000Y-79121000D01*
X111039000Y-78867000D01*
X111059000Y-78867000D01*
X111059000Y-78847000D01*
X111313000Y-78847000D01*
X111313000Y-78867000D01*
X112262250Y-78867000D01*
X112421000Y-78708250D01*
X112421000Y-78492690D01*
X112324327Y-78259301D01*
X112220025Y-78155000D01*
X113857560Y-78155000D01*
X113857560Y-78809000D01*
X113857560Y-78809000D01*
G37*
X113857560Y-78809000D02*
X113884081Y-78942331D01*
X113739750Y-78798000D01*
X113299191Y-78798000D01*
X113065802Y-78894673D01*
X112887173Y-79073301D01*
X112790500Y-79306690D01*
X112790500Y-79597250D01*
X112949250Y-79756000D01*
X113898500Y-79756000D01*
X113898500Y-79736000D01*
X114152500Y-79736000D01*
X114152500Y-79756000D01*
X114172500Y-79756000D01*
X114172500Y-80010000D01*
X114152500Y-80010000D01*
X114152500Y-80809250D01*
X114311250Y-80968000D01*
X114751809Y-80968000D01*
X114985198Y-80871327D01*
X115126846Y-80729680D01*
X115167691Y-80790809D01*
X115377735Y-80931157D01*
X115496380Y-80954757D01*
X115589066Y-81093472D01*
X115389691Y-81226691D01*
X115312356Y-81342430D01*
X115186133Y-81230022D01*
X114851900Y-81091590D01*
X114649500Y-81215276D01*
X114649500Y-82232500D01*
X114669500Y-82232500D01*
X114669500Y-82486500D01*
X114649500Y-82486500D01*
X114649500Y-82506500D01*
X114395500Y-82506500D01*
X114395500Y-82486500D01*
X114375500Y-82486500D01*
X114375500Y-82232500D01*
X114395500Y-82232500D01*
X114395500Y-81215276D01*
X114193100Y-81091590D01*
X113858867Y-81230022D01*
X113535656Y-81517858D01*
X113466957Y-81415043D01*
X113033636Y-81125507D01*
X112651522Y-81049500D01*
X112464079Y-81049500D01*
X111583329Y-80168750D01*
X112790500Y-80168750D01*
X112790500Y-80459310D01*
X112887173Y-80692699D01*
X113065802Y-80871327D01*
X113299191Y-80968000D01*
X113739750Y-80968000D01*
X113898500Y-80809250D01*
X113898500Y-80010000D01*
X112949250Y-80010000D01*
X112790500Y-80168750D01*
X111583329Y-80168750D01*
X111313002Y-79898424D01*
X111313002Y-79845252D01*
X111471750Y-80004000D01*
X111912309Y-80004000D01*
X112145698Y-79907327D01*
X112324327Y-79728699D01*
X112421000Y-79495310D01*
X112421000Y-79279750D01*
X112262250Y-79121000D01*
X111313000Y-79121000D01*
X111313000Y-79141000D01*
X111059000Y-79141000D01*
X111059000Y-79121000D01*
X111039000Y-79121000D01*
X111039000Y-78867000D01*
X111059000Y-78867000D01*
X111059000Y-78847000D01*
X111313000Y-78847000D01*
X111313000Y-78867000D01*
X112262250Y-78867000D01*
X112421000Y-78708250D01*
X112421000Y-78492690D01*
X112324327Y-78259301D01*
X112220025Y-78155000D01*
X113857560Y-78155000D01*
X113857560Y-78809000D01*
G36*
X97163001Y-78825500D02*
X96781459Y-78825500D01*
X96772073Y-78811453D01*
X96813327Y-78770199D01*
X96910000Y-78536810D01*
X96910000Y-77946250D01*
X96751250Y-77787500D01*
X95402000Y-77787500D01*
X95402000Y-77807500D01*
X95148000Y-77807500D01*
X95148000Y-77787500D01*
X95128000Y-77787500D01*
X95128000Y-77533500D01*
X95148000Y-77533500D01*
X95148000Y-77513500D01*
X95402000Y-77513500D01*
X95402000Y-77533500D01*
X96751250Y-77533500D01*
X96910000Y-77374750D01*
X96910000Y-76784190D01*
X96813327Y-76550801D01*
X96772073Y-76509547D01*
X96873157Y-76358265D01*
X96922440Y-76110500D01*
X96922440Y-74967169D01*
X96940276Y-74877501D01*
X96922440Y-74787833D01*
X96922440Y-74610500D01*
X96920000Y-74598233D01*
X96920000Y-74407957D01*
X96954145Y-74356855D01*
X97042235Y-73914001D01*
X96954145Y-73471146D01*
X96709643Y-73105222D01*
X96855765Y-73076157D01*
X97065809Y-72935809D01*
X97163000Y-72790353D01*
X97163001Y-78825500D01*
X97163001Y-78825500D01*
G37*
X97163001Y-78825500D02*
X96781459Y-78825500D01*
X96772073Y-78811453D01*
X96813327Y-78770199D01*
X96910000Y-78536810D01*
X96910000Y-77946250D01*
X96751250Y-77787500D01*
X95402000Y-77787500D01*
X95402000Y-77807500D01*
X95148000Y-77807500D01*
X95148000Y-77787500D01*
X95128000Y-77787500D01*
X95128000Y-77533500D01*
X95148000Y-77533500D01*
X95148000Y-77513500D01*
X95402000Y-77513500D01*
X95402000Y-77533500D01*
X96751250Y-77533500D01*
X96910000Y-77374750D01*
X96910000Y-76784190D01*
X96813327Y-76550801D01*
X96772073Y-76509547D01*
X96873157Y-76358265D01*
X96922440Y-76110500D01*
X96922440Y-74967169D01*
X96940276Y-74877501D01*
X96922440Y-74787833D01*
X96922440Y-74610500D01*
X96920000Y-74598233D01*
X96920000Y-74407957D01*
X96954145Y-74356855D01*
X97042235Y-73914001D01*
X96954145Y-73471146D01*
X96709643Y-73105222D01*
X96855765Y-73076157D01*
X97065809Y-72935809D01*
X97163000Y-72790353D01*
X97163001Y-78825500D01*
G36*
X93627560Y-76110500D02*
X93676843Y-76358265D01*
X93777927Y-76509547D01*
X93736673Y-76550801D01*
X93640000Y-76784190D01*
X93640000Y-77016000D01*
X93623408Y-77016000D01*
X93404447Y-77106697D01*
X93366750Y-77069000D01*
X92392500Y-77069000D01*
X92392500Y-77089000D01*
X92138500Y-77089000D01*
X92138500Y-77069000D01*
X92118500Y-77069000D01*
X92118500Y-76815000D01*
X92138500Y-76815000D01*
X92138500Y-76795000D01*
X92392500Y-76795000D01*
X92392500Y-76815000D01*
X93366750Y-76815000D01*
X93525500Y-76656250D01*
X93525500Y-76065691D01*
X93446306Y-75874500D01*
X93627560Y-75874500D01*
X93627560Y-76110500D01*
X93627560Y-76110500D01*
G37*
X93627560Y-76110500D02*
X93676843Y-76358265D01*
X93777927Y-76509547D01*
X93736673Y-76550801D01*
X93640000Y-76784190D01*
X93640000Y-77016000D01*
X93623408Y-77016000D01*
X93404447Y-77106697D01*
X93366750Y-77069000D01*
X92392500Y-77069000D01*
X92392500Y-77089000D01*
X92138500Y-77089000D01*
X92138500Y-77069000D01*
X92118500Y-77069000D01*
X92118500Y-76815000D01*
X92138500Y-76815000D01*
X92138500Y-76795000D01*
X92392500Y-76795000D01*
X92392500Y-76815000D01*
X93366750Y-76815000D01*
X93525500Y-76656250D01*
X93525500Y-76065691D01*
X93446306Y-75874500D01*
X93627560Y-75874500D01*
X93627560Y-76110500D01*
G04 #@! TD*
M02*
