M48
;DRILL file {KiCad (5.0.2)-1} date 7/22/2020 07:53:49
;FORMAT={3:3/ absolute / metric / suppress leading zeros}
FMAT,2
METRIC,TZ
T1C0.300
T2C0.400
T3C0.500
T4C0.600
T5C0.800
T6C0.850
T7C1.000
%
G90
G05
T1
X90805Y-73787
X90868Y-83820
X91440Y-75756
X91805Y-88519
X93218Y-74740
X93663Y-80582
X93750Y-78994
X93789Y-77851
X94615Y-107950
X94679Y-84074
X95885Y-73914
X95885Y-92633
X96393Y-95123
X96503Y-92675
X96604Y-84955
X96837Y-86055
X97028Y-78359
X97854Y-101854
X98044Y-95631
X99314Y-82296
X100330Y-106680
X100965Y-83566
X100965Y-88646
X100965Y-93726
X101600Y-112903
X102743Y-105537
X102860Y-82259
X103005Y-85027
X103088Y-98715
X103124Y-108839
X104049Y-98008
X104140Y-93472
X104267Y-94869
X104267Y-101733
X104394Y-96139
X104648Y-101092
X104775Y-94361
X105004Y-93297
X106426Y-104267
X106680Y-78740
X106934Y-86741
X106934Y-87503
X106934Y-88265
X107569Y-91948
X107569Y-98171
X108585Y-99060
X109093Y-91694
X109601Y-98383
X109728Y-85217
X109855Y-100203
X110363Y-99568
X110363Y-86106
X110515Y-91694
X110744Y-104140
X111696Y-84836
X111760Y-107315
X111887Y-109855
X112264Y-105152
X112649Y-84201
X112649Y-113919
X112903Y-91440
X113214Y-104775
X113411Y-104013
X113665Y-87376
X113792Y-88138
X113814Y-102878
X114046Y-99949
X114427Y-99060
X114554Y-97917
X114681Y-103378
X115189Y-87503
X116183Y-98552
X116332Y-92942
X116332Y-95377
X116332Y-99187
X116586Y-96267
X116610Y-99949
X116663Y-92031
X116840Y-81041
X117856Y-85344
X117919Y-83693
X118999Y-97110
X118999Y-111125
X119126Y-94742
X119126Y-105537
X119321Y-95444
X121285Y-89408
X121666Y-79502
X121920Y-98933
X122047Y-78613
X122301Y-80137
X122365Y-77216
X127127Y-110871
X127127Y-113035
X127127Y-115316
X128651Y-91059
X129413Y-93218
X132334Y-109601
T2
X89647Y-83868
T3
X97473Y-89535
X114554Y-106680
X116454Y-106680
T4
X104267Y-104521
X104267Y-105791
X104267Y-107061
T5
X114459Y-112776
X116459Y-112776
X124079Y-70993
X124079Y-78613
X126619Y-70993
X126619Y-78613
X123825Y-82360
X123825Y-84360
X123825Y-86360
X123825Y-88360
X123825Y-90360
X123825Y-92360
X123825Y-94360
X123825Y-96360
X123825Y-98360
X123825Y-100360
X123825Y-102360
X123825Y-104360
X125825Y-82360
X125825Y-84360
X125825Y-86360
X125825Y-88360
X125825Y-90360
X125825Y-92360
X125825Y-94360
X125825Y-96360
X125825Y-98360
X125825Y-100360
X125825Y-102360
X125825Y-104360
X107950Y-104998
X107950Y-106998
X107950Y-108998
X107950Y-110998
X108523Y-82360
X110523Y-82360
X112523Y-82360
X114523Y-82360
X116523Y-82360
T6
X93155Y-87416
X93155Y-92416
T7
X95758Y-71628
X98298Y-71628
X100838Y-71628
T4
X90105Y-86416G85X90805Y-86416
G05
X90805Y-93416G85X90105Y-93416
G05
T0
M30
