G04 #@! TF.GenerationSoftware,KiCad,Pcbnew,(5.1.6)-1*
G04 #@! TF.CreationDate,2021-11-01T19:25:02+01:00*
G04 #@! TF.ProjectId,32mz_gauge4_sensors,33326d7a-5f67-4617-9567-65345f73656e,rev?*
G04 #@! TF.SameCoordinates,Original*
G04 #@! TF.FileFunction,Soldermask,Top*
G04 #@! TF.FilePolarity,Negative*
%FSLAX46Y46*%
G04 Gerber Fmt 4.6, Leading zero omitted, Abs format (unit mm)*
G04 Created by KiCad (PCBNEW (5.1.6)-1) date 2021-11-01 19:25:02*
%MOMM*%
%LPD*%
G01*
G04 APERTURE LIST*
%ADD10C,0.150000*%
G04 APERTURE END LIST*
D10*
G36*
X66230186Y-97532946D02*
G01*
X66260861Y-97542251D01*
X66289129Y-97557361D01*
X66313906Y-97577694D01*
X66334239Y-97602471D01*
X66349349Y-97630739D01*
X66358654Y-97661414D01*
X66362400Y-97699451D01*
X66362400Y-99810949D01*
X66358654Y-99848986D01*
X66349349Y-99879661D01*
X66334239Y-99907929D01*
X66313906Y-99932706D01*
X66289129Y-99953039D01*
X66260861Y-99968149D01*
X66230186Y-99977454D01*
X66192149Y-99981200D01*
X64180651Y-99981200D01*
X64142614Y-99977454D01*
X64111939Y-99968149D01*
X64083671Y-99953039D01*
X64058894Y-99932706D01*
X64038561Y-99907929D01*
X64023451Y-99879661D01*
X64014146Y-99848986D01*
X64010400Y-99810949D01*
X64010400Y-97699451D01*
X64014146Y-97661414D01*
X64023451Y-97630739D01*
X64038561Y-97602471D01*
X64058894Y-97577694D01*
X64083671Y-97557361D01*
X64111939Y-97542251D01*
X64142614Y-97532946D01*
X64180651Y-97529200D01*
X66192149Y-97529200D01*
X66230186Y-97532946D01*
G37*
G36*
X61130186Y-97532946D02*
G01*
X61160861Y-97542251D01*
X61189129Y-97557361D01*
X61213906Y-97577694D01*
X61234239Y-97602471D01*
X61249349Y-97630739D01*
X61258654Y-97661414D01*
X61262400Y-97699451D01*
X61262400Y-99810949D01*
X61258654Y-99848986D01*
X61249349Y-99879661D01*
X61234239Y-99907929D01*
X61213906Y-99932706D01*
X61189129Y-99953039D01*
X61160861Y-99968149D01*
X61130186Y-99977454D01*
X61092149Y-99981200D01*
X59080651Y-99981200D01*
X59042614Y-99977454D01*
X59011939Y-99968149D01*
X58983671Y-99953039D01*
X58958894Y-99932706D01*
X58938561Y-99907929D01*
X58923451Y-99879661D01*
X58914146Y-99848986D01*
X58910400Y-99810949D01*
X58910400Y-97699451D01*
X58914146Y-97661414D01*
X58923451Y-97630739D01*
X58938561Y-97602471D01*
X58958894Y-97577694D01*
X58983671Y-97557361D01*
X59011939Y-97542251D01*
X59042614Y-97532946D01*
X59080651Y-97529200D01*
X61092149Y-97529200D01*
X61130186Y-97532946D01*
G37*
G36*
X121527766Y-98361899D02*
G01*
X121659888Y-98416626D01*
X121659890Y-98416627D01*
X121778798Y-98496079D01*
X121879921Y-98597202D01*
X121926197Y-98666459D01*
X121959374Y-98716112D01*
X122014101Y-98848234D01*
X122042000Y-98988494D01*
X122042000Y-99131506D01*
X122014101Y-99271766D01*
X121990164Y-99329554D01*
X121959373Y-99403890D01*
X121879921Y-99522798D01*
X121778798Y-99623921D01*
X121659890Y-99703373D01*
X121659889Y-99703374D01*
X121659888Y-99703374D01*
X121527766Y-99758101D01*
X121387506Y-99786000D01*
X121244494Y-99786000D01*
X121104234Y-99758101D01*
X120972112Y-99703374D01*
X120972111Y-99703374D01*
X120972110Y-99703373D01*
X120853202Y-99623921D01*
X120752079Y-99522798D01*
X120672627Y-99403890D01*
X120641836Y-99329554D01*
X120617899Y-99271766D01*
X120590000Y-99131506D01*
X120590000Y-98988494D01*
X120617899Y-98848234D01*
X120672626Y-98716112D01*
X120705803Y-98666459D01*
X120752079Y-98597202D01*
X120853202Y-98496079D01*
X120972110Y-98416627D01*
X120972112Y-98416626D01*
X121104234Y-98361899D01*
X121244494Y-98334000D01*
X121387506Y-98334000D01*
X121527766Y-98361899D01*
G37*
G36*
X116042000Y-99786000D02*
G01*
X114590000Y-99786000D01*
X114590000Y-98334000D01*
X116042000Y-98334000D01*
X116042000Y-99786000D01*
G37*
G36*
X117527766Y-98361899D02*
G01*
X117659888Y-98416626D01*
X117659890Y-98416627D01*
X117778798Y-98496079D01*
X117879921Y-98597202D01*
X117926197Y-98666459D01*
X117959374Y-98716112D01*
X118014101Y-98848234D01*
X118042000Y-98988494D01*
X118042000Y-99131506D01*
X118014101Y-99271766D01*
X117990164Y-99329554D01*
X117959373Y-99403890D01*
X117879921Y-99522798D01*
X117778798Y-99623921D01*
X117659890Y-99703373D01*
X117659889Y-99703374D01*
X117659888Y-99703374D01*
X117527766Y-99758101D01*
X117387506Y-99786000D01*
X117244494Y-99786000D01*
X117104234Y-99758101D01*
X116972112Y-99703374D01*
X116972111Y-99703374D01*
X116972110Y-99703373D01*
X116853202Y-99623921D01*
X116752079Y-99522798D01*
X116672627Y-99403890D01*
X116641836Y-99329554D01*
X116617899Y-99271766D01*
X116590000Y-99131506D01*
X116590000Y-98988494D01*
X116617899Y-98848234D01*
X116672626Y-98716112D01*
X116705803Y-98666459D01*
X116752079Y-98597202D01*
X116853202Y-98496079D01*
X116972110Y-98416627D01*
X116972112Y-98416626D01*
X117104234Y-98361899D01*
X117244494Y-98334000D01*
X117387506Y-98334000D01*
X117527766Y-98361899D01*
G37*
G36*
X111304266Y-98361899D02*
G01*
X111436388Y-98416626D01*
X111436390Y-98416627D01*
X111555298Y-98496079D01*
X111656421Y-98597202D01*
X111702697Y-98666459D01*
X111735874Y-98716112D01*
X111790601Y-98848234D01*
X111818500Y-98988494D01*
X111818500Y-99131506D01*
X111790601Y-99271766D01*
X111766664Y-99329554D01*
X111735873Y-99403890D01*
X111656421Y-99522798D01*
X111555298Y-99623921D01*
X111436390Y-99703373D01*
X111436389Y-99703374D01*
X111436388Y-99703374D01*
X111304266Y-99758101D01*
X111164006Y-99786000D01*
X111020994Y-99786000D01*
X110880734Y-99758101D01*
X110748612Y-99703374D01*
X110748611Y-99703374D01*
X110748610Y-99703373D01*
X110629702Y-99623921D01*
X110528579Y-99522798D01*
X110449127Y-99403890D01*
X110418336Y-99329554D01*
X110394399Y-99271766D01*
X110366500Y-99131506D01*
X110366500Y-98988494D01*
X110394399Y-98848234D01*
X110449126Y-98716112D01*
X110482303Y-98666459D01*
X110528579Y-98597202D01*
X110629702Y-98496079D01*
X110748610Y-98416627D01*
X110748612Y-98416626D01*
X110880734Y-98361899D01*
X111020994Y-98334000D01*
X111164006Y-98334000D01*
X111304266Y-98361899D01*
G37*
G36*
X109304266Y-98361899D02*
G01*
X109436388Y-98416626D01*
X109436390Y-98416627D01*
X109555298Y-98496079D01*
X109656421Y-98597202D01*
X109702697Y-98666459D01*
X109735874Y-98716112D01*
X109790601Y-98848234D01*
X109818500Y-98988494D01*
X109818500Y-99131506D01*
X109790601Y-99271766D01*
X109766664Y-99329554D01*
X109735873Y-99403890D01*
X109656421Y-99522798D01*
X109555298Y-99623921D01*
X109436390Y-99703373D01*
X109436389Y-99703374D01*
X109436388Y-99703374D01*
X109304266Y-99758101D01*
X109164006Y-99786000D01*
X109020994Y-99786000D01*
X108880734Y-99758101D01*
X108748612Y-99703374D01*
X108748611Y-99703374D01*
X108748610Y-99703373D01*
X108629702Y-99623921D01*
X108528579Y-99522798D01*
X108449127Y-99403890D01*
X108418336Y-99329554D01*
X108394399Y-99271766D01*
X108366500Y-99131506D01*
X108366500Y-98988494D01*
X108394399Y-98848234D01*
X108449126Y-98716112D01*
X108482303Y-98666459D01*
X108528579Y-98597202D01*
X108629702Y-98496079D01*
X108748610Y-98416627D01*
X108748612Y-98416626D01*
X108880734Y-98361899D01*
X109020994Y-98334000D01*
X109164006Y-98334000D01*
X109304266Y-98361899D01*
G37*
G36*
X105818500Y-99786000D02*
G01*
X104366500Y-99786000D01*
X104366500Y-98334000D01*
X105818500Y-98334000D01*
X105818500Y-99786000D01*
G37*
G36*
X119527766Y-98361899D02*
G01*
X119659888Y-98416626D01*
X119659890Y-98416627D01*
X119778798Y-98496079D01*
X119879921Y-98597202D01*
X119926197Y-98666459D01*
X119959374Y-98716112D01*
X120014101Y-98848234D01*
X120042000Y-98988494D01*
X120042000Y-99131506D01*
X120014101Y-99271766D01*
X119990164Y-99329554D01*
X119959373Y-99403890D01*
X119879921Y-99522798D01*
X119778798Y-99623921D01*
X119659890Y-99703373D01*
X119659889Y-99703374D01*
X119659888Y-99703374D01*
X119527766Y-99758101D01*
X119387506Y-99786000D01*
X119244494Y-99786000D01*
X119104234Y-99758101D01*
X118972112Y-99703374D01*
X118972111Y-99703374D01*
X118972110Y-99703373D01*
X118853202Y-99623921D01*
X118752079Y-99522798D01*
X118672627Y-99403890D01*
X118641836Y-99329554D01*
X118617899Y-99271766D01*
X118590000Y-99131506D01*
X118590000Y-98988494D01*
X118617899Y-98848234D01*
X118672626Y-98716112D01*
X118705803Y-98666459D01*
X118752079Y-98597202D01*
X118853202Y-98496079D01*
X118972110Y-98416627D01*
X118972112Y-98416626D01*
X119104234Y-98361899D01*
X119244494Y-98334000D01*
X119387506Y-98334000D01*
X119527766Y-98361899D01*
G37*
G36*
X107304266Y-98361899D02*
G01*
X107436388Y-98416626D01*
X107436390Y-98416627D01*
X107555298Y-98496079D01*
X107656421Y-98597202D01*
X107702697Y-98666459D01*
X107735874Y-98716112D01*
X107790601Y-98848234D01*
X107818500Y-98988494D01*
X107818500Y-99131506D01*
X107790601Y-99271766D01*
X107766664Y-99329554D01*
X107735873Y-99403890D01*
X107656421Y-99522798D01*
X107555298Y-99623921D01*
X107436390Y-99703373D01*
X107436389Y-99703374D01*
X107436388Y-99703374D01*
X107304266Y-99758101D01*
X107164006Y-99786000D01*
X107020994Y-99786000D01*
X106880734Y-99758101D01*
X106748612Y-99703374D01*
X106748611Y-99703374D01*
X106748610Y-99703373D01*
X106629702Y-99623921D01*
X106528579Y-99522798D01*
X106449127Y-99403890D01*
X106418336Y-99329554D01*
X106394399Y-99271766D01*
X106366500Y-99131506D01*
X106366500Y-98988494D01*
X106394399Y-98848234D01*
X106449126Y-98716112D01*
X106482303Y-98666459D01*
X106528579Y-98597202D01*
X106629702Y-98496079D01*
X106748610Y-98416627D01*
X106748612Y-98416626D01*
X106880734Y-98361899D01*
X107020994Y-98334000D01*
X107164006Y-98334000D01*
X107304266Y-98361899D01*
G37*
G36*
X48729112Y-97859127D02*
G01*
X48878412Y-97888824D01*
X49042384Y-97956744D01*
X49189954Y-98055347D01*
X49315453Y-98180846D01*
X49414056Y-98328416D01*
X49481976Y-98492388D01*
X49516600Y-98666459D01*
X49516600Y-98843941D01*
X49481976Y-99018012D01*
X49414056Y-99181984D01*
X49315453Y-99329554D01*
X49189954Y-99455053D01*
X49042384Y-99553656D01*
X48878412Y-99621576D01*
X48729112Y-99651273D01*
X48704342Y-99656200D01*
X48526858Y-99656200D01*
X48502088Y-99651273D01*
X48352788Y-99621576D01*
X48188816Y-99553656D01*
X48041246Y-99455053D01*
X47915747Y-99329554D01*
X47817144Y-99181984D01*
X47749224Y-99018012D01*
X47714600Y-98843941D01*
X47714600Y-98666459D01*
X47749224Y-98492388D01*
X47817144Y-98328416D01*
X47915747Y-98180846D01*
X48041246Y-98055347D01*
X48188816Y-97956744D01*
X48352788Y-97888824D01*
X48502088Y-97859127D01*
X48526858Y-97854200D01*
X48704342Y-97854200D01*
X48729112Y-97859127D01*
G37*
G36*
X51269112Y-97859127D02*
G01*
X51418412Y-97888824D01*
X51582384Y-97956744D01*
X51729954Y-98055347D01*
X51855453Y-98180846D01*
X51954056Y-98328416D01*
X52021976Y-98492388D01*
X52056600Y-98666459D01*
X52056600Y-98843941D01*
X52021976Y-99018012D01*
X51954056Y-99181984D01*
X51855453Y-99329554D01*
X51729954Y-99455053D01*
X51582384Y-99553656D01*
X51418412Y-99621576D01*
X51269112Y-99651273D01*
X51244342Y-99656200D01*
X51066858Y-99656200D01*
X51042088Y-99651273D01*
X50892788Y-99621576D01*
X50728816Y-99553656D01*
X50581246Y-99455053D01*
X50455747Y-99329554D01*
X50357144Y-99181984D01*
X50289224Y-99018012D01*
X50254600Y-98843941D01*
X50254600Y-98666459D01*
X50289224Y-98492388D01*
X50357144Y-98328416D01*
X50455747Y-98180846D01*
X50581246Y-98055347D01*
X50728816Y-97956744D01*
X50892788Y-97888824D01*
X51042088Y-97859127D01*
X51066858Y-97854200D01*
X51244342Y-97854200D01*
X51269112Y-97859127D01*
G37*
G36*
X53809112Y-97859127D02*
G01*
X53958412Y-97888824D01*
X54122384Y-97956744D01*
X54269954Y-98055347D01*
X54395453Y-98180846D01*
X54494056Y-98328416D01*
X54561976Y-98492388D01*
X54596600Y-98666459D01*
X54596600Y-98843941D01*
X54561976Y-99018012D01*
X54494056Y-99181984D01*
X54395453Y-99329554D01*
X54269954Y-99455053D01*
X54122384Y-99553656D01*
X53958412Y-99621576D01*
X53809112Y-99651273D01*
X53784342Y-99656200D01*
X53606858Y-99656200D01*
X53582088Y-99651273D01*
X53432788Y-99621576D01*
X53268816Y-99553656D01*
X53121246Y-99455053D01*
X52995747Y-99329554D01*
X52897144Y-99181984D01*
X52829224Y-99018012D01*
X52794600Y-98843941D01*
X52794600Y-98666459D01*
X52829224Y-98492388D01*
X52897144Y-98328416D01*
X52995747Y-98180846D01*
X53121246Y-98055347D01*
X53268816Y-97956744D01*
X53432788Y-97888824D01*
X53582088Y-97859127D01*
X53606858Y-97854200D01*
X53784342Y-97854200D01*
X53809112Y-97859127D01*
G37*
G36*
X57136600Y-99656200D02*
G01*
X55334600Y-99656200D01*
X55334600Y-97854200D01*
X57136600Y-97854200D01*
X57136600Y-99656200D01*
G37*
G36*
X98284600Y-99656200D02*
G01*
X96482600Y-99656200D01*
X96482600Y-97854200D01*
X98284600Y-97854200D01*
X98284600Y-99656200D01*
G37*
G36*
X100037112Y-97859127D02*
G01*
X100186412Y-97888824D01*
X100350384Y-97956744D01*
X100497954Y-98055347D01*
X100623453Y-98180846D01*
X100722056Y-98328416D01*
X100789976Y-98492388D01*
X100824600Y-98666459D01*
X100824600Y-98843941D01*
X100789976Y-99018012D01*
X100722056Y-99181984D01*
X100623453Y-99329554D01*
X100497954Y-99455053D01*
X100350384Y-99553656D01*
X100186412Y-99621576D01*
X100037112Y-99651273D01*
X100012342Y-99656200D01*
X99834858Y-99656200D01*
X99810088Y-99651273D01*
X99660788Y-99621576D01*
X99496816Y-99553656D01*
X99349246Y-99455053D01*
X99223747Y-99329554D01*
X99125144Y-99181984D01*
X99057224Y-99018012D01*
X99022600Y-98843941D01*
X99022600Y-98666459D01*
X99057224Y-98492388D01*
X99125144Y-98328416D01*
X99223747Y-98180846D01*
X99349246Y-98055347D01*
X99496816Y-97956744D01*
X99660788Y-97888824D01*
X99810088Y-97859127D01*
X99834858Y-97854200D01*
X100012342Y-97854200D01*
X100037112Y-97859127D01*
G37*
G36*
X84885236Y-93726238D02*
G01*
X85253177Y-93799426D01*
X85671932Y-93972880D01*
X86048802Y-94224696D01*
X86369304Y-94545198D01*
X86621120Y-94922068D01*
X86789574Y-95328753D01*
X86794574Y-95340824D01*
X86883000Y-95785370D01*
X86883000Y-96238630D01*
X86871271Y-96297595D01*
X86794574Y-96683177D01*
X86621120Y-97101932D01*
X86369304Y-97478802D01*
X86048802Y-97799304D01*
X85671932Y-98051120D01*
X85253177Y-98224574D01*
X85030903Y-98268787D01*
X84808630Y-98313000D01*
X84355370Y-98313000D01*
X84133097Y-98268787D01*
X83910823Y-98224574D01*
X83492068Y-98051120D01*
X83115198Y-97799304D01*
X82794696Y-97478802D01*
X82542880Y-97101932D01*
X82369426Y-96683177D01*
X82292729Y-96297595D01*
X82281000Y-96238630D01*
X82281000Y-95785370D01*
X82369426Y-95340824D01*
X82374426Y-95328753D01*
X82542880Y-94922068D01*
X82794696Y-94545198D01*
X83115198Y-94224696D01*
X83492068Y-93972880D01*
X83910823Y-93799426D01*
X84278764Y-93726238D01*
X84355370Y-93711000D01*
X84808630Y-93711000D01*
X84885236Y-93726238D01*
G37*
G36*
X42213236Y-93726238D02*
G01*
X42581177Y-93799426D01*
X42999932Y-93972880D01*
X43376802Y-94224696D01*
X43697304Y-94545198D01*
X43949120Y-94922068D01*
X44117574Y-95328753D01*
X44122574Y-95340824D01*
X44211000Y-95785370D01*
X44211000Y-96238630D01*
X44199271Y-96297595D01*
X44122574Y-96683177D01*
X43949120Y-97101932D01*
X43697304Y-97478802D01*
X43376802Y-97799304D01*
X42999932Y-98051120D01*
X42581177Y-98224574D01*
X42358903Y-98268787D01*
X42136630Y-98313000D01*
X41683370Y-98313000D01*
X41461097Y-98268787D01*
X41238823Y-98224574D01*
X40820068Y-98051120D01*
X40443198Y-97799304D01*
X40122696Y-97478802D01*
X39870880Y-97101932D01*
X39697426Y-96683177D01*
X39620729Y-96297595D01*
X39609000Y-96238630D01*
X39609000Y-95785370D01*
X39697426Y-95340824D01*
X39702426Y-95328753D01*
X39870880Y-94922068D01*
X40122696Y-94545198D01*
X40443198Y-94224696D01*
X40820068Y-93972880D01*
X41238823Y-93799426D01*
X41606764Y-93726238D01*
X41683370Y-93711000D01*
X42136630Y-93711000D01*
X42213236Y-93726238D01*
G37*
G36*
X127557236Y-93726238D02*
G01*
X127925177Y-93799426D01*
X128343932Y-93972880D01*
X128720802Y-94224696D01*
X129041304Y-94545198D01*
X129293120Y-94922068D01*
X129461574Y-95328753D01*
X129466574Y-95340824D01*
X129555000Y-95785370D01*
X129555000Y-96238630D01*
X129543271Y-96297595D01*
X129466574Y-96683177D01*
X129293120Y-97101932D01*
X129041304Y-97478802D01*
X128720802Y-97799304D01*
X128343932Y-98051120D01*
X127925177Y-98224574D01*
X127702903Y-98268787D01*
X127480630Y-98313000D01*
X127027370Y-98313000D01*
X126805097Y-98268787D01*
X126582823Y-98224574D01*
X126164068Y-98051120D01*
X125787198Y-97799304D01*
X125466696Y-97478802D01*
X125214880Y-97101932D01*
X125041426Y-96683177D01*
X124964729Y-96297595D01*
X124953000Y-96238630D01*
X124953000Y-95785370D01*
X125041426Y-95340824D01*
X125046426Y-95328753D01*
X125214880Y-94922068D01*
X125466696Y-94545198D01*
X125787198Y-94224696D01*
X126164068Y-93972880D01*
X126582823Y-93799426D01*
X126950764Y-93726238D01*
X127027370Y-93711000D01*
X127480630Y-93711000D01*
X127557236Y-93726238D01*
G37*
G36*
X72173400Y-98183000D02*
G01*
X70371400Y-98183000D01*
X70371400Y-96381000D01*
X72173400Y-96381000D01*
X72173400Y-98183000D01*
G37*
G36*
X74789600Y-98183000D02*
G01*
X72987600Y-98183000D01*
X72987600Y-96381000D01*
X74789600Y-96381000D01*
X74789600Y-98183000D01*
G37*
G36*
X76542112Y-96385927D02*
G01*
X76691412Y-96415624D01*
X76855384Y-96483544D01*
X77002954Y-96582147D01*
X77128453Y-96707646D01*
X77227056Y-96855216D01*
X77294976Y-97019188D01*
X77329600Y-97193259D01*
X77329600Y-97370741D01*
X77294976Y-97544812D01*
X77227056Y-97708784D01*
X77128453Y-97856354D01*
X77002954Y-97981853D01*
X76855384Y-98080456D01*
X76691412Y-98148376D01*
X76542112Y-98178073D01*
X76517342Y-98183000D01*
X76339858Y-98183000D01*
X76315088Y-98178073D01*
X76165788Y-98148376D01*
X76001816Y-98080456D01*
X75854246Y-97981853D01*
X75728747Y-97856354D01*
X75630144Y-97708784D01*
X75562224Y-97544812D01*
X75527600Y-97370741D01*
X75527600Y-97193259D01*
X75562224Y-97019188D01*
X75630144Y-96855216D01*
X75728747Y-96707646D01*
X75854246Y-96582147D01*
X76001816Y-96483544D01*
X76165788Y-96415624D01*
X76315088Y-96385927D01*
X76339858Y-96381000D01*
X76517342Y-96381000D01*
X76542112Y-96385927D01*
G37*
G36*
X68845912Y-96385927D02*
G01*
X68995212Y-96415624D01*
X69159184Y-96483544D01*
X69306754Y-96582147D01*
X69432253Y-96707646D01*
X69530856Y-96855216D01*
X69598776Y-97019188D01*
X69633400Y-97193259D01*
X69633400Y-97370741D01*
X69598776Y-97544812D01*
X69530856Y-97708784D01*
X69432253Y-97856354D01*
X69306754Y-97981853D01*
X69159184Y-98080456D01*
X68995212Y-98148376D01*
X68845912Y-98178073D01*
X68821142Y-98183000D01*
X68643658Y-98183000D01*
X68618888Y-98178073D01*
X68469588Y-98148376D01*
X68305616Y-98080456D01*
X68158046Y-97981853D01*
X68032547Y-97856354D01*
X67933944Y-97708784D01*
X67866024Y-97544812D01*
X67831400Y-97370741D01*
X67831400Y-97193259D01*
X67866024Y-97019188D01*
X67933944Y-96855216D01*
X68032547Y-96707646D01*
X68158046Y-96582147D01*
X68305616Y-96483544D01*
X68469588Y-96415624D01*
X68618888Y-96385927D01*
X68643658Y-96381000D01*
X68821142Y-96381000D01*
X68845912Y-96385927D01*
G37*
G36*
X115883699Y-95274045D02*
G01*
X115921195Y-95285420D01*
X115955754Y-95303892D01*
X115986047Y-95328753D01*
X116010908Y-95359046D01*
X116029380Y-95393605D01*
X116040755Y-95431101D01*
X116045200Y-95476238D01*
X116045200Y-96214962D01*
X116040755Y-96260099D01*
X116029380Y-96297595D01*
X116010908Y-96332154D01*
X115986047Y-96362447D01*
X115955754Y-96387308D01*
X115921195Y-96405780D01*
X115883699Y-96417155D01*
X115838562Y-96421600D01*
X115199838Y-96421600D01*
X115154701Y-96417155D01*
X115117205Y-96405780D01*
X115082646Y-96387308D01*
X115052353Y-96362447D01*
X115027492Y-96332154D01*
X115009020Y-96297595D01*
X114997645Y-96260099D01*
X114993200Y-96214962D01*
X114993200Y-95476238D01*
X114997645Y-95431101D01*
X115009020Y-95393605D01*
X115027492Y-95359046D01*
X115052353Y-95328753D01*
X115082646Y-95303892D01*
X115117205Y-95285420D01*
X115154701Y-95274045D01*
X115199838Y-95269600D01*
X115838562Y-95269600D01*
X115883699Y-95274045D01*
G37*
G36*
X108327199Y-95274045D02*
G01*
X108364695Y-95285420D01*
X108399254Y-95303892D01*
X108429547Y-95328753D01*
X108454408Y-95359046D01*
X108472880Y-95393605D01*
X108484255Y-95431101D01*
X108488700Y-95476238D01*
X108488700Y-96214962D01*
X108484255Y-96260099D01*
X108472880Y-96297595D01*
X108454408Y-96332154D01*
X108429547Y-96362447D01*
X108399254Y-96387308D01*
X108364695Y-96405780D01*
X108327199Y-96417155D01*
X108282062Y-96421600D01*
X107643338Y-96421600D01*
X107598201Y-96417155D01*
X107560705Y-96405780D01*
X107526146Y-96387308D01*
X107495853Y-96362447D01*
X107470992Y-96332154D01*
X107452520Y-96297595D01*
X107441145Y-96260099D01*
X107436700Y-96214962D01*
X107436700Y-95476238D01*
X107441145Y-95431101D01*
X107452520Y-95393605D01*
X107470992Y-95359046D01*
X107495853Y-95328753D01*
X107526146Y-95303892D01*
X107560705Y-95285420D01*
X107598201Y-95274045D01*
X107643338Y-95269600D01*
X108282062Y-95269600D01*
X108327199Y-95274045D01*
G37*
G36*
X112073699Y-95274045D02*
G01*
X112111195Y-95285420D01*
X112145754Y-95303892D01*
X112176047Y-95328753D01*
X112200908Y-95359046D01*
X112219380Y-95393605D01*
X112230755Y-95431101D01*
X112235200Y-95476238D01*
X112235200Y-96214962D01*
X112230755Y-96260099D01*
X112219380Y-96297595D01*
X112200908Y-96332154D01*
X112176047Y-96362447D01*
X112145754Y-96387308D01*
X112111195Y-96405780D01*
X112073699Y-96417155D01*
X112028562Y-96421600D01*
X111389838Y-96421600D01*
X111344701Y-96417155D01*
X111307205Y-96405780D01*
X111272646Y-96387308D01*
X111242353Y-96362447D01*
X111217492Y-96332154D01*
X111199020Y-96297595D01*
X111187645Y-96260099D01*
X111183200Y-96214962D01*
X111183200Y-95476238D01*
X111187645Y-95431101D01*
X111199020Y-95393605D01*
X111217492Y-95359046D01*
X111242353Y-95328753D01*
X111272646Y-95303892D01*
X111307205Y-95285420D01*
X111344701Y-95274045D01*
X111389838Y-95269600D01*
X112028562Y-95269600D01*
X112073699Y-95274045D01*
G37*
G36*
X110168699Y-95274045D02*
G01*
X110206195Y-95285420D01*
X110240754Y-95303892D01*
X110271047Y-95328753D01*
X110295908Y-95359046D01*
X110314380Y-95393605D01*
X110325755Y-95431101D01*
X110330200Y-95476238D01*
X110330200Y-96214962D01*
X110325755Y-96260099D01*
X110314380Y-96297595D01*
X110295908Y-96332154D01*
X110271047Y-96362447D01*
X110240754Y-96387308D01*
X110206195Y-96405780D01*
X110168699Y-96417155D01*
X110123562Y-96421600D01*
X109484838Y-96421600D01*
X109439701Y-96417155D01*
X109402205Y-96405780D01*
X109367646Y-96387308D01*
X109337353Y-96362447D01*
X109312492Y-96332154D01*
X109294020Y-96297595D01*
X109282645Y-96260099D01*
X109278200Y-96214962D01*
X109278200Y-95476238D01*
X109282645Y-95431101D01*
X109294020Y-95393605D01*
X109312492Y-95359046D01*
X109337353Y-95328753D01*
X109367646Y-95303892D01*
X109402205Y-95285420D01*
X109439701Y-95274045D01*
X109484838Y-95269600D01*
X110123562Y-95269600D01*
X110168699Y-95274045D01*
G37*
G36*
X113978699Y-95274045D02*
G01*
X114016195Y-95285420D01*
X114050754Y-95303892D01*
X114081047Y-95328753D01*
X114105908Y-95359046D01*
X114124380Y-95393605D01*
X114135755Y-95431101D01*
X114140200Y-95476238D01*
X114140200Y-96214962D01*
X114135755Y-96260099D01*
X114124380Y-96297595D01*
X114105908Y-96332154D01*
X114081047Y-96362447D01*
X114050754Y-96387308D01*
X114016195Y-96405780D01*
X113978699Y-96417155D01*
X113933562Y-96421600D01*
X113294838Y-96421600D01*
X113249701Y-96417155D01*
X113212205Y-96405780D01*
X113177646Y-96387308D01*
X113147353Y-96362447D01*
X113122492Y-96332154D01*
X113104020Y-96297595D01*
X113092645Y-96260099D01*
X113088200Y-96214962D01*
X113088200Y-95476238D01*
X113092645Y-95431101D01*
X113104020Y-95393605D01*
X113122492Y-95359046D01*
X113147353Y-95328753D01*
X113177646Y-95303892D01*
X113212205Y-95285420D01*
X113249701Y-95274045D01*
X113294838Y-95269600D01*
X113933562Y-95269600D01*
X113978699Y-95274045D01*
G37*
G36*
X117788699Y-95274045D02*
G01*
X117826195Y-95285420D01*
X117860754Y-95303892D01*
X117891047Y-95328753D01*
X117915908Y-95359046D01*
X117934380Y-95393605D01*
X117945755Y-95431101D01*
X117950200Y-95476238D01*
X117950200Y-96214962D01*
X117945755Y-96260099D01*
X117934380Y-96297595D01*
X117915908Y-96332154D01*
X117891047Y-96362447D01*
X117860754Y-96387308D01*
X117826195Y-96405780D01*
X117788699Y-96417155D01*
X117743562Y-96421600D01*
X117104838Y-96421600D01*
X117059701Y-96417155D01*
X117022205Y-96405780D01*
X116987646Y-96387308D01*
X116957353Y-96362447D01*
X116932492Y-96332154D01*
X116914020Y-96297595D01*
X116902645Y-96260099D01*
X116898200Y-96214962D01*
X116898200Y-95476238D01*
X116902645Y-95431101D01*
X116914020Y-95393605D01*
X116932492Y-95359046D01*
X116957353Y-95328753D01*
X116987646Y-95303892D01*
X117022205Y-95285420D01*
X117059701Y-95274045D01*
X117104838Y-95269600D01*
X117743562Y-95269600D01*
X117788699Y-95274045D01*
G37*
G36*
X117788699Y-93524045D02*
G01*
X117826195Y-93535420D01*
X117860754Y-93553892D01*
X117891047Y-93578753D01*
X117915908Y-93609046D01*
X117934380Y-93643605D01*
X117945755Y-93681101D01*
X117950200Y-93726238D01*
X117950200Y-94464962D01*
X117945755Y-94510099D01*
X117934380Y-94547595D01*
X117915908Y-94582154D01*
X117891047Y-94612447D01*
X117860754Y-94637308D01*
X117826195Y-94655780D01*
X117788699Y-94667155D01*
X117743562Y-94671600D01*
X117104838Y-94671600D01*
X117059701Y-94667155D01*
X117022205Y-94655780D01*
X116987646Y-94637308D01*
X116957353Y-94612447D01*
X116932492Y-94582154D01*
X116914020Y-94547595D01*
X116902645Y-94510099D01*
X116898200Y-94464962D01*
X116898200Y-93726238D01*
X116902645Y-93681101D01*
X116914020Y-93643605D01*
X116932492Y-93609046D01*
X116957353Y-93578753D01*
X116987646Y-93553892D01*
X117022205Y-93535420D01*
X117059701Y-93524045D01*
X117104838Y-93519600D01*
X117743562Y-93519600D01*
X117788699Y-93524045D01*
G37*
G36*
X112073699Y-93524045D02*
G01*
X112111195Y-93535420D01*
X112145754Y-93553892D01*
X112176047Y-93578753D01*
X112200908Y-93609046D01*
X112219380Y-93643605D01*
X112230755Y-93681101D01*
X112235200Y-93726238D01*
X112235200Y-94464962D01*
X112230755Y-94510099D01*
X112219380Y-94547595D01*
X112200908Y-94582154D01*
X112176047Y-94612447D01*
X112145754Y-94637308D01*
X112111195Y-94655780D01*
X112073699Y-94667155D01*
X112028562Y-94671600D01*
X111389838Y-94671600D01*
X111344701Y-94667155D01*
X111307205Y-94655780D01*
X111272646Y-94637308D01*
X111242353Y-94612447D01*
X111217492Y-94582154D01*
X111199020Y-94547595D01*
X111187645Y-94510099D01*
X111183200Y-94464962D01*
X111183200Y-93726238D01*
X111187645Y-93681101D01*
X111199020Y-93643605D01*
X111217492Y-93609046D01*
X111242353Y-93578753D01*
X111272646Y-93553892D01*
X111307205Y-93535420D01*
X111344701Y-93524045D01*
X111389838Y-93519600D01*
X112028562Y-93519600D01*
X112073699Y-93524045D01*
G37*
G36*
X108327199Y-93524045D02*
G01*
X108364695Y-93535420D01*
X108399254Y-93553892D01*
X108429547Y-93578753D01*
X108454408Y-93609046D01*
X108472880Y-93643605D01*
X108484255Y-93681101D01*
X108488700Y-93726238D01*
X108488700Y-94464962D01*
X108484255Y-94510099D01*
X108472880Y-94547595D01*
X108454408Y-94582154D01*
X108429547Y-94612447D01*
X108399254Y-94637308D01*
X108364695Y-94655780D01*
X108327199Y-94667155D01*
X108282062Y-94671600D01*
X107643338Y-94671600D01*
X107598201Y-94667155D01*
X107560705Y-94655780D01*
X107526146Y-94637308D01*
X107495853Y-94612447D01*
X107470992Y-94582154D01*
X107452520Y-94547595D01*
X107441145Y-94510099D01*
X107436700Y-94464962D01*
X107436700Y-93726238D01*
X107441145Y-93681101D01*
X107452520Y-93643605D01*
X107470992Y-93609046D01*
X107495853Y-93578753D01*
X107526146Y-93553892D01*
X107560705Y-93535420D01*
X107598201Y-93524045D01*
X107643338Y-93519600D01*
X108282062Y-93519600D01*
X108327199Y-93524045D01*
G37*
G36*
X113978699Y-93524045D02*
G01*
X114016195Y-93535420D01*
X114050754Y-93553892D01*
X114081047Y-93578753D01*
X114105908Y-93609046D01*
X114124380Y-93643605D01*
X114135755Y-93681101D01*
X114140200Y-93726238D01*
X114140200Y-94464962D01*
X114135755Y-94510099D01*
X114124380Y-94547595D01*
X114105908Y-94582154D01*
X114081047Y-94612447D01*
X114050754Y-94637308D01*
X114016195Y-94655780D01*
X113978699Y-94667155D01*
X113933562Y-94671600D01*
X113294838Y-94671600D01*
X113249701Y-94667155D01*
X113212205Y-94655780D01*
X113177646Y-94637308D01*
X113147353Y-94612447D01*
X113122492Y-94582154D01*
X113104020Y-94547595D01*
X113092645Y-94510099D01*
X113088200Y-94464962D01*
X113088200Y-93726238D01*
X113092645Y-93681101D01*
X113104020Y-93643605D01*
X113122492Y-93609046D01*
X113147353Y-93578753D01*
X113177646Y-93553892D01*
X113212205Y-93535420D01*
X113249701Y-93524045D01*
X113294838Y-93519600D01*
X113933562Y-93519600D01*
X113978699Y-93524045D01*
G37*
G36*
X110168699Y-93524045D02*
G01*
X110206195Y-93535420D01*
X110240754Y-93553892D01*
X110271047Y-93578753D01*
X110295908Y-93609046D01*
X110314380Y-93643605D01*
X110325755Y-93681101D01*
X110330200Y-93726238D01*
X110330200Y-94464962D01*
X110325755Y-94510099D01*
X110314380Y-94547595D01*
X110295908Y-94582154D01*
X110271047Y-94612447D01*
X110240754Y-94637308D01*
X110206195Y-94655780D01*
X110168699Y-94667155D01*
X110123562Y-94671600D01*
X109484838Y-94671600D01*
X109439701Y-94667155D01*
X109402205Y-94655780D01*
X109367646Y-94637308D01*
X109337353Y-94612447D01*
X109312492Y-94582154D01*
X109294020Y-94547595D01*
X109282645Y-94510099D01*
X109278200Y-94464962D01*
X109278200Y-93726238D01*
X109282645Y-93681101D01*
X109294020Y-93643605D01*
X109312492Y-93609046D01*
X109337353Y-93578753D01*
X109367646Y-93553892D01*
X109402205Y-93535420D01*
X109439701Y-93524045D01*
X109484838Y-93519600D01*
X110123562Y-93519600D01*
X110168699Y-93524045D01*
G37*
G36*
X115883699Y-93524045D02*
G01*
X115921195Y-93535420D01*
X115955754Y-93553892D01*
X115986047Y-93578753D01*
X116010908Y-93609046D01*
X116029380Y-93643605D01*
X116040755Y-93681101D01*
X116045200Y-93726238D01*
X116045200Y-94464962D01*
X116040755Y-94510099D01*
X116029380Y-94547595D01*
X116010908Y-94582154D01*
X115986047Y-94612447D01*
X115955754Y-94637308D01*
X115921195Y-94655780D01*
X115883699Y-94667155D01*
X115838562Y-94671600D01*
X115199838Y-94671600D01*
X115154701Y-94667155D01*
X115117205Y-94655780D01*
X115082646Y-94637308D01*
X115052353Y-94612447D01*
X115027492Y-94582154D01*
X115009020Y-94547595D01*
X114997645Y-94510099D01*
X114993200Y-94464962D01*
X114993200Y-93726238D01*
X114997645Y-93681101D01*
X115009020Y-93643605D01*
X115027492Y-93609046D01*
X115052353Y-93578753D01*
X115082646Y-93553892D01*
X115117205Y-93535420D01*
X115154701Y-93524045D01*
X115199838Y-93519600D01*
X115838562Y-93519600D01*
X115883699Y-93524045D01*
G37*
G36*
X133011241Y-86996760D02*
G01*
X133275305Y-87106139D01*
X133512958Y-87264934D01*
X133715066Y-87467042D01*
X133873861Y-87704695D01*
X133983240Y-87968759D01*
X134039000Y-88249088D01*
X134039000Y-88534912D01*
X133983240Y-88815241D01*
X133873861Y-89079305D01*
X133715066Y-89316958D01*
X133512958Y-89519066D01*
X133275305Y-89677861D01*
X133011241Y-89787240D01*
X132730912Y-89843000D01*
X132445088Y-89843000D01*
X132164759Y-89787240D01*
X131900695Y-89677861D01*
X131663042Y-89519066D01*
X131460934Y-89316958D01*
X131302139Y-89079305D01*
X131192760Y-88815241D01*
X131137000Y-88534912D01*
X131137000Y-88249088D01*
X131192760Y-87968759D01*
X131302139Y-87704695D01*
X131460934Y-87467042D01*
X131663042Y-87264934D01*
X131900695Y-87106139D01*
X132164759Y-86996760D01*
X132445088Y-86941000D01*
X132730912Y-86941000D01*
X133011241Y-86996760D01*
G37*
G36*
X140631241Y-86996760D02*
G01*
X140895305Y-87106139D01*
X141132958Y-87264934D01*
X141335066Y-87467042D01*
X141493861Y-87704695D01*
X141603240Y-87968759D01*
X141659000Y-88249088D01*
X141659000Y-88534912D01*
X141603240Y-88815241D01*
X141493861Y-89079305D01*
X141335066Y-89316958D01*
X141132958Y-89519066D01*
X140895305Y-89677861D01*
X140631241Y-89787240D01*
X140350912Y-89843000D01*
X140065088Y-89843000D01*
X139784759Y-89787240D01*
X139520695Y-89677861D01*
X139283042Y-89519066D01*
X139080934Y-89316958D01*
X138922139Y-89079305D01*
X138812760Y-88815241D01*
X138757000Y-88534912D01*
X138757000Y-88249088D01*
X138812760Y-87968759D01*
X138922139Y-87704695D01*
X139080934Y-87467042D01*
X139283042Y-87264934D01*
X139520695Y-87106139D01*
X139784759Y-86996760D01*
X140065088Y-86941000D01*
X140350912Y-86941000D01*
X140631241Y-86996760D01*
G37*
G36*
X36491241Y-86996760D02*
G01*
X36755305Y-87106139D01*
X36992958Y-87264934D01*
X37195066Y-87467042D01*
X37353861Y-87704695D01*
X37463240Y-87968759D01*
X37519000Y-88249088D01*
X37519000Y-88534912D01*
X37463240Y-88815241D01*
X37353861Y-89079305D01*
X37195066Y-89316958D01*
X36992958Y-89519066D01*
X36755305Y-89677861D01*
X36491241Y-89787240D01*
X36210912Y-89843000D01*
X35925088Y-89843000D01*
X35644759Y-89787240D01*
X35380695Y-89677861D01*
X35143042Y-89519066D01*
X34940934Y-89316958D01*
X34782139Y-89079305D01*
X34672760Y-88815241D01*
X34617000Y-88534912D01*
X34617000Y-88249088D01*
X34672760Y-87968759D01*
X34782139Y-87704695D01*
X34940934Y-87467042D01*
X35143042Y-87264934D01*
X35380695Y-87106139D01*
X35644759Y-86996760D01*
X35925088Y-86941000D01*
X36210912Y-86941000D01*
X36491241Y-86996760D01*
G37*
G36*
X28871241Y-86996760D02*
G01*
X29135305Y-87106139D01*
X29372958Y-87264934D01*
X29575066Y-87467042D01*
X29733861Y-87704695D01*
X29843240Y-87968759D01*
X29899000Y-88249088D01*
X29899000Y-88534912D01*
X29843240Y-88815241D01*
X29733861Y-89079305D01*
X29575066Y-89316958D01*
X29372958Y-89519066D01*
X29135305Y-89677861D01*
X28871241Y-89787240D01*
X28590912Y-89843000D01*
X28305088Y-89843000D01*
X28024759Y-89787240D01*
X27760695Y-89677861D01*
X27523042Y-89519066D01*
X27320934Y-89316958D01*
X27162139Y-89079305D01*
X27052760Y-88815241D01*
X26997000Y-88534912D01*
X26997000Y-88249088D01*
X27052760Y-87968759D01*
X27162139Y-87704695D01*
X27320934Y-87467042D01*
X27523042Y-87264934D01*
X27760695Y-87106139D01*
X28024759Y-86996760D01*
X28305088Y-86941000D01*
X28590912Y-86941000D01*
X28871241Y-86996760D01*
G37*
G36*
X62501331Y-81326211D02*
G01*
X62829092Y-81461974D01*
X63124070Y-81659072D01*
X63374928Y-81909930D01*
X63572026Y-82204908D01*
X63707789Y-82532669D01*
X63777000Y-82880616D01*
X63777000Y-83235384D01*
X63707789Y-83583331D01*
X63572026Y-83911092D01*
X63374928Y-84206070D01*
X63124070Y-84456928D01*
X62829092Y-84654026D01*
X62501331Y-84789789D01*
X62153384Y-84859000D01*
X61798616Y-84859000D01*
X61450669Y-84789789D01*
X61122908Y-84654026D01*
X60827930Y-84456928D01*
X60577072Y-84206070D01*
X60379974Y-83911092D01*
X60244211Y-83583331D01*
X60175000Y-83235384D01*
X60175000Y-82880616D01*
X60244211Y-82532669D01*
X60379974Y-82204908D01*
X60577072Y-81909930D01*
X60827930Y-81659072D01*
X61122908Y-81461974D01*
X61450669Y-81326211D01*
X61798616Y-81257000D01*
X62153384Y-81257000D01*
X62501331Y-81326211D01*
G37*
G36*
X44304500Y-82690500D02*
G01*
X43452500Y-82690500D01*
X43452500Y-81388500D01*
X44304500Y-81388500D01*
X44304500Y-82690500D01*
G37*
G36*
X36212786Y-79867246D02*
G01*
X36243461Y-79876551D01*
X36271729Y-79891661D01*
X36296506Y-79911994D01*
X36316839Y-79936771D01*
X36331949Y-79965039D01*
X36341254Y-79995714D01*
X36345000Y-80033751D01*
X36345000Y-82145249D01*
X36341254Y-82183286D01*
X36331949Y-82213961D01*
X36316839Y-82242229D01*
X36296506Y-82267006D01*
X36271729Y-82287339D01*
X36243461Y-82302449D01*
X36212786Y-82311754D01*
X36174749Y-82315500D01*
X34163251Y-82315500D01*
X34125214Y-82311754D01*
X34094539Y-82302449D01*
X34066271Y-82287339D01*
X34041494Y-82267006D01*
X34021161Y-82242229D01*
X34006051Y-82213961D01*
X33996746Y-82183286D01*
X33993000Y-82145249D01*
X33993000Y-80033751D01*
X33996746Y-79995714D01*
X34006051Y-79965039D01*
X34021161Y-79936771D01*
X34041494Y-79911994D01*
X34066271Y-79891661D01*
X34094539Y-79876551D01*
X34125214Y-79867246D01*
X34163251Y-79863500D01*
X36174749Y-79863500D01*
X36212786Y-79867246D01*
G37*
G36*
X41312786Y-79867246D02*
G01*
X41343461Y-79876551D01*
X41371729Y-79891661D01*
X41396506Y-79911994D01*
X41416839Y-79936771D01*
X41431949Y-79965039D01*
X41441254Y-79995714D01*
X41445000Y-80033751D01*
X41445000Y-82145249D01*
X41441254Y-82183286D01*
X41431949Y-82213961D01*
X41416839Y-82242229D01*
X41396506Y-82267006D01*
X41371729Y-82287339D01*
X41343461Y-82302449D01*
X41312786Y-82311754D01*
X41274749Y-82315500D01*
X39263251Y-82315500D01*
X39225214Y-82311754D01*
X39194539Y-82302449D01*
X39166271Y-82287339D01*
X39141494Y-82267006D01*
X39121161Y-82242229D01*
X39106051Y-82213961D01*
X39096746Y-82183286D01*
X39093000Y-82145249D01*
X39093000Y-80033751D01*
X39096746Y-79995714D01*
X39106051Y-79965039D01*
X39121161Y-79936771D01*
X39141494Y-79911994D01*
X39166271Y-79891661D01*
X39194539Y-79876551D01*
X39225214Y-79867246D01*
X39263251Y-79863500D01*
X41274749Y-79863500D01*
X41312786Y-79867246D01*
G37*
G36*
X124032674Y-80299165D02*
G01*
X124070367Y-80310599D01*
X124105103Y-80329166D01*
X124135548Y-80354152D01*
X124160534Y-80384597D01*
X124179101Y-80419333D01*
X124190535Y-80457026D01*
X124195000Y-80502361D01*
X124195000Y-81339039D01*
X124190535Y-81384374D01*
X124179101Y-81422067D01*
X124160534Y-81456803D01*
X124135548Y-81487248D01*
X124105103Y-81512234D01*
X124070367Y-81530801D01*
X124032674Y-81542235D01*
X123987339Y-81546700D01*
X122900661Y-81546700D01*
X122855326Y-81542235D01*
X122817633Y-81530801D01*
X122782897Y-81512234D01*
X122752452Y-81487248D01*
X122727466Y-81456803D01*
X122708899Y-81422067D01*
X122697465Y-81384374D01*
X122693000Y-81339039D01*
X122693000Y-80502361D01*
X122697465Y-80457026D01*
X122708899Y-80419333D01*
X122727466Y-80384597D01*
X122752452Y-80354152D01*
X122782897Y-80329166D01*
X122817633Y-80310599D01*
X122855326Y-80299165D01*
X122900661Y-80294700D01*
X123987339Y-80294700D01*
X124032674Y-80299165D01*
G37*
G36*
X120222674Y-80299165D02*
G01*
X120260367Y-80310599D01*
X120295103Y-80329166D01*
X120325548Y-80354152D01*
X120350534Y-80384597D01*
X120369101Y-80419333D01*
X120380535Y-80457026D01*
X120385000Y-80502361D01*
X120385000Y-81339039D01*
X120380535Y-81384374D01*
X120369101Y-81422067D01*
X120350534Y-81456803D01*
X120325548Y-81487248D01*
X120295103Y-81512234D01*
X120260367Y-81530801D01*
X120222674Y-81542235D01*
X120177339Y-81546700D01*
X119090661Y-81546700D01*
X119045326Y-81542235D01*
X119007633Y-81530801D01*
X118972897Y-81512234D01*
X118942452Y-81487248D01*
X118917466Y-81456803D01*
X118898899Y-81422067D01*
X118887465Y-81384374D01*
X118883000Y-81339039D01*
X118883000Y-80502361D01*
X118887465Y-80457026D01*
X118898899Y-80419333D01*
X118917466Y-80384597D01*
X118942452Y-80354152D01*
X118972897Y-80329166D01*
X119007633Y-80310599D01*
X119045326Y-80299165D01*
X119090661Y-80294700D01*
X120177339Y-80294700D01*
X120222674Y-80299165D01*
G37*
G36*
X118317674Y-80299165D02*
G01*
X118355367Y-80310599D01*
X118390103Y-80329166D01*
X118420548Y-80354152D01*
X118445534Y-80384597D01*
X118464101Y-80419333D01*
X118475535Y-80457026D01*
X118480000Y-80502361D01*
X118480000Y-81339039D01*
X118475535Y-81384374D01*
X118464101Y-81422067D01*
X118445534Y-81456803D01*
X118420548Y-81487248D01*
X118390103Y-81512234D01*
X118355367Y-81530801D01*
X118317674Y-81542235D01*
X118272339Y-81546700D01*
X117185661Y-81546700D01*
X117140326Y-81542235D01*
X117102633Y-81530801D01*
X117067897Y-81512234D01*
X117037452Y-81487248D01*
X117012466Y-81456803D01*
X116993899Y-81422067D01*
X116982465Y-81384374D01*
X116978000Y-81339039D01*
X116978000Y-80502361D01*
X116982465Y-80457026D01*
X116993899Y-80419333D01*
X117012466Y-80384597D01*
X117037452Y-80354152D01*
X117067897Y-80329166D01*
X117102633Y-80310599D01*
X117140326Y-80299165D01*
X117185661Y-80294700D01*
X118272339Y-80294700D01*
X118317674Y-80299165D01*
G37*
G36*
X114444174Y-80299165D02*
G01*
X114481867Y-80310599D01*
X114516603Y-80329166D01*
X114547048Y-80354152D01*
X114572034Y-80384597D01*
X114590601Y-80419333D01*
X114602035Y-80457026D01*
X114606500Y-80502361D01*
X114606500Y-81339039D01*
X114602035Y-81384374D01*
X114590601Y-81422067D01*
X114572034Y-81456803D01*
X114547048Y-81487248D01*
X114516603Y-81512234D01*
X114481867Y-81530801D01*
X114444174Y-81542235D01*
X114398839Y-81546700D01*
X113312161Y-81546700D01*
X113266826Y-81542235D01*
X113229133Y-81530801D01*
X113194397Y-81512234D01*
X113163952Y-81487248D01*
X113138966Y-81456803D01*
X113120399Y-81422067D01*
X113108965Y-81384374D01*
X113104500Y-81339039D01*
X113104500Y-80502361D01*
X113108965Y-80457026D01*
X113120399Y-80419333D01*
X113138966Y-80384597D01*
X113163952Y-80354152D01*
X113194397Y-80329166D01*
X113229133Y-80310599D01*
X113266826Y-80299165D01*
X113312161Y-80294700D01*
X114398839Y-80294700D01*
X114444174Y-80299165D01*
G37*
G36*
X122127674Y-80299165D02*
G01*
X122165367Y-80310599D01*
X122200103Y-80329166D01*
X122230548Y-80354152D01*
X122255534Y-80384597D01*
X122274101Y-80419333D01*
X122285535Y-80457026D01*
X122290000Y-80502361D01*
X122290000Y-81339039D01*
X122285535Y-81384374D01*
X122274101Y-81422067D01*
X122255534Y-81456803D01*
X122230548Y-81487248D01*
X122200103Y-81512234D01*
X122165367Y-81530801D01*
X122127674Y-81542235D01*
X122082339Y-81546700D01*
X120995661Y-81546700D01*
X120950326Y-81542235D01*
X120912633Y-81530801D01*
X120877897Y-81512234D01*
X120847452Y-81487248D01*
X120822466Y-81456803D01*
X120803899Y-81422067D01*
X120792465Y-81384374D01*
X120788000Y-81339039D01*
X120788000Y-80502361D01*
X120792465Y-80457026D01*
X120803899Y-80419333D01*
X120822466Y-80384597D01*
X120847452Y-80354152D01*
X120877897Y-80329166D01*
X120912633Y-80310599D01*
X120950326Y-80299165D01*
X120995661Y-80294700D01*
X122082339Y-80294700D01*
X122127674Y-80299165D01*
G37*
G36*
X116412674Y-80299165D02*
G01*
X116450367Y-80310599D01*
X116485103Y-80329166D01*
X116515548Y-80354152D01*
X116540534Y-80384597D01*
X116559101Y-80419333D01*
X116570535Y-80457026D01*
X116575000Y-80502361D01*
X116575000Y-81339039D01*
X116570535Y-81384374D01*
X116559101Y-81422067D01*
X116540534Y-81456803D01*
X116515548Y-81487248D01*
X116485103Y-81512234D01*
X116450367Y-81530801D01*
X116412674Y-81542235D01*
X116367339Y-81546700D01*
X115280661Y-81546700D01*
X115235326Y-81542235D01*
X115197633Y-81530801D01*
X115162897Y-81512234D01*
X115132452Y-81487248D01*
X115107466Y-81456803D01*
X115088899Y-81422067D01*
X115077465Y-81384374D01*
X115073000Y-81339039D01*
X115073000Y-80502361D01*
X115077465Y-80457026D01*
X115088899Y-80419333D01*
X115107466Y-80384597D01*
X115132452Y-80354152D01*
X115162897Y-80329166D01*
X115197633Y-80310599D01*
X115235326Y-80299165D01*
X115280661Y-80294700D01*
X116367339Y-80294700D01*
X116412674Y-80299165D01*
G37*
G36*
X82133000Y-81307500D02*
G01*
X80681000Y-81307500D01*
X80681000Y-79855500D01*
X82133000Y-79855500D01*
X82133000Y-81307500D01*
G37*
G36*
X79618766Y-79883399D02*
G01*
X79750888Y-79938126D01*
X79750890Y-79938127D01*
X79869798Y-80017579D01*
X79970921Y-80118702D01*
X80050373Y-80237610D01*
X80050374Y-80237612D01*
X80105101Y-80369734D01*
X80133000Y-80509994D01*
X80133000Y-80653006D01*
X80105101Y-80793266D01*
X80050374Y-80925388D01*
X80050373Y-80925390D01*
X79970921Y-81044298D01*
X79869798Y-81145421D01*
X79750890Y-81224873D01*
X79750889Y-81224874D01*
X79750888Y-81224874D01*
X79618766Y-81279601D01*
X79478506Y-81307500D01*
X79335494Y-81307500D01*
X79195234Y-81279601D01*
X79063112Y-81224874D01*
X79063111Y-81224874D01*
X79063110Y-81224873D01*
X78944202Y-81145421D01*
X78843079Y-81044298D01*
X78763627Y-80925390D01*
X78763626Y-80925388D01*
X78708899Y-80793266D01*
X78681000Y-80653006D01*
X78681000Y-80509994D01*
X78708899Y-80369734D01*
X78763626Y-80237612D01*
X78763627Y-80237610D01*
X78843079Y-80118702D01*
X78944202Y-80017579D01*
X79063110Y-79938127D01*
X79063112Y-79938126D01*
X79195234Y-79883399D01*
X79335494Y-79855500D01*
X79478506Y-79855500D01*
X79618766Y-79883399D01*
G37*
G36*
X75618766Y-79883399D02*
G01*
X75750888Y-79938126D01*
X75750890Y-79938127D01*
X75869798Y-80017579D01*
X75970921Y-80118702D01*
X76050373Y-80237610D01*
X76050374Y-80237612D01*
X76105101Y-80369734D01*
X76133000Y-80509994D01*
X76133000Y-80653006D01*
X76105101Y-80793266D01*
X76050374Y-80925388D01*
X76050373Y-80925390D01*
X75970921Y-81044298D01*
X75869798Y-81145421D01*
X75750890Y-81224873D01*
X75750889Y-81224874D01*
X75750888Y-81224874D01*
X75618766Y-81279601D01*
X75478506Y-81307500D01*
X75335494Y-81307500D01*
X75195234Y-81279601D01*
X75063112Y-81224874D01*
X75063111Y-81224874D01*
X75063110Y-81224873D01*
X74944202Y-81145421D01*
X74843079Y-81044298D01*
X74763627Y-80925390D01*
X74763626Y-80925388D01*
X74708899Y-80793266D01*
X74681000Y-80653006D01*
X74681000Y-80509994D01*
X74708899Y-80369734D01*
X74763626Y-80237612D01*
X74763627Y-80237610D01*
X74843079Y-80118702D01*
X74944202Y-80017579D01*
X75063110Y-79938127D01*
X75063112Y-79938126D01*
X75195234Y-79883399D01*
X75335494Y-79855500D01*
X75478506Y-79855500D01*
X75618766Y-79883399D01*
G37*
G36*
X73618766Y-79883399D02*
G01*
X73750888Y-79938126D01*
X73750890Y-79938127D01*
X73869798Y-80017579D01*
X73970921Y-80118702D01*
X74050373Y-80237610D01*
X74050374Y-80237612D01*
X74105101Y-80369734D01*
X74133000Y-80509994D01*
X74133000Y-80653006D01*
X74105101Y-80793266D01*
X74050374Y-80925388D01*
X74050373Y-80925390D01*
X73970921Y-81044298D01*
X73869798Y-81145421D01*
X73750890Y-81224873D01*
X73750889Y-81224874D01*
X73750888Y-81224874D01*
X73618766Y-81279601D01*
X73478506Y-81307500D01*
X73335494Y-81307500D01*
X73195234Y-81279601D01*
X73063112Y-81224874D01*
X73063111Y-81224874D01*
X73063110Y-81224873D01*
X72944202Y-81145421D01*
X72843079Y-81044298D01*
X72763627Y-80925390D01*
X72763626Y-80925388D01*
X72708899Y-80793266D01*
X72681000Y-80653006D01*
X72681000Y-80509994D01*
X72708899Y-80369734D01*
X72763626Y-80237612D01*
X72763627Y-80237610D01*
X72843079Y-80118702D01*
X72944202Y-80017579D01*
X73063110Y-79938127D01*
X73063112Y-79938126D01*
X73195234Y-79883399D01*
X73335494Y-79855500D01*
X73478506Y-79855500D01*
X73618766Y-79883399D01*
G37*
G36*
X77618766Y-79883399D02*
G01*
X77750888Y-79938126D01*
X77750890Y-79938127D01*
X77869798Y-80017579D01*
X77970921Y-80118702D01*
X78050373Y-80237610D01*
X78050374Y-80237612D01*
X78105101Y-80369734D01*
X78133000Y-80509994D01*
X78133000Y-80653006D01*
X78105101Y-80793266D01*
X78050374Y-80925388D01*
X78050373Y-80925390D01*
X77970921Y-81044298D01*
X77869798Y-81145421D01*
X77750890Y-81224873D01*
X77750889Y-81224874D01*
X77750888Y-81224874D01*
X77618766Y-81279601D01*
X77478506Y-81307500D01*
X77335494Y-81307500D01*
X77195234Y-81279601D01*
X77063112Y-81224874D01*
X77063111Y-81224874D01*
X77063110Y-81224873D01*
X76944202Y-81145421D01*
X76843079Y-81044298D01*
X76763627Y-80925390D01*
X76763626Y-80925388D01*
X76708899Y-80793266D01*
X76681000Y-80653006D01*
X76681000Y-80509994D01*
X76708899Y-80369734D01*
X76763626Y-80237612D01*
X76763627Y-80237610D01*
X76843079Y-80118702D01*
X76944202Y-80017579D01*
X77063110Y-79938127D01*
X77063112Y-79938126D01*
X77195234Y-79883399D01*
X77335494Y-79855500D01*
X77478506Y-79855500D01*
X77618766Y-79883399D01*
G37*
G36*
X44304500Y-80790500D02*
G01*
X43452500Y-80790500D01*
X43452500Y-79488500D01*
X44304500Y-79488500D01*
X44304500Y-80790500D01*
G37*
G36*
X139300254Y-76310818D02*
G01*
X139673511Y-76465426D01*
X139673513Y-76465427D01*
X140009436Y-76689884D01*
X140295116Y-76975564D01*
X140467035Y-77232858D01*
X140519574Y-77311489D01*
X140674182Y-77684746D01*
X140753000Y-78080993D01*
X140753000Y-78485007D01*
X140674182Y-78881254D01*
X140531994Y-79224527D01*
X140519573Y-79254513D01*
X140295116Y-79590436D01*
X140009436Y-79876116D01*
X139673513Y-80100573D01*
X139673512Y-80100574D01*
X139673511Y-80100574D01*
X139300254Y-80255182D01*
X138904007Y-80334000D01*
X138499993Y-80334000D01*
X138103746Y-80255182D01*
X137730489Y-80100574D01*
X137730488Y-80100574D01*
X137730487Y-80100573D01*
X137394564Y-79876116D01*
X137108884Y-79590436D01*
X136884427Y-79254513D01*
X136872006Y-79224527D01*
X136729818Y-78881254D01*
X136651000Y-78485007D01*
X136651000Y-78080993D01*
X136729818Y-77684746D01*
X136884426Y-77311489D01*
X136936966Y-77232858D01*
X137108884Y-76975564D01*
X137394564Y-76689884D01*
X137730487Y-76465427D01*
X137730489Y-76465426D01*
X138103746Y-76310818D01*
X138499993Y-76232000D01*
X138904007Y-76232000D01*
X139300254Y-76310818D01*
G37*
G36*
X124032674Y-78249165D02*
G01*
X124070367Y-78260599D01*
X124105103Y-78279166D01*
X124135548Y-78304152D01*
X124160534Y-78334597D01*
X124179101Y-78369333D01*
X124190535Y-78407026D01*
X124195000Y-78452361D01*
X124195000Y-79289039D01*
X124190535Y-79334374D01*
X124179101Y-79372067D01*
X124160534Y-79406803D01*
X124135548Y-79437248D01*
X124105103Y-79462234D01*
X124070367Y-79480801D01*
X124032674Y-79492235D01*
X123987339Y-79496700D01*
X122900661Y-79496700D01*
X122855326Y-79492235D01*
X122817633Y-79480801D01*
X122782897Y-79462234D01*
X122752452Y-79437248D01*
X122727466Y-79406803D01*
X122708899Y-79372067D01*
X122697465Y-79334374D01*
X122693000Y-79289039D01*
X122693000Y-78452361D01*
X122697465Y-78407026D01*
X122708899Y-78369333D01*
X122727466Y-78334597D01*
X122752452Y-78304152D01*
X122782897Y-78279166D01*
X122817633Y-78260599D01*
X122855326Y-78249165D01*
X122900661Y-78244700D01*
X123987339Y-78244700D01*
X124032674Y-78249165D01*
G37*
G36*
X122127674Y-78249165D02*
G01*
X122165367Y-78260599D01*
X122200103Y-78279166D01*
X122230548Y-78304152D01*
X122255534Y-78334597D01*
X122274101Y-78369333D01*
X122285535Y-78407026D01*
X122290000Y-78452361D01*
X122290000Y-79289039D01*
X122285535Y-79334374D01*
X122274101Y-79372067D01*
X122255534Y-79406803D01*
X122230548Y-79437248D01*
X122200103Y-79462234D01*
X122165367Y-79480801D01*
X122127674Y-79492235D01*
X122082339Y-79496700D01*
X120995661Y-79496700D01*
X120950326Y-79492235D01*
X120912633Y-79480801D01*
X120877897Y-79462234D01*
X120847452Y-79437248D01*
X120822466Y-79406803D01*
X120803899Y-79372067D01*
X120792465Y-79334374D01*
X120788000Y-79289039D01*
X120788000Y-78452361D01*
X120792465Y-78407026D01*
X120803899Y-78369333D01*
X120822466Y-78334597D01*
X120847452Y-78304152D01*
X120877897Y-78279166D01*
X120912633Y-78260599D01*
X120950326Y-78249165D01*
X120995661Y-78244700D01*
X122082339Y-78244700D01*
X122127674Y-78249165D01*
G37*
G36*
X120222674Y-78249165D02*
G01*
X120260367Y-78260599D01*
X120295103Y-78279166D01*
X120325548Y-78304152D01*
X120350534Y-78334597D01*
X120369101Y-78369333D01*
X120380535Y-78407026D01*
X120385000Y-78452361D01*
X120385000Y-79289039D01*
X120380535Y-79334374D01*
X120369101Y-79372067D01*
X120350534Y-79406803D01*
X120325548Y-79437248D01*
X120295103Y-79462234D01*
X120260367Y-79480801D01*
X120222674Y-79492235D01*
X120177339Y-79496700D01*
X119090661Y-79496700D01*
X119045326Y-79492235D01*
X119007633Y-79480801D01*
X118972897Y-79462234D01*
X118942452Y-79437248D01*
X118917466Y-79406803D01*
X118898899Y-79372067D01*
X118887465Y-79334374D01*
X118883000Y-79289039D01*
X118883000Y-78452361D01*
X118887465Y-78407026D01*
X118898899Y-78369333D01*
X118917466Y-78334597D01*
X118942452Y-78304152D01*
X118972897Y-78279166D01*
X119007633Y-78260599D01*
X119045326Y-78249165D01*
X119090661Y-78244700D01*
X120177339Y-78244700D01*
X120222674Y-78249165D01*
G37*
G36*
X118317674Y-78249165D02*
G01*
X118355367Y-78260599D01*
X118390103Y-78279166D01*
X118420548Y-78304152D01*
X118445534Y-78334597D01*
X118464101Y-78369333D01*
X118475535Y-78407026D01*
X118480000Y-78452361D01*
X118480000Y-79289039D01*
X118475535Y-79334374D01*
X118464101Y-79372067D01*
X118445534Y-79406803D01*
X118420548Y-79437248D01*
X118390103Y-79462234D01*
X118355367Y-79480801D01*
X118317674Y-79492235D01*
X118272339Y-79496700D01*
X117185661Y-79496700D01*
X117140326Y-79492235D01*
X117102633Y-79480801D01*
X117067897Y-79462234D01*
X117037452Y-79437248D01*
X117012466Y-79406803D01*
X116993899Y-79372067D01*
X116982465Y-79334374D01*
X116978000Y-79289039D01*
X116978000Y-78452361D01*
X116982465Y-78407026D01*
X116993899Y-78369333D01*
X117012466Y-78334597D01*
X117037452Y-78304152D01*
X117067897Y-78279166D01*
X117102633Y-78260599D01*
X117140326Y-78249165D01*
X117185661Y-78244700D01*
X118272339Y-78244700D01*
X118317674Y-78249165D01*
G37*
G36*
X116412674Y-78249165D02*
G01*
X116450367Y-78260599D01*
X116485103Y-78279166D01*
X116515548Y-78304152D01*
X116540534Y-78334597D01*
X116559101Y-78369333D01*
X116570535Y-78407026D01*
X116575000Y-78452361D01*
X116575000Y-79289039D01*
X116570535Y-79334374D01*
X116559101Y-79372067D01*
X116540534Y-79406803D01*
X116515548Y-79437248D01*
X116485103Y-79462234D01*
X116450367Y-79480801D01*
X116412674Y-79492235D01*
X116367339Y-79496700D01*
X115280661Y-79496700D01*
X115235326Y-79492235D01*
X115197633Y-79480801D01*
X115162897Y-79462234D01*
X115132452Y-79437248D01*
X115107466Y-79406803D01*
X115088899Y-79372067D01*
X115077465Y-79334374D01*
X115073000Y-79289039D01*
X115073000Y-78452361D01*
X115077465Y-78407026D01*
X115088899Y-78369333D01*
X115107466Y-78334597D01*
X115132452Y-78304152D01*
X115162897Y-78279166D01*
X115197633Y-78260599D01*
X115235326Y-78249165D01*
X115280661Y-78244700D01*
X116367339Y-78244700D01*
X116412674Y-78249165D01*
G37*
G36*
X114444174Y-78249165D02*
G01*
X114481867Y-78260599D01*
X114516603Y-78279166D01*
X114547048Y-78304152D01*
X114572034Y-78334597D01*
X114590601Y-78369333D01*
X114602035Y-78407026D01*
X114606500Y-78452361D01*
X114606500Y-79289039D01*
X114602035Y-79334374D01*
X114590601Y-79372067D01*
X114572034Y-79406803D01*
X114547048Y-79437248D01*
X114516603Y-79462234D01*
X114481867Y-79480801D01*
X114444174Y-79492235D01*
X114398839Y-79496700D01*
X113312161Y-79496700D01*
X113266826Y-79492235D01*
X113229133Y-79480801D01*
X113194397Y-79462234D01*
X113163952Y-79437248D01*
X113138966Y-79406803D01*
X113120399Y-79372067D01*
X113108965Y-79334374D01*
X113104500Y-79289039D01*
X113104500Y-78452361D01*
X113108965Y-78407026D01*
X113120399Y-78369333D01*
X113138966Y-78334597D01*
X113163952Y-78304152D01*
X113194397Y-78279166D01*
X113229133Y-78260599D01*
X113266826Y-78249165D01*
X113312161Y-78244700D01*
X114398839Y-78244700D01*
X114444174Y-78249165D01*
G37*
G36*
X52053142Y-76688242D02*
G01*
X52201101Y-76749529D01*
X52334255Y-76838499D01*
X52447501Y-76951745D01*
X52536471Y-77084899D01*
X52597758Y-77232858D01*
X52629000Y-77389925D01*
X52629000Y-77550075D01*
X52597758Y-77707142D01*
X52536471Y-77855101D01*
X52447501Y-77988255D01*
X52334255Y-78101501D01*
X52201101Y-78190471D01*
X52053142Y-78251758D01*
X51896075Y-78283000D01*
X51735925Y-78283000D01*
X51578858Y-78251758D01*
X51430899Y-78190471D01*
X51297745Y-78101501D01*
X51184499Y-77988255D01*
X51095529Y-77855101D01*
X51034242Y-77707142D01*
X51003000Y-77550075D01*
X51003000Y-77389925D01*
X51034242Y-77232858D01*
X51095529Y-77084899D01*
X51184499Y-76951745D01*
X51297745Y-76838499D01*
X51430899Y-76749529D01*
X51578858Y-76688242D01*
X51735925Y-76657000D01*
X51896075Y-76657000D01*
X52053142Y-76688242D01*
G37*
G36*
X36813142Y-76688242D02*
G01*
X36961101Y-76749529D01*
X37094255Y-76838499D01*
X37207501Y-76951745D01*
X37296471Y-77084899D01*
X37357758Y-77232858D01*
X37389000Y-77389925D01*
X37389000Y-77550075D01*
X37357758Y-77707142D01*
X37296471Y-77855101D01*
X37207501Y-77988255D01*
X37094255Y-78101501D01*
X36961101Y-78190471D01*
X36813142Y-78251758D01*
X36656075Y-78283000D01*
X36495925Y-78283000D01*
X36338858Y-78251758D01*
X36190899Y-78190471D01*
X36057745Y-78101501D01*
X35944499Y-77988255D01*
X35855529Y-77855101D01*
X35794242Y-77707142D01*
X35763000Y-77550075D01*
X35763000Y-77389925D01*
X35794242Y-77232858D01*
X35855529Y-77084899D01*
X35944499Y-76951745D01*
X36057745Y-76838499D01*
X36190899Y-76749529D01*
X36338858Y-76688242D01*
X36495925Y-76657000D01*
X36656075Y-76657000D01*
X36813142Y-76688242D01*
G37*
G36*
X31733142Y-76688242D02*
G01*
X31881101Y-76749529D01*
X32014255Y-76838499D01*
X32127501Y-76951745D01*
X32216471Y-77084899D01*
X32277758Y-77232858D01*
X32309000Y-77389925D01*
X32309000Y-77550075D01*
X32277758Y-77707142D01*
X32216471Y-77855101D01*
X32127501Y-77988255D01*
X32014255Y-78101501D01*
X31881101Y-78190471D01*
X31733142Y-78251758D01*
X31576075Y-78283000D01*
X31415925Y-78283000D01*
X31258858Y-78251758D01*
X31110899Y-78190471D01*
X30977745Y-78101501D01*
X30864499Y-77988255D01*
X30775529Y-77855101D01*
X30714242Y-77707142D01*
X30683000Y-77550075D01*
X30683000Y-77389925D01*
X30714242Y-77232858D01*
X30775529Y-77084899D01*
X30864499Y-76951745D01*
X30977745Y-76838499D01*
X31110899Y-76749529D01*
X31258858Y-76688242D01*
X31415925Y-76657000D01*
X31576075Y-76657000D01*
X31733142Y-76688242D01*
G37*
G36*
X62881898Y-74291499D02*
G01*
X63063410Y-74327604D01*
X63345674Y-74444521D01*
X63599705Y-74614259D01*
X63815741Y-74830295D01*
X63985479Y-75084326D01*
X64102396Y-75366590D01*
X64162000Y-75666240D01*
X64162000Y-75971760D01*
X64102396Y-76271410D01*
X63985479Y-76553674D01*
X63815741Y-76807705D01*
X63599705Y-77023741D01*
X63345674Y-77193479D01*
X63063410Y-77310396D01*
X62913585Y-77340198D01*
X62763761Y-77370000D01*
X62458239Y-77370000D01*
X62308415Y-77340198D01*
X62158590Y-77310396D01*
X61876326Y-77193479D01*
X61622295Y-77023741D01*
X61406259Y-76807705D01*
X61236521Y-76553674D01*
X61119604Y-76271410D01*
X61060000Y-75971760D01*
X61060000Y-75666240D01*
X61119604Y-75366590D01*
X61236521Y-75084326D01*
X61406259Y-74830295D01*
X61622295Y-74614259D01*
X61876326Y-74444521D01*
X62158590Y-74327604D01*
X62340102Y-74291499D01*
X62458239Y-74268000D01*
X62763761Y-74268000D01*
X62881898Y-74291499D01*
G37*
G36*
X97171898Y-74291499D02*
G01*
X97353410Y-74327604D01*
X97635674Y-74444521D01*
X97889705Y-74614259D01*
X98105741Y-74830295D01*
X98275479Y-75084326D01*
X98392396Y-75366590D01*
X98452000Y-75666240D01*
X98452000Y-75971760D01*
X98392396Y-76271410D01*
X98275479Y-76553674D01*
X98105741Y-76807705D01*
X97889705Y-77023741D01*
X97635674Y-77193479D01*
X97353410Y-77310396D01*
X97203585Y-77340198D01*
X97053761Y-77370000D01*
X96748239Y-77370000D01*
X96598415Y-77340198D01*
X96448590Y-77310396D01*
X96166326Y-77193479D01*
X95912295Y-77023741D01*
X95696259Y-76807705D01*
X95526521Y-76553674D01*
X95409604Y-76271410D01*
X95350000Y-75971760D01*
X95350000Y-75666240D01*
X95409604Y-75366590D01*
X95526521Y-75084326D01*
X95696259Y-74830295D01*
X95912295Y-74614259D01*
X96166326Y-74444521D01*
X96448590Y-74327604D01*
X96630102Y-74291499D01*
X96748239Y-74268000D01*
X97053761Y-74268000D01*
X97171898Y-74291499D01*
G37*
G36*
X100881900Y-77070500D02*
G01*
X99579900Y-77070500D01*
X99579900Y-76218500D01*
X100881900Y-76218500D01*
X100881900Y-77070500D01*
G37*
G36*
X102781900Y-77070500D02*
G01*
X101479900Y-77070500D01*
X101479900Y-76218500D01*
X102781900Y-76218500D01*
X102781900Y-77070500D01*
G37*
G36*
X74894000Y-75465500D02*
G01*
X73442000Y-75465500D01*
X73442000Y-74013500D01*
X74894000Y-74013500D01*
X74894000Y-75465500D01*
G37*
G36*
X102865621Y-74082674D02*
G01*
X102965895Y-74124209D01*
X102965896Y-74124210D01*
X103056142Y-74184510D01*
X103132890Y-74261258D01*
X103157017Y-74297367D01*
X103193191Y-74351505D01*
X103234726Y-74451779D01*
X103255900Y-74558230D01*
X103255900Y-74666770D01*
X103234726Y-74773221D01*
X103193191Y-74873495D01*
X103193190Y-74873496D01*
X103132890Y-74963742D01*
X103056142Y-75040490D01*
X103010712Y-75070845D01*
X102965895Y-75100791D01*
X102865621Y-75142326D01*
X102759170Y-75163500D01*
X102650630Y-75163500D01*
X102544179Y-75142326D01*
X102443905Y-75100791D01*
X102399088Y-75070845D01*
X102353658Y-75040490D01*
X102276910Y-74963742D01*
X102216610Y-74873496D01*
X102216609Y-74873495D01*
X102175074Y-74773221D01*
X102153900Y-74666770D01*
X102153900Y-74558230D01*
X102175074Y-74451779D01*
X102216609Y-74351505D01*
X102252783Y-74297367D01*
X102276910Y-74261258D01*
X102353658Y-74184510D01*
X102443904Y-74124210D01*
X102443905Y-74124209D01*
X102544179Y-74082674D01*
X102650630Y-74061500D01*
X102759170Y-74061500D01*
X102865621Y-74082674D01*
G37*
G36*
X28685142Y-72878242D02*
G01*
X28833101Y-72939529D01*
X28966255Y-73028499D01*
X29079501Y-73141745D01*
X29168471Y-73274899D01*
X29229758Y-73422858D01*
X29261000Y-73579925D01*
X29261000Y-73740075D01*
X29229758Y-73897142D01*
X29168471Y-74045101D01*
X29079501Y-74178255D01*
X28966255Y-74291501D01*
X28833101Y-74380471D01*
X28685142Y-74441758D01*
X28528075Y-74473000D01*
X28367925Y-74473000D01*
X28210858Y-74441758D01*
X28062899Y-74380471D01*
X27929745Y-74291501D01*
X27816499Y-74178255D01*
X27727529Y-74045101D01*
X27666242Y-73897142D01*
X27635000Y-73740075D01*
X27635000Y-73579925D01*
X27666242Y-73422858D01*
X27727529Y-73274899D01*
X27816499Y-73141745D01*
X27929745Y-73028499D01*
X28062899Y-72939529D01*
X28210858Y-72878242D01*
X28367925Y-72847000D01*
X28528075Y-72847000D01*
X28685142Y-72878242D01*
G37*
G36*
X106633674Y-73174465D02*
G01*
X106671367Y-73185899D01*
X106706103Y-73204466D01*
X106736548Y-73229452D01*
X106761534Y-73259897D01*
X106780101Y-73294633D01*
X106791535Y-73332326D01*
X106796000Y-73377661D01*
X106796000Y-74214339D01*
X106791535Y-74259674D01*
X106780101Y-74297367D01*
X106761534Y-74332103D01*
X106736548Y-74362548D01*
X106706103Y-74387534D01*
X106671367Y-74406101D01*
X106633674Y-74417535D01*
X106588339Y-74422000D01*
X105501661Y-74422000D01*
X105456326Y-74417535D01*
X105418633Y-74406101D01*
X105383897Y-74387534D01*
X105353452Y-74362548D01*
X105328466Y-74332103D01*
X105309899Y-74297367D01*
X105298465Y-74259674D01*
X105294000Y-74214339D01*
X105294000Y-73377661D01*
X105298465Y-73332326D01*
X105309899Y-73294633D01*
X105328466Y-73259897D01*
X105353452Y-73229452D01*
X105383897Y-73204466D01*
X105418633Y-73185899D01*
X105456326Y-73174465D01*
X105501661Y-73170000D01*
X106588339Y-73170000D01*
X106633674Y-73174465D01*
G37*
G36*
X74379766Y-72041399D02*
G01*
X74511888Y-72096126D01*
X74511890Y-72096127D01*
X74630798Y-72175579D01*
X74731921Y-72276702D01*
X74795597Y-72372000D01*
X74811374Y-72395612D01*
X74866101Y-72527734D01*
X74894000Y-72667994D01*
X74894000Y-72811006D01*
X74866101Y-72951266D01*
X74834109Y-73028501D01*
X74811373Y-73083390D01*
X74731921Y-73202298D01*
X74630798Y-73303421D01*
X74511890Y-73382873D01*
X74511889Y-73382874D01*
X74511888Y-73382874D01*
X74379766Y-73437601D01*
X74239506Y-73465500D01*
X74096494Y-73465500D01*
X73956234Y-73437601D01*
X73824112Y-73382874D01*
X73824111Y-73382874D01*
X73824110Y-73382873D01*
X73705202Y-73303421D01*
X73604079Y-73202298D01*
X73524627Y-73083390D01*
X73501891Y-73028501D01*
X73469899Y-72951266D01*
X73442000Y-72811006D01*
X73442000Y-72667994D01*
X73469899Y-72527734D01*
X73524626Y-72395612D01*
X73540403Y-72372000D01*
X73604079Y-72276702D01*
X73705202Y-72175579D01*
X73824110Y-72096127D01*
X73824112Y-72096126D01*
X73956234Y-72041399D01*
X74096494Y-72013500D01*
X74239506Y-72013500D01*
X74379766Y-72041399D01*
G37*
G36*
X102865621Y-72382674D02*
G01*
X102965895Y-72424209D01*
X102965896Y-72424210D01*
X103056142Y-72484510D01*
X103132890Y-72561258D01*
X103132891Y-72561260D01*
X103193191Y-72651505D01*
X103234726Y-72751779D01*
X103255900Y-72858230D01*
X103255900Y-72966770D01*
X103234726Y-73073221D01*
X103193191Y-73173495D01*
X103184903Y-73185899D01*
X103132890Y-73263742D01*
X103056142Y-73340490D01*
X103010712Y-73370845D01*
X102965895Y-73400791D01*
X102865621Y-73442326D01*
X102759170Y-73463500D01*
X102650630Y-73463500D01*
X102544179Y-73442326D01*
X102443905Y-73400791D01*
X102399088Y-73370845D01*
X102353658Y-73340490D01*
X102276910Y-73263742D01*
X102224897Y-73185899D01*
X102216609Y-73173495D01*
X102175074Y-73073221D01*
X102153900Y-72966770D01*
X102153900Y-72858230D01*
X102175074Y-72751779D01*
X102216609Y-72651505D01*
X102276909Y-72561260D01*
X102276910Y-72561258D01*
X102353658Y-72484510D01*
X102443904Y-72424210D01*
X102443905Y-72424209D01*
X102544179Y-72382674D01*
X102650630Y-72361500D01*
X102759170Y-72361500D01*
X102865621Y-72382674D01*
G37*
G36*
X83869000Y-72960000D02*
G01*
X82267000Y-72960000D01*
X82267000Y-71058000D01*
X83869000Y-71058000D01*
X83869000Y-72960000D01*
G37*
G36*
X91479000Y-72960000D02*
G01*
X89877000Y-72960000D01*
X89877000Y-71058000D01*
X91479000Y-71058000D01*
X91479000Y-72960000D01*
G37*
G36*
X87669000Y-72960000D02*
G01*
X86067000Y-72960000D01*
X86067000Y-71058000D01*
X87669000Y-71058000D01*
X87669000Y-72960000D01*
G37*
G36*
X89574000Y-72960000D02*
G01*
X87972000Y-72960000D01*
X87972000Y-71058000D01*
X89574000Y-71058000D01*
X89574000Y-72960000D01*
G37*
G36*
X85769000Y-72960000D02*
G01*
X84167000Y-72960000D01*
X84167000Y-71058000D01*
X85769000Y-71058000D01*
X85769000Y-72960000D01*
G37*
G36*
X106633674Y-71124465D02*
G01*
X106671367Y-71135899D01*
X106706103Y-71154466D01*
X106736548Y-71179452D01*
X106761534Y-71209897D01*
X106780101Y-71244633D01*
X106791535Y-71282326D01*
X106796000Y-71327661D01*
X106796000Y-72164339D01*
X106791535Y-72209674D01*
X106780101Y-72247367D01*
X106761534Y-72282103D01*
X106736548Y-72312548D01*
X106706103Y-72337534D01*
X106671367Y-72356101D01*
X106633674Y-72367535D01*
X106588339Y-72372000D01*
X105501661Y-72372000D01*
X105456326Y-72367535D01*
X105418633Y-72356101D01*
X105383897Y-72337534D01*
X105353452Y-72312548D01*
X105328466Y-72282103D01*
X105309899Y-72247367D01*
X105298465Y-72209674D01*
X105294000Y-72164339D01*
X105294000Y-71327661D01*
X105298465Y-71282326D01*
X105309899Y-71244633D01*
X105328466Y-71209897D01*
X105353452Y-71179452D01*
X105383897Y-71154466D01*
X105418633Y-71135899D01*
X105456326Y-71124465D01*
X105501661Y-71120000D01*
X106588339Y-71120000D01*
X106633674Y-71124465D01*
G37*
G36*
X117743000Y-72033000D02*
G01*
X109841000Y-72033000D01*
X109841000Y-70431000D01*
X117743000Y-70431000D01*
X117743000Y-72033000D01*
G37*
G36*
X28685142Y-70338242D02*
G01*
X28833101Y-70399529D01*
X28966255Y-70488499D01*
X29079501Y-70601745D01*
X29168471Y-70734899D01*
X29229758Y-70882858D01*
X29261000Y-71039925D01*
X29261000Y-71200075D01*
X29229758Y-71357142D01*
X29168471Y-71505101D01*
X29079501Y-71638255D01*
X28966255Y-71751501D01*
X28833101Y-71840471D01*
X28685142Y-71901758D01*
X28528075Y-71933000D01*
X28367925Y-71933000D01*
X28210858Y-71901758D01*
X28062899Y-71840471D01*
X27929745Y-71751501D01*
X27816499Y-71638255D01*
X27727529Y-71505101D01*
X27666242Y-71357142D01*
X27635000Y-71200075D01*
X27635000Y-71039925D01*
X27666242Y-70882858D01*
X27727529Y-70734899D01*
X27816499Y-70601745D01*
X27929745Y-70488499D01*
X28062899Y-70399529D01*
X28210858Y-70338242D01*
X28367925Y-70307000D01*
X28528075Y-70307000D01*
X28685142Y-70338242D01*
G37*
G36*
X140860228Y-69809703D02*
G01*
X141015100Y-69873853D01*
X141154481Y-69966985D01*
X141273015Y-70085519D01*
X141366147Y-70224900D01*
X141430297Y-70379772D01*
X141463000Y-70544184D01*
X141463000Y-70711816D01*
X141430297Y-70876228D01*
X141366147Y-71031100D01*
X141273015Y-71170481D01*
X141154481Y-71289015D01*
X141015100Y-71382147D01*
X140860228Y-71446297D01*
X140695816Y-71479000D01*
X140528184Y-71479000D01*
X140363772Y-71446297D01*
X140208900Y-71382147D01*
X140069519Y-71289015D01*
X139950985Y-71170481D01*
X139857853Y-71031100D01*
X139793703Y-70876228D01*
X139761000Y-70711816D01*
X139761000Y-70544184D01*
X139793703Y-70379772D01*
X139857853Y-70224900D01*
X139950985Y-70085519D01*
X140069519Y-69966985D01*
X140208900Y-69873853D01*
X140363772Y-69809703D01*
X140528184Y-69777000D01*
X140695816Y-69777000D01*
X140860228Y-69809703D01*
G37*
G36*
X136900228Y-69809703D02*
G01*
X137055100Y-69873853D01*
X137194481Y-69966985D01*
X137313015Y-70085519D01*
X137406147Y-70224900D01*
X137470297Y-70379772D01*
X137503000Y-70544184D01*
X137503000Y-70711816D01*
X137470297Y-70876228D01*
X137406147Y-71031100D01*
X137313015Y-71170481D01*
X137194481Y-71289015D01*
X137055100Y-71382147D01*
X136900228Y-71446297D01*
X136735816Y-71479000D01*
X136568184Y-71479000D01*
X136403772Y-71446297D01*
X136248900Y-71382147D01*
X136109519Y-71289015D01*
X135990985Y-71170481D01*
X135897853Y-71031100D01*
X135833703Y-70876228D01*
X135801000Y-70711816D01*
X135801000Y-70544184D01*
X135833703Y-70379772D01*
X135897853Y-70224900D01*
X135990985Y-70085519D01*
X136109519Y-69966985D01*
X136248900Y-69873853D01*
X136403772Y-69809703D01*
X136568184Y-69777000D01*
X136735816Y-69777000D01*
X136900228Y-69809703D01*
G37*
G36*
X74379766Y-70041399D02*
G01*
X74511888Y-70096126D01*
X74511890Y-70096127D01*
X74630798Y-70175579D01*
X74731921Y-70276702D01*
X74800790Y-70379772D01*
X74811374Y-70395612D01*
X74866101Y-70527734D01*
X74894000Y-70667994D01*
X74894000Y-70811006D01*
X74866101Y-70951266D01*
X74821890Y-71058000D01*
X74811373Y-71083390D01*
X74731921Y-71202298D01*
X74630798Y-71303421D01*
X74511890Y-71382873D01*
X74511889Y-71382874D01*
X74511888Y-71382874D01*
X74379766Y-71437601D01*
X74239506Y-71465500D01*
X74096494Y-71465500D01*
X73956234Y-71437601D01*
X73824112Y-71382874D01*
X73824111Y-71382874D01*
X73824110Y-71382873D01*
X73705202Y-71303421D01*
X73604079Y-71202298D01*
X73524627Y-71083390D01*
X73514110Y-71058000D01*
X73469899Y-70951266D01*
X73442000Y-70811006D01*
X73442000Y-70667994D01*
X73469899Y-70527734D01*
X73524626Y-70395612D01*
X73535210Y-70379772D01*
X73604079Y-70276702D01*
X73705202Y-70175579D01*
X73824110Y-70096127D01*
X73824112Y-70096126D01*
X73956234Y-70041399D01*
X74096494Y-70013500D01*
X74239506Y-70013500D01*
X74379766Y-70041399D01*
G37*
G36*
X100881900Y-71228500D02*
G01*
X99579900Y-71228500D01*
X99579900Y-70376500D01*
X100881900Y-70376500D01*
X100881900Y-71228500D01*
G37*
G36*
X102781900Y-71228500D02*
G01*
X101479900Y-71228500D01*
X101479900Y-70376500D01*
X102781900Y-70376500D01*
X102781900Y-71228500D01*
G37*
G36*
X97773142Y-69322242D02*
G01*
X97921101Y-69383529D01*
X98054255Y-69472499D01*
X98167501Y-69585745D01*
X98256471Y-69718899D01*
X98317758Y-69866858D01*
X98349000Y-70023925D01*
X98349000Y-70184075D01*
X98317758Y-70341142D01*
X98256471Y-70489101D01*
X98167501Y-70622255D01*
X98054255Y-70735501D01*
X97921101Y-70824471D01*
X97773142Y-70885758D01*
X97616075Y-70917000D01*
X97455925Y-70917000D01*
X97298858Y-70885758D01*
X97150899Y-70824471D01*
X97017745Y-70735501D01*
X96904499Y-70622255D01*
X96815529Y-70489101D01*
X96754242Y-70341142D01*
X96723000Y-70184075D01*
X96723000Y-70023925D01*
X96754242Y-69866858D01*
X96815529Y-69718899D01*
X96904499Y-69585745D01*
X97017745Y-69472499D01*
X97150899Y-69383529D01*
X97298858Y-69322242D01*
X97455925Y-69291000D01*
X97616075Y-69291000D01*
X97773142Y-69322242D01*
G37*
G36*
X138880228Y-68664703D02*
G01*
X139035100Y-68728853D01*
X139174481Y-68821985D01*
X139293015Y-68940519D01*
X139386147Y-69079900D01*
X139450297Y-69234772D01*
X139483000Y-69399184D01*
X139483000Y-69566816D01*
X139450297Y-69731228D01*
X139386147Y-69886100D01*
X139293015Y-70025481D01*
X139174481Y-70144015D01*
X139035100Y-70237147D01*
X138880228Y-70301297D01*
X138715816Y-70334000D01*
X138548184Y-70334000D01*
X138383772Y-70301297D01*
X138228900Y-70237147D01*
X138089519Y-70144015D01*
X137970985Y-70025481D01*
X137877853Y-69886100D01*
X137813703Y-69731228D01*
X137781000Y-69566816D01*
X137781000Y-69399184D01*
X137813703Y-69234772D01*
X137877853Y-69079900D01*
X137970985Y-68940519D01*
X138089519Y-68821985D01*
X138228900Y-68728853D01*
X138383772Y-68664703D01*
X138548184Y-68632000D01*
X138715816Y-68632000D01*
X138880228Y-68664703D01*
G37*
G36*
X94804000Y-69625000D02*
G01*
X92902000Y-69625000D01*
X92902000Y-68023000D01*
X94804000Y-68023000D01*
X94804000Y-69625000D01*
G37*
G36*
X80834000Y-69625000D02*
G01*
X78932000Y-69625000D01*
X78932000Y-68023000D01*
X80834000Y-68023000D01*
X80834000Y-69625000D01*
G37*
G36*
X108893000Y-69483000D02*
G01*
X107291000Y-69483000D01*
X107291000Y-61581000D01*
X108893000Y-61581000D01*
X108893000Y-69483000D01*
G37*
G36*
X120293000Y-69483000D02*
G01*
X118691000Y-69483000D01*
X118691000Y-61581000D01*
X120293000Y-61581000D01*
X120293000Y-69483000D01*
G37*
G36*
X28685142Y-67798242D02*
G01*
X28833101Y-67859529D01*
X28966255Y-67948499D01*
X29079501Y-68061745D01*
X29168471Y-68194899D01*
X29229758Y-68342858D01*
X29261000Y-68499925D01*
X29261000Y-68660075D01*
X29229758Y-68817142D01*
X29168471Y-68965101D01*
X29079501Y-69098255D01*
X28966255Y-69211501D01*
X28833101Y-69300471D01*
X28685142Y-69361758D01*
X28528075Y-69393000D01*
X28367925Y-69393000D01*
X28210858Y-69361758D01*
X28062899Y-69300471D01*
X27929745Y-69211501D01*
X27816499Y-69098255D01*
X27727529Y-68965101D01*
X27666242Y-68817142D01*
X27635000Y-68660075D01*
X27635000Y-68499925D01*
X27666242Y-68342858D01*
X27727529Y-68194899D01*
X27816499Y-68061745D01*
X27929745Y-67948499D01*
X28062899Y-67859529D01*
X28210858Y-67798242D01*
X28367925Y-67767000D01*
X28528075Y-67767000D01*
X28685142Y-67798242D01*
G37*
G36*
X140860228Y-67519703D02*
G01*
X141015100Y-67583853D01*
X141154481Y-67676985D01*
X141273015Y-67795519D01*
X141366147Y-67934900D01*
X141430297Y-68089772D01*
X141463000Y-68254184D01*
X141463000Y-68421816D01*
X141430297Y-68586228D01*
X141366147Y-68741100D01*
X141273015Y-68880481D01*
X141154481Y-68999015D01*
X141015100Y-69092147D01*
X140860228Y-69156297D01*
X140695816Y-69189000D01*
X140528184Y-69189000D01*
X140363772Y-69156297D01*
X140208900Y-69092147D01*
X140069519Y-68999015D01*
X139950985Y-68880481D01*
X139857853Y-68741100D01*
X139793703Y-68586228D01*
X139761000Y-68421816D01*
X139761000Y-68254184D01*
X139793703Y-68089772D01*
X139857853Y-67934900D01*
X139950985Y-67795519D01*
X140069519Y-67676985D01*
X140208900Y-67583853D01*
X140363772Y-67519703D01*
X140528184Y-67487000D01*
X140695816Y-67487000D01*
X140860228Y-67519703D01*
G37*
G36*
X136900228Y-67519703D02*
G01*
X137055100Y-67583853D01*
X137194481Y-67676985D01*
X137313015Y-67795519D01*
X137406147Y-67934900D01*
X137470297Y-68089772D01*
X137503000Y-68254184D01*
X137503000Y-68421816D01*
X137470297Y-68586228D01*
X137406147Y-68741100D01*
X137313015Y-68880481D01*
X137194481Y-68999015D01*
X137055100Y-69092147D01*
X136900228Y-69156297D01*
X136735816Y-69189000D01*
X136568184Y-69189000D01*
X136403772Y-69156297D01*
X136248900Y-69092147D01*
X136109519Y-68999015D01*
X135990985Y-68880481D01*
X135897853Y-68741100D01*
X135833703Y-68586228D01*
X135801000Y-68421816D01*
X135801000Y-68254184D01*
X135833703Y-68089772D01*
X135897853Y-67934900D01*
X135990985Y-67795519D01*
X136109519Y-67676985D01*
X136248900Y-67583853D01*
X136403772Y-67519703D01*
X136568184Y-67487000D01*
X136735816Y-67487000D01*
X136900228Y-67519703D01*
G37*
G36*
X126583000Y-68925000D02*
G01*
X125131000Y-68925000D01*
X125131000Y-67473000D01*
X126583000Y-67473000D01*
X126583000Y-68925000D01*
G37*
G36*
X36311064Y-66680389D02*
G01*
X36481534Y-66751000D01*
X36502335Y-66759616D01*
X36674473Y-66874635D01*
X36820865Y-67021027D01*
X36926352Y-67178899D01*
X36935885Y-67193167D01*
X37015111Y-67384436D01*
X37055500Y-67587484D01*
X37055500Y-67794516D01*
X37015111Y-67997564D01*
X36976917Y-68089772D01*
X36935884Y-68188835D01*
X36820865Y-68360973D01*
X36674473Y-68507365D01*
X36502335Y-68622384D01*
X36502334Y-68622385D01*
X36502333Y-68622385D01*
X36311064Y-68701611D01*
X36108016Y-68742000D01*
X35900984Y-68742000D01*
X35697936Y-68701611D01*
X35506667Y-68622385D01*
X35506666Y-68622385D01*
X35506665Y-68622384D01*
X35334527Y-68507365D01*
X35188135Y-68360973D01*
X35073116Y-68188835D01*
X35032083Y-68089772D01*
X34993889Y-67997564D01*
X34953500Y-67794516D01*
X34953500Y-67587484D01*
X34993889Y-67384436D01*
X35073115Y-67193167D01*
X35082649Y-67178899D01*
X35188135Y-67021027D01*
X35334527Y-66874635D01*
X35506665Y-66759616D01*
X35527466Y-66751000D01*
X35697936Y-66680389D01*
X35900984Y-66640000D01*
X36108016Y-66640000D01*
X36311064Y-66680389D01*
G37*
G36*
X59171064Y-66680389D02*
G01*
X59341534Y-66751000D01*
X59362335Y-66759616D01*
X59534473Y-66874635D01*
X59680865Y-67021027D01*
X59786352Y-67178899D01*
X59795885Y-67193167D01*
X59875111Y-67384436D01*
X59915500Y-67587484D01*
X59915500Y-67794516D01*
X59875111Y-67997564D01*
X59836917Y-68089772D01*
X59795884Y-68188835D01*
X59680865Y-68360973D01*
X59534473Y-68507365D01*
X59362335Y-68622384D01*
X59362334Y-68622385D01*
X59362333Y-68622385D01*
X59171064Y-68701611D01*
X58968016Y-68742000D01*
X58760984Y-68742000D01*
X58557936Y-68701611D01*
X58366667Y-68622385D01*
X58366666Y-68622385D01*
X58366665Y-68622384D01*
X58194527Y-68507365D01*
X58048135Y-68360973D01*
X57933116Y-68188835D01*
X57892083Y-68089772D01*
X57853889Y-67997564D01*
X57813500Y-67794516D01*
X57813500Y-67587484D01*
X57853889Y-67384436D01*
X57933115Y-67193167D01*
X57942649Y-67178899D01*
X58048135Y-67021027D01*
X58194527Y-66874635D01*
X58366665Y-66759616D01*
X58387466Y-66751000D01*
X58557936Y-66680389D01*
X58760984Y-66640000D01*
X58968016Y-66640000D01*
X59171064Y-66680389D01*
G37*
G36*
X97773142Y-66782242D02*
G01*
X97921101Y-66843529D01*
X98054255Y-66932499D01*
X98167501Y-67045745D01*
X98256471Y-67178899D01*
X98317758Y-67326858D01*
X98349000Y-67483925D01*
X98349000Y-67644075D01*
X98317758Y-67801142D01*
X98256471Y-67949101D01*
X98167501Y-68082255D01*
X98054255Y-68195501D01*
X97921101Y-68284471D01*
X97773142Y-68345758D01*
X97616075Y-68377000D01*
X97455925Y-68377000D01*
X97298858Y-68345758D01*
X97150899Y-68284471D01*
X97017745Y-68195501D01*
X96904499Y-68082255D01*
X96815529Y-67949101D01*
X96754242Y-67801142D01*
X96723000Y-67644075D01*
X96723000Y-67483925D01*
X96754242Y-67326858D01*
X96815529Y-67178899D01*
X96904499Y-67045745D01*
X97017745Y-66932499D01*
X97150899Y-66843529D01*
X97298858Y-66782242D01*
X97455925Y-66751000D01*
X97616075Y-66751000D01*
X97773142Y-66782242D01*
G37*
G36*
X138880228Y-66374703D02*
G01*
X139035100Y-66438853D01*
X139174481Y-66531985D01*
X139293015Y-66650519D01*
X139386147Y-66789900D01*
X139450297Y-66944772D01*
X139483000Y-67109184D01*
X139483000Y-67276816D01*
X139450297Y-67441228D01*
X139386147Y-67596100D01*
X139293015Y-67735481D01*
X139174481Y-67854015D01*
X139035100Y-67947147D01*
X138880228Y-68011297D01*
X138715816Y-68044000D01*
X138548184Y-68044000D01*
X138383772Y-68011297D01*
X138228900Y-67947147D01*
X138089519Y-67854015D01*
X137970985Y-67735481D01*
X137877853Y-67596100D01*
X137813703Y-67441228D01*
X137781000Y-67276816D01*
X137781000Y-67109184D01*
X137813703Y-66944772D01*
X137877853Y-66789900D01*
X137970985Y-66650519D01*
X138089519Y-66531985D01*
X138228900Y-66438853D01*
X138383772Y-66374703D01*
X138548184Y-66342000D01*
X138715816Y-66342000D01*
X138880228Y-66374703D01*
G37*
G36*
X80834000Y-67725000D02*
G01*
X78932000Y-67725000D01*
X78932000Y-66123000D01*
X80834000Y-66123000D01*
X80834000Y-67725000D01*
G37*
G36*
X94804000Y-67725000D02*
G01*
X92902000Y-67725000D01*
X92902000Y-66123000D01*
X94804000Y-66123000D01*
X94804000Y-67725000D01*
G37*
G36*
X32143000Y-66941000D02*
G01*
X30341000Y-66941000D01*
X30341000Y-65139000D01*
X32143000Y-65139000D01*
X32143000Y-66941000D01*
G37*
G36*
X126068766Y-65500899D02*
G01*
X126200888Y-65555626D01*
X126200890Y-65555627D01*
X126319798Y-65635079D01*
X126420921Y-65736202D01*
X126465459Y-65802858D01*
X126500374Y-65855112D01*
X126555101Y-65987234D01*
X126583000Y-66127494D01*
X126583000Y-66270506D01*
X126555101Y-66410766D01*
X126504890Y-66531985D01*
X126500373Y-66542890D01*
X126420921Y-66661798D01*
X126319798Y-66762921D01*
X126200890Y-66842373D01*
X126200889Y-66842374D01*
X126200888Y-66842374D01*
X126068766Y-66897101D01*
X125928506Y-66925000D01*
X125785494Y-66925000D01*
X125645234Y-66897101D01*
X125513112Y-66842374D01*
X125513111Y-66842374D01*
X125513110Y-66842373D01*
X125394202Y-66762921D01*
X125293079Y-66661798D01*
X125213627Y-66542890D01*
X125209110Y-66531985D01*
X125158899Y-66410766D01*
X125131000Y-66270506D01*
X125131000Y-66127494D01*
X125158899Y-65987234D01*
X125213626Y-65855112D01*
X125248541Y-65802858D01*
X125293079Y-65736202D01*
X125394202Y-65635079D01*
X125513110Y-65555627D01*
X125513112Y-65555626D01*
X125645234Y-65500899D01*
X125785494Y-65473000D01*
X125928506Y-65473000D01*
X126068766Y-65500899D01*
G37*
G36*
X140860228Y-65229703D02*
G01*
X141015100Y-65293853D01*
X141154481Y-65386985D01*
X141273015Y-65505519D01*
X141366147Y-65644900D01*
X141430297Y-65799772D01*
X141463000Y-65964184D01*
X141463000Y-66131816D01*
X141430297Y-66296228D01*
X141366147Y-66451100D01*
X141273015Y-66590481D01*
X141154481Y-66709015D01*
X141015100Y-66802147D01*
X140860228Y-66866297D01*
X140695816Y-66899000D01*
X140528184Y-66899000D01*
X140363772Y-66866297D01*
X140208900Y-66802147D01*
X140069519Y-66709015D01*
X139950985Y-66590481D01*
X139857853Y-66451100D01*
X139793703Y-66296228D01*
X139761000Y-66131816D01*
X139761000Y-65964184D01*
X139793703Y-65799772D01*
X139857853Y-65644900D01*
X139950985Y-65505519D01*
X140069519Y-65386985D01*
X140208900Y-65293853D01*
X140363772Y-65229703D01*
X140528184Y-65197000D01*
X140695816Y-65197000D01*
X140860228Y-65229703D01*
G37*
G36*
X136900228Y-65229703D02*
G01*
X137055100Y-65293853D01*
X137194481Y-65386985D01*
X137313015Y-65505519D01*
X137406147Y-65644900D01*
X137470297Y-65799772D01*
X137503000Y-65964184D01*
X137503000Y-66131816D01*
X137470297Y-66296228D01*
X137406147Y-66451100D01*
X137313015Y-66590481D01*
X137194481Y-66709015D01*
X137055100Y-66802147D01*
X136900228Y-66866297D01*
X136735816Y-66899000D01*
X136568184Y-66899000D01*
X136403772Y-66866297D01*
X136248900Y-66802147D01*
X136109519Y-66709015D01*
X135990985Y-66590481D01*
X135897853Y-66451100D01*
X135833703Y-66296228D01*
X135801000Y-66131816D01*
X135801000Y-65964184D01*
X135833703Y-65799772D01*
X135897853Y-65644900D01*
X135990985Y-65505519D01*
X136109519Y-65386985D01*
X136248900Y-65293853D01*
X136403772Y-65229703D01*
X136568184Y-65197000D01*
X136735816Y-65197000D01*
X136900228Y-65229703D01*
G37*
G36*
X28685142Y-65258242D02*
G01*
X28833101Y-65319529D01*
X28966255Y-65408499D01*
X29079501Y-65521745D01*
X29168471Y-65654899D01*
X29229758Y-65802858D01*
X29261000Y-65959925D01*
X29261000Y-66120075D01*
X29229758Y-66277142D01*
X29168471Y-66425101D01*
X29079501Y-66558255D01*
X28966255Y-66671501D01*
X28833101Y-66760471D01*
X28685142Y-66821758D01*
X28528075Y-66853000D01*
X28367925Y-66853000D01*
X28210858Y-66821758D01*
X28062899Y-66760471D01*
X27929745Y-66671501D01*
X27816499Y-66558255D01*
X27727529Y-66425101D01*
X27666242Y-66277142D01*
X27635000Y-66120075D01*
X27635000Y-65959925D01*
X27666242Y-65802858D01*
X27727529Y-65654899D01*
X27816499Y-65521745D01*
X27929745Y-65408499D01*
X28062899Y-65319529D01*
X28210858Y-65258242D01*
X28367925Y-65227000D01*
X28528075Y-65227000D01*
X28685142Y-65258242D01*
G37*
G36*
X97773142Y-64242242D02*
G01*
X97921101Y-64303529D01*
X98054255Y-64392499D01*
X98167501Y-64505745D01*
X98256471Y-64638899D01*
X98317758Y-64786858D01*
X98349000Y-64943925D01*
X98349000Y-65104075D01*
X98317758Y-65261142D01*
X98256471Y-65409101D01*
X98167501Y-65542255D01*
X98054255Y-65655501D01*
X97921101Y-65744471D01*
X97773142Y-65805758D01*
X97616075Y-65837000D01*
X97455925Y-65837000D01*
X97298858Y-65805758D01*
X97150899Y-65744471D01*
X97017745Y-65655501D01*
X96904499Y-65542255D01*
X96815529Y-65409101D01*
X96754242Y-65261142D01*
X96723000Y-65104075D01*
X96723000Y-64943925D01*
X96754242Y-64786858D01*
X96815529Y-64638899D01*
X96904499Y-64505745D01*
X97017745Y-64392499D01*
X97150899Y-64303529D01*
X97298858Y-64242242D01*
X97455925Y-64211000D01*
X97616075Y-64211000D01*
X97773142Y-64242242D01*
G37*
G36*
X80834000Y-65825000D02*
G01*
X78932000Y-65825000D01*
X78932000Y-64223000D01*
X80834000Y-64223000D01*
X80834000Y-65825000D01*
G37*
G36*
X94804000Y-65825000D02*
G01*
X92902000Y-65825000D01*
X92902000Y-64223000D01*
X94804000Y-64223000D01*
X94804000Y-65825000D01*
G37*
G36*
X138880228Y-64084703D02*
G01*
X139035100Y-64148853D01*
X139174481Y-64241985D01*
X139293015Y-64360519D01*
X139386147Y-64499900D01*
X139450297Y-64654772D01*
X139483000Y-64819184D01*
X139483000Y-64986816D01*
X139450297Y-65151228D01*
X139386147Y-65306100D01*
X139293015Y-65445481D01*
X139174481Y-65564015D01*
X139035100Y-65657147D01*
X138880228Y-65721297D01*
X138715816Y-65754000D01*
X138548184Y-65754000D01*
X138383772Y-65721297D01*
X138228900Y-65657147D01*
X138089519Y-65564015D01*
X137970985Y-65445481D01*
X137877853Y-65306100D01*
X137813703Y-65151228D01*
X137781000Y-64986816D01*
X137781000Y-64819184D01*
X137813703Y-64654772D01*
X137877853Y-64499900D01*
X137970985Y-64360519D01*
X138089519Y-64241985D01*
X138228900Y-64148853D01*
X138383772Y-64084703D01*
X138548184Y-64052000D01*
X138715816Y-64052000D01*
X138880228Y-64084703D01*
G37*
G36*
X126068766Y-63500899D02*
G01*
X126200888Y-63555626D01*
X126200890Y-63555627D01*
X126319798Y-63635079D01*
X126420921Y-63736202D01*
X126491490Y-63841816D01*
X126500374Y-63855112D01*
X126555101Y-63987234D01*
X126583000Y-64127494D01*
X126583000Y-64270506D01*
X126555101Y-64410766D01*
X126518180Y-64499900D01*
X126500373Y-64542890D01*
X126420921Y-64661798D01*
X126319798Y-64762921D01*
X126200890Y-64842373D01*
X126200889Y-64842374D01*
X126200888Y-64842374D01*
X126068766Y-64897101D01*
X125928506Y-64925000D01*
X125785494Y-64925000D01*
X125645234Y-64897101D01*
X125513112Y-64842374D01*
X125513111Y-64842374D01*
X125513110Y-64842373D01*
X125394202Y-64762921D01*
X125293079Y-64661798D01*
X125213627Y-64542890D01*
X125195820Y-64499900D01*
X125158899Y-64410766D01*
X125131000Y-64270506D01*
X125131000Y-64127494D01*
X125158899Y-63987234D01*
X125213626Y-63855112D01*
X125222510Y-63841816D01*
X125293079Y-63736202D01*
X125394202Y-63635079D01*
X125513110Y-63555627D01*
X125513112Y-63555626D01*
X125645234Y-63500899D01*
X125785494Y-63473000D01*
X125928506Y-63473000D01*
X126068766Y-63500899D01*
G37*
G36*
X140860228Y-62939703D02*
G01*
X141015100Y-63003853D01*
X141154481Y-63096985D01*
X141273015Y-63215519D01*
X141366147Y-63354900D01*
X141430297Y-63509772D01*
X141463000Y-63674184D01*
X141463000Y-63841816D01*
X141430297Y-64006228D01*
X141366147Y-64161100D01*
X141273015Y-64300481D01*
X141154481Y-64419015D01*
X141015100Y-64512147D01*
X140860228Y-64576297D01*
X140695816Y-64609000D01*
X140528184Y-64609000D01*
X140363772Y-64576297D01*
X140208900Y-64512147D01*
X140069519Y-64419015D01*
X139950985Y-64300481D01*
X139857853Y-64161100D01*
X139793703Y-64006228D01*
X139761000Y-63841816D01*
X139761000Y-63674184D01*
X139793703Y-63509772D01*
X139857853Y-63354900D01*
X139950985Y-63215519D01*
X140069519Y-63096985D01*
X140208900Y-63003853D01*
X140363772Y-62939703D01*
X140528184Y-62907000D01*
X140695816Y-62907000D01*
X140860228Y-62939703D01*
G37*
G36*
X136900228Y-62939703D02*
G01*
X137055100Y-63003853D01*
X137194481Y-63096985D01*
X137313015Y-63215519D01*
X137406147Y-63354900D01*
X137470297Y-63509772D01*
X137503000Y-63674184D01*
X137503000Y-63841816D01*
X137470297Y-64006228D01*
X137406147Y-64161100D01*
X137313015Y-64300481D01*
X137194481Y-64419015D01*
X137055100Y-64512147D01*
X136900228Y-64576297D01*
X136735816Y-64609000D01*
X136568184Y-64609000D01*
X136403772Y-64576297D01*
X136248900Y-64512147D01*
X136109519Y-64419015D01*
X135990985Y-64300481D01*
X135897853Y-64161100D01*
X135833703Y-64006228D01*
X135801000Y-63841816D01*
X135801000Y-63674184D01*
X135833703Y-63509772D01*
X135897853Y-63354900D01*
X135990985Y-63215519D01*
X136109519Y-63096985D01*
X136248900Y-63003853D01*
X136403772Y-62939703D01*
X136568184Y-62907000D01*
X136735816Y-62907000D01*
X136900228Y-62939703D01*
G37*
G36*
X28685142Y-62718242D02*
G01*
X28833101Y-62779529D01*
X28966255Y-62868499D01*
X29079501Y-62981745D01*
X29168471Y-63114899D01*
X29229758Y-63262858D01*
X29261000Y-63419925D01*
X29261000Y-63580075D01*
X29229758Y-63737142D01*
X29168471Y-63885101D01*
X29079501Y-64018255D01*
X28966255Y-64131501D01*
X28833101Y-64220471D01*
X28685142Y-64281758D01*
X28528075Y-64313000D01*
X28367925Y-64313000D01*
X28210858Y-64281758D01*
X28062899Y-64220471D01*
X27929745Y-64131501D01*
X27816499Y-64018255D01*
X27727529Y-63885101D01*
X27666242Y-63737142D01*
X27635000Y-63580075D01*
X27635000Y-63419925D01*
X27666242Y-63262858D01*
X27727529Y-63114899D01*
X27816499Y-62981745D01*
X27929745Y-62868499D01*
X28062899Y-62779529D01*
X28210858Y-62718242D01*
X28367925Y-62687000D01*
X28528075Y-62687000D01*
X28685142Y-62718242D01*
G37*
G36*
X80834000Y-63920000D02*
G01*
X78932000Y-63920000D01*
X78932000Y-62318000D01*
X80834000Y-62318000D01*
X80834000Y-63920000D01*
G37*
G36*
X94804000Y-63920000D02*
G01*
X92902000Y-63920000D01*
X92902000Y-62318000D01*
X94804000Y-62318000D01*
X94804000Y-63920000D01*
G37*
G36*
X138880228Y-61794703D02*
G01*
X139035100Y-61858853D01*
X139174481Y-61951985D01*
X139293015Y-62070519D01*
X139386147Y-62209900D01*
X139450297Y-62364772D01*
X139483000Y-62529184D01*
X139483000Y-62696816D01*
X139450297Y-62861228D01*
X139386147Y-63016100D01*
X139293015Y-63155481D01*
X139174481Y-63274015D01*
X139035100Y-63367147D01*
X138880228Y-63431297D01*
X138715816Y-63464000D01*
X138548184Y-63464000D01*
X138383772Y-63431297D01*
X138228900Y-63367147D01*
X138089519Y-63274015D01*
X137970985Y-63155481D01*
X137877853Y-63016100D01*
X137813703Y-62861228D01*
X137781000Y-62696816D01*
X137781000Y-62529184D01*
X137813703Y-62364772D01*
X137877853Y-62209900D01*
X137970985Y-62070519D01*
X138089519Y-61951985D01*
X138228900Y-61858853D01*
X138383772Y-61794703D01*
X138548184Y-61762000D01*
X138715816Y-61762000D01*
X138880228Y-61794703D01*
G37*
G36*
X97773142Y-61702242D02*
G01*
X97921101Y-61763529D01*
X98054255Y-61852499D01*
X98167501Y-61965745D01*
X98256471Y-62098899D01*
X98317758Y-62246858D01*
X98349000Y-62403925D01*
X98349000Y-62564075D01*
X98317758Y-62721142D01*
X98256471Y-62869101D01*
X98167501Y-63002255D01*
X98054255Y-63115501D01*
X97921101Y-63204471D01*
X97773142Y-63265758D01*
X97616075Y-63297000D01*
X97455925Y-63297000D01*
X97298858Y-63265758D01*
X97150899Y-63204471D01*
X97017745Y-63115501D01*
X96904499Y-63002255D01*
X96815529Y-62869101D01*
X96754242Y-62721142D01*
X96723000Y-62564075D01*
X96723000Y-62403925D01*
X96754242Y-62246858D01*
X96815529Y-62098899D01*
X96904499Y-61965745D01*
X97017745Y-61852499D01*
X97150899Y-61763529D01*
X97298858Y-61702242D01*
X97455925Y-61671000D01*
X97616075Y-61671000D01*
X97773142Y-61702242D01*
G37*
G36*
X126068766Y-61500899D02*
G01*
X126200888Y-61555626D01*
X126200890Y-61555627D01*
X126319798Y-61635079D01*
X126420921Y-61736202D01*
X126500373Y-61855110D01*
X126500374Y-61855112D01*
X126555101Y-61987234D01*
X126583000Y-62127494D01*
X126583000Y-62270506D01*
X126555101Y-62410766D01*
X126506050Y-62529184D01*
X126500373Y-62542890D01*
X126420921Y-62661798D01*
X126319798Y-62762921D01*
X126200890Y-62842373D01*
X126200889Y-62842374D01*
X126200888Y-62842374D01*
X126068766Y-62897101D01*
X125928506Y-62925000D01*
X125785494Y-62925000D01*
X125645234Y-62897101D01*
X125513112Y-62842374D01*
X125513111Y-62842374D01*
X125513110Y-62842373D01*
X125394202Y-62762921D01*
X125293079Y-62661798D01*
X125213627Y-62542890D01*
X125207950Y-62529184D01*
X125158899Y-62410766D01*
X125131000Y-62270506D01*
X125131000Y-62127494D01*
X125158899Y-61987234D01*
X125213626Y-61855112D01*
X125213627Y-61855110D01*
X125293079Y-61736202D01*
X125394202Y-61635079D01*
X125513110Y-61555627D01*
X125513112Y-61555626D01*
X125645234Y-61500899D01*
X125785494Y-61473000D01*
X125928506Y-61473000D01*
X126068766Y-61500899D01*
G37*
G36*
X140860228Y-60649703D02*
G01*
X141015100Y-60713853D01*
X141154481Y-60806985D01*
X141273015Y-60925519D01*
X141366147Y-61064900D01*
X141430297Y-61219772D01*
X141463000Y-61384184D01*
X141463000Y-61551816D01*
X141430297Y-61716228D01*
X141366147Y-61871100D01*
X141273015Y-62010481D01*
X141154481Y-62129015D01*
X141015100Y-62222147D01*
X140860228Y-62286297D01*
X140695816Y-62319000D01*
X140528184Y-62319000D01*
X140363772Y-62286297D01*
X140208900Y-62222147D01*
X140069519Y-62129015D01*
X139950985Y-62010481D01*
X139857853Y-61871100D01*
X139793703Y-61716228D01*
X139761000Y-61551816D01*
X139761000Y-61384184D01*
X139793703Y-61219772D01*
X139857853Y-61064900D01*
X139950985Y-60925519D01*
X140069519Y-60806985D01*
X140208900Y-60713853D01*
X140363772Y-60649703D01*
X140528184Y-60617000D01*
X140695816Y-60617000D01*
X140860228Y-60649703D01*
G37*
G36*
X137503000Y-62319000D02*
G01*
X135801000Y-62319000D01*
X135801000Y-60617000D01*
X137503000Y-60617000D01*
X137503000Y-62319000D01*
G37*
G36*
X94804000Y-62015000D02*
G01*
X92902000Y-62015000D01*
X92902000Y-60413000D01*
X94804000Y-60413000D01*
X94804000Y-62015000D01*
G37*
G36*
X80834000Y-62015000D02*
G01*
X78932000Y-62015000D01*
X78932000Y-60413000D01*
X80834000Y-60413000D01*
X80834000Y-62015000D01*
G37*
G36*
X28685142Y-60178242D02*
G01*
X28833101Y-60239529D01*
X28966255Y-60328499D01*
X29079501Y-60441745D01*
X29168471Y-60574899D01*
X29229758Y-60722858D01*
X29261000Y-60879925D01*
X29261000Y-61040075D01*
X29229758Y-61197142D01*
X29168471Y-61345101D01*
X29079501Y-61478255D01*
X28966255Y-61591501D01*
X28833101Y-61680471D01*
X28685142Y-61741758D01*
X28528075Y-61773000D01*
X28367925Y-61773000D01*
X28210858Y-61741758D01*
X28062899Y-61680471D01*
X27929745Y-61591501D01*
X27816499Y-61478255D01*
X27727529Y-61345101D01*
X27666242Y-61197142D01*
X27635000Y-61040075D01*
X27635000Y-60879925D01*
X27666242Y-60722858D01*
X27727529Y-60574899D01*
X27816499Y-60441745D01*
X27929745Y-60328499D01*
X28062899Y-60239529D01*
X28210858Y-60178242D01*
X28367925Y-60147000D01*
X28528075Y-60147000D01*
X28685142Y-60178242D01*
G37*
G36*
X138880228Y-59504703D02*
G01*
X139035100Y-59568853D01*
X139174481Y-59661985D01*
X139293015Y-59780519D01*
X139386147Y-59919900D01*
X139450297Y-60074772D01*
X139483000Y-60239184D01*
X139483000Y-60406816D01*
X139450297Y-60571228D01*
X139386147Y-60726100D01*
X139293015Y-60865481D01*
X139174481Y-60984015D01*
X139035100Y-61077147D01*
X138880228Y-61141297D01*
X138715816Y-61174000D01*
X138548184Y-61174000D01*
X138383772Y-61141297D01*
X138228900Y-61077147D01*
X138089519Y-60984015D01*
X137970985Y-60865481D01*
X137877853Y-60726100D01*
X137813703Y-60571228D01*
X137781000Y-60406816D01*
X137781000Y-60239184D01*
X137813703Y-60074772D01*
X137877853Y-59919900D01*
X137970985Y-59780519D01*
X138089519Y-59661985D01*
X138228900Y-59568853D01*
X138383772Y-59504703D01*
X138548184Y-59472000D01*
X138715816Y-59472000D01*
X138880228Y-59504703D01*
G37*
G36*
X126068766Y-59500899D02*
G01*
X126200888Y-59555626D01*
X126200890Y-59555627D01*
X126319798Y-59635079D01*
X126420921Y-59736202D01*
X126450533Y-59780520D01*
X126500374Y-59855112D01*
X126555101Y-59987234D01*
X126583000Y-60127494D01*
X126583000Y-60270506D01*
X126555101Y-60410766D01*
X126500374Y-60542888D01*
X126500373Y-60542890D01*
X126420921Y-60661798D01*
X126319798Y-60762921D01*
X126200890Y-60842373D01*
X126200889Y-60842374D01*
X126200888Y-60842374D01*
X126068766Y-60897101D01*
X125928506Y-60925000D01*
X125785494Y-60925000D01*
X125645234Y-60897101D01*
X125513112Y-60842374D01*
X125513111Y-60842374D01*
X125513110Y-60842373D01*
X125394202Y-60762921D01*
X125293079Y-60661798D01*
X125213627Y-60542890D01*
X125213626Y-60542888D01*
X125158899Y-60410766D01*
X125131000Y-60270506D01*
X125131000Y-60127494D01*
X125158899Y-59987234D01*
X125213626Y-59855112D01*
X125263467Y-59780520D01*
X125293079Y-59736202D01*
X125394202Y-59635079D01*
X125513110Y-59555627D01*
X125513112Y-59555626D01*
X125645234Y-59500899D01*
X125785494Y-59473000D01*
X125928506Y-59473000D01*
X126068766Y-59500899D01*
G37*
G36*
X97773142Y-59162242D02*
G01*
X97921101Y-59223529D01*
X98054255Y-59312499D01*
X98167501Y-59425745D01*
X98256471Y-59558899D01*
X98317758Y-59706858D01*
X98349000Y-59863925D01*
X98349000Y-60024075D01*
X98317758Y-60181142D01*
X98256471Y-60329101D01*
X98167501Y-60462255D01*
X98054255Y-60575501D01*
X97921101Y-60664471D01*
X97773142Y-60725758D01*
X97616075Y-60757000D01*
X97455925Y-60757000D01*
X97298858Y-60725758D01*
X97150899Y-60664471D01*
X97017745Y-60575501D01*
X96904499Y-60462255D01*
X96815529Y-60329101D01*
X96754242Y-60181142D01*
X96723000Y-60024075D01*
X96723000Y-59863925D01*
X96754242Y-59706858D01*
X96815529Y-59558899D01*
X96904499Y-59425745D01*
X97017745Y-59312499D01*
X97150899Y-59223529D01*
X97298858Y-59162242D01*
X97455925Y-59131000D01*
X97616075Y-59131000D01*
X97773142Y-59162242D01*
G37*
G36*
X117743000Y-60633000D02*
G01*
X109841000Y-60633000D01*
X109841000Y-59031000D01*
X117743000Y-59031000D01*
X117743000Y-60633000D01*
G37*
G36*
X32143000Y-59321000D02*
G01*
X30341000Y-59321000D01*
X30341000Y-57519000D01*
X32143000Y-57519000D01*
X32143000Y-59321000D01*
G37*
G36*
X28685142Y-57638242D02*
G01*
X28833101Y-57699529D01*
X28966255Y-57788499D01*
X29079501Y-57901745D01*
X29168471Y-58034899D01*
X29229758Y-58182858D01*
X29261000Y-58339925D01*
X29261000Y-58500075D01*
X29229758Y-58657142D01*
X29168471Y-58805101D01*
X29079501Y-58938255D01*
X28966255Y-59051501D01*
X28833101Y-59140471D01*
X28685142Y-59201758D01*
X28528075Y-59233000D01*
X28367925Y-59233000D01*
X28210858Y-59201758D01*
X28062899Y-59140471D01*
X27929745Y-59051501D01*
X27816499Y-58938255D01*
X27727529Y-58805101D01*
X27666242Y-58657142D01*
X27635000Y-58500075D01*
X27635000Y-58339925D01*
X27666242Y-58182858D01*
X27727529Y-58034899D01*
X27816499Y-57901745D01*
X27929745Y-57788499D01*
X28062899Y-57699529D01*
X28210858Y-57638242D01*
X28367925Y-57607000D01*
X28528075Y-57607000D01*
X28685142Y-57638242D01*
G37*
G36*
X85769000Y-58990000D02*
G01*
X84167000Y-58990000D01*
X84167000Y-57088000D01*
X85769000Y-57088000D01*
X85769000Y-58990000D01*
G37*
G36*
X87669000Y-58990000D02*
G01*
X86067000Y-58990000D01*
X86067000Y-57088000D01*
X87669000Y-57088000D01*
X87669000Y-58990000D01*
G37*
G36*
X89574000Y-58990000D02*
G01*
X87972000Y-58990000D01*
X87972000Y-57088000D01*
X89574000Y-57088000D01*
X89574000Y-58990000D01*
G37*
G36*
X91479000Y-58990000D02*
G01*
X89877000Y-58990000D01*
X89877000Y-57088000D01*
X91479000Y-57088000D01*
X91479000Y-58990000D01*
G37*
G36*
X83869000Y-58990000D02*
G01*
X82267000Y-58990000D01*
X82267000Y-57088000D01*
X83869000Y-57088000D01*
X83869000Y-58990000D01*
G37*
G36*
X68530786Y-56559246D02*
G01*
X68561461Y-56568551D01*
X68589729Y-56583661D01*
X68614506Y-56603994D01*
X68634839Y-56628771D01*
X68649949Y-56657039D01*
X68659254Y-56687714D01*
X68663000Y-56725751D01*
X68663000Y-58737249D01*
X68659254Y-58775286D01*
X68649949Y-58805961D01*
X68634839Y-58834229D01*
X68614506Y-58859006D01*
X68589729Y-58879339D01*
X68561461Y-58894449D01*
X68530786Y-58903754D01*
X68492749Y-58907500D01*
X66381251Y-58907500D01*
X66343214Y-58903754D01*
X66312539Y-58894449D01*
X66284271Y-58879339D01*
X66259494Y-58859006D01*
X66239161Y-58834229D01*
X66224051Y-58805961D01*
X66214746Y-58775286D01*
X66211000Y-58737249D01*
X66211000Y-56725751D01*
X66214746Y-56687714D01*
X66224051Y-56657039D01*
X66239161Y-56628771D01*
X66259494Y-56603994D01*
X66284271Y-56583661D01*
X66312539Y-56568551D01*
X66343214Y-56559246D01*
X66381251Y-56555500D01*
X68492749Y-56555500D01*
X68530786Y-56559246D01*
G37*
G36*
X106993000Y-56898000D02*
G01*
X105091000Y-56898000D01*
X105091000Y-55256000D01*
X106993000Y-55256000D01*
X106993000Y-56898000D01*
G37*
G36*
X109793000Y-56898000D02*
G01*
X107891000Y-56898000D01*
X107891000Y-55256000D01*
X109793000Y-55256000D01*
X109793000Y-56898000D01*
G37*
G36*
X76202297Y-53917068D02*
G01*
X76236109Y-53927325D01*
X76267279Y-53943986D01*
X76294596Y-53966404D01*
X76317014Y-53993721D01*
X76333675Y-54024891D01*
X76343932Y-54058703D01*
X76348000Y-54100012D01*
X76348000Y-55627988D01*
X76343932Y-55669297D01*
X76333675Y-55703109D01*
X76317014Y-55734279D01*
X76294596Y-55761596D01*
X76267279Y-55784014D01*
X76236109Y-55800675D01*
X76202297Y-55810932D01*
X76160988Y-55815000D01*
X74858012Y-55815000D01*
X74816703Y-55810932D01*
X74782891Y-55800675D01*
X74751721Y-55784014D01*
X74724404Y-55761596D01*
X74701986Y-55734279D01*
X74685325Y-55703109D01*
X74675068Y-55669297D01*
X74671000Y-55627988D01*
X74671000Y-54100012D01*
X74675068Y-54058703D01*
X74685325Y-54024891D01*
X74701986Y-53993721D01*
X74724404Y-53966404D01*
X74751721Y-53943986D01*
X74782891Y-53927325D01*
X74816703Y-53917068D01*
X74858012Y-53913000D01*
X76160988Y-53913000D01*
X76202297Y-53917068D01*
G37*
G36*
X80377297Y-53917068D02*
G01*
X80411109Y-53927325D01*
X80442279Y-53943986D01*
X80469596Y-53966404D01*
X80492014Y-53993721D01*
X80508675Y-54024891D01*
X80518932Y-54058703D01*
X80523000Y-54100012D01*
X80523000Y-55627988D01*
X80518932Y-55669297D01*
X80508675Y-55703109D01*
X80492014Y-55734279D01*
X80469596Y-55761596D01*
X80442279Y-55784014D01*
X80411109Y-55800675D01*
X80377297Y-55810932D01*
X80335988Y-55815000D01*
X79033012Y-55815000D01*
X78991703Y-55810932D01*
X78957891Y-55800675D01*
X78926721Y-55784014D01*
X78899404Y-55761596D01*
X78876986Y-55734279D01*
X78860325Y-55703109D01*
X78850068Y-55669297D01*
X78846000Y-55627988D01*
X78846000Y-54100012D01*
X78850068Y-54058703D01*
X78860325Y-54024891D01*
X78876986Y-53993721D01*
X78899404Y-53966404D01*
X78926721Y-53943986D01*
X78957891Y-53927325D01*
X78991703Y-53917068D01*
X79033012Y-53913000D01*
X80335988Y-53913000D01*
X80377297Y-53917068D01*
G37*
G36*
X139300254Y-51310818D02*
G01*
X139649547Y-51455500D01*
X139673513Y-51465427D01*
X140009436Y-51689884D01*
X140295116Y-51975564D01*
X140485738Y-52260849D01*
X140519574Y-52311489D01*
X140674182Y-52684746D01*
X140753000Y-53080993D01*
X140753000Y-53485007D01*
X140674182Y-53881254D01*
X140557172Y-54163741D01*
X140519573Y-54254513D01*
X140295116Y-54590436D01*
X140009436Y-54876116D01*
X139673513Y-55100573D01*
X139673512Y-55100574D01*
X139673511Y-55100574D01*
X139300254Y-55255182D01*
X138904007Y-55334000D01*
X138499993Y-55334000D01*
X138103746Y-55255182D01*
X137730489Y-55100574D01*
X137730488Y-55100574D01*
X137730487Y-55100573D01*
X137394564Y-54876116D01*
X137108884Y-54590436D01*
X136884427Y-54254513D01*
X136846828Y-54163741D01*
X136729818Y-53881254D01*
X136651000Y-53485007D01*
X136651000Y-53080993D01*
X136729818Y-52684746D01*
X136884426Y-52311489D01*
X136918263Y-52260849D01*
X137108884Y-51975564D01*
X137394564Y-51689884D01*
X137730487Y-51465427D01*
X137754453Y-51455500D01*
X138103746Y-51310818D01*
X138499993Y-51232000D01*
X138904007Y-51232000D01*
X139300254Y-51310818D01*
G37*
G36*
X84819142Y-53320242D02*
G01*
X84967101Y-53381529D01*
X85100255Y-53470499D01*
X85213501Y-53583745D01*
X85302471Y-53716899D01*
X85363758Y-53864858D01*
X85395000Y-54021925D01*
X85395000Y-54182075D01*
X85363758Y-54339142D01*
X85302471Y-54487101D01*
X85213501Y-54620255D01*
X85100255Y-54733501D01*
X84967101Y-54822471D01*
X84819142Y-54883758D01*
X84662075Y-54915000D01*
X84501925Y-54915000D01*
X84344858Y-54883758D01*
X84196899Y-54822471D01*
X84063745Y-54733501D01*
X83950499Y-54620255D01*
X83861529Y-54487101D01*
X83800242Y-54339142D01*
X83769000Y-54182075D01*
X83769000Y-54021925D01*
X83800242Y-53864858D01*
X83861529Y-53716899D01*
X83950499Y-53583745D01*
X84063745Y-53470499D01*
X84196899Y-53381529D01*
X84344858Y-53320242D01*
X84501925Y-53289000D01*
X84662075Y-53289000D01*
X84819142Y-53320242D01*
G37*
G36*
X97203585Y-51437802D02*
G01*
X97353410Y-51467604D01*
X97635674Y-51584521D01*
X97889705Y-51754259D01*
X98105741Y-51970295D01*
X98275479Y-52224326D01*
X98392396Y-52506590D01*
X98452000Y-52806240D01*
X98452000Y-53111760D01*
X98392396Y-53411410D01*
X98275479Y-53693674D01*
X98105741Y-53947705D01*
X97889705Y-54163741D01*
X97635674Y-54333479D01*
X97353410Y-54450396D01*
X97233040Y-54474339D01*
X97053761Y-54510000D01*
X96748239Y-54510000D01*
X96568960Y-54474339D01*
X96448590Y-54450396D01*
X96166326Y-54333479D01*
X95912295Y-54163741D01*
X95696259Y-53947705D01*
X95526521Y-53693674D01*
X95409604Y-53411410D01*
X95350000Y-53111760D01*
X95350000Y-52806240D01*
X95409604Y-52506590D01*
X95526521Y-52224326D01*
X95696259Y-51970295D01*
X95912295Y-51754259D01*
X96166326Y-51584521D01*
X96448590Y-51467604D01*
X96598415Y-51437802D01*
X96748239Y-51408000D01*
X97053761Y-51408000D01*
X97203585Y-51437802D01*
G37*
G36*
X62913585Y-51437802D02*
G01*
X63063410Y-51467604D01*
X63345674Y-51584521D01*
X63599705Y-51754259D01*
X63815741Y-51970295D01*
X63985479Y-52224326D01*
X64102396Y-52506590D01*
X64162000Y-52806240D01*
X64162000Y-53111760D01*
X64102396Y-53411410D01*
X63985479Y-53693674D01*
X63815741Y-53947705D01*
X63599705Y-54163741D01*
X63345674Y-54333479D01*
X63063410Y-54450396D01*
X62943040Y-54474339D01*
X62763761Y-54510000D01*
X62458239Y-54510000D01*
X62278960Y-54474339D01*
X62158590Y-54450396D01*
X61876326Y-54333479D01*
X61622295Y-54163741D01*
X61406259Y-53947705D01*
X61236521Y-53693674D01*
X61119604Y-53411410D01*
X61060000Y-53111760D01*
X61060000Y-52806240D01*
X61119604Y-52506590D01*
X61236521Y-52224326D01*
X61406259Y-51970295D01*
X61622295Y-51754259D01*
X61876326Y-51584521D01*
X62158590Y-51467604D01*
X62308415Y-51437802D01*
X62458239Y-51408000D01*
X62763761Y-51408000D01*
X62913585Y-51437802D01*
G37*
G36*
X28973786Y-52054246D02*
G01*
X29004461Y-52063551D01*
X29032729Y-52078661D01*
X29057506Y-52098994D01*
X29077839Y-52123771D01*
X29092949Y-52152039D01*
X29102254Y-52182714D01*
X29106000Y-52220751D01*
X29106000Y-54332249D01*
X29102254Y-54370286D01*
X29092949Y-54400961D01*
X29077839Y-54429229D01*
X29057506Y-54454006D01*
X29032729Y-54474339D01*
X29004461Y-54489449D01*
X28973786Y-54498754D01*
X28935749Y-54502500D01*
X26924251Y-54502500D01*
X26886214Y-54498754D01*
X26855539Y-54489449D01*
X26827271Y-54474339D01*
X26802494Y-54454006D01*
X26782161Y-54429229D01*
X26767051Y-54400961D01*
X26757746Y-54370286D01*
X26754000Y-54332249D01*
X26754000Y-52220751D01*
X26757746Y-52182714D01*
X26767051Y-52152039D01*
X26782161Y-52123771D01*
X26802494Y-52098994D01*
X26827271Y-52078661D01*
X26855539Y-52063551D01*
X26886214Y-52054246D01*
X26924251Y-52050500D01*
X28935749Y-52050500D01*
X28973786Y-52054246D01*
G37*
G36*
X34073786Y-52054246D02*
G01*
X34104461Y-52063551D01*
X34132729Y-52078661D01*
X34157506Y-52098994D01*
X34177839Y-52123771D01*
X34192949Y-52152039D01*
X34202254Y-52182714D01*
X34206000Y-52220751D01*
X34206000Y-54332249D01*
X34202254Y-54370286D01*
X34192949Y-54400961D01*
X34177839Y-54429229D01*
X34157506Y-54454006D01*
X34132729Y-54474339D01*
X34104461Y-54489449D01*
X34073786Y-54498754D01*
X34035749Y-54502500D01*
X32024251Y-54502500D01*
X31986214Y-54498754D01*
X31955539Y-54489449D01*
X31927271Y-54474339D01*
X31902494Y-54454006D01*
X31882161Y-54429229D01*
X31867051Y-54400961D01*
X31857746Y-54370286D01*
X31854000Y-54332249D01*
X31854000Y-52220751D01*
X31857746Y-52182714D01*
X31867051Y-52152039D01*
X31882161Y-52123771D01*
X31902494Y-52098994D01*
X31927271Y-52078661D01*
X31955539Y-52063551D01*
X31986214Y-52054246D01*
X32024251Y-52050500D01*
X34035749Y-52050500D01*
X34073786Y-52054246D01*
G37*
G36*
X109793000Y-54218000D02*
G01*
X107891000Y-54218000D01*
X107891000Y-52576000D01*
X109793000Y-52576000D01*
X109793000Y-54218000D01*
G37*
G36*
X106993000Y-54218000D02*
G01*
X105091000Y-54218000D01*
X105091000Y-52576000D01*
X106993000Y-52576000D01*
X106993000Y-54218000D01*
G37*
G36*
X68530786Y-51459246D02*
G01*
X68561461Y-51468551D01*
X68589729Y-51483661D01*
X68614506Y-51503994D01*
X68634839Y-51528771D01*
X68649949Y-51557039D01*
X68659254Y-51587714D01*
X68663000Y-51625751D01*
X68663000Y-53637249D01*
X68659254Y-53675286D01*
X68649949Y-53705961D01*
X68634839Y-53734229D01*
X68614506Y-53759006D01*
X68589729Y-53779339D01*
X68561461Y-53794449D01*
X68530786Y-53803754D01*
X68492749Y-53807500D01*
X66381251Y-53807500D01*
X66343214Y-53803754D01*
X66312539Y-53794449D01*
X66284271Y-53779339D01*
X66259494Y-53759006D01*
X66239161Y-53734229D01*
X66224051Y-53705961D01*
X66214746Y-53675286D01*
X66211000Y-53637249D01*
X66211000Y-51625751D01*
X66214746Y-51587714D01*
X66224051Y-51557039D01*
X66239161Y-51528771D01*
X66259494Y-51503994D01*
X66284271Y-51483661D01*
X66312539Y-51468551D01*
X66343214Y-51459246D01*
X66381251Y-51455500D01*
X68492749Y-51455500D01*
X68530786Y-51459246D01*
G37*
G36*
X43861642Y-51669242D02*
G01*
X44009601Y-51730529D01*
X44142755Y-51819499D01*
X44256001Y-51932745D01*
X44344971Y-52065899D01*
X44406258Y-52213858D01*
X44437500Y-52370925D01*
X44437500Y-52531075D01*
X44406258Y-52688142D01*
X44344971Y-52836101D01*
X44256001Y-52969255D01*
X44142755Y-53082501D01*
X44009601Y-53171471D01*
X43861642Y-53232758D01*
X43704575Y-53264000D01*
X43544425Y-53264000D01*
X43387358Y-53232758D01*
X43239399Y-53171471D01*
X43106245Y-53082501D01*
X42992999Y-52969255D01*
X42904029Y-52836101D01*
X42842742Y-52688142D01*
X42811500Y-52531075D01*
X42811500Y-52370925D01*
X42842742Y-52213858D01*
X42904029Y-52065899D01*
X42992999Y-51932745D01*
X43106245Y-51819499D01*
X43239399Y-51730529D01*
X43387358Y-51669242D01*
X43544425Y-51638000D01*
X43704575Y-51638000D01*
X43861642Y-51669242D01*
G37*
G36*
X36241642Y-51669242D02*
G01*
X36389601Y-51730529D01*
X36522755Y-51819499D01*
X36636001Y-51932745D01*
X36724971Y-52065899D01*
X36786258Y-52213858D01*
X36817500Y-52370925D01*
X36817500Y-52531075D01*
X36786258Y-52688142D01*
X36724971Y-52836101D01*
X36636001Y-52969255D01*
X36522755Y-53082501D01*
X36389601Y-53171471D01*
X36241642Y-53232758D01*
X36084575Y-53264000D01*
X35924425Y-53264000D01*
X35767358Y-53232758D01*
X35619399Y-53171471D01*
X35486245Y-53082501D01*
X35372999Y-52969255D01*
X35284029Y-52836101D01*
X35222742Y-52688142D01*
X35191500Y-52531075D01*
X35191500Y-52370925D01*
X35222742Y-52213858D01*
X35284029Y-52065899D01*
X35372999Y-51932745D01*
X35486245Y-51819499D01*
X35619399Y-51730529D01*
X35767358Y-51669242D01*
X35924425Y-51638000D01*
X36084575Y-51638000D01*
X36241642Y-51669242D01*
G37*
G36*
X38781642Y-51669242D02*
G01*
X38929601Y-51730529D01*
X39062755Y-51819499D01*
X39176001Y-51932745D01*
X39264971Y-52065899D01*
X39326258Y-52213858D01*
X39357500Y-52370925D01*
X39357500Y-52531075D01*
X39326258Y-52688142D01*
X39264971Y-52836101D01*
X39176001Y-52969255D01*
X39062755Y-53082501D01*
X38929601Y-53171471D01*
X38781642Y-53232758D01*
X38624575Y-53264000D01*
X38464425Y-53264000D01*
X38307358Y-53232758D01*
X38159399Y-53171471D01*
X38026245Y-53082501D01*
X37912999Y-52969255D01*
X37824029Y-52836101D01*
X37762742Y-52688142D01*
X37731500Y-52531075D01*
X37731500Y-52370925D01*
X37762742Y-52213858D01*
X37824029Y-52065899D01*
X37912999Y-51932745D01*
X38026245Y-51819499D01*
X38159399Y-51730529D01*
X38307358Y-51669242D01*
X38464425Y-51638000D01*
X38624575Y-51638000D01*
X38781642Y-51669242D01*
G37*
G36*
X51481642Y-51669242D02*
G01*
X51629601Y-51730529D01*
X51762755Y-51819499D01*
X51876001Y-51932745D01*
X51964971Y-52065899D01*
X52026258Y-52213858D01*
X52057500Y-52370925D01*
X52057500Y-52531075D01*
X52026258Y-52688142D01*
X51964971Y-52836101D01*
X51876001Y-52969255D01*
X51762755Y-53082501D01*
X51629601Y-53171471D01*
X51481642Y-53232758D01*
X51324575Y-53264000D01*
X51164425Y-53264000D01*
X51007358Y-53232758D01*
X50859399Y-53171471D01*
X50726245Y-53082501D01*
X50612999Y-52969255D01*
X50524029Y-52836101D01*
X50462742Y-52688142D01*
X50431500Y-52531075D01*
X50431500Y-52370925D01*
X50462742Y-52213858D01*
X50524029Y-52065899D01*
X50612999Y-51932745D01*
X50726245Y-51819499D01*
X50859399Y-51730529D01*
X51007358Y-51669242D01*
X51164425Y-51638000D01*
X51324575Y-51638000D01*
X51481642Y-51669242D01*
G37*
G36*
X54021642Y-51669242D02*
G01*
X54169601Y-51730529D01*
X54302755Y-51819499D01*
X54416001Y-51932745D01*
X54504971Y-52065899D01*
X54566258Y-52213858D01*
X54597500Y-52370925D01*
X54597500Y-52531075D01*
X54566258Y-52688142D01*
X54504971Y-52836101D01*
X54416001Y-52969255D01*
X54302755Y-53082501D01*
X54169601Y-53171471D01*
X54021642Y-53232758D01*
X53864575Y-53264000D01*
X53704425Y-53264000D01*
X53547358Y-53232758D01*
X53399399Y-53171471D01*
X53266245Y-53082501D01*
X53152999Y-52969255D01*
X53064029Y-52836101D01*
X53002742Y-52688142D01*
X52971500Y-52531075D01*
X52971500Y-52370925D01*
X53002742Y-52213858D01*
X53064029Y-52065899D01*
X53152999Y-51932745D01*
X53266245Y-51819499D01*
X53399399Y-51730529D01*
X53547358Y-51669242D01*
X53704425Y-51638000D01*
X53864575Y-51638000D01*
X54021642Y-51669242D01*
G37*
G36*
X59101642Y-51669242D02*
G01*
X59249601Y-51730529D01*
X59382755Y-51819499D01*
X59496001Y-51932745D01*
X59584971Y-52065899D01*
X59646258Y-52213858D01*
X59677500Y-52370925D01*
X59677500Y-52531075D01*
X59646258Y-52688142D01*
X59584971Y-52836101D01*
X59496001Y-52969255D01*
X59382755Y-53082501D01*
X59249601Y-53171471D01*
X59101642Y-53232758D01*
X58944575Y-53264000D01*
X58784425Y-53264000D01*
X58627358Y-53232758D01*
X58479399Y-53171471D01*
X58346245Y-53082501D01*
X58232999Y-52969255D01*
X58144029Y-52836101D01*
X58082742Y-52688142D01*
X58051500Y-52531075D01*
X58051500Y-52370925D01*
X58082742Y-52213858D01*
X58144029Y-52065899D01*
X58232999Y-51932745D01*
X58346245Y-51819499D01*
X58479399Y-51730529D01*
X58627358Y-51669242D01*
X58784425Y-51638000D01*
X58944575Y-51638000D01*
X59101642Y-51669242D01*
G37*
G36*
X46401642Y-51669242D02*
G01*
X46549601Y-51730529D01*
X46682755Y-51819499D01*
X46796001Y-51932745D01*
X46884971Y-52065899D01*
X46946258Y-52213858D01*
X46977500Y-52370925D01*
X46977500Y-52531075D01*
X46946258Y-52688142D01*
X46884971Y-52836101D01*
X46796001Y-52969255D01*
X46682755Y-53082501D01*
X46549601Y-53171471D01*
X46401642Y-53232758D01*
X46244575Y-53264000D01*
X46084425Y-53264000D01*
X45927358Y-53232758D01*
X45779399Y-53171471D01*
X45646245Y-53082501D01*
X45532999Y-52969255D01*
X45444029Y-52836101D01*
X45382742Y-52688142D01*
X45351500Y-52531075D01*
X45351500Y-52370925D01*
X45382742Y-52213858D01*
X45444029Y-52065899D01*
X45532999Y-51932745D01*
X45646245Y-51819499D01*
X45779399Y-51730529D01*
X45927358Y-51669242D01*
X46084425Y-51638000D01*
X46244575Y-51638000D01*
X46401642Y-51669242D01*
G37*
G36*
X41321642Y-51669242D02*
G01*
X41469601Y-51730529D01*
X41602755Y-51819499D01*
X41716001Y-51932745D01*
X41804971Y-52065899D01*
X41866258Y-52213858D01*
X41897500Y-52370925D01*
X41897500Y-52531075D01*
X41866258Y-52688142D01*
X41804971Y-52836101D01*
X41716001Y-52969255D01*
X41602755Y-53082501D01*
X41469601Y-53171471D01*
X41321642Y-53232758D01*
X41164575Y-53264000D01*
X41004425Y-53264000D01*
X40847358Y-53232758D01*
X40699399Y-53171471D01*
X40566245Y-53082501D01*
X40452999Y-52969255D01*
X40364029Y-52836101D01*
X40302742Y-52688142D01*
X40271500Y-52531075D01*
X40271500Y-52370925D01*
X40302742Y-52213858D01*
X40364029Y-52065899D01*
X40452999Y-51932745D01*
X40566245Y-51819499D01*
X40699399Y-51730529D01*
X40847358Y-51669242D01*
X41004425Y-51638000D01*
X41164575Y-51638000D01*
X41321642Y-51669242D01*
G37*
G36*
X48941642Y-51669242D02*
G01*
X49089601Y-51730529D01*
X49222755Y-51819499D01*
X49336001Y-51932745D01*
X49424971Y-52065899D01*
X49486258Y-52213858D01*
X49517500Y-52370925D01*
X49517500Y-52531075D01*
X49486258Y-52688142D01*
X49424971Y-52836101D01*
X49336001Y-52969255D01*
X49222755Y-53082501D01*
X49089601Y-53171471D01*
X48941642Y-53232758D01*
X48784575Y-53264000D01*
X48624425Y-53264000D01*
X48467358Y-53232758D01*
X48319399Y-53171471D01*
X48186245Y-53082501D01*
X48072999Y-52969255D01*
X47984029Y-52836101D01*
X47922742Y-52688142D01*
X47891500Y-52531075D01*
X47891500Y-52370925D01*
X47922742Y-52213858D01*
X47984029Y-52065899D01*
X48072999Y-51932745D01*
X48186245Y-51819499D01*
X48319399Y-51730529D01*
X48467358Y-51669242D01*
X48624425Y-51638000D01*
X48784575Y-51638000D01*
X48941642Y-51669242D01*
G37*
G36*
X56561642Y-51669242D02*
G01*
X56709601Y-51730529D01*
X56842755Y-51819499D01*
X56956001Y-51932745D01*
X57044971Y-52065899D01*
X57106258Y-52213858D01*
X57137500Y-52370925D01*
X57137500Y-52531075D01*
X57106258Y-52688142D01*
X57044971Y-52836101D01*
X56956001Y-52969255D01*
X56842755Y-53082501D01*
X56709601Y-53171471D01*
X56561642Y-53232758D01*
X56404575Y-53264000D01*
X56244425Y-53264000D01*
X56087358Y-53232758D01*
X55939399Y-53171471D01*
X55806245Y-53082501D01*
X55692999Y-52969255D01*
X55604029Y-52836101D01*
X55542742Y-52688142D01*
X55511500Y-52531075D01*
X55511500Y-52370925D01*
X55542742Y-52213858D01*
X55604029Y-52065899D01*
X55692999Y-51932745D01*
X55806245Y-51819499D01*
X55939399Y-51730529D01*
X56087358Y-51669242D01*
X56244425Y-51638000D01*
X56404575Y-51638000D01*
X56561642Y-51669242D01*
G37*
G36*
X84819142Y-50780242D02*
G01*
X84967101Y-50841529D01*
X85100255Y-50930499D01*
X85213501Y-51043745D01*
X85302471Y-51176899D01*
X85363758Y-51324858D01*
X85395000Y-51481925D01*
X85395000Y-51642075D01*
X85363758Y-51799142D01*
X85302471Y-51947101D01*
X85213501Y-52080255D01*
X85100255Y-52193501D01*
X84967101Y-52282471D01*
X84819142Y-52343758D01*
X84662075Y-52375000D01*
X84501925Y-52375000D01*
X84344858Y-52343758D01*
X84196899Y-52282471D01*
X84063745Y-52193501D01*
X83950499Y-52080255D01*
X83861529Y-51947101D01*
X83800242Y-51799142D01*
X83769000Y-51642075D01*
X83769000Y-51481925D01*
X83800242Y-51324858D01*
X83861529Y-51176899D01*
X83950499Y-51043745D01*
X84063745Y-50930499D01*
X84196899Y-50841529D01*
X84344858Y-50780242D01*
X84501925Y-50749000D01*
X84662075Y-50749000D01*
X84819142Y-50780242D01*
G37*
G36*
X62501331Y-47290211D02*
G01*
X62829092Y-47425974D01*
X63124070Y-47623072D01*
X63374928Y-47873930D01*
X63572026Y-48168908D01*
X63707789Y-48496669D01*
X63777000Y-48844616D01*
X63777000Y-49199384D01*
X63707789Y-49547331D01*
X63572026Y-49875092D01*
X63374928Y-50170070D01*
X63124070Y-50420928D01*
X62829092Y-50618026D01*
X62501331Y-50753789D01*
X62153384Y-50823000D01*
X61798616Y-50823000D01*
X61450669Y-50753789D01*
X61122908Y-50618026D01*
X60827930Y-50420928D01*
X60577072Y-50170070D01*
X60379974Y-49875092D01*
X60244211Y-49547331D01*
X60175000Y-49199384D01*
X60175000Y-48844616D01*
X60244211Y-48496669D01*
X60379974Y-48168908D01*
X60577072Y-47873930D01*
X60827930Y-47623072D01*
X61122908Y-47425974D01*
X61450669Y-47290211D01*
X61798616Y-47221000D01*
X62153384Y-47221000D01*
X62501331Y-47290211D01*
G37*
G36*
X84819142Y-48240242D02*
G01*
X84967101Y-48301529D01*
X85100255Y-48390499D01*
X85213501Y-48503745D01*
X85302471Y-48636899D01*
X85363758Y-48784858D01*
X85395000Y-48941925D01*
X85395000Y-49102075D01*
X85363758Y-49259142D01*
X85302471Y-49407101D01*
X85213501Y-49540255D01*
X85100255Y-49653501D01*
X84967101Y-49742471D01*
X84819142Y-49803758D01*
X84662075Y-49835000D01*
X84501925Y-49835000D01*
X84344858Y-49803758D01*
X84196899Y-49742471D01*
X84063745Y-49653501D01*
X83950499Y-49540255D01*
X83861529Y-49407101D01*
X83800242Y-49259142D01*
X83769000Y-49102075D01*
X83769000Y-48941925D01*
X83800242Y-48784858D01*
X83861529Y-48636899D01*
X83950499Y-48503745D01*
X84063745Y-48390499D01*
X84196899Y-48301529D01*
X84344858Y-48240242D01*
X84501925Y-48209000D01*
X84662075Y-48209000D01*
X84819142Y-48240242D01*
G37*
G36*
X102262500Y-47589000D02*
G01*
X100810500Y-47589000D01*
X100810500Y-46137000D01*
X102262500Y-46137000D01*
X102262500Y-47589000D01*
G37*
G36*
X117820000Y-47589000D02*
G01*
X116368000Y-47589000D01*
X116368000Y-46137000D01*
X117820000Y-46137000D01*
X117820000Y-47589000D01*
G37*
G36*
X84819142Y-45700242D02*
G01*
X84967101Y-45761529D01*
X85100255Y-45850499D01*
X85213501Y-45963745D01*
X85302471Y-46096899D01*
X85363758Y-46244858D01*
X85395000Y-46401925D01*
X85395000Y-46562075D01*
X85363758Y-46719142D01*
X85302471Y-46867101D01*
X85213501Y-47000255D01*
X85100255Y-47113501D01*
X84967101Y-47202471D01*
X84819142Y-47263758D01*
X84662075Y-47295000D01*
X84501925Y-47295000D01*
X84344858Y-47263758D01*
X84196899Y-47202471D01*
X84063745Y-47113501D01*
X83950499Y-47000255D01*
X83861529Y-46867101D01*
X83800242Y-46719142D01*
X83769000Y-46562075D01*
X83769000Y-46401925D01*
X83800242Y-46244858D01*
X83861529Y-46096899D01*
X83950499Y-45963745D01*
X84063745Y-45850499D01*
X84196899Y-45761529D01*
X84344858Y-45700242D01*
X84501925Y-45669000D01*
X84662075Y-45669000D01*
X84819142Y-45700242D01*
G37*
G36*
X127393000Y-46621000D02*
G01*
X125591000Y-46621000D01*
X125591000Y-44819000D01*
X127393000Y-44819000D01*
X127393000Y-46621000D01*
G37*
G36*
X140631241Y-42292760D02*
G01*
X140895305Y-42402139D01*
X141132958Y-42560934D01*
X141335066Y-42763042D01*
X141493861Y-43000695D01*
X141603240Y-43264759D01*
X141659000Y-43545088D01*
X141659000Y-43830912D01*
X141603240Y-44111241D01*
X141493861Y-44375305D01*
X141335066Y-44612958D01*
X141132958Y-44815066D01*
X140895305Y-44973861D01*
X140631241Y-45083240D01*
X140350912Y-45139000D01*
X140065088Y-45139000D01*
X139784759Y-45083240D01*
X139520695Y-44973861D01*
X139283042Y-44815066D01*
X139080934Y-44612958D01*
X138922139Y-44375305D01*
X138812760Y-44111241D01*
X138757000Y-43830912D01*
X138757000Y-43545088D01*
X138812760Y-43264759D01*
X138922139Y-43000695D01*
X139080934Y-42763042D01*
X139283042Y-42560934D01*
X139520695Y-42402139D01*
X139784759Y-42292760D01*
X140065088Y-42237000D01*
X140350912Y-42237000D01*
X140631241Y-42292760D01*
G37*
G36*
X36491241Y-42292760D02*
G01*
X36755305Y-42402139D01*
X36992958Y-42560934D01*
X37195066Y-42763042D01*
X37353861Y-43000695D01*
X37463240Y-43264759D01*
X37519000Y-43545088D01*
X37519000Y-43830912D01*
X37463240Y-44111241D01*
X37353861Y-44375305D01*
X37195066Y-44612958D01*
X36992958Y-44815066D01*
X36755305Y-44973861D01*
X36491241Y-45083240D01*
X36210912Y-45139000D01*
X35925088Y-45139000D01*
X35644759Y-45083240D01*
X35380695Y-44973861D01*
X35143042Y-44815066D01*
X34940934Y-44612958D01*
X34782139Y-44375305D01*
X34672760Y-44111241D01*
X34617000Y-43830912D01*
X34617000Y-43545088D01*
X34672760Y-43264759D01*
X34782139Y-43000695D01*
X34940934Y-42763042D01*
X35143042Y-42560934D01*
X35380695Y-42402139D01*
X35644759Y-42292760D01*
X35925088Y-42237000D01*
X36210912Y-42237000D01*
X36491241Y-42292760D01*
G37*
G36*
X133011241Y-42292760D02*
G01*
X133275305Y-42402139D01*
X133512958Y-42560934D01*
X133715066Y-42763042D01*
X133873861Y-43000695D01*
X133983240Y-43264759D01*
X134039000Y-43545088D01*
X134039000Y-43830912D01*
X133983240Y-44111241D01*
X133873861Y-44375305D01*
X133715066Y-44612958D01*
X133512958Y-44815066D01*
X133275305Y-44973861D01*
X133011241Y-45083240D01*
X132730912Y-45139000D01*
X132445088Y-45139000D01*
X132164759Y-45083240D01*
X131900695Y-44973861D01*
X131663042Y-44815066D01*
X131460934Y-44612958D01*
X131302139Y-44375305D01*
X131192760Y-44111241D01*
X131137000Y-43830912D01*
X131137000Y-43545088D01*
X131192760Y-43264759D01*
X131302139Y-43000695D01*
X131460934Y-42763042D01*
X131663042Y-42560934D01*
X131900695Y-42402139D01*
X132164759Y-42292760D01*
X132445088Y-42237000D01*
X132730912Y-42237000D01*
X133011241Y-42292760D01*
G37*
G36*
X28871241Y-42292760D02*
G01*
X29135305Y-42402139D01*
X29372958Y-42560934D01*
X29575066Y-42763042D01*
X29733861Y-43000695D01*
X29843240Y-43264759D01*
X29899000Y-43545088D01*
X29899000Y-43830912D01*
X29843240Y-44111241D01*
X29733861Y-44375305D01*
X29575066Y-44612958D01*
X29372958Y-44815066D01*
X29135305Y-44973861D01*
X28871241Y-45083240D01*
X28590912Y-45139000D01*
X28305088Y-45139000D01*
X28024759Y-45083240D01*
X27760695Y-44973861D01*
X27523042Y-44815066D01*
X27320934Y-44612958D01*
X27162139Y-44375305D01*
X27052760Y-44111241D01*
X26997000Y-43830912D01*
X26997000Y-43545088D01*
X27052760Y-43264759D01*
X27162139Y-43000695D01*
X27320934Y-42763042D01*
X27523042Y-42560934D01*
X27760695Y-42402139D01*
X28024759Y-42292760D01*
X28305088Y-42237000D01*
X28590912Y-42237000D01*
X28871241Y-42292760D01*
G37*
G36*
X84819142Y-43160242D02*
G01*
X84967101Y-43221529D01*
X85100255Y-43310499D01*
X85213501Y-43423745D01*
X85302471Y-43556899D01*
X85363758Y-43704858D01*
X85395000Y-43861925D01*
X85395000Y-44022075D01*
X85363758Y-44179142D01*
X85302471Y-44327101D01*
X85213501Y-44460255D01*
X85100255Y-44573501D01*
X84967101Y-44662471D01*
X84819142Y-44723758D01*
X84662075Y-44755000D01*
X84501925Y-44755000D01*
X84344858Y-44723758D01*
X84196899Y-44662471D01*
X84063745Y-44573501D01*
X83950499Y-44460255D01*
X83861529Y-44327101D01*
X83800242Y-44179142D01*
X83769000Y-44022075D01*
X83769000Y-43861925D01*
X83800242Y-43704858D01*
X83861529Y-43556899D01*
X83950499Y-43423745D01*
X84063745Y-43310499D01*
X84196899Y-43221529D01*
X84344858Y-43160242D01*
X84501925Y-43129000D01*
X84662075Y-43129000D01*
X84819142Y-43160242D01*
G37*
G36*
X50377500Y-42308000D02*
G01*
X49075500Y-42308000D01*
X49075500Y-40006000D01*
X50377500Y-40006000D01*
X50377500Y-42308000D01*
G37*
G36*
X54937500Y-42308000D02*
G01*
X53635500Y-42308000D01*
X53635500Y-40006000D01*
X54937500Y-40006000D01*
X54937500Y-42308000D01*
G37*
G36*
X58886500Y-42308000D02*
G01*
X57584500Y-42308000D01*
X57584500Y-40006000D01*
X58886500Y-40006000D01*
X58886500Y-42308000D01*
G37*
G36*
X63446500Y-42308000D02*
G01*
X62144500Y-42308000D01*
X62144500Y-40006000D01*
X63446500Y-40006000D01*
X63446500Y-42308000D01*
G37*
G36*
X84819142Y-40620242D02*
G01*
X84967101Y-40681529D01*
X85100255Y-40770499D01*
X85213501Y-40883745D01*
X85302471Y-41016899D01*
X85363758Y-41164858D01*
X85395000Y-41321925D01*
X85395000Y-41482075D01*
X85363758Y-41639142D01*
X85302471Y-41787101D01*
X85213501Y-41920255D01*
X85100255Y-42033501D01*
X84967101Y-42122471D01*
X84819142Y-42183758D01*
X84662075Y-42215000D01*
X84501925Y-42215000D01*
X84344858Y-42183758D01*
X84196899Y-42122471D01*
X84063745Y-42033501D01*
X83950499Y-41920255D01*
X83861529Y-41787101D01*
X83800242Y-41639142D01*
X83769000Y-41482075D01*
X83769000Y-41321925D01*
X83800242Y-41164858D01*
X83861529Y-41016899D01*
X83950499Y-40883745D01*
X84063745Y-40770499D01*
X84196899Y-40681529D01*
X84344858Y-40620242D01*
X84501925Y-40589000D01*
X84662075Y-40589000D01*
X84819142Y-40620242D01*
G37*
G36*
X93251500Y-41987000D02*
G01*
X92549500Y-41987000D01*
X92549500Y-39915000D01*
X93251500Y-39915000D01*
X93251500Y-41987000D01*
G37*
G36*
X90711500Y-41987000D02*
G01*
X90009500Y-41987000D01*
X90009500Y-39915000D01*
X90711500Y-39915000D01*
X90711500Y-41987000D01*
G37*
G36*
X94521500Y-41987000D02*
G01*
X93819500Y-41987000D01*
X93819500Y-39915000D01*
X94521500Y-39915000D01*
X94521500Y-41987000D01*
G37*
G36*
X91981500Y-41987000D02*
G01*
X91279500Y-41987000D01*
X91279500Y-39915000D01*
X91981500Y-39915000D01*
X91981500Y-41987000D01*
G37*
G36*
X44523674Y-39512465D02*
G01*
X44561367Y-39523899D01*
X44596103Y-39542466D01*
X44626548Y-39567452D01*
X44651534Y-39597897D01*
X44670101Y-39632633D01*
X44681535Y-39670326D01*
X44686000Y-39715661D01*
X44686000Y-40802339D01*
X44681535Y-40847674D01*
X44670101Y-40885367D01*
X44651534Y-40920103D01*
X44626548Y-40950548D01*
X44596103Y-40975534D01*
X44561367Y-40994101D01*
X44523674Y-41005535D01*
X44478339Y-41010000D01*
X43641661Y-41010000D01*
X43596326Y-41005535D01*
X43558633Y-40994101D01*
X43523897Y-40975534D01*
X43493452Y-40950548D01*
X43468466Y-40920103D01*
X43449899Y-40885367D01*
X43438465Y-40847674D01*
X43434000Y-40802339D01*
X43434000Y-39715661D01*
X43438465Y-39670326D01*
X43449899Y-39632633D01*
X43468466Y-39597897D01*
X43493452Y-39567452D01*
X43523897Y-39542466D01*
X43558633Y-39523899D01*
X43596326Y-39512465D01*
X43641661Y-39508000D01*
X44478339Y-39508000D01*
X44523674Y-39512465D01*
G37*
G36*
X46573674Y-39512465D02*
G01*
X46611367Y-39523899D01*
X46646103Y-39542466D01*
X46676548Y-39567452D01*
X46701534Y-39597897D01*
X46720101Y-39632633D01*
X46731535Y-39670326D01*
X46736000Y-39715661D01*
X46736000Y-40802339D01*
X46731535Y-40847674D01*
X46720101Y-40885367D01*
X46701534Y-40920103D01*
X46676548Y-40950548D01*
X46646103Y-40975534D01*
X46611367Y-40994101D01*
X46573674Y-41005535D01*
X46528339Y-41010000D01*
X45691661Y-41010000D01*
X45646326Y-41005535D01*
X45608633Y-40994101D01*
X45573897Y-40975534D01*
X45543452Y-40950548D01*
X45518466Y-40920103D01*
X45499899Y-40885367D01*
X45488465Y-40847674D01*
X45484000Y-40802339D01*
X45484000Y-39715661D01*
X45488465Y-39670326D01*
X45499899Y-39632633D01*
X45518466Y-39597897D01*
X45543452Y-39567452D01*
X45573897Y-39542466D01*
X45608633Y-39523899D01*
X45646326Y-39512465D01*
X45691661Y-39508000D01*
X46528339Y-39508000D01*
X46573674Y-39512465D01*
G37*
G36*
X66875674Y-39258465D02*
G01*
X66913367Y-39269899D01*
X66948103Y-39288466D01*
X66978548Y-39313452D01*
X67003534Y-39343897D01*
X67022101Y-39378633D01*
X67033535Y-39416326D01*
X67038000Y-39461661D01*
X67038000Y-40548339D01*
X67033535Y-40593674D01*
X67022101Y-40631367D01*
X67003534Y-40666103D01*
X66978548Y-40696548D01*
X66948103Y-40721534D01*
X66913367Y-40740101D01*
X66875674Y-40751535D01*
X66830339Y-40756000D01*
X65993661Y-40756000D01*
X65948326Y-40751535D01*
X65910633Y-40740101D01*
X65875897Y-40721534D01*
X65845452Y-40696548D01*
X65820466Y-40666103D01*
X65801899Y-40631367D01*
X65790465Y-40593674D01*
X65786000Y-40548339D01*
X65786000Y-39461661D01*
X65790465Y-39416326D01*
X65801899Y-39378633D01*
X65820466Y-39343897D01*
X65845452Y-39313452D01*
X65875897Y-39288466D01*
X65910633Y-39269899D01*
X65948326Y-39258465D01*
X65993661Y-39254000D01*
X66830339Y-39254000D01*
X66875674Y-39258465D01*
G37*
G36*
X68925674Y-39258465D02*
G01*
X68963367Y-39269899D01*
X68998103Y-39288466D01*
X69028548Y-39313452D01*
X69053534Y-39343897D01*
X69072101Y-39378633D01*
X69083535Y-39416326D01*
X69088000Y-39461661D01*
X69088000Y-40548339D01*
X69083535Y-40593674D01*
X69072101Y-40631367D01*
X69053534Y-40666103D01*
X69028548Y-40696548D01*
X68998103Y-40721534D01*
X68963367Y-40740101D01*
X68925674Y-40751535D01*
X68880339Y-40756000D01*
X68043661Y-40756000D01*
X67998326Y-40751535D01*
X67960633Y-40740101D01*
X67925897Y-40721534D01*
X67895452Y-40696548D01*
X67870466Y-40666103D01*
X67851899Y-40631367D01*
X67840465Y-40593674D01*
X67836000Y-40548339D01*
X67836000Y-39461661D01*
X67840465Y-39416326D01*
X67851899Y-39378633D01*
X67870466Y-39343897D01*
X67895452Y-39313452D01*
X67925897Y-39288466D01*
X67960633Y-39269899D01*
X67998326Y-39258465D01*
X68043661Y-39254000D01*
X68880339Y-39254000D01*
X68925674Y-39258465D01*
G37*
G36*
X117820000Y-38572000D02*
G01*
X116368000Y-38572000D01*
X116368000Y-37120000D01*
X117820000Y-37120000D01*
X117820000Y-38572000D01*
G37*
G36*
X102262500Y-38572000D02*
G01*
X100810500Y-38572000D01*
X100810500Y-37120000D01*
X102262500Y-37120000D01*
X102262500Y-38572000D01*
G37*
G36*
X85030903Y-33557213D02*
G01*
X85253177Y-33601426D01*
X85671932Y-33774880D01*
X86048802Y-34026696D01*
X86369304Y-34347198D01*
X86621120Y-34724068D01*
X86794574Y-35142823D01*
X86883000Y-35587371D01*
X86883000Y-36040629D01*
X86794574Y-36485177D01*
X86621120Y-36903932D01*
X86369304Y-37280802D01*
X86048802Y-37601304D01*
X85671932Y-37853120D01*
X85253177Y-38026574D01*
X85030903Y-38070787D01*
X84808630Y-38115000D01*
X84355370Y-38115000D01*
X84133097Y-38070787D01*
X83910823Y-38026574D01*
X83492068Y-37853120D01*
X83115198Y-37601304D01*
X82794696Y-37280802D01*
X82542880Y-36903932D01*
X82369426Y-36485177D01*
X82281000Y-36040629D01*
X82281000Y-35587371D01*
X82369426Y-35142823D01*
X82542880Y-34724068D01*
X82794696Y-34347198D01*
X83115198Y-34026696D01*
X83492068Y-33774880D01*
X83910823Y-33601426D01*
X84133097Y-33557213D01*
X84355370Y-33513000D01*
X84808630Y-33513000D01*
X85030903Y-33557213D01*
G37*
G36*
X42358903Y-33557213D02*
G01*
X42581177Y-33601426D01*
X42999932Y-33774880D01*
X43376802Y-34026696D01*
X43697304Y-34347198D01*
X43949120Y-34724068D01*
X44122574Y-35142823D01*
X44211000Y-35587371D01*
X44211000Y-36040629D01*
X44122574Y-36485177D01*
X43949120Y-36903932D01*
X43697304Y-37280802D01*
X43376802Y-37601304D01*
X42999932Y-37853120D01*
X42581177Y-38026574D01*
X42358903Y-38070787D01*
X42136630Y-38115000D01*
X41683370Y-38115000D01*
X41461097Y-38070787D01*
X41238823Y-38026574D01*
X40820068Y-37853120D01*
X40443198Y-37601304D01*
X40122696Y-37280802D01*
X39870880Y-36903932D01*
X39697426Y-36485177D01*
X39609000Y-36040629D01*
X39609000Y-35587371D01*
X39697426Y-35142823D01*
X39870880Y-34724068D01*
X40122696Y-34347198D01*
X40443198Y-34026696D01*
X40820068Y-33774880D01*
X41238823Y-33601426D01*
X41461097Y-33557213D01*
X41683370Y-33513000D01*
X42136630Y-33513000D01*
X42358903Y-33557213D01*
G37*
G36*
X127702903Y-33557213D02*
G01*
X127925177Y-33601426D01*
X128343932Y-33774880D01*
X128720802Y-34026696D01*
X129041304Y-34347198D01*
X129293120Y-34724068D01*
X129466574Y-35142823D01*
X129555000Y-35587371D01*
X129555000Y-36040629D01*
X129466574Y-36485177D01*
X129293120Y-36903932D01*
X129041304Y-37280802D01*
X128720802Y-37601304D01*
X128343932Y-37853120D01*
X127925177Y-38026574D01*
X127702903Y-38070787D01*
X127480630Y-38115000D01*
X127027370Y-38115000D01*
X126805097Y-38070787D01*
X126582823Y-38026574D01*
X126164068Y-37853120D01*
X125787198Y-37601304D01*
X125466696Y-37280802D01*
X125214880Y-36903932D01*
X125041426Y-36485177D01*
X124953000Y-36040629D01*
X124953000Y-35587371D01*
X125041426Y-35142823D01*
X125214880Y-34724068D01*
X125466696Y-34347198D01*
X125787198Y-34026696D01*
X126164068Y-33774880D01*
X126582823Y-33601426D01*
X126805097Y-33557213D01*
X127027370Y-33513000D01*
X127480630Y-33513000D01*
X127702903Y-33557213D01*
G37*
G36*
X54957500Y-38108000D02*
G01*
X49055500Y-38108000D01*
X49055500Y-31606000D01*
X54957500Y-31606000D01*
X54957500Y-38108000D01*
G37*
G36*
X63466500Y-38108000D02*
G01*
X57564500Y-38108000D01*
X57564500Y-31606000D01*
X63466500Y-31606000D01*
X63466500Y-38108000D01*
G37*
G36*
X91981500Y-37047000D02*
G01*
X91279500Y-37047000D01*
X91279500Y-34975000D01*
X91981500Y-34975000D01*
X91981500Y-37047000D01*
G37*
G36*
X90711500Y-37047000D02*
G01*
X90009500Y-37047000D01*
X90009500Y-34975000D01*
X90711500Y-34975000D01*
X90711500Y-37047000D01*
G37*
G36*
X93251500Y-37047000D02*
G01*
X92549500Y-37047000D01*
X92549500Y-34975000D01*
X93251500Y-34975000D01*
X93251500Y-37047000D01*
G37*
G36*
X94521500Y-37047000D02*
G01*
X93819500Y-37047000D01*
X93819500Y-34975000D01*
X94521500Y-34975000D01*
X94521500Y-37047000D01*
G37*
G36*
X98655538Y-32603354D02*
G01*
X98878609Y-32695753D01*
X98878610Y-32695754D01*
X99079370Y-32829898D01*
X99250102Y-33000630D01*
X99250103Y-33000632D01*
X99384247Y-33201391D01*
X99476646Y-33424462D01*
X99523750Y-33661273D01*
X99523750Y-33902727D01*
X99476646Y-34139538D01*
X99384247Y-34362609D01*
X99384246Y-34362610D01*
X99250102Y-34563370D01*
X99079370Y-34734102D01*
X98978306Y-34801631D01*
X98878609Y-34868247D01*
X98655538Y-34960646D01*
X98418727Y-35007750D01*
X98177273Y-35007750D01*
X97940462Y-34960646D01*
X97717391Y-34868247D01*
X97617694Y-34801631D01*
X97516630Y-34734102D01*
X97345898Y-34563370D01*
X97211754Y-34362610D01*
X97211753Y-34362609D01*
X97119354Y-34139538D01*
X97072250Y-33902727D01*
X97072250Y-33661273D01*
X97119354Y-33424462D01*
X97211753Y-33201391D01*
X97345897Y-33000632D01*
X97345898Y-33000630D01*
X97516630Y-32829898D01*
X97717390Y-32695754D01*
X97717391Y-32695753D01*
X97940462Y-32603354D01*
X98177273Y-32556250D01*
X98418727Y-32556250D01*
X98655538Y-32603354D01*
G37*
G36*
X120753538Y-32603354D02*
G01*
X120976609Y-32695753D01*
X120976610Y-32695754D01*
X121177370Y-32829898D01*
X121348102Y-33000630D01*
X121348103Y-33000632D01*
X121482247Y-33201391D01*
X121574646Y-33424462D01*
X121621750Y-33661273D01*
X121621750Y-33902727D01*
X121574646Y-34139538D01*
X121482247Y-34362609D01*
X121482246Y-34362610D01*
X121348102Y-34563370D01*
X121177370Y-34734102D01*
X121076306Y-34801631D01*
X120976609Y-34868247D01*
X120753538Y-34960646D01*
X120516727Y-35007750D01*
X120275273Y-35007750D01*
X120038462Y-34960646D01*
X119815391Y-34868247D01*
X119715694Y-34801631D01*
X119614630Y-34734102D01*
X119443898Y-34563370D01*
X119309754Y-34362610D01*
X119309753Y-34362609D01*
X119217354Y-34139538D01*
X119170250Y-33902727D01*
X119170250Y-33661273D01*
X119217354Y-33424462D01*
X119309753Y-33201391D01*
X119443897Y-33000632D01*
X119443898Y-33000630D01*
X119614630Y-32829898D01*
X119815390Y-32695754D01*
X119815391Y-32695753D01*
X120038462Y-32603354D01*
X120275273Y-32556250D01*
X120516727Y-32556250D01*
X120753538Y-32603354D01*
G37*
G36*
X115155378Y-32603354D02*
G01*
X115378449Y-32695753D01*
X115378450Y-32695754D01*
X115579210Y-32829898D01*
X115749942Y-33000630D01*
X115749943Y-33000632D01*
X115884087Y-33201391D01*
X115976486Y-33424462D01*
X116023590Y-33661273D01*
X116023590Y-33902727D01*
X115976486Y-34139538D01*
X115884087Y-34362609D01*
X115884086Y-34362610D01*
X115749942Y-34563370D01*
X115579210Y-34734102D01*
X115478146Y-34801631D01*
X115378449Y-34868247D01*
X115155378Y-34960646D01*
X114918567Y-35007750D01*
X114677113Y-35007750D01*
X114440302Y-34960646D01*
X114217231Y-34868247D01*
X114117534Y-34801631D01*
X114016470Y-34734102D01*
X113845738Y-34563370D01*
X113711594Y-34362610D01*
X113711593Y-34362609D01*
X113619194Y-34139538D01*
X113572090Y-33902727D01*
X113572090Y-33661273D01*
X113619194Y-33424462D01*
X113711593Y-33201391D01*
X113845737Y-33000632D01*
X113845738Y-33000630D01*
X114016470Y-32829898D01*
X114217230Y-32695754D01*
X114217231Y-32695753D01*
X114440302Y-32603354D01*
X114677113Y-32556250D01*
X114918567Y-32556250D01*
X115155378Y-32603354D01*
G37*
G36*
X104304498Y-32593194D02*
G01*
X104527569Y-32685593D01*
X104627266Y-32752209D01*
X104728330Y-32819738D01*
X104899062Y-32990470D01*
X104905852Y-33000632D01*
X105033207Y-33191231D01*
X105125606Y-33414302D01*
X105172710Y-33651113D01*
X105172710Y-33892567D01*
X105125606Y-34129378D01*
X105033207Y-34352449D01*
X104966591Y-34452146D01*
X104899062Y-34553210D01*
X104728330Y-34723942D01*
X104713123Y-34734103D01*
X104527569Y-34858087D01*
X104304498Y-34950486D01*
X104067687Y-34997590D01*
X103826233Y-34997590D01*
X103589422Y-34950486D01*
X103366351Y-34858087D01*
X103180797Y-34734103D01*
X103165590Y-34723942D01*
X102994858Y-34553210D01*
X102927329Y-34452146D01*
X102860713Y-34352449D01*
X102768314Y-34129378D01*
X102721210Y-33892567D01*
X102721210Y-33651113D01*
X102768314Y-33414302D01*
X102860713Y-33191231D01*
X102988068Y-33000632D01*
X102994858Y-32990470D01*
X103165590Y-32819738D01*
X103266654Y-32752209D01*
X103366351Y-32685593D01*
X103589422Y-32593194D01*
X103826233Y-32546090D01*
X104067687Y-32546090D01*
X104304498Y-32593194D01*
G37*
M02*
