G04 #@! TF.GenerationSoftware,KiCad,Pcbnew,(5.1.6)-1*
G04 #@! TF.CreationDate,2021-11-01T19:25:02+01:00*
G04 #@! TF.ProjectId,32mz_gauge4_sensors,33326d7a-5f67-4617-9567-65345f73656e,rev?*
G04 #@! TF.SameCoordinates,Original*
G04 #@! TF.FileFunction,Paste,Bot*
G04 #@! TF.FilePolarity,Positive*
%FSLAX46Y46*%
G04 Gerber Fmt 4.6, Leading zero omitted, Abs format (unit mm)*
G04 Created by KiCad (PCBNEW (5.1.6)-1) date 2021-11-01 19:25:02*
%MOMM*%
%LPD*%
G01*
G04 APERTURE LIST*
%ADD10R,9.448800X11.252200*%
%ADD11R,1.016000X2.286000*%
%ADD12R,1.600000X2.250000*%
%ADD13R,0.800000X1.800000*%
%ADD14R,1.800000X0.800000*%
%ADD15R,1.200000X0.750000*%
%ADD16R,0.750000X1.200000*%
%ADD17R,1.750000X0.450000*%
%ADD18R,0.720000X0.960000*%
%ADD19R,1.550000X0.600000*%
G04 APERTURE END LIST*
G36*
G01*
X75357000Y-84597500D02*
X75357000Y-84797500D01*
G75*
G02*
X75257000Y-84897500I-100000J0D01*
G01*
X73557000Y-84897500D01*
G75*
G02*
X73457000Y-84797500I0J100000D01*
G01*
X73457000Y-84597500D01*
G75*
G02*
X73557000Y-84497500I100000J0D01*
G01*
X75257000Y-84497500D01*
G75*
G02*
X75357000Y-84597500I0J-100000D01*
G01*
G37*
G36*
G01*
X75357000Y-85247500D02*
X75357000Y-85447500D01*
G75*
G02*
X75257000Y-85547500I-100000J0D01*
G01*
X73557000Y-85547500D01*
G75*
G02*
X73457000Y-85447500I0J100000D01*
G01*
X73457000Y-85247500D01*
G75*
G02*
X73557000Y-85147500I100000J0D01*
G01*
X75257000Y-85147500D01*
G75*
G02*
X75357000Y-85247500I0J-100000D01*
G01*
G37*
G36*
G01*
X75357000Y-85897500D02*
X75357000Y-86097500D01*
G75*
G02*
X75257000Y-86197500I-100000J0D01*
G01*
X73557000Y-86197500D01*
G75*
G02*
X73457000Y-86097500I0J100000D01*
G01*
X73457000Y-85897500D01*
G75*
G02*
X73557000Y-85797500I100000J0D01*
G01*
X75257000Y-85797500D01*
G75*
G02*
X75357000Y-85897500I0J-100000D01*
G01*
G37*
G36*
G01*
X75357000Y-86547500D02*
X75357000Y-86747500D01*
G75*
G02*
X75257000Y-86847500I-100000J0D01*
G01*
X73557000Y-86847500D01*
G75*
G02*
X73457000Y-86747500I0J100000D01*
G01*
X73457000Y-86547500D01*
G75*
G02*
X73557000Y-86447500I100000J0D01*
G01*
X75257000Y-86447500D01*
G75*
G02*
X75357000Y-86547500I0J-100000D01*
G01*
G37*
G36*
G01*
X75357000Y-87197500D02*
X75357000Y-87397500D01*
G75*
G02*
X75257000Y-87497500I-100000J0D01*
G01*
X73557000Y-87497500D01*
G75*
G02*
X73457000Y-87397500I0J100000D01*
G01*
X73457000Y-87197500D01*
G75*
G02*
X73557000Y-87097500I100000J0D01*
G01*
X75257000Y-87097500D01*
G75*
G02*
X75357000Y-87197500I0J-100000D01*
G01*
G37*
G36*
G01*
X75357000Y-87847500D02*
X75357000Y-88047500D01*
G75*
G02*
X75257000Y-88147500I-100000J0D01*
G01*
X73557000Y-88147500D01*
G75*
G02*
X73457000Y-88047500I0J100000D01*
G01*
X73457000Y-87847500D01*
G75*
G02*
X73557000Y-87747500I100000J0D01*
G01*
X75257000Y-87747500D01*
G75*
G02*
X75357000Y-87847500I0J-100000D01*
G01*
G37*
G36*
G01*
X75357000Y-88497500D02*
X75357000Y-88697500D01*
G75*
G02*
X75257000Y-88797500I-100000J0D01*
G01*
X73557000Y-88797500D01*
G75*
G02*
X73457000Y-88697500I0J100000D01*
G01*
X73457000Y-88497500D01*
G75*
G02*
X73557000Y-88397500I100000J0D01*
G01*
X75257000Y-88397500D01*
G75*
G02*
X75357000Y-88497500I0J-100000D01*
G01*
G37*
G36*
G01*
X75357000Y-89147500D02*
X75357000Y-89347500D01*
G75*
G02*
X75257000Y-89447500I-100000J0D01*
G01*
X73557000Y-89447500D01*
G75*
G02*
X73457000Y-89347500I0J100000D01*
G01*
X73457000Y-89147500D01*
G75*
G02*
X73557000Y-89047500I100000J0D01*
G01*
X75257000Y-89047500D01*
G75*
G02*
X75357000Y-89147500I0J-100000D01*
G01*
G37*
G36*
G01*
X75357000Y-89797500D02*
X75357000Y-89997500D01*
G75*
G02*
X75257000Y-90097500I-100000J0D01*
G01*
X73557000Y-90097500D01*
G75*
G02*
X73457000Y-89997500I0J100000D01*
G01*
X73457000Y-89797500D01*
G75*
G02*
X73557000Y-89697500I100000J0D01*
G01*
X75257000Y-89697500D01*
G75*
G02*
X75357000Y-89797500I0J-100000D01*
G01*
G37*
G36*
G01*
X75357000Y-90447500D02*
X75357000Y-90647500D01*
G75*
G02*
X75257000Y-90747500I-100000J0D01*
G01*
X73557000Y-90747500D01*
G75*
G02*
X73457000Y-90647500I0J100000D01*
G01*
X73457000Y-90447500D01*
G75*
G02*
X73557000Y-90347500I100000J0D01*
G01*
X75257000Y-90347500D01*
G75*
G02*
X75357000Y-90447500I0J-100000D01*
G01*
G37*
G36*
G01*
X82357000Y-90447500D02*
X82357000Y-90647500D01*
G75*
G02*
X82257000Y-90747500I-100000J0D01*
G01*
X80557000Y-90747500D01*
G75*
G02*
X80457000Y-90647500I0J100000D01*
G01*
X80457000Y-90447500D01*
G75*
G02*
X80557000Y-90347500I100000J0D01*
G01*
X82257000Y-90347500D01*
G75*
G02*
X82357000Y-90447500I0J-100000D01*
G01*
G37*
G36*
G01*
X82357000Y-89797500D02*
X82357000Y-89997500D01*
G75*
G02*
X82257000Y-90097500I-100000J0D01*
G01*
X80557000Y-90097500D01*
G75*
G02*
X80457000Y-89997500I0J100000D01*
G01*
X80457000Y-89797500D01*
G75*
G02*
X80557000Y-89697500I100000J0D01*
G01*
X82257000Y-89697500D01*
G75*
G02*
X82357000Y-89797500I0J-100000D01*
G01*
G37*
G36*
G01*
X82357000Y-89147500D02*
X82357000Y-89347500D01*
G75*
G02*
X82257000Y-89447500I-100000J0D01*
G01*
X80557000Y-89447500D01*
G75*
G02*
X80457000Y-89347500I0J100000D01*
G01*
X80457000Y-89147500D01*
G75*
G02*
X80557000Y-89047500I100000J0D01*
G01*
X82257000Y-89047500D01*
G75*
G02*
X82357000Y-89147500I0J-100000D01*
G01*
G37*
G36*
G01*
X82357000Y-88497500D02*
X82357000Y-88697500D01*
G75*
G02*
X82257000Y-88797500I-100000J0D01*
G01*
X80557000Y-88797500D01*
G75*
G02*
X80457000Y-88697500I0J100000D01*
G01*
X80457000Y-88497500D01*
G75*
G02*
X80557000Y-88397500I100000J0D01*
G01*
X82257000Y-88397500D01*
G75*
G02*
X82357000Y-88497500I0J-100000D01*
G01*
G37*
G36*
G01*
X82357000Y-87847500D02*
X82357000Y-88047500D01*
G75*
G02*
X82257000Y-88147500I-100000J0D01*
G01*
X80557000Y-88147500D01*
G75*
G02*
X80457000Y-88047500I0J100000D01*
G01*
X80457000Y-87847500D01*
G75*
G02*
X80557000Y-87747500I100000J0D01*
G01*
X82257000Y-87747500D01*
G75*
G02*
X82357000Y-87847500I0J-100000D01*
G01*
G37*
G36*
G01*
X82357000Y-87197500D02*
X82357000Y-87397500D01*
G75*
G02*
X82257000Y-87497500I-100000J0D01*
G01*
X80557000Y-87497500D01*
G75*
G02*
X80457000Y-87397500I0J100000D01*
G01*
X80457000Y-87197500D01*
G75*
G02*
X80557000Y-87097500I100000J0D01*
G01*
X82257000Y-87097500D01*
G75*
G02*
X82357000Y-87197500I0J-100000D01*
G01*
G37*
G36*
G01*
X82357000Y-86547500D02*
X82357000Y-86747500D01*
G75*
G02*
X82257000Y-86847500I-100000J0D01*
G01*
X80557000Y-86847500D01*
G75*
G02*
X80457000Y-86747500I0J100000D01*
G01*
X80457000Y-86547500D01*
G75*
G02*
X80557000Y-86447500I100000J0D01*
G01*
X82257000Y-86447500D01*
G75*
G02*
X82357000Y-86547500I0J-100000D01*
G01*
G37*
G36*
G01*
X82357000Y-85897500D02*
X82357000Y-86097500D01*
G75*
G02*
X82257000Y-86197500I-100000J0D01*
G01*
X80557000Y-86197500D01*
G75*
G02*
X80457000Y-86097500I0J100000D01*
G01*
X80457000Y-85897500D01*
G75*
G02*
X80557000Y-85797500I100000J0D01*
G01*
X82257000Y-85797500D01*
G75*
G02*
X82357000Y-85897500I0J-100000D01*
G01*
G37*
G36*
G01*
X82357000Y-85247500D02*
X82357000Y-85447500D01*
G75*
G02*
X82257000Y-85547500I-100000J0D01*
G01*
X80557000Y-85547500D01*
G75*
G02*
X80457000Y-85447500I0J100000D01*
G01*
X80457000Y-85247500D01*
G75*
G02*
X80557000Y-85147500I100000J0D01*
G01*
X82257000Y-85147500D01*
G75*
G02*
X82357000Y-85247500I0J-100000D01*
G01*
G37*
G36*
G01*
X82357000Y-84597500D02*
X82357000Y-84797500D01*
G75*
G02*
X82257000Y-84897500I-100000J0D01*
G01*
X80557000Y-84897500D01*
G75*
G02*
X80457000Y-84797500I0J100000D01*
G01*
X80457000Y-84597500D01*
G75*
G02*
X80557000Y-84497500I100000J0D01*
G01*
X82257000Y-84497500D01*
G75*
G02*
X82357000Y-84597500I0J-100000D01*
G01*
G37*
G36*
G01*
X72987500Y-66428000D02*
X72987500Y-63620000D01*
G75*
G02*
X73083500Y-63524000I96000J0D01*
G01*
X80691500Y-63524000D01*
G75*
G02*
X80787500Y-63620000I0J-96000D01*
G01*
X80787500Y-66428000D01*
G75*
G02*
X80691500Y-66524000I-96000J0D01*
G01*
X73083500Y-66524000D01*
G75*
G02*
X72987500Y-66428000I0J96000D01*
G01*
G37*
G36*
G01*
X87487500Y-66428000D02*
X87487500Y-63620000D01*
G75*
G02*
X87583500Y-63524000I96000J0D01*
G01*
X95191500Y-63524000D01*
G75*
G02*
X95287500Y-63620000I0J-96000D01*
G01*
X95287500Y-66428000D01*
G75*
G02*
X95191500Y-66524000I-96000J0D01*
G01*
X87583500Y-66524000D01*
G75*
G02*
X87487500Y-66428000I0J96000D01*
G01*
G37*
D10*
X109347000Y-41592500D03*
D11*
X105943400Y-50393600D03*
X107645200Y-50393600D03*
X109347000Y-50393600D03*
X111048800Y-50393600D03*
X112750600Y-50393600D03*
D12*
X55245000Y-36136000D03*
X57785000Y-36136000D03*
X57785000Y-44636000D03*
X55245000Y-44636000D03*
X49530000Y-36136000D03*
X52070000Y-36136000D03*
X52070000Y-44636000D03*
X49530000Y-44636000D03*
G36*
G01*
X124119500Y-89668000D02*
X124419500Y-89668000D01*
G75*
G02*
X124569500Y-89818000I0J-150000D01*
G01*
X124569500Y-91118000D01*
G75*
G02*
X124419500Y-91268000I-150000J0D01*
G01*
X124119500Y-91268000D01*
G75*
G02*
X123969500Y-91118000I0J150000D01*
G01*
X123969500Y-89818000D01*
G75*
G02*
X124119500Y-89668000I150000J0D01*
G01*
G37*
G36*
G01*
X125389500Y-89668000D02*
X125689500Y-89668000D01*
G75*
G02*
X125839500Y-89818000I0J-150000D01*
G01*
X125839500Y-91118000D01*
G75*
G02*
X125689500Y-91268000I-150000J0D01*
G01*
X125389500Y-91268000D01*
G75*
G02*
X125239500Y-91118000I0J150000D01*
G01*
X125239500Y-89818000D01*
G75*
G02*
X125389500Y-89668000I150000J0D01*
G01*
G37*
G36*
G01*
X126659500Y-89668000D02*
X126959500Y-89668000D01*
G75*
G02*
X127109500Y-89818000I0J-150000D01*
G01*
X127109500Y-91118000D01*
G75*
G02*
X126959500Y-91268000I-150000J0D01*
G01*
X126659500Y-91268000D01*
G75*
G02*
X126509500Y-91118000I0J150000D01*
G01*
X126509500Y-89818000D01*
G75*
G02*
X126659500Y-89668000I150000J0D01*
G01*
G37*
G36*
G01*
X127929500Y-89668000D02*
X128229500Y-89668000D01*
G75*
G02*
X128379500Y-89818000I0J-150000D01*
G01*
X128379500Y-91118000D01*
G75*
G02*
X128229500Y-91268000I-150000J0D01*
G01*
X127929500Y-91268000D01*
G75*
G02*
X127779500Y-91118000I0J150000D01*
G01*
X127779500Y-89818000D01*
G75*
G02*
X127929500Y-89668000I150000J0D01*
G01*
G37*
G36*
G01*
X127929500Y-82468000D02*
X128229500Y-82468000D01*
G75*
G02*
X128379500Y-82618000I0J-150000D01*
G01*
X128379500Y-83918000D01*
G75*
G02*
X128229500Y-84068000I-150000J0D01*
G01*
X127929500Y-84068000D01*
G75*
G02*
X127779500Y-83918000I0J150000D01*
G01*
X127779500Y-82618000D01*
G75*
G02*
X127929500Y-82468000I150000J0D01*
G01*
G37*
G36*
G01*
X126659500Y-82468000D02*
X126959500Y-82468000D01*
G75*
G02*
X127109500Y-82618000I0J-150000D01*
G01*
X127109500Y-83918000D01*
G75*
G02*
X126959500Y-84068000I-150000J0D01*
G01*
X126659500Y-84068000D01*
G75*
G02*
X126509500Y-83918000I0J150000D01*
G01*
X126509500Y-82618000D01*
G75*
G02*
X126659500Y-82468000I150000J0D01*
G01*
G37*
G36*
G01*
X125389500Y-82468000D02*
X125689500Y-82468000D01*
G75*
G02*
X125839500Y-82618000I0J-150000D01*
G01*
X125839500Y-83918000D01*
G75*
G02*
X125689500Y-84068000I-150000J0D01*
G01*
X125389500Y-84068000D01*
G75*
G02*
X125239500Y-83918000I0J150000D01*
G01*
X125239500Y-82618000D01*
G75*
G02*
X125389500Y-82468000I150000J0D01*
G01*
G37*
G36*
G01*
X124119500Y-82468000D02*
X124419500Y-82468000D01*
G75*
G02*
X124569500Y-82618000I0J-150000D01*
G01*
X124569500Y-83918000D01*
G75*
G02*
X124419500Y-84068000I-150000J0D01*
G01*
X124119500Y-84068000D01*
G75*
G02*
X123969500Y-83918000I0J150000D01*
G01*
X123969500Y-82618000D01*
G75*
G02*
X124119500Y-82468000I150000J0D01*
G01*
G37*
D13*
X118999000Y-82485500D03*
X119949000Y-79185500D03*
X118049000Y-79185500D03*
D14*
X97916000Y-94488000D03*
X94616000Y-93538000D03*
X94616000Y-95438000D03*
G36*
G01*
X90874000Y-93160001D02*
X90874000Y-92259999D01*
G75*
G02*
X91123999Y-92010000I249999J0D01*
G01*
X91774001Y-92010000D01*
G75*
G02*
X92024000Y-92259999I0J-249999D01*
G01*
X92024000Y-93160001D01*
G75*
G02*
X91774001Y-93410000I-249999J0D01*
G01*
X91123999Y-93410000D01*
G75*
G02*
X90874000Y-93160001I0J249999D01*
G01*
G37*
G36*
G01*
X88824000Y-93160001D02*
X88824000Y-92259999D01*
G75*
G02*
X89073999Y-92010000I249999J0D01*
G01*
X89724001Y-92010000D01*
G75*
G02*
X89974000Y-92259999I0J-249999D01*
G01*
X89974000Y-93160001D01*
G75*
G02*
X89724001Y-93410000I-249999J0D01*
G01*
X89073999Y-93410000D01*
G75*
G02*
X88824000Y-93160001I0J249999D01*
G01*
G37*
G36*
G01*
X125672000Y-57092001D02*
X125672000Y-56191999D01*
G75*
G02*
X125921999Y-55942000I249999J0D01*
G01*
X126572001Y-55942000D01*
G75*
G02*
X126822000Y-56191999I0J-249999D01*
G01*
X126822000Y-57092001D01*
G75*
G02*
X126572001Y-57342000I-249999J0D01*
G01*
X125921999Y-57342000D01*
G75*
G02*
X125672000Y-57092001I0J249999D01*
G01*
G37*
G36*
G01*
X123622000Y-57092001D02*
X123622000Y-56191999D01*
G75*
G02*
X123871999Y-55942000I249999J0D01*
G01*
X124522001Y-55942000D01*
G75*
G02*
X124772000Y-56191999I0J-249999D01*
G01*
X124772000Y-57092001D01*
G75*
G02*
X124522001Y-57342000I-249999J0D01*
G01*
X123871999Y-57342000D01*
G75*
G02*
X123622000Y-57092001I0J249999D01*
G01*
G37*
G36*
G01*
X131820499Y-51313500D02*
X132720501Y-51313500D01*
G75*
G02*
X132970500Y-51563499I0J-249999D01*
G01*
X132970500Y-52213501D01*
G75*
G02*
X132720501Y-52463500I-249999J0D01*
G01*
X131820499Y-52463500D01*
G75*
G02*
X131570500Y-52213501I0J249999D01*
G01*
X131570500Y-51563499D01*
G75*
G02*
X131820499Y-51313500I249999J0D01*
G01*
G37*
G36*
G01*
X131820499Y-49263500D02*
X132720501Y-49263500D01*
G75*
G02*
X132970500Y-49513499I0J-249999D01*
G01*
X132970500Y-50163501D01*
G75*
G02*
X132720501Y-50413500I-249999J0D01*
G01*
X131820499Y-50413500D01*
G75*
G02*
X131570500Y-50163501I0J249999D01*
G01*
X131570500Y-49513499D01*
G75*
G02*
X131820499Y-49263500I249999J0D01*
G01*
G37*
G36*
G01*
X129407500Y-68193499D02*
X129407500Y-69093501D01*
G75*
G02*
X129157501Y-69343500I-249999J0D01*
G01*
X128507499Y-69343500D01*
G75*
G02*
X128257500Y-69093501I0J249999D01*
G01*
X128257500Y-68193499D01*
G75*
G02*
X128507499Y-67943500I249999J0D01*
G01*
X129157501Y-67943500D01*
G75*
G02*
X129407500Y-68193499I0J-249999D01*
G01*
G37*
G36*
G01*
X131457500Y-68193499D02*
X131457500Y-69093501D01*
G75*
G02*
X131207501Y-69343500I-249999J0D01*
G01*
X130557499Y-69343500D01*
G75*
G02*
X130307500Y-69093501I0J249999D01*
G01*
X130307500Y-68193499D01*
G75*
G02*
X130557499Y-67943500I249999J0D01*
G01*
X131207501Y-67943500D01*
G75*
G02*
X131457500Y-68193499I0J-249999D01*
G01*
G37*
G36*
G01*
X129407500Y-65907499D02*
X129407500Y-66807501D01*
G75*
G02*
X129157501Y-67057500I-249999J0D01*
G01*
X128507499Y-67057500D01*
G75*
G02*
X128257500Y-66807501I0J249999D01*
G01*
X128257500Y-65907499D01*
G75*
G02*
X128507499Y-65657500I249999J0D01*
G01*
X129157501Y-65657500D01*
G75*
G02*
X129407500Y-65907499I0J-249999D01*
G01*
G37*
G36*
G01*
X131457500Y-65907499D02*
X131457500Y-66807501D01*
G75*
G02*
X131207501Y-67057500I-249999J0D01*
G01*
X130557499Y-67057500D01*
G75*
G02*
X130307500Y-66807501I0J249999D01*
G01*
X130307500Y-65907499D01*
G75*
G02*
X130557499Y-65657500I249999J0D01*
G01*
X131207501Y-65657500D01*
G75*
G02*
X131457500Y-65907499I0J-249999D01*
G01*
G37*
G36*
G01*
X88080000Y-90175501D02*
X88080000Y-89275499D01*
G75*
G02*
X88329999Y-89025500I249999J0D01*
G01*
X88980001Y-89025500D01*
G75*
G02*
X89230000Y-89275499I0J-249999D01*
G01*
X89230000Y-90175501D01*
G75*
G02*
X88980001Y-90425500I-249999J0D01*
G01*
X88329999Y-90425500D01*
G75*
G02*
X88080000Y-90175501I0J249999D01*
G01*
G37*
G36*
G01*
X86030000Y-90175501D02*
X86030000Y-89275499D01*
G75*
G02*
X86279999Y-89025500I249999J0D01*
G01*
X86930001Y-89025500D01*
G75*
G02*
X87180000Y-89275499I0J-249999D01*
G01*
X87180000Y-90175501D01*
G75*
G02*
X86930001Y-90425500I-249999J0D01*
G01*
X86279999Y-90425500D01*
G75*
G02*
X86030000Y-90175501I0J249999D01*
G01*
G37*
G36*
G01*
X56838000Y-33470001D02*
X56838000Y-32569999D01*
G75*
G02*
X57087999Y-32320000I249999J0D01*
G01*
X57738001Y-32320000D01*
G75*
G02*
X57988000Y-32569999I0J-249999D01*
G01*
X57988000Y-33470001D01*
G75*
G02*
X57738001Y-33720000I-249999J0D01*
G01*
X57087999Y-33720000D01*
G75*
G02*
X56838000Y-33470001I0J249999D01*
G01*
G37*
G36*
G01*
X54788000Y-33470001D02*
X54788000Y-32569999D01*
G75*
G02*
X55037999Y-32320000I249999J0D01*
G01*
X55688001Y-32320000D01*
G75*
G02*
X55938000Y-32569999I0J-249999D01*
G01*
X55938000Y-33470001D01*
G75*
G02*
X55688001Y-33720000I-249999J0D01*
G01*
X55037999Y-33720000D01*
G75*
G02*
X54788000Y-33470001I0J249999D01*
G01*
G37*
G36*
G01*
X48064000Y-32595399D02*
X48064000Y-33495401D01*
G75*
G02*
X47814001Y-33745400I-249999J0D01*
G01*
X47163999Y-33745400D01*
G75*
G02*
X46914000Y-33495401I0J249999D01*
G01*
X46914000Y-32595399D01*
G75*
G02*
X47163999Y-32345400I249999J0D01*
G01*
X47814001Y-32345400D01*
G75*
G02*
X48064000Y-32595399I0J-249999D01*
G01*
G37*
G36*
G01*
X50114000Y-32595399D02*
X50114000Y-33495401D01*
G75*
G02*
X49864001Y-33745400I-249999J0D01*
G01*
X49213999Y-33745400D01*
G75*
G02*
X48964000Y-33495401I0J249999D01*
G01*
X48964000Y-32595399D01*
G75*
G02*
X49213999Y-32345400I249999J0D01*
G01*
X49864001Y-32345400D01*
G75*
G02*
X50114000Y-32595399I0J-249999D01*
G01*
G37*
G36*
G01*
X101213499Y-57473000D02*
X102113501Y-57473000D01*
G75*
G02*
X102363500Y-57722999I0J-249999D01*
G01*
X102363500Y-58373001D01*
G75*
G02*
X102113501Y-58623000I-249999J0D01*
G01*
X101213499Y-58623000D01*
G75*
G02*
X100963500Y-58373001I0J249999D01*
G01*
X100963500Y-57722999D01*
G75*
G02*
X101213499Y-57473000I249999J0D01*
G01*
G37*
G36*
G01*
X101213499Y-55423000D02*
X102113501Y-55423000D01*
G75*
G02*
X102363500Y-55672999I0J-249999D01*
G01*
X102363500Y-56323001D01*
G75*
G02*
X102113501Y-56573000I-249999J0D01*
G01*
X101213499Y-56573000D01*
G75*
G02*
X100963500Y-56323001I0J249999D01*
G01*
X100963500Y-55672999D01*
G75*
G02*
X101213499Y-55423000I249999J0D01*
G01*
G37*
G36*
G01*
X44317500Y-39872499D02*
X44317500Y-40772501D01*
G75*
G02*
X44067501Y-41022500I-249999J0D01*
G01*
X43417499Y-41022500D01*
G75*
G02*
X43167500Y-40772501I0J249999D01*
G01*
X43167500Y-39872499D01*
G75*
G02*
X43417499Y-39622500I249999J0D01*
G01*
X44067501Y-39622500D01*
G75*
G02*
X44317500Y-39872499I0J-249999D01*
G01*
G37*
G36*
G01*
X46367500Y-39872499D02*
X46367500Y-40772501D01*
G75*
G02*
X46117501Y-41022500I-249999J0D01*
G01*
X45467499Y-41022500D01*
G75*
G02*
X45217500Y-40772501I0J249999D01*
G01*
X45217500Y-39872499D01*
G75*
G02*
X45467499Y-39622500I249999J0D01*
G01*
X46117501Y-39622500D01*
G75*
G02*
X46367500Y-39872499I0J-249999D01*
G01*
G37*
G36*
G01*
X44317500Y-42221999D02*
X44317500Y-43122001D01*
G75*
G02*
X44067501Y-43372000I-249999J0D01*
G01*
X43417499Y-43372000D01*
G75*
G02*
X43167500Y-43122001I0J249999D01*
G01*
X43167500Y-42221999D01*
G75*
G02*
X43417499Y-41972000I249999J0D01*
G01*
X44067501Y-41972000D01*
G75*
G02*
X44317500Y-42221999I0J-249999D01*
G01*
G37*
G36*
G01*
X46367500Y-42221999D02*
X46367500Y-43122001D01*
G75*
G02*
X46117501Y-43372000I-249999J0D01*
G01*
X45467499Y-43372000D01*
G75*
G02*
X45217500Y-43122001I0J249999D01*
G01*
X45217500Y-42221999D01*
G75*
G02*
X45467499Y-41972000I249999J0D01*
G01*
X46117501Y-41972000D01*
G75*
G02*
X46367500Y-42221999I0J-249999D01*
G01*
G37*
G36*
G01*
X101213499Y-53345500D02*
X102113501Y-53345500D01*
G75*
G02*
X102363500Y-53595499I0J-249999D01*
G01*
X102363500Y-54245501D01*
G75*
G02*
X102113501Y-54495500I-249999J0D01*
G01*
X101213499Y-54495500D01*
G75*
G02*
X100963500Y-54245501I0J249999D01*
G01*
X100963500Y-53595499D01*
G75*
G02*
X101213499Y-53345500I249999J0D01*
G01*
G37*
G36*
G01*
X101213499Y-51295500D02*
X102113501Y-51295500D01*
G75*
G02*
X102363500Y-51545499I0J-249999D01*
G01*
X102363500Y-52195501D01*
G75*
G02*
X102113501Y-52445500I-249999J0D01*
G01*
X101213499Y-52445500D01*
G75*
G02*
X100963500Y-52195501I0J249999D01*
G01*
X100963500Y-51545499D01*
G75*
G02*
X101213499Y-51295500I249999J0D01*
G01*
G37*
G36*
G01*
X127883499Y-80333000D02*
X128783501Y-80333000D01*
G75*
G02*
X129033500Y-80582999I0J-249999D01*
G01*
X129033500Y-81233001D01*
G75*
G02*
X128783501Y-81483000I-249999J0D01*
G01*
X127883499Y-81483000D01*
G75*
G02*
X127633500Y-81233001I0J249999D01*
G01*
X127633500Y-80582999D01*
G75*
G02*
X127883499Y-80333000I249999J0D01*
G01*
G37*
G36*
G01*
X127883499Y-78283000D02*
X128783501Y-78283000D01*
G75*
G02*
X129033500Y-78532999I0J-249999D01*
G01*
X129033500Y-79183001D01*
G75*
G02*
X128783501Y-79433000I-249999J0D01*
G01*
X127883499Y-79433000D01*
G75*
G02*
X127633500Y-79183001I0J249999D01*
G01*
X127633500Y-78532999D01*
G75*
G02*
X127883499Y-78283000I249999J0D01*
G01*
G37*
G36*
G01*
X27870999Y-48646500D02*
X28771001Y-48646500D01*
G75*
G02*
X29021000Y-48896499I0J-249999D01*
G01*
X29021000Y-49546501D01*
G75*
G02*
X28771001Y-49796500I-249999J0D01*
G01*
X27870999Y-49796500D01*
G75*
G02*
X27621000Y-49546501I0J249999D01*
G01*
X27621000Y-48896499D01*
G75*
G02*
X27870999Y-48646500I249999J0D01*
G01*
G37*
G36*
G01*
X27870999Y-46596500D02*
X28771001Y-46596500D01*
G75*
G02*
X29021000Y-46846499I0J-249999D01*
G01*
X29021000Y-47496501D01*
G75*
G02*
X28771001Y-47746500I-249999J0D01*
G01*
X27870999Y-47746500D01*
G75*
G02*
X27621000Y-47496501I0J249999D01*
G01*
X27621000Y-46846499D01*
G75*
G02*
X27870999Y-46596500I249999J0D01*
G01*
G37*
G36*
G01*
X28771001Y-83624000D02*
X27870999Y-83624000D01*
G75*
G02*
X27621000Y-83374001I0J249999D01*
G01*
X27621000Y-82723999D01*
G75*
G02*
X27870999Y-82474000I249999J0D01*
G01*
X28771001Y-82474000D01*
G75*
G02*
X29021000Y-82723999I0J-249999D01*
G01*
X29021000Y-83374001D01*
G75*
G02*
X28771001Y-83624000I-249999J0D01*
G01*
G37*
G36*
G01*
X28771001Y-85674000D02*
X27870999Y-85674000D01*
G75*
G02*
X27621000Y-85424001I0J249999D01*
G01*
X27621000Y-84773999D01*
G75*
G02*
X27870999Y-84524000I249999J0D01*
G01*
X28771001Y-84524000D01*
G75*
G02*
X29021000Y-84773999I0J-249999D01*
G01*
X29021000Y-85424001D01*
G75*
G02*
X28771001Y-85674000I-249999J0D01*
G01*
G37*
G36*
G01*
X119437999Y-87517500D02*
X120338001Y-87517500D01*
G75*
G02*
X120588000Y-87767499I0J-249999D01*
G01*
X120588000Y-88417501D01*
G75*
G02*
X120338001Y-88667500I-249999J0D01*
G01*
X119437999Y-88667500D01*
G75*
G02*
X119188000Y-88417501I0J249999D01*
G01*
X119188000Y-87767499D01*
G75*
G02*
X119437999Y-87517500I249999J0D01*
G01*
G37*
G36*
G01*
X119437999Y-85467500D02*
X120338001Y-85467500D01*
G75*
G02*
X120588000Y-85717499I0J-249999D01*
G01*
X120588000Y-86367501D01*
G75*
G02*
X120338001Y-86617500I-249999J0D01*
G01*
X119437999Y-86617500D01*
G75*
G02*
X119188000Y-86367501I0J249999D01*
G01*
X119188000Y-85717499D01*
G75*
G02*
X119437999Y-85467500I249999J0D01*
G01*
G37*
G36*
G01*
X123513000Y-79444001D02*
X123513000Y-78543999D01*
G75*
G02*
X123762999Y-78294000I249999J0D01*
G01*
X124413001Y-78294000D01*
G75*
G02*
X124663000Y-78543999I0J-249999D01*
G01*
X124663000Y-79444001D01*
G75*
G02*
X124413001Y-79694000I-249999J0D01*
G01*
X123762999Y-79694000D01*
G75*
G02*
X123513000Y-79444001I0J249999D01*
G01*
G37*
G36*
G01*
X121463000Y-79444001D02*
X121463000Y-78543999D01*
G75*
G02*
X121712999Y-78294000I249999J0D01*
G01*
X122363001Y-78294000D01*
G75*
G02*
X122613000Y-78543999I0J-249999D01*
G01*
X122613000Y-79444001D01*
G75*
G02*
X122363001Y-79694000I-249999J0D01*
G01*
X121712999Y-79694000D01*
G75*
G02*
X121463000Y-79444001I0J249999D01*
G01*
G37*
G36*
G01*
X88957999Y-96716000D02*
X89858001Y-96716000D01*
G75*
G02*
X90108000Y-96965999I0J-249999D01*
G01*
X90108000Y-97616001D01*
G75*
G02*
X89858001Y-97866000I-249999J0D01*
G01*
X88957999Y-97866000D01*
G75*
G02*
X88708000Y-97616001I0J249999D01*
G01*
X88708000Y-96965999D01*
G75*
G02*
X88957999Y-96716000I249999J0D01*
G01*
G37*
G36*
G01*
X88957999Y-94666000D02*
X89858001Y-94666000D01*
G75*
G02*
X90108000Y-94915999I0J-249999D01*
G01*
X90108000Y-95566001D01*
G75*
G02*
X89858001Y-95816000I-249999J0D01*
G01*
X88957999Y-95816000D01*
G75*
G02*
X88708000Y-95566001I0J249999D01*
G01*
X88708000Y-94915999D01*
G75*
G02*
X88957999Y-94666000I249999J0D01*
G01*
G37*
G36*
G01*
X120338001Y-90736000D02*
X119437999Y-90736000D01*
G75*
G02*
X119188000Y-90486001I0J249999D01*
G01*
X119188000Y-89835999D01*
G75*
G02*
X119437999Y-89586000I249999J0D01*
G01*
X120338001Y-89586000D01*
G75*
G02*
X120588000Y-89835999I0J-249999D01*
G01*
X120588000Y-90486001D01*
G75*
G02*
X120338001Y-90736000I-249999J0D01*
G01*
G37*
G36*
G01*
X120338001Y-92786000D02*
X119437999Y-92786000D01*
G75*
G02*
X119188000Y-92536001I0J249999D01*
G01*
X119188000Y-91885999D01*
G75*
G02*
X119437999Y-91636000I249999J0D01*
G01*
X120338001Y-91636000D01*
G75*
G02*
X120588000Y-91885999I0J-249999D01*
G01*
X120588000Y-92536001D01*
G75*
G02*
X120338001Y-92786000I-249999J0D01*
G01*
G37*
G36*
G01*
X66225000Y-87370499D02*
X66225000Y-88270501D01*
G75*
G02*
X65975001Y-88520500I-249999J0D01*
G01*
X65324999Y-88520500D01*
G75*
G02*
X65075000Y-88270501I0J249999D01*
G01*
X65075000Y-87370499D01*
G75*
G02*
X65324999Y-87120500I249999J0D01*
G01*
X65975001Y-87120500D01*
G75*
G02*
X66225000Y-87370499I0J-249999D01*
G01*
G37*
G36*
G01*
X68275000Y-87370499D02*
X68275000Y-88270501D01*
G75*
G02*
X68025001Y-88520500I-249999J0D01*
G01*
X67374999Y-88520500D01*
G75*
G02*
X67125000Y-88270501I0J249999D01*
G01*
X67125000Y-87370499D01*
G75*
G02*
X67374999Y-87120500I249999J0D01*
G01*
X68025001Y-87120500D01*
G75*
G02*
X68275000Y-87370499I0J-249999D01*
G01*
G37*
G36*
G01*
X66225000Y-89910499D02*
X66225000Y-90810501D01*
G75*
G02*
X65975001Y-91060500I-249999J0D01*
G01*
X65324999Y-91060500D01*
G75*
G02*
X65075000Y-90810501I0J249999D01*
G01*
X65075000Y-89910499D01*
G75*
G02*
X65324999Y-89660500I249999J0D01*
G01*
X65975001Y-89660500D01*
G75*
G02*
X66225000Y-89910499I0J-249999D01*
G01*
G37*
G36*
G01*
X68275000Y-89910499D02*
X68275000Y-90810501D01*
G75*
G02*
X68025001Y-91060500I-249999J0D01*
G01*
X67374999Y-91060500D01*
G75*
G02*
X67125000Y-90810501I0J249999D01*
G01*
X67125000Y-89910499D01*
G75*
G02*
X67374999Y-89660500I249999J0D01*
G01*
X68025001Y-89660500D01*
G75*
G02*
X68275000Y-89910499I0J-249999D01*
G01*
G37*
G36*
G01*
X90736000Y-77083499D02*
X90736000Y-77983501D01*
G75*
G02*
X90486001Y-78233500I-249999J0D01*
G01*
X89835999Y-78233500D01*
G75*
G02*
X89586000Y-77983501I0J249999D01*
G01*
X89586000Y-77083499D01*
G75*
G02*
X89835999Y-76833500I249999J0D01*
G01*
X90486001Y-76833500D01*
G75*
G02*
X90736000Y-77083499I0J-249999D01*
G01*
G37*
G36*
G01*
X92786000Y-77083499D02*
X92786000Y-77983501D01*
G75*
G02*
X92536001Y-78233500I-249999J0D01*
G01*
X91885999Y-78233500D01*
G75*
G02*
X91636000Y-77983501I0J249999D01*
G01*
X91636000Y-77083499D01*
G75*
G02*
X91885999Y-76833500I249999J0D01*
G01*
X92536001Y-76833500D01*
G75*
G02*
X92786000Y-77083499I0J-249999D01*
G01*
G37*
G36*
G01*
X73411501Y-46730500D02*
X72511499Y-46730500D01*
G75*
G02*
X72261500Y-46480501I0J249999D01*
G01*
X72261500Y-45830499D01*
G75*
G02*
X72511499Y-45580500I249999J0D01*
G01*
X73411501Y-45580500D01*
G75*
G02*
X73661500Y-45830499I0J-249999D01*
G01*
X73661500Y-46480501D01*
G75*
G02*
X73411501Y-46730500I-249999J0D01*
G01*
G37*
G36*
G01*
X73411501Y-48780500D02*
X72511499Y-48780500D01*
G75*
G02*
X72261500Y-48530501I0J249999D01*
G01*
X72261500Y-47880499D01*
G75*
G02*
X72511499Y-47630500I249999J0D01*
G01*
X73411501Y-47630500D01*
G75*
G02*
X73661500Y-47880499I0J-249999D01*
G01*
X73661500Y-48530501D01*
G75*
G02*
X73411501Y-48780500I-249999J0D01*
G01*
G37*
G36*
G01*
X87534000Y-81360000D02*
X87534000Y-81835000D01*
G75*
G02*
X87296500Y-82072500I-237500J0D01*
G01*
X86721500Y-82072500D01*
G75*
G02*
X86484000Y-81835000I0J237500D01*
G01*
X86484000Y-81360000D01*
G75*
G02*
X86721500Y-81122500I237500J0D01*
G01*
X87296500Y-81122500D01*
G75*
G02*
X87534000Y-81360000I0J-237500D01*
G01*
G37*
G36*
G01*
X89284000Y-81360000D02*
X89284000Y-81835000D01*
G75*
G02*
X89046500Y-82072500I-237500J0D01*
G01*
X88471500Y-82072500D01*
G75*
G02*
X88234000Y-81835000I0J237500D01*
G01*
X88234000Y-81360000D01*
G75*
G02*
X88471500Y-81122500I237500J0D01*
G01*
X89046500Y-81122500D01*
G75*
G02*
X89284000Y-81360000I0J-237500D01*
G01*
G37*
G36*
G01*
X77247000Y-82630000D02*
X77247000Y-83105000D01*
G75*
G02*
X77009500Y-83342500I-237500J0D01*
G01*
X76434500Y-83342500D01*
G75*
G02*
X76197000Y-83105000I0J237500D01*
G01*
X76197000Y-82630000D01*
G75*
G02*
X76434500Y-82392500I237500J0D01*
G01*
X77009500Y-82392500D01*
G75*
G02*
X77247000Y-82630000I0J-237500D01*
G01*
G37*
G36*
G01*
X78997000Y-82630000D02*
X78997000Y-83105000D01*
G75*
G02*
X78759500Y-83342500I-237500J0D01*
G01*
X78184500Y-83342500D01*
G75*
G02*
X77947000Y-83105000I0J237500D01*
G01*
X77947000Y-82630000D01*
G75*
G02*
X78184500Y-82392500I237500J0D01*
G01*
X78759500Y-82392500D01*
G75*
G02*
X78997000Y-82630000I0J-237500D01*
G01*
G37*
G36*
G01*
X129317000Y-64088000D02*
X129317000Y-64563000D01*
G75*
G02*
X129079500Y-64800500I-237500J0D01*
G01*
X128504500Y-64800500D01*
G75*
G02*
X128267000Y-64563000I0J237500D01*
G01*
X128267000Y-64088000D01*
G75*
G02*
X128504500Y-63850500I237500J0D01*
G01*
X129079500Y-63850500D01*
G75*
G02*
X129317000Y-64088000I0J-237500D01*
G01*
G37*
G36*
G01*
X131067000Y-64088000D02*
X131067000Y-64563000D01*
G75*
G02*
X130829500Y-64800500I-237500J0D01*
G01*
X130254500Y-64800500D01*
G75*
G02*
X130017000Y-64563000I0J237500D01*
G01*
X130017000Y-64088000D01*
G75*
G02*
X130254500Y-63850500I237500J0D01*
G01*
X130829500Y-63850500D01*
G75*
G02*
X131067000Y-64088000I0J-237500D01*
G01*
G37*
G36*
G01*
X69207801Y-93707800D02*
X68307799Y-93707800D01*
G75*
G02*
X68057800Y-93457801I0J249999D01*
G01*
X68057800Y-92807799D01*
G75*
G02*
X68307799Y-92557800I249999J0D01*
G01*
X69207801Y-92557800D01*
G75*
G02*
X69457800Y-92807799I0J-249999D01*
G01*
X69457800Y-93457801D01*
G75*
G02*
X69207801Y-93707800I-249999J0D01*
G01*
G37*
G36*
G01*
X69207801Y-95757800D02*
X68307799Y-95757800D01*
G75*
G02*
X68057800Y-95507801I0J249999D01*
G01*
X68057800Y-94857799D01*
G75*
G02*
X68307799Y-94607800I249999J0D01*
G01*
X69207801Y-94607800D01*
G75*
G02*
X69457800Y-94857799I0J-249999D01*
G01*
X69457800Y-95507801D01*
G75*
G02*
X69207801Y-95757800I-249999J0D01*
G01*
G37*
G36*
G01*
X71697001Y-93691400D02*
X70796999Y-93691400D01*
G75*
G02*
X70547000Y-93441401I0J249999D01*
G01*
X70547000Y-92791399D01*
G75*
G02*
X70796999Y-92541400I249999J0D01*
G01*
X71697001Y-92541400D01*
G75*
G02*
X71947000Y-92791399I0J-249999D01*
G01*
X71947000Y-93441401D01*
G75*
G02*
X71697001Y-93691400I-249999J0D01*
G01*
G37*
G36*
G01*
X71697001Y-95741400D02*
X70796999Y-95741400D01*
G75*
G02*
X70547000Y-95491401I0J249999D01*
G01*
X70547000Y-94841399D01*
G75*
G02*
X70796999Y-94591400I249999J0D01*
G01*
X71697001Y-94591400D01*
G75*
G02*
X71947000Y-94841399I0J-249999D01*
G01*
X71947000Y-95491401D01*
G75*
G02*
X71697001Y-95741400I-249999J0D01*
G01*
G37*
G36*
G01*
X73411501Y-50667500D02*
X72511499Y-50667500D01*
G75*
G02*
X72261500Y-50417501I0J249999D01*
G01*
X72261500Y-49767499D01*
G75*
G02*
X72511499Y-49517500I249999J0D01*
G01*
X73411501Y-49517500D01*
G75*
G02*
X73661500Y-49767499I0J-249999D01*
G01*
X73661500Y-50417501D01*
G75*
G02*
X73411501Y-50667500I-249999J0D01*
G01*
G37*
G36*
G01*
X73411501Y-52717500D02*
X72511499Y-52717500D01*
G75*
G02*
X72261500Y-52467501I0J249999D01*
G01*
X72261500Y-51817499D01*
G75*
G02*
X72511499Y-51567500I249999J0D01*
G01*
X73411501Y-51567500D01*
G75*
G02*
X73661500Y-51817499I0J-249999D01*
G01*
X73661500Y-52467501D01*
G75*
G02*
X73411501Y-52717500I-249999J0D01*
G01*
G37*
G36*
G01*
X70122200Y-66693201D02*
X70122200Y-65793199D01*
G75*
G02*
X70372199Y-65543200I249999J0D01*
G01*
X71022201Y-65543200D01*
G75*
G02*
X71272200Y-65793199I0J-249999D01*
G01*
X71272200Y-66693201D01*
G75*
G02*
X71022201Y-66943200I-249999J0D01*
G01*
X70372199Y-66943200D01*
G75*
G02*
X70122200Y-66693201I0J249999D01*
G01*
G37*
G36*
G01*
X68072200Y-66693201D02*
X68072200Y-65793199D01*
G75*
G02*
X68322199Y-65543200I249999J0D01*
G01*
X68972201Y-65543200D01*
G75*
G02*
X69222200Y-65793199I0J-249999D01*
G01*
X69222200Y-66693201D01*
G75*
G02*
X68972201Y-66943200I-249999J0D01*
G01*
X68322199Y-66943200D01*
G75*
G02*
X68072200Y-66693201I0J249999D01*
G01*
G37*
G36*
G01*
X70122200Y-69030001D02*
X70122200Y-68129999D01*
G75*
G02*
X70372199Y-67880000I249999J0D01*
G01*
X71022201Y-67880000D01*
G75*
G02*
X71272200Y-68129999I0J-249999D01*
G01*
X71272200Y-69030001D01*
G75*
G02*
X71022201Y-69280000I-249999J0D01*
G01*
X70372199Y-69280000D01*
G75*
G02*
X70122200Y-69030001I0J249999D01*
G01*
G37*
G36*
G01*
X68072200Y-69030001D02*
X68072200Y-68129999D01*
G75*
G02*
X68322199Y-67880000I249999J0D01*
G01*
X68972201Y-67880000D01*
G75*
G02*
X69222200Y-68129999I0J-249999D01*
G01*
X69222200Y-69030001D01*
G75*
G02*
X68972201Y-69280000I-249999J0D01*
G01*
X68322199Y-69280000D01*
G75*
G02*
X68072200Y-69030001I0J249999D01*
G01*
G37*
G36*
G01*
X73602000Y-55060001D02*
X73602000Y-54159999D01*
G75*
G02*
X73851999Y-53910000I249999J0D01*
G01*
X74502001Y-53910000D01*
G75*
G02*
X74752000Y-54159999I0J-249999D01*
G01*
X74752000Y-55060001D01*
G75*
G02*
X74502001Y-55310000I-249999J0D01*
G01*
X73851999Y-55310000D01*
G75*
G02*
X73602000Y-55060001I0J249999D01*
G01*
G37*
G36*
G01*
X71552000Y-55060001D02*
X71552000Y-54159999D01*
G75*
G02*
X71801999Y-53910000I249999J0D01*
G01*
X72452001Y-53910000D01*
G75*
G02*
X72702000Y-54159999I0J-249999D01*
G01*
X72702000Y-55060001D01*
G75*
G02*
X72452001Y-55310000I-249999J0D01*
G01*
X71801999Y-55310000D01*
G75*
G02*
X71552000Y-55060001I0J249999D01*
G01*
G37*
G36*
G01*
X77920000Y-55060001D02*
X77920000Y-54159999D01*
G75*
G02*
X78169999Y-53910000I249999J0D01*
G01*
X78820001Y-53910000D01*
G75*
G02*
X79070000Y-54159999I0J-249999D01*
G01*
X79070000Y-55060001D01*
G75*
G02*
X78820001Y-55310000I-249999J0D01*
G01*
X78169999Y-55310000D01*
G75*
G02*
X77920000Y-55060001I0J249999D01*
G01*
G37*
G36*
G01*
X75870000Y-55060001D02*
X75870000Y-54159999D01*
G75*
G02*
X76119999Y-53910000I249999J0D01*
G01*
X76770001Y-53910000D01*
G75*
G02*
X77020000Y-54159999I0J-249999D01*
G01*
X77020000Y-55060001D01*
G75*
G02*
X76770001Y-55310000I-249999J0D01*
G01*
X76119999Y-55310000D01*
G75*
G02*
X75870000Y-55060001I0J249999D01*
G01*
G37*
G36*
G01*
X66606000Y-32569999D02*
X66606000Y-33470001D01*
G75*
G02*
X66356001Y-33720000I-249999J0D01*
G01*
X65705999Y-33720000D01*
G75*
G02*
X65456000Y-33470001I0J249999D01*
G01*
X65456000Y-32569999D01*
G75*
G02*
X65705999Y-32320000I249999J0D01*
G01*
X66356001Y-32320000D01*
G75*
G02*
X66606000Y-32569999I0J-249999D01*
G01*
G37*
G36*
G01*
X68656000Y-32569999D02*
X68656000Y-33470001D01*
G75*
G02*
X68406001Y-33720000I-249999J0D01*
G01*
X67755999Y-33720000D01*
G75*
G02*
X67506000Y-33470001I0J249999D01*
G01*
X67506000Y-32569999D01*
G75*
G02*
X67755999Y-32320000I249999J0D01*
G01*
X68406001Y-32320000D01*
G75*
G02*
X68656000Y-32569999I0J-249999D01*
G01*
G37*
G36*
G01*
X61526000Y-32569999D02*
X61526000Y-33470001D01*
G75*
G02*
X61276001Y-33720000I-249999J0D01*
G01*
X60625999Y-33720000D01*
G75*
G02*
X60376000Y-33470001I0J249999D01*
G01*
X60376000Y-32569999D01*
G75*
G02*
X60625999Y-32320000I249999J0D01*
G01*
X61276001Y-32320000D01*
G75*
G02*
X61526000Y-32569999I0J-249999D01*
G01*
G37*
G36*
G01*
X63576000Y-32569999D02*
X63576000Y-33470001D01*
G75*
G02*
X63326001Y-33720000I-249999J0D01*
G01*
X62675999Y-33720000D01*
G75*
G02*
X62426000Y-33470001I0J249999D01*
G01*
X62426000Y-32569999D01*
G75*
G02*
X62675999Y-32320000I249999J0D01*
G01*
X63326001Y-32320000D01*
G75*
G02*
X63576000Y-32569999I0J-249999D01*
G01*
G37*
G36*
G01*
X102102500Y-62033999D02*
X102102500Y-62934001D01*
G75*
G02*
X101852501Y-63184000I-249999J0D01*
G01*
X101202499Y-63184000D01*
G75*
G02*
X100952500Y-62934001I0J249999D01*
G01*
X100952500Y-62033999D01*
G75*
G02*
X101202499Y-61784000I249999J0D01*
G01*
X101852501Y-61784000D01*
G75*
G02*
X102102500Y-62033999I0J-249999D01*
G01*
G37*
G36*
G01*
X104152500Y-62033999D02*
X104152500Y-62934001D01*
G75*
G02*
X103902501Y-63184000I-249999J0D01*
G01*
X103252499Y-63184000D01*
G75*
G02*
X103002500Y-62934001I0J249999D01*
G01*
X103002500Y-62033999D01*
G75*
G02*
X103252499Y-61784000I249999J0D01*
G01*
X103902501Y-61784000D01*
G75*
G02*
X104152500Y-62033999I0J-249999D01*
G01*
G37*
G36*
G01*
X102102500Y-60001999D02*
X102102500Y-60902001D01*
G75*
G02*
X101852501Y-61152000I-249999J0D01*
G01*
X101202499Y-61152000D01*
G75*
G02*
X100952500Y-60902001I0J249999D01*
G01*
X100952500Y-60001999D01*
G75*
G02*
X101202499Y-59752000I249999J0D01*
G01*
X101852501Y-59752000D01*
G75*
G02*
X102102500Y-60001999I0J-249999D01*
G01*
G37*
G36*
G01*
X104152500Y-60001999D02*
X104152500Y-60902001D01*
G75*
G02*
X103902501Y-61152000I-249999J0D01*
G01*
X103252499Y-61152000D01*
G75*
G02*
X103002500Y-60902001I0J249999D01*
G01*
X103002500Y-60001999D01*
G75*
G02*
X103252499Y-59752000I249999J0D01*
G01*
X103902501Y-59752000D01*
G75*
G02*
X104152500Y-60001999I0J-249999D01*
G01*
G37*
G36*
G01*
X88080000Y-84587501D02*
X88080000Y-83687499D01*
G75*
G02*
X88329999Y-83437500I249999J0D01*
G01*
X88980001Y-83437500D01*
G75*
G02*
X89230000Y-83687499I0J-249999D01*
G01*
X89230000Y-84587501D01*
G75*
G02*
X88980001Y-84837500I-249999J0D01*
G01*
X88329999Y-84837500D01*
G75*
G02*
X88080000Y-84587501I0J249999D01*
G01*
G37*
G36*
G01*
X86030000Y-84587501D02*
X86030000Y-83687499D01*
G75*
G02*
X86279999Y-83437500I249999J0D01*
G01*
X86930001Y-83437500D01*
G75*
G02*
X87180000Y-83687499I0J-249999D01*
G01*
X87180000Y-84587501D01*
G75*
G02*
X86930001Y-84837500I-249999J0D01*
G01*
X86279999Y-84837500D01*
G75*
G02*
X86030000Y-84587501I0J249999D01*
G01*
G37*
G36*
G01*
X87180000Y-86481499D02*
X87180000Y-87381501D01*
G75*
G02*
X86930001Y-87631500I-249999J0D01*
G01*
X86279999Y-87631500D01*
G75*
G02*
X86030000Y-87381501I0J249999D01*
G01*
X86030000Y-86481499D01*
G75*
G02*
X86279999Y-86231500I249999J0D01*
G01*
X86930001Y-86231500D01*
G75*
G02*
X87180000Y-86481499I0J-249999D01*
G01*
G37*
G36*
G01*
X89230000Y-86481499D02*
X89230000Y-87381501D01*
G75*
G02*
X88980001Y-87631500I-249999J0D01*
G01*
X88329999Y-87631500D01*
G75*
G02*
X88080000Y-87381501I0J249999D01*
G01*
X88080000Y-86481499D01*
G75*
G02*
X88329999Y-86231500I249999J0D01*
G01*
X88980001Y-86231500D01*
G75*
G02*
X89230000Y-86481499I0J-249999D01*
G01*
G37*
D12*
X66675000Y-36136000D03*
X69215000Y-36136000D03*
X69215000Y-44636000D03*
X66675000Y-44636000D03*
X60960000Y-36136000D03*
X63500000Y-36136000D03*
X63500000Y-44636000D03*
X60960000Y-44636000D03*
D15*
X94300000Y-91059000D03*
X96200000Y-91059000D03*
X87564000Y-75565000D03*
X85664000Y-75565000D03*
X79060000Y-51562000D03*
X80960000Y-51562000D03*
D16*
X120332500Y-49659500D03*
X120332500Y-51559500D03*
D15*
X112080000Y-93218000D03*
X113980000Y-93218000D03*
D16*
X126174500Y-78869500D03*
X126174500Y-80769500D03*
X131826000Y-92268000D03*
X131826000Y-94168000D03*
X122428000Y-94168000D03*
X122428000Y-92268000D03*
X91694000Y-97216000D03*
X91694000Y-95316000D03*
D17*
X101136900Y-83849500D03*
X101136900Y-84499500D03*
X101136900Y-85149500D03*
X101136900Y-85799500D03*
X101136900Y-86449500D03*
X101136900Y-87099500D03*
X101136900Y-87749500D03*
X101136900Y-88399500D03*
X101136900Y-89049500D03*
X101136900Y-89699500D03*
X101136900Y-90349500D03*
X101136900Y-90999500D03*
X101136900Y-91649500D03*
X101136900Y-92299500D03*
X108336900Y-92299500D03*
X108336900Y-91649500D03*
X108336900Y-90999500D03*
X108336900Y-90349500D03*
X108336900Y-89699500D03*
X108336900Y-89049500D03*
X108336900Y-88399500D03*
X108336900Y-87749500D03*
X108336900Y-87099500D03*
X108336900Y-86449500D03*
X108336900Y-85799500D03*
X108336900Y-85149500D03*
X108336900Y-84499500D03*
X108336900Y-83849500D03*
D18*
X125828500Y-51409500D03*
X125828500Y-49809500D03*
X127028500Y-51409500D03*
X127028500Y-49809500D03*
D19*
X129128500Y-52514500D03*
X129128500Y-51244500D03*
X129128500Y-49974500D03*
X129128500Y-48704500D03*
X123728500Y-48704500D03*
X123728500Y-49974500D03*
X123728500Y-51244500D03*
X123728500Y-52514500D03*
G36*
G01*
X77832500Y-36742000D02*
X77832500Y-32092000D01*
G75*
G02*
X78082500Y-31842000I250000J0D01*
G01*
X80232500Y-31842000D01*
G75*
G02*
X80482500Y-32092000I0J-250000D01*
G01*
X80482500Y-36742000D01*
G75*
G02*
X80232500Y-36992000I-250000J0D01*
G01*
X78082500Y-36992000D01*
G75*
G02*
X77832500Y-36742000I0J250000D01*
G01*
G37*
G36*
G01*
X71282500Y-36742000D02*
X71282500Y-32092000D01*
G75*
G02*
X71532500Y-31842000I250000J0D01*
G01*
X73682500Y-31842000D01*
G75*
G02*
X73932500Y-32092000I0J-250000D01*
G01*
X73932500Y-36742000D01*
G75*
G02*
X73682500Y-36992000I-250000J0D01*
G01*
X71532500Y-36992000D01*
G75*
G02*
X71282500Y-36742000I0J250000D01*
G01*
G37*
G36*
G01*
X71282500Y-43790500D02*
X71282500Y-39140500D01*
G75*
G02*
X71532500Y-38890500I250000J0D01*
G01*
X73682500Y-38890500D01*
G75*
G02*
X73932500Y-39140500I0J-250000D01*
G01*
X73932500Y-43790500D01*
G75*
G02*
X73682500Y-44040500I-250000J0D01*
G01*
X71532500Y-44040500D01*
G75*
G02*
X71282500Y-43790500I0J250000D01*
G01*
G37*
G36*
G01*
X77832500Y-43790500D02*
X77832500Y-39140500D01*
G75*
G02*
X78082500Y-38890500I250000J0D01*
G01*
X80232500Y-38890500D01*
G75*
G02*
X80482500Y-39140500I0J-250000D01*
G01*
X80482500Y-43790500D01*
G75*
G02*
X80232500Y-44040500I-250000J0D01*
G01*
X78082500Y-44040500D01*
G75*
G02*
X77832500Y-43790500I0J250000D01*
G01*
G37*
G36*
G01*
X72568000Y-78364501D02*
X72568000Y-77464499D01*
G75*
G02*
X72817999Y-77214500I249999J0D01*
G01*
X73468001Y-77214500D01*
G75*
G02*
X73718000Y-77464499I0J-249999D01*
G01*
X73718000Y-78364501D01*
G75*
G02*
X73468001Y-78614500I-249999J0D01*
G01*
X72817999Y-78614500D01*
G75*
G02*
X72568000Y-78364501I0J249999D01*
G01*
G37*
G36*
G01*
X74618000Y-78364501D02*
X74618000Y-77464499D01*
G75*
G02*
X74867999Y-77214500I249999J0D01*
G01*
X75518001Y-77214500D01*
G75*
G02*
X75768000Y-77464499I0J-249999D01*
G01*
X75768000Y-78364501D01*
G75*
G02*
X75518001Y-78614500I-249999J0D01*
G01*
X74867999Y-78614500D01*
G75*
G02*
X74618000Y-78364501I0J249999D01*
G01*
G37*
G36*
G01*
X70744501Y-75768000D02*
X69844499Y-75768000D01*
G75*
G02*
X69594500Y-75518001I0J249999D01*
G01*
X69594500Y-74867999D01*
G75*
G02*
X69844499Y-74618000I249999J0D01*
G01*
X70744501Y-74618000D01*
G75*
G02*
X70994500Y-74867999I0J-249999D01*
G01*
X70994500Y-75518001D01*
G75*
G02*
X70744501Y-75768000I-249999J0D01*
G01*
G37*
G36*
G01*
X70744501Y-73718000D02*
X69844499Y-73718000D01*
G75*
G02*
X69594500Y-73468001I0J249999D01*
G01*
X69594500Y-72817999D01*
G75*
G02*
X69844499Y-72568000I249999J0D01*
G01*
X70744501Y-72568000D01*
G75*
G02*
X70994500Y-72817999I0J-249999D01*
G01*
X70994500Y-73468001D01*
G75*
G02*
X70744501Y-73718000I-249999J0D01*
G01*
G37*
G36*
G01*
X94498100Y-82532500D02*
X97398900Y-82532500D01*
G75*
G02*
X97648500Y-82782100I0J-249600D01*
G01*
X97648500Y-83582900D01*
G75*
G02*
X97398900Y-83832500I-249600J0D01*
G01*
X94498100Y-83832500D01*
G75*
G02*
X94248500Y-83582900I0J249600D01*
G01*
X94248500Y-82782100D01*
G75*
G02*
X94498100Y-82532500I249600J0D01*
G01*
G37*
G36*
G01*
X94498500Y-86982500D02*
X97398500Y-86982500D01*
G75*
G02*
X97648500Y-87232500I0J-250000D01*
G01*
X97648500Y-88032500D01*
G75*
G02*
X97398500Y-88282500I-250000J0D01*
G01*
X94498500Y-88282500D01*
G75*
G02*
X94248500Y-88032500I0J250000D01*
G01*
X94248500Y-87232500D01*
G75*
G02*
X94498500Y-86982500I250000J0D01*
G01*
G37*
G36*
G01*
X99741000Y-80190000D02*
X99741000Y-77290000D01*
G75*
G02*
X99991000Y-77040000I250000J0D01*
G01*
X100791000Y-77040000D01*
G75*
G02*
X101041000Y-77290000I0J-250000D01*
G01*
X101041000Y-80190000D01*
G75*
G02*
X100791000Y-80440000I-250000J0D01*
G01*
X99991000Y-80440000D01*
G75*
G02*
X99741000Y-80190000I0J250000D01*
G01*
G37*
G36*
G01*
X104191000Y-80190000D02*
X104191000Y-77290000D01*
G75*
G02*
X104441000Y-77040000I250000J0D01*
G01*
X105241000Y-77040000D01*
G75*
G02*
X105491000Y-77290000I0J-250000D01*
G01*
X105491000Y-80190000D01*
G75*
G02*
X105241000Y-80440000I-250000J0D01*
G01*
X104441000Y-80440000D01*
G75*
G02*
X104191000Y-80190000I0J250000D01*
G01*
G37*
G36*
G01*
X108280000Y-77353500D02*
X108280000Y-80253500D01*
G75*
G02*
X108030000Y-80503500I-250000J0D01*
G01*
X107230000Y-80503500D01*
G75*
G02*
X106980000Y-80253500I0J250000D01*
G01*
X106980000Y-77353500D01*
G75*
G02*
X107230000Y-77103500I250000J0D01*
G01*
X108030000Y-77103500D01*
G75*
G02*
X108280000Y-77353500I0J-250000D01*
G01*
G37*
G36*
G01*
X112730000Y-77353500D02*
X112730000Y-80253500D01*
G75*
G02*
X112480000Y-80503500I-250000J0D01*
G01*
X111680000Y-80503500D01*
G75*
G02*
X111430000Y-80253500I0J250000D01*
G01*
X111430000Y-77353500D01*
G75*
G02*
X111680000Y-77103500I250000J0D01*
G01*
X112480000Y-77103500D01*
G75*
G02*
X112730000Y-77353500I0J-250000D01*
G01*
G37*
G36*
G01*
X112151500Y-86919000D02*
X115051500Y-86919000D01*
G75*
G02*
X115301500Y-87169000I0J-250000D01*
G01*
X115301500Y-87969000D01*
G75*
G02*
X115051500Y-88219000I-250000J0D01*
G01*
X112151500Y-88219000D01*
G75*
G02*
X111901500Y-87969000I0J250000D01*
G01*
X111901500Y-87169000D01*
G75*
G02*
X112151500Y-86919000I250000J0D01*
G01*
G37*
G36*
G01*
X112151500Y-82469000D02*
X115051500Y-82469000D01*
G75*
G02*
X115301500Y-82719000I0J-250000D01*
G01*
X115301500Y-83519000D01*
G75*
G02*
X115051500Y-83769000I-250000J0D01*
G01*
X112151500Y-83769000D01*
G75*
G02*
X111901500Y-83519000I0J250000D01*
G01*
X111901500Y-82719000D01*
G75*
G02*
X112151500Y-82469000I250000J0D01*
G01*
G37*
G36*
G01*
X119280499Y-38362000D02*
X121130501Y-38362000D01*
G75*
G02*
X121380500Y-38611999I0J-249999D01*
G01*
X121380500Y-40362001D01*
G75*
G02*
X121130501Y-40612000I-249999J0D01*
G01*
X119280499Y-40612000D01*
G75*
G02*
X119030500Y-40362001I0J249999D01*
G01*
X119030500Y-38611999D01*
G75*
G02*
X119280499Y-38362000I249999J0D01*
G01*
G37*
G36*
G01*
X119280499Y-43462000D02*
X121130501Y-43462000D01*
G75*
G02*
X121380500Y-43711999I0J-249999D01*
G01*
X121380500Y-45462001D01*
G75*
G02*
X121130501Y-45712000I-249999J0D01*
G01*
X119280499Y-45712000D01*
G75*
G02*
X119030500Y-45462001I0J249999D01*
G01*
X119030500Y-43711999D01*
G75*
G02*
X119280499Y-43462000I249999J0D01*
G01*
G37*
G36*
G01*
X88637000Y-40837000D02*
X88637000Y-36887000D01*
G75*
G02*
X88887000Y-36637000I250000J0D01*
G01*
X91587000Y-36637000D01*
G75*
G02*
X91837000Y-36887000I0J-250000D01*
G01*
X91837000Y-40837000D01*
G75*
G02*
X91587000Y-41087000I-250000J0D01*
G01*
X88887000Y-41087000D01*
G75*
G02*
X88637000Y-40837000I0J250000D01*
G01*
G37*
G36*
G01*
X93837000Y-40837000D02*
X93837000Y-36887000D01*
G75*
G02*
X94087000Y-36637000I250000J0D01*
G01*
X96787000Y-36637000D01*
G75*
G02*
X97037000Y-36887000I0J-250000D01*
G01*
X97037000Y-40837000D01*
G75*
G02*
X96787000Y-41087000I-250000J0D01*
G01*
X94087000Y-41087000D01*
G75*
G02*
X93837000Y-40837000I0J250000D01*
G01*
G37*
G36*
G01*
X90523000Y-32920499D02*
X90523000Y-34770501D01*
G75*
G02*
X90273001Y-35020500I-249999J0D01*
G01*
X88522999Y-35020500D01*
G75*
G02*
X88273000Y-34770501I0J249999D01*
G01*
X88273000Y-32920499D01*
G75*
G02*
X88522999Y-32670500I249999J0D01*
G01*
X90273001Y-32670500D01*
G75*
G02*
X90523000Y-32920499I0J-249999D01*
G01*
G37*
G36*
G01*
X95623000Y-32920499D02*
X95623000Y-34770501D01*
G75*
G02*
X95373001Y-35020500I-249999J0D01*
G01*
X93622999Y-35020500D01*
G75*
G02*
X93373000Y-34770501I0J249999D01*
G01*
X93373000Y-32920499D01*
G75*
G02*
X93622999Y-32670500I249999J0D01*
G01*
X95373001Y-32670500D01*
G75*
G02*
X95623000Y-32920499I0J-249999D01*
G01*
G37*
G36*
G01*
X117714201Y-56481600D02*
X115864199Y-56481600D01*
G75*
G02*
X115614200Y-56231601I0J249999D01*
G01*
X115614200Y-54481599D01*
G75*
G02*
X115864199Y-54231600I249999J0D01*
G01*
X117714201Y-54231600D01*
G75*
G02*
X117964200Y-54481599I0J-249999D01*
G01*
X117964200Y-56231601D01*
G75*
G02*
X117714201Y-56481600I-249999J0D01*
G01*
G37*
G36*
G01*
X117714201Y-51381600D02*
X115864199Y-51381600D01*
G75*
G02*
X115614200Y-51131601I0J249999D01*
G01*
X115614200Y-49381599D01*
G75*
G02*
X115864199Y-49131600I249999J0D01*
G01*
X117714201Y-49131600D01*
G75*
G02*
X117964200Y-49381599I0J-249999D01*
G01*
X117964200Y-51131601D01*
G75*
G02*
X117714201Y-51381600I-249999J0D01*
G01*
G37*
G36*
G01*
X78936000Y-77348501D02*
X78936000Y-76448499D01*
G75*
G02*
X79185999Y-76198500I249999J0D01*
G01*
X79836001Y-76198500D01*
G75*
G02*
X80086000Y-76448499I0J-249999D01*
G01*
X80086000Y-77348501D01*
G75*
G02*
X79836001Y-77598500I-249999J0D01*
G01*
X79185999Y-77598500D01*
G75*
G02*
X78936000Y-77348501I0J249999D01*
G01*
G37*
G36*
G01*
X76886000Y-77348501D02*
X76886000Y-76448499D01*
G75*
G02*
X77135999Y-76198500I249999J0D01*
G01*
X77786001Y-76198500D01*
G75*
G02*
X78036000Y-76448499I0J-249999D01*
G01*
X78036000Y-77348501D01*
G75*
G02*
X77786001Y-77598500I-249999J0D01*
G01*
X77135999Y-77598500D01*
G75*
G02*
X76886000Y-77348501I0J249999D01*
G01*
G37*
G36*
G01*
X76886000Y-74999001D02*
X76886000Y-74098999D01*
G75*
G02*
X77135999Y-73849000I249999J0D01*
G01*
X77786001Y-73849000D01*
G75*
G02*
X78036000Y-74098999I0J-249999D01*
G01*
X78036000Y-74999001D01*
G75*
G02*
X77786001Y-75249000I-249999J0D01*
G01*
X77135999Y-75249000D01*
G75*
G02*
X76886000Y-74999001I0J249999D01*
G01*
G37*
G36*
G01*
X78936000Y-74999001D02*
X78936000Y-74098999D01*
G75*
G02*
X79185999Y-73849000I249999J0D01*
G01*
X79836001Y-73849000D01*
G75*
G02*
X80086000Y-74098999I0J-249999D01*
G01*
X80086000Y-74999001D01*
G75*
G02*
X79836001Y-75249000I-249999J0D01*
G01*
X79185999Y-75249000D01*
G75*
G02*
X78936000Y-74999001I0J249999D01*
G01*
G37*
M02*
