G04 #@! TF.GenerationSoftware,KiCad,Pcbnew,(5.1.6)-1*
G04 #@! TF.CreationDate,2021-11-01T19:25:02+01:00*
G04 #@! TF.ProjectId,32mz_gauge4_sensors,33326d7a-5f67-4617-9567-65345f73656e,rev?*
G04 #@! TF.SameCoordinates,Original*
G04 #@! TF.FileFunction,Paste,Top*
G04 #@! TF.FilePolarity,Positive*
%FSLAX46Y46*%
G04 Gerber Fmt 4.6, Leading zero omitted, Abs format (unit mm)*
G04 Created by KiCad (PCBNEW (5.1.6)-1) date 2021-11-01 19:25:02*
%MOMM*%
%LPD*%
G01*
G04 APERTURE LIST*
%ADD10C,0.010000*%
%ADD11R,0.300000X1.500000*%
%ADD12R,1.500000X0.300000*%
%ADD13R,1.200000X0.750000*%
%ADD14R,0.750000X1.200000*%
%ADD15R,2.750000X3.050000*%
%ADD16R,1.200000X2.200000*%
%ADD17R,1.800000X1.540000*%
%ADD18R,0.600000X1.970000*%
G04 APERTURE END LIST*
D10*
G36*
X93328000Y-60504000D02*
G01*
X93328000Y-61084000D01*
X92608000Y-61084000D01*
X92608000Y-60504000D01*
X93328000Y-60504000D01*
G37*
X93328000Y-60504000D02*
X93328000Y-61084000D01*
X92608000Y-61084000D01*
X92608000Y-60504000D01*
X93328000Y-60504000D01*
G36*
X94328000Y-60504000D02*
G01*
X94328000Y-61084000D01*
X93608000Y-61084000D01*
X93608000Y-60504000D01*
X94328000Y-60504000D01*
G37*
X94328000Y-60504000D02*
X94328000Y-61084000D01*
X93608000Y-61084000D01*
X93608000Y-60504000D01*
X94328000Y-60504000D01*
G36*
X93328000Y-61364000D02*
G01*
X93328000Y-61944000D01*
X92608000Y-61944000D01*
X92608000Y-61364000D01*
X93328000Y-61364000D01*
G37*
X93328000Y-61364000D02*
X93328000Y-61944000D01*
X92608000Y-61944000D01*
X92608000Y-61364000D01*
X93328000Y-61364000D01*
G36*
X94328000Y-61364000D02*
G01*
X94328000Y-61944000D01*
X93608000Y-61944000D01*
X93608000Y-61364000D01*
X94328000Y-61364000D01*
G37*
X94328000Y-61364000D02*
X94328000Y-61944000D01*
X93608000Y-61944000D01*
X93608000Y-61364000D01*
X94328000Y-61364000D01*
G36*
X93328000Y-62404000D02*
G01*
X93328000Y-62984000D01*
X92608000Y-62984000D01*
X92608000Y-62404000D01*
X93328000Y-62404000D01*
G37*
X93328000Y-62404000D02*
X93328000Y-62984000D01*
X92608000Y-62984000D01*
X92608000Y-62404000D01*
X93328000Y-62404000D01*
G36*
X94328000Y-62404000D02*
G01*
X94328000Y-62984000D01*
X93608000Y-62984000D01*
X93608000Y-62404000D01*
X94328000Y-62404000D01*
G37*
X94328000Y-62404000D02*
X94328000Y-62984000D01*
X93608000Y-62984000D01*
X93608000Y-62404000D01*
X94328000Y-62404000D01*
G36*
X93328000Y-63264000D02*
G01*
X93328000Y-63844000D01*
X92608000Y-63844000D01*
X92608000Y-63264000D01*
X93328000Y-63264000D01*
G37*
X93328000Y-63264000D02*
X93328000Y-63844000D01*
X92608000Y-63844000D01*
X92608000Y-63264000D01*
X93328000Y-63264000D01*
G36*
X94328000Y-63264000D02*
G01*
X94328000Y-63844000D01*
X93608000Y-63844000D01*
X93608000Y-63264000D01*
X94328000Y-63264000D01*
G37*
X94328000Y-63264000D02*
X94328000Y-63844000D01*
X93608000Y-63844000D01*
X93608000Y-63264000D01*
X94328000Y-63264000D01*
G36*
X93328000Y-64304000D02*
G01*
X93328000Y-64884000D01*
X92608000Y-64884000D01*
X92608000Y-64304000D01*
X93328000Y-64304000D01*
G37*
X93328000Y-64304000D02*
X93328000Y-64884000D01*
X92608000Y-64884000D01*
X92608000Y-64304000D01*
X93328000Y-64304000D01*
G36*
X94328000Y-64304000D02*
G01*
X94328000Y-64884000D01*
X93608000Y-64884000D01*
X93608000Y-64304000D01*
X94328000Y-64304000D01*
G37*
X94328000Y-64304000D02*
X94328000Y-64884000D01*
X93608000Y-64884000D01*
X93608000Y-64304000D01*
X94328000Y-64304000D01*
G36*
X93328000Y-65164000D02*
G01*
X93328000Y-65744000D01*
X92608000Y-65744000D01*
X92608000Y-65164000D01*
X93328000Y-65164000D01*
G37*
X93328000Y-65164000D02*
X93328000Y-65744000D01*
X92608000Y-65744000D01*
X92608000Y-65164000D01*
X93328000Y-65164000D01*
G36*
X94328000Y-65164000D02*
G01*
X94328000Y-65744000D01*
X93608000Y-65744000D01*
X93608000Y-65164000D01*
X94328000Y-65164000D01*
G37*
X94328000Y-65164000D02*
X94328000Y-65744000D01*
X93608000Y-65744000D01*
X93608000Y-65164000D01*
X94328000Y-65164000D01*
G36*
X93328000Y-66204000D02*
G01*
X93328000Y-66784000D01*
X92608000Y-66784000D01*
X92608000Y-66204000D01*
X93328000Y-66204000D01*
G37*
X93328000Y-66204000D02*
X93328000Y-66784000D01*
X92608000Y-66784000D01*
X92608000Y-66204000D01*
X93328000Y-66204000D01*
G36*
X94328000Y-66204000D02*
G01*
X94328000Y-66784000D01*
X93608000Y-66784000D01*
X93608000Y-66204000D01*
X94328000Y-66204000D01*
G37*
X94328000Y-66204000D02*
X94328000Y-66784000D01*
X93608000Y-66784000D01*
X93608000Y-66204000D01*
X94328000Y-66204000D01*
G36*
X93328000Y-67064000D02*
G01*
X93328000Y-67644000D01*
X92608000Y-67644000D01*
X92608000Y-67064000D01*
X93328000Y-67064000D01*
G37*
X93328000Y-67064000D02*
X93328000Y-67644000D01*
X92608000Y-67644000D01*
X92608000Y-67064000D01*
X93328000Y-67064000D01*
G36*
X94328000Y-67064000D02*
G01*
X94328000Y-67644000D01*
X93608000Y-67644000D01*
X93608000Y-67064000D01*
X94328000Y-67064000D01*
G37*
X94328000Y-67064000D02*
X94328000Y-67644000D01*
X93608000Y-67644000D01*
X93608000Y-67064000D01*
X94328000Y-67064000D01*
G36*
X93328000Y-68104000D02*
G01*
X93328000Y-68684000D01*
X92608000Y-68684000D01*
X92608000Y-68104000D01*
X93328000Y-68104000D01*
G37*
X93328000Y-68104000D02*
X93328000Y-68684000D01*
X92608000Y-68684000D01*
X92608000Y-68104000D01*
X93328000Y-68104000D01*
G36*
X94328000Y-68104000D02*
G01*
X94328000Y-68684000D01*
X93608000Y-68684000D01*
X93608000Y-68104000D01*
X94328000Y-68104000D01*
G37*
X94328000Y-68104000D02*
X94328000Y-68684000D01*
X93608000Y-68684000D01*
X93608000Y-68104000D01*
X94328000Y-68104000D01*
G36*
X93328000Y-68964000D02*
G01*
X93328000Y-69544000D01*
X92608000Y-69544000D01*
X92608000Y-68964000D01*
X93328000Y-68964000D01*
G37*
X93328000Y-68964000D02*
X93328000Y-69544000D01*
X92608000Y-69544000D01*
X92608000Y-68964000D01*
X93328000Y-68964000D01*
G36*
X94328000Y-68964000D02*
G01*
X94328000Y-69544000D01*
X93608000Y-69544000D01*
X93608000Y-68964000D01*
X94328000Y-68964000D01*
G37*
X94328000Y-68964000D02*
X94328000Y-69544000D01*
X93608000Y-69544000D01*
X93608000Y-68964000D01*
X94328000Y-68964000D01*
G36*
X80128000Y-60504000D02*
G01*
X80128000Y-61084000D01*
X79408000Y-61084000D01*
X79408000Y-60504000D01*
X80128000Y-60504000D01*
G37*
X80128000Y-60504000D02*
X80128000Y-61084000D01*
X79408000Y-61084000D01*
X79408000Y-60504000D01*
X80128000Y-60504000D01*
G36*
X81128000Y-60504000D02*
G01*
X81128000Y-61084000D01*
X80408000Y-61084000D01*
X80408000Y-60504000D01*
X81128000Y-60504000D01*
G37*
X81128000Y-60504000D02*
X81128000Y-61084000D01*
X80408000Y-61084000D01*
X80408000Y-60504000D01*
X81128000Y-60504000D01*
G36*
X80128000Y-61364000D02*
G01*
X80128000Y-61944000D01*
X79408000Y-61944000D01*
X79408000Y-61364000D01*
X80128000Y-61364000D01*
G37*
X80128000Y-61364000D02*
X80128000Y-61944000D01*
X79408000Y-61944000D01*
X79408000Y-61364000D01*
X80128000Y-61364000D01*
G36*
X81128000Y-61364000D02*
G01*
X81128000Y-61944000D01*
X80408000Y-61944000D01*
X80408000Y-61364000D01*
X81128000Y-61364000D01*
G37*
X81128000Y-61364000D02*
X81128000Y-61944000D01*
X80408000Y-61944000D01*
X80408000Y-61364000D01*
X81128000Y-61364000D01*
G36*
X80128000Y-62404000D02*
G01*
X80128000Y-62984000D01*
X79408000Y-62984000D01*
X79408000Y-62404000D01*
X80128000Y-62404000D01*
G37*
X80128000Y-62404000D02*
X80128000Y-62984000D01*
X79408000Y-62984000D01*
X79408000Y-62404000D01*
X80128000Y-62404000D01*
G36*
X81128000Y-62404000D02*
G01*
X81128000Y-62984000D01*
X80408000Y-62984000D01*
X80408000Y-62404000D01*
X81128000Y-62404000D01*
G37*
X81128000Y-62404000D02*
X81128000Y-62984000D01*
X80408000Y-62984000D01*
X80408000Y-62404000D01*
X81128000Y-62404000D01*
G36*
X80128000Y-63264000D02*
G01*
X80128000Y-63844000D01*
X79408000Y-63844000D01*
X79408000Y-63264000D01*
X80128000Y-63264000D01*
G37*
X80128000Y-63264000D02*
X80128000Y-63844000D01*
X79408000Y-63844000D01*
X79408000Y-63264000D01*
X80128000Y-63264000D01*
G36*
X81128000Y-63264000D02*
G01*
X81128000Y-63844000D01*
X80408000Y-63844000D01*
X80408000Y-63264000D01*
X81128000Y-63264000D01*
G37*
X81128000Y-63264000D02*
X81128000Y-63844000D01*
X80408000Y-63844000D01*
X80408000Y-63264000D01*
X81128000Y-63264000D01*
G36*
X80128000Y-64304000D02*
G01*
X80128000Y-64884000D01*
X79408000Y-64884000D01*
X79408000Y-64304000D01*
X80128000Y-64304000D01*
G37*
X80128000Y-64304000D02*
X80128000Y-64884000D01*
X79408000Y-64884000D01*
X79408000Y-64304000D01*
X80128000Y-64304000D01*
G36*
X81128000Y-64304000D02*
G01*
X81128000Y-64884000D01*
X80408000Y-64884000D01*
X80408000Y-64304000D01*
X81128000Y-64304000D01*
G37*
X81128000Y-64304000D02*
X81128000Y-64884000D01*
X80408000Y-64884000D01*
X80408000Y-64304000D01*
X81128000Y-64304000D01*
G36*
X80128000Y-65164000D02*
G01*
X80128000Y-65744000D01*
X79408000Y-65744000D01*
X79408000Y-65164000D01*
X80128000Y-65164000D01*
G37*
X80128000Y-65164000D02*
X80128000Y-65744000D01*
X79408000Y-65744000D01*
X79408000Y-65164000D01*
X80128000Y-65164000D01*
G36*
X81128000Y-65164000D02*
G01*
X81128000Y-65744000D01*
X80408000Y-65744000D01*
X80408000Y-65164000D01*
X81128000Y-65164000D01*
G37*
X81128000Y-65164000D02*
X81128000Y-65744000D01*
X80408000Y-65744000D01*
X80408000Y-65164000D01*
X81128000Y-65164000D01*
G36*
X80128000Y-66204000D02*
G01*
X80128000Y-66784000D01*
X79408000Y-66784000D01*
X79408000Y-66204000D01*
X80128000Y-66204000D01*
G37*
X80128000Y-66204000D02*
X80128000Y-66784000D01*
X79408000Y-66784000D01*
X79408000Y-66204000D01*
X80128000Y-66204000D01*
G36*
X81128000Y-66204000D02*
G01*
X81128000Y-66784000D01*
X80408000Y-66784000D01*
X80408000Y-66204000D01*
X81128000Y-66204000D01*
G37*
X81128000Y-66204000D02*
X81128000Y-66784000D01*
X80408000Y-66784000D01*
X80408000Y-66204000D01*
X81128000Y-66204000D01*
G36*
X80128000Y-67064000D02*
G01*
X80128000Y-67644000D01*
X79408000Y-67644000D01*
X79408000Y-67064000D01*
X80128000Y-67064000D01*
G37*
X80128000Y-67064000D02*
X80128000Y-67644000D01*
X79408000Y-67644000D01*
X79408000Y-67064000D01*
X80128000Y-67064000D01*
G36*
X81128000Y-67064000D02*
G01*
X81128000Y-67644000D01*
X80408000Y-67644000D01*
X80408000Y-67064000D01*
X81128000Y-67064000D01*
G37*
X81128000Y-67064000D02*
X81128000Y-67644000D01*
X80408000Y-67644000D01*
X80408000Y-67064000D01*
X81128000Y-67064000D01*
G36*
X80128000Y-68104000D02*
G01*
X80128000Y-68684000D01*
X79408000Y-68684000D01*
X79408000Y-68104000D01*
X80128000Y-68104000D01*
G37*
X80128000Y-68104000D02*
X80128000Y-68684000D01*
X79408000Y-68684000D01*
X79408000Y-68104000D01*
X80128000Y-68104000D01*
G36*
X81128000Y-68104000D02*
G01*
X81128000Y-68684000D01*
X80408000Y-68684000D01*
X80408000Y-68104000D01*
X81128000Y-68104000D01*
G37*
X81128000Y-68104000D02*
X81128000Y-68684000D01*
X80408000Y-68684000D01*
X80408000Y-68104000D01*
X81128000Y-68104000D01*
G36*
X80128000Y-68964000D02*
G01*
X80128000Y-69544000D01*
X79408000Y-69544000D01*
X79408000Y-68964000D01*
X80128000Y-68964000D01*
G37*
X80128000Y-68964000D02*
X80128000Y-69544000D01*
X79408000Y-69544000D01*
X79408000Y-68964000D01*
X80128000Y-68964000D01*
G36*
X81128000Y-68964000D02*
G01*
X81128000Y-69544000D01*
X80408000Y-69544000D01*
X80408000Y-68964000D01*
X81128000Y-68964000D01*
G37*
X81128000Y-68964000D02*
X81128000Y-69544000D01*
X80408000Y-69544000D01*
X80408000Y-68964000D01*
X81128000Y-68964000D01*
G36*
X82998000Y-58634000D02*
G01*
X82998000Y-59214000D01*
X82278000Y-59214000D01*
X82278000Y-58634000D01*
X82998000Y-58634000D01*
G37*
X82998000Y-58634000D02*
X82998000Y-59214000D01*
X82278000Y-59214000D01*
X82278000Y-58634000D01*
X82998000Y-58634000D01*
G36*
X82998000Y-57634000D02*
G01*
X82998000Y-58214000D01*
X82278000Y-58214000D01*
X82278000Y-57634000D01*
X82998000Y-57634000D01*
G37*
X82998000Y-57634000D02*
X82998000Y-58214000D01*
X82278000Y-58214000D01*
X82278000Y-57634000D01*
X82998000Y-57634000D01*
G36*
X83858000Y-58634000D02*
G01*
X83858000Y-59214000D01*
X83138000Y-59214000D01*
X83138000Y-58634000D01*
X83858000Y-58634000D01*
G37*
X83858000Y-58634000D02*
X83858000Y-59214000D01*
X83138000Y-59214000D01*
X83138000Y-58634000D01*
X83858000Y-58634000D01*
G36*
X83858000Y-57634000D02*
G01*
X83858000Y-58214000D01*
X83138000Y-58214000D01*
X83138000Y-57634000D01*
X83858000Y-57634000D01*
G37*
X83858000Y-57634000D02*
X83858000Y-58214000D01*
X83138000Y-58214000D01*
X83138000Y-57634000D01*
X83858000Y-57634000D01*
G36*
X84898000Y-58634000D02*
G01*
X84898000Y-59214000D01*
X84178000Y-59214000D01*
X84178000Y-58634000D01*
X84898000Y-58634000D01*
G37*
X84898000Y-58634000D02*
X84898000Y-59214000D01*
X84178000Y-59214000D01*
X84178000Y-58634000D01*
X84898000Y-58634000D01*
G36*
X84898000Y-57634000D02*
G01*
X84898000Y-58214000D01*
X84178000Y-58214000D01*
X84178000Y-57634000D01*
X84898000Y-57634000D01*
G37*
X84898000Y-57634000D02*
X84898000Y-58214000D01*
X84178000Y-58214000D01*
X84178000Y-57634000D01*
X84898000Y-57634000D01*
G36*
X85758000Y-58634000D02*
G01*
X85758000Y-59214000D01*
X85038000Y-59214000D01*
X85038000Y-58634000D01*
X85758000Y-58634000D01*
G37*
X85758000Y-58634000D02*
X85758000Y-59214000D01*
X85038000Y-59214000D01*
X85038000Y-58634000D01*
X85758000Y-58634000D01*
G36*
X85758000Y-57634000D02*
G01*
X85758000Y-58214000D01*
X85038000Y-58214000D01*
X85038000Y-57634000D01*
X85758000Y-57634000D01*
G37*
X85758000Y-57634000D02*
X85758000Y-58214000D01*
X85038000Y-58214000D01*
X85038000Y-57634000D01*
X85758000Y-57634000D01*
G36*
X90598000Y-58634000D02*
G01*
X90598000Y-59214000D01*
X89878000Y-59214000D01*
X89878000Y-58634000D01*
X90598000Y-58634000D01*
G37*
X90598000Y-58634000D02*
X90598000Y-59214000D01*
X89878000Y-59214000D01*
X89878000Y-58634000D01*
X90598000Y-58634000D01*
G36*
X90598000Y-57634000D02*
G01*
X90598000Y-58214000D01*
X89878000Y-58214000D01*
X89878000Y-57634000D01*
X90598000Y-57634000D01*
G37*
X90598000Y-57634000D02*
X90598000Y-58214000D01*
X89878000Y-58214000D01*
X89878000Y-57634000D01*
X90598000Y-57634000D01*
G36*
X91458000Y-58634000D02*
G01*
X91458000Y-59214000D01*
X90738000Y-59214000D01*
X90738000Y-58634000D01*
X91458000Y-58634000D01*
G37*
X91458000Y-58634000D02*
X91458000Y-59214000D01*
X90738000Y-59214000D01*
X90738000Y-58634000D01*
X91458000Y-58634000D01*
G36*
X91458000Y-57634000D02*
G01*
X91458000Y-58214000D01*
X90738000Y-58214000D01*
X90738000Y-57634000D01*
X91458000Y-57634000D01*
G37*
X91458000Y-57634000D02*
X91458000Y-58214000D01*
X90738000Y-58214000D01*
X90738000Y-57634000D01*
X91458000Y-57634000D01*
G36*
X88698000Y-58634000D02*
G01*
X88698000Y-59214000D01*
X87978000Y-59214000D01*
X87978000Y-58634000D01*
X88698000Y-58634000D01*
G37*
X88698000Y-58634000D02*
X88698000Y-59214000D01*
X87978000Y-59214000D01*
X87978000Y-58634000D01*
X88698000Y-58634000D01*
G36*
X88698000Y-57634000D02*
G01*
X88698000Y-58214000D01*
X87978000Y-58214000D01*
X87978000Y-57634000D01*
X88698000Y-57634000D01*
G37*
X88698000Y-57634000D02*
X88698000Y-58214000D01*
X87978000Y-58214000D01*
X87978000Y-57634000D01*
X88698000Y-57634000D01*
G36*
X89558000Y-58634000D02*
G01*
X89558000Y-59214000D01*
X88838000Y-59214000D01*
X88838000Y-58634000D01*
X89558000Y-58634000D01*
G37*
X89558000Y-58634000D02*
X89558000Y-59214000D01*
X88838000Y-59214000D01*
X88838000Y-58634000D01*
X89558000Y-58634000D01*
G36*
X89558000Y-57634000D02*
G01*
X89558000Y-58214000D01*
X88838000Y-58214000D01*
X88838000Y-57634000D01*
X89558000Y-57634000D01*
G37*
X89558000Y-57634000D02*
X89558000Y-58214000D01*
X88838000Y-58214000D01*
X88838000Y-57634000D01*
X89558000Y-57634000D01*
G36*
X86798000Y-58634000D02*
G01*
X86798000Y-59214000D01*
X86078000Y-59214000D01*
X86078000Y-58634000D01*
X86798000Y-58634000D01*
G37*
X86798000Y-58634000D02*
X86798000Y-59214000D01*
X86078000Y-59214000D01*
X86078000Y-58634000D01*
X86798000Y-58634000D01*
G36*
X86798000Y-57634000D02*
G01*
X86798000Y-58214000D01*
X86078000Y-58214000D01*
X86078000Y-57634000D01*
X86798000Y-57634000D01*
G37*
X86798000Y-57634000D02*
X86798000Y-58214000D01*
X86078000Y-58214000D01*
X86078000Y-57634000D01*
X86798000Y-57634000D01*
G36*
X87658000Y-58634000D02*
G01*
X87658000Y-59214000D01*
X86938000Y-59214000D01*
X86938000Y-58634000D01*
X87658000Y-58634000D01*
G37*
X87658000Y-58634000D02*
X87658000Y-59214000D01*
X86938000Y-59214000D01*
X86938000Y-58634000D01*
X87658000Y-58634000D01*
G36*
X87658000Y-57634000D02*
G01*
X87658000Y-58214000D01*
X86938000Y-58214000D01*
X86938000Y-57634000D01*
X87658000Y-57634000D01*
G37*
X87658000Y-57634000D02*
X87658000Y-58214000D01*
X86938000Y-58214000D01*
X86938000Y-57634000D01*
X87658000Y-57634000D01*
G36*
X90598000Y-71834000D02*
G01*
X90598000Y-72414000D01*
X89878000Y-72414000D01*
X89878000Y-71834000D01*
X90598000Y-71834000D01*
G37*
X90598000Y-71834000D02*
X90598000Y-72414000D01*
X89878000Y-72414000D01*
X89878000Y-71834000D01*
X90598000Y-71834000D01*
G36*
X90598000Y-70834000D02*
G01*
X90598000Y-71414000D01*
X89878000Y-71414000D01*
X89878000Y-70834000D01*
X90598000Y-70834000D01*
G37*
X90598000Y-70834000D02*
X90598000Y-71414000D01*
X89878000Y-71414000D01*
X89878000Y-70834000D01*
X90598000Y-70834000D01*
G36*
X91458000Y-71834000D02*
G01*
X91458000Y-72414000D01*
X90738000Y-72414000D01*
X90738000Y-71834000D01*
X91458000Y-71834000D01*
G37*
X91458000Y-71834000D02*
X91458000Y-72414000D01*
X90738000Y-72414000D01*
X90738000Y-71834000D01*
X91458000Y-71834000D01*
G36*
X91458000Y-70834000D02*
G01*
X91458000Y-71414000D01*
X90738000Y-71414000D01*
X90738000Y-70834000D01*
X91458000Y-70834000D01*
G37*
X91458000Y-70834000D02*
X91458000Y-71414000D01*
X90738000Y-71414000D01*
X90738000Y-70834000D01*
X91458000Y-70834000D01*
G36*
X88698000Y-71834000D02*
G01*
X88698000Y-72414000D01*
X87978000Y-72414000D01*
X87978000Y-71834000D01*
X88698000Y-71834000D01*
G37*
X88698000Y-71834000D02*
X88698000Y-72414000D01*
X87978000Y-72414000D01*
X87978000Y-71834000D01*
X88698000Y-71834000D01*
G36*
X88698000Y-70834000D02*
G01*
X88698000Y-71414000D01*
X87978000Y-71414000D01*
X87978000Y-70834000D01*
X88698000Y-70834000D01*
G37*
X88698000Y-70834000D02*
X88698000Y-71414000D01*
X87978000Y-71414000D01*
X87978000Y-70834000D01*
X88698000Y-70834000D01*
G36*
X89558000Y-71834000D02*
G01*
X89558000Y-72414000D01*
X88838000Y-72414000D01*
X88838000Y-71834000D01*
X89558000Y-71834000D01*
G37*
X89558000Y-71834000D02*
X89558000Y-72414000D01*
X88838000Y-72414000D01*
X88838000Y-71834000D01*
X89558000Y-71834000D01*
G36*
X89558000Y-70834000D02*
G01*
X89558000Y-71414000D01*
X88838000Y-71414000D01*
X88838000Y-70834000D01*
X89558000Y-70834000D01*
G37*
X89558000Y-70834000D02*
X89558000Y-71414000D01*
X88838000Y-71414000D01*
X88838000Y-70834000D01*
X89558000Y-70834000D01*
G36*
X86798000Y-71834000D02*
G01*
X86798000Y-72414000D01*
X86078000Y-72414000D01*
X86078000Y-71834000D01*
X86798000Y-71834000D01*
G37*
X86798000Y-71834000D02*
X86798000Y-72414000D01*
X86078000Y-72414000D01*
X86078000Y-71834000D01*
X86798000Y-71834000D01*
G36*
X86798000Y-70834000D02*
G01*
X86798000Y-71414000D01*
X86078000Y-71414000D01*
X86078000Y-70834000D01*
X86798000Y-70834000D01*
G37*
X86798000Y-70834000D02*
X86798000Y-71414000D01*
X86078000Y-71414000D01*
X86078000Y-70834000D01*
X86798000Y-70834000D01*
G36*
X87658000Y-71834000D02*
G01*
X87658000Y-72414000D01*
X86938000Y-72414000D01*
X86938000Y-71834000D01*
X87658000Y-71834000D01*
G37*
X87658000Y-71834000D02*
X87658000Y-72414000D01*
X86938000Y-72414000D01*
X86938000Y-71834000D01*
X87658000Y-71834000D01*
G36*
X87658000Y-70834000D02*
G01*
X87658000Y-71414000D01*
X86938000Y-71414000D01*
X86938000Y-70834000D01*
X87658000Y-70834000D01*
G37*
X87658000Y-70834000D02*
X87658000Y-71414000D01*
X86938000Y-71414000D01*
X86938000Y-70834000D01*
X87658000Y-70834000D01*
G36*
X84898000Y-71834000D02*
G01*
X84898000Y-72414000D01*
X84178000Y-72414000D01*
X84178000Y-71834000D01*
X84898000Y-71834000D01*
G37*
X84898000Y-71834000D02*
X84898000Y-72414000D01*
X84178000Y-72414000D01*
X84178000Y-71834000D01*
X84898000Y-71834000D01*
G36*
X84898000Y-70834000D02*
G01*
X84898000Y-71414000D01*
X84178000Y-71414000D01*
X84178000Y-70834000D01*
X84898000Y-70834000D01*
G37*
X84898000Y-70834000D02*
X84898000Y-71414000D01*
X84178000Y-71414000D01*
X84178000Y-70834000D01*
X84898000Y-70834000D01*
G36*
X85758000Y-71834000D02*
G01*
X85758000Y-72414000D01*
X85038000Y-72414000D01*
X85038000Y-71834000D01*
X85758000Y-71834000D01*
G37*
X85758000Y-71834000D02*
X85758000Y-72414000D01*
X85038000Y-72414000D01*
X85038000Y-71834000D01*
X85758000Y-71834000D01*
G36*
X85758000Y-70834000D02*
G01*
X85758000Y-71414000D01*
X85038000Y-71414000D01*
X85038000Y-70834000D01*
X85758000Y-70834000D01*
G37*
X85758000Y-70834000D02*
X85758000Y-71414000D01*
X85038000Y-71414000D01*
X85038000Y-70834000D01*
X85758000Y-70834000D01*
G36*
X82998000Y-71834000D02*
G01*
X82998000Y-72414000D01*
X82278000Y-72414000D01*
X82278000Y-71834000D01*
X82998000Y-71834000D01*
G37*
X82998000Y-71834000D02*
X82998000Y-72414000D01*
X82278000Y-72414000D01*
X82278000Y-71834000D01*
X82998000Y-71834000D01*
G36*
X82998000Y-70834000D02*
G01*
X82998000Y-71414000D01*
X82278000Y-71414000D01*
X82278000Y-70834000D01*
X82998000Y-70834000D01*
G37*
X82998000Y-70834000D02*
X82998000Y-71414000D01*
X82278000Y-71414000D01*
X82278000Y-70834000D01*
X82998000Y-70834000D01*
G36*
X83858000Y-71834000D02*
G01*
X83858000Y-72414000D01*
X83138000Y-72414000D01*
X83138000Y-71834000D01*
X83858000Y-71834000D01*
G37*
X83858000Y-71834000D02*
X83858000Y-72414000D01*
X83138000Y-72414000D01*
X83138000Y-71834000D01*
X83858000Y-71834000D01*
G36*
X83858000Y-70834000D02*
G01*
X83858000Y-71414000D01*
X83138000Y-71414000D01*
X83138000Y-70834000D01*
X83858000Y-70834000D01*
G37*
X83858000Y-70834000D02*
X83858000Y-71414000D01*
X83138000Y-71414000D01*
X83138000Y-70834000D01*
X83858000Y-70834000D01*
D11*
X117542000Y-71232000D03*
X117042000Y-71232000D03*
X116542000Y-71232000D03*
X116042000Y-71232000D03*
X115542000Y-71232000D03*
X115042000Y-71232000D03*
X114542000Y-71232000D03*
X114042000Y-71232000D03*
X113542000Y-71232000D03*
X113042000Y-71232000D03*
X112542000Y-71232000D03*
X112042000Y-71232000D03*
X111542000Y-71232000D03*
X111042000Y-71232000D03*
X110542000Y-71232000D03*
X110042000Y-71232000D03*
D12*
X108092000Y-69282000D03*
X108092000Y-68782000D03*
X108092000Y-68282000D03*
X108092000Y-67782000D03*
X108092000Y-67282000D03*
X108092000Y-66782000D03*
X108092000Y-66282000D03*
X108092000Y-65782000D03*
X108092000Y-65282000D03*
X108092000Y-64782000D03*
X108092000Y-64282000D03*
X108092000Y-63782000D03*
X108092000Y-63282000D03*
X108092000Y-62782000D03*
X108092000Y-62282000D03*
X108092000Y-61782000D03*
D11*
X110042000Y-59832000D03*
X110542000Y-59832000D03*
X111042000Y-59832000D03*
X111542000Y-59832000D03*
X112042000Y-59832000D03*
X112542000Y-59832000D03*
X113042000Y-59832000D03*
X113542000Y-59832000D03*
X114042000Y-59832000D03*
X114542000Y-59832000D03*
X115042000Y-59832000D03*
X115542000Y-59832000D03*
X116042000Y-59832000D03*
X116542000Y-59832000D03*
X117042000Y-59832000D03*
X117542000Y-59832000D03*
D12*
X119492000Y-61782000D03*
X119492000Y-62282000D03*
X119492000Y-62782000D03*
X119492000Y-63282000D03*
X119492000Y-63782000D03*
X119492000Y-64282000D03*
X119492000Y-64782000D03*
X119492000Y-65282000D03*
X119492000Y-65782000D03*
X119492000Y-66282000D03*
X119492000Y-66782000D03*
X119492000Y-67282000D03*
X119492000Y-67782000D03*
X119492000Y-68282000D03*
X119492000Y-68782000D03*
X119492000Y-69282000D03*
G36*
G01*
X105594999Y-73221000D02*
X106495001Y-73221000D01*
G75*
G02*
X106745000Y-73470999I0J-249999D01*
G01*
X106745000Y-74121001D01*
G75*
G02*
X106495001Y-74371000I-249999J0D01*
G01*
X105594999Y-74371000D01*
G75*
G02*
X105345000Y-74121001I0J249999D01*
G01*
X105345000Y-73470999D01*
G75*
G02*
X105594999Y-73221000I249999J0D01*
G01*
G37*
G36*
G01*
X105594999Y-71171000D02*
X106495001Y-71171000D01*
G75*
G02*
X106745000Y-71420999I0J-249999D01*
G01*
X106745000Y-72071001D01*
G75*
G02*
X106495001Y-72321000I-249999J0D01*
G01*
X105594999Y-72321000D01*
G75*
G02*
X105345000Y-72071001I0J249999D01*
G01*
X105345000Y-71420999D01*
G75*
G02*
X105594999Y-71171000I249999J0D01*
G01*
G37*
G36*
G01*
X118179001Y-79445700D02*
X117278999Y-79445700D01*
G75*
G02*
X117029000Y-79195701I0J249999D01*
G01*
X117029000Y-78545699D01*
G75*
G02*
X117278999Y-78295700I249999J0D01*
G01*
X118179001Y-78295700D01*
G75*
G02*
X118429000Y-78545699I0J-249999D01*
G01*
X118429000Y-79195701D01*
G75*
G02*
X118179001Y-79445700I-249999J0D01*
G01*
G37*
G36*
G01*
X118179001Y-81495700D02*
X117278999Y-81495700D01*
G75*
G02*
X117029000Y-81245701I0J249999D01*
G01*
X117029000Y-80595699D01*
G75*
G02*
X117278999Y-80345700I249999J0D01*
G01*
X118179001Y-80345700D01*
G75*
G02*
X118429000Y-80595699I0J-249999D01*
G01*
X118429000Y-81245701D01*
G75*
G02*
X118179001Y-81495700I-249999J0D01*
G01*
G37*
G36*
G01*
X120084001Y-79445700D02*
X119183999Y-79445700D01*
G75*
G02*
X118934000Y-79195701I0J249999D01*
G01*
X118934000Y-78545699D01*
G75*
G02*
X119183999Y-78295700I249999J0D01*
G01*
X120084001Y-78295700D01*
G75*
G02*
X120334000Y-78545699I0J-249999D01*
G01*
X120334000Y-79195701D01*
G75*
G02*
X120084001Y-79445700I-249999J0D01*
G01*
G37*
G36*
G01*
X120084001Y-81495700D02*
X119183999Y-81495700D01*
G75*
G02*
X118934000Y-81245701I0J249999D01*
G01*
X118934000Y-80595699D01*
G75*
G02*
X119183999Y-80345700I249999J0D01*
G01*
X120084001Y-80345700D01*
G75*
G02*
X120334000Y-80595699I0J-249999D01*
G01*
X120334000Y-81245701D01*
G75*
G02*
X120084001Y-81495700I-249999J0D01*
G01*
G37*
G36*
G01*
X123894001Y-79445700D02*
X122993999Y-79445700D01*
G75*
G02*
X122744000Y-79195701I0J249999D01*
G01*
X122744000Y-78545699D01*
G75*
G02*
X122993999Y-78295700I249999J0D01*
G01*
X123894001Y-78295700D01*
G75*
G02*
X124144000Y-78545699I0J-249999D01*
G01*
X124144000Y-79195701D01*
G75*
G02*
X123894001Y-79445700I-249999J0D01*
G01*
G37*
G36*
G01*
X123894001Y-81495700D02*
X122993999Y-81495700D01*
G75*
G02*
X122744000Y-81245701I0J249999D01*
G01*
X122744000Y-80595699D01*
G75*
G02*
X122993999Y-80345700I249999J0D01*
G01*
X123894001Y-80345700D01*
G75*
G02*
X124144000Y-80595699I0J-249999D01*
G01*
X124144000Y-81245701D01*
G75*
G02*
X123894001Y-81495700I-249999J0D01*
G01*
G37*
G36*
G01*
X66987000Y-39554999D02*
X66987000Y-40455001D01*
G75*
G02*
X66737001Y-40705000I-249999J0D01*
G01*
X66086999Y-40705000D01*
G75*
G02*
X65837000Y-40455001I0J249999D01*
G01*
X65837000Y-39554999D01*
G75*
G02*
X66086999Y-39305000I249999J0D01*
G01*
X66737001Y-39305000D01*
G75*
G02*
X66987000Y-39554999I0J-249999D01*
G01*
G37*
G36*
G01*
X69037000Y-39554999D02*
X69037000Y-40455001D01*
G75*
G02*
X68787001Y-40705000I-249999J0D01*
G01*
X68136999Y-40705000D01*
G75*
G02*
X67887000Y-40455001I0J249999D01*
G01*
X67887000Y-39554999D01*
G75*
G02*
X68136999Y-39305000I249999J0D01*
G01*
X68787001Y-39305000D01*
G75*
G02*
X69037000Y-39554999I0J-249999D01*
G01*
G37*
G36*
G01*
X121989001Y-79445700D02*
X121088999Y-79445700D01*
G75*
G02*
X120839000Y-79195701I0J249999D01*
G01*
X120839000Y-78545699D01*
G75*
G02*
X121088999Y-78295700I249999J0D01*
G01*
X121989001Y-78295700D01*
G75*
G02*
X122239000Y-78545699I0J-249999D01*
G01*
X122239000Y-79195701D01*
G75*
G02*
X121989001Y-79445700I-249999J0D01*
G01*
G37*
G36*
G01*
X121989001Y-81495700D02*
X121088999Y-81495700D01*
G75*
G02*
X120839000Y-81245701I0J249999D01*
G01*
X120839000Y-80595699D01*
G75*
G02*
X121088999Y-80345700I249999J0D01*
G01*
X121989001Y-80345700D01*
G75*
G02*
X122239000Y-80595699I0J-249999D01*
G01*
X122239000Y-81245701D01*
G75*
G02*
X121989001Y-81495700I-249999J0D01*
G01*
G37*
G36*
G01*
X45535000Y-40709001D02*
X45535000Y-39808999D01*
G75*
G02*
X45784999Y-39559000I249999J0D01*
G01*
X46435001Y-39559000D01*
G75*
G02*
X46685000Y-39808999I0J-249999D01*
G01*
X46685000Y-40709001D01*
G75*
G02*
X46435001Y-40959000I-249999J0D01*
G01*
X45784999Y-40959000D01*
G75*
G02*
X45535000Y-40709001I0J249999D01*
G01*
G37*
G36*
G01*
X43485000Y-40709001D02*
X43485000Y-39808999D01*
G75*
G02*
X43734999Y-39559000I249999J0D01*
G01*
X44385001Y-39559000D01*
G75*
G02*
X44635000Y-39808999I0J-249999D01*
G01*
X44635000Y-40709001D01*
G75*
G02*
X44385001Y-40959000I-249999J0D01*
G01*
X43734999Y-40959000D01*
G75*
G02*
X43485000Y-40709001I0J249999D01*
G01*
G37*
G36*
G01*
X116274001Y-79445700D02*
X115373999Y-79445700D01*
G75*
G02*
X115124000Y-79195701I0J249999D01*
G01*
X115124000Y-78545699D01*
G75*
G02*
X115373999Y-78295700I249999J0D01*
G01*
X116274001Y-78295700D01*
G75*
G02*
X116524000Y-78545699I0J-249999D01*
G01*
X116524000Y-79195701D01*
G75*
G02*
X116274001Y-79445700I-249999J0D01*
G01*
G37*
G36*
G01*
X116274001Y-81495700D02*
X115373999Y-81495700D01*
G75*
G02*
X115124000Y-81245701I0J249999D01*
G01*
X115124000Y-80595699D01*
G75*
G02*
X115373999Y-80345700I249999J0D01*
G01*
X116274001Y-80345700D01*
G75*
G02*
X116524000Y-80595699I0J-249999D01*
G01*
X116524000Y-81245701D01*
G75*
G02*
X116274001Y-81495700I-249999J0D01*
G01*
G37*
G36*
G01*
X111946700Y-94620600D02*
X111471700Y-94620600D01*
G75*
G02*
X111234200Y-94383100I0J237500D01*
G01*
X111234200Y-93808100D01*
G75*
G02*
X111471700Y-93570600I237500J0D01*
G01*
X111946700Y-93570600D01*
G75*
G02*
X112184200Y-93808100I0J-237500D01*
G01*
X112184200Y-94383100D01*
G75*
G02*
X111946700Y-94620600I-237500J0D01*
G01*
G37*
G36*
G01*
X111946700Y-96370600D02*
X111471700Y-96370600D01*
G75*
G02*
X111234200Y-96133100I0J237500D01*
G01*
X111234200Y-95558100D01*
G75*
G02*
X111471700Y-95320600I237500J0D01*
G01*
X111946700Y-95320600D01*
G75*
G02*
X112184200Y-95558100I0J-237500D01*
G01*
X112184200Y-96133100D01*
G75*
G02*
X111946700Y-96370600I-237500J0D01*
G01*
G37*
G36*
G01*
X113851700Y-94620600D02*
X113376700Y-94620600D01*
G75*
G02*
X113139200Y-94383100I0J237500D01*
G01*
X113139200Y-93808100D01*
G75*
G02*
X113376700Y-93570600I237500J0D01*
G01*
X113851700Y-93570600D01*
G75*
G02*
X114089200Y-93808100I0J-237500D01*
G01*
X114089200Y-94383100D01*
G75*
G02*
X113851700Y-94620600I-237500J0D01*
G01*
G37*
G36*
G01*
X113851700Y-96370600D02*
X113376700Y-96370600D01*
G75*
G02*
X113139200Y-96133100I0J237500D01*
G01*
X113139200Y-95558100D01*
G75*
G02*
X113376700Y-95320600I237500J0D01*
G01*
X113851700Y-95320600D01*
G75*
G02*
X114089200Y-95558100I0J-237500D01*
G01*
X114089200Y-96133100D01*
G75*
G02*
X113851700Y-96370600I-237500J0D01*
G01*
G37*
G36*
G01*
X117661700Y-94620600D02*
X117186700Y-94620600D01*
G75*
G02*
X116949200Y-94383100I0J237500D01*
G01*
X116949200Y-93808100D01*
G75*
G02*
X117186700Y-93570600I237500J0D01*
G01*
X117661700Y-93570600D01*
G75*
G02*
X117899200Y-93808100I0J-237500D01*
G01*
X117899200Y-94383100D01*
G75*
G02*
X117661700Y-94620600I-237500J0D01*
G01*
G37*
G36*
G01*
X117661700Y-96370600D02*
X117186700Y-96370600D01*
G75*
G02*
X116949200Y-96133100I0J237500D01*
G01*
X116949200Y-95558100D01*
G75*
G02*
X117186700Y-95320600I237500J0D01*
G01*
X117661700Y-95320600D01*
G75*
G02*
X117899200Y-95558100I0J-237500D01*
G01*
X117899200Y-96133100D01*
G75*
G02*
X117661700Y-96370600I-237500J0D01*
G01*
G37*
G36*
G01*
X115756700Y-94620600D02*
X115281700Y-94620600D01*
G75*
G02*
X115044200Y-94383100I0J237500D01*
G01*
X115044200Y-93808100D01*
G75*
G02*
X115281700Y-93570600I237500J0D01*
G01*
X115756700Y-93570600D01*
G75*
G02*
X115994200Y-93808100I0J-237500D01*
G01*
X115994200Y-94383100D01*
G75*
G02*
X115756700Y-94620600I-237500J0D01*
G01*
G37*
G36*
G01*
X115756700Y-96370600D02*
X115281700Y-96370600D01*
G75*
G02*
X115044200Y-96133100I0J237500D01*
G01*
X115044200Y-95558100D01*
G75*
G02*
X115281700Y-95320600I237500J0D01*
G01*
X115756700Y-95320600D01*
G75*
G02*
X115994200Y-95558100I0J-237500D01*
G01*
X115994200Y-96133100D01*
G75*
G02*
X115756700Y-96370600I-237500J0D01*
G01*
G37*
D13*
X102130900Y-76644500D03*
X100230900Y-76644500D03*
X102130900Y-70802500D03*
X100230900Y-70802500D03*
D14*
X43878500Y-82039500D03*
X43878500Y-80139500D03*
D15*
X62040500Y-36532000D03*
X58990500Y-33182000D03*
X58990500Y-36532000D03*
X62040500Y-33182000D03*
D16*
X62795500Y-41157000D03*
X58235500Y-41157000D03*
X49726500Y-41157000D03*
X54286500Y-41157000D03*
D15*
X53531500Y-33182000D03*
X50481500Y-36532000D03*
X50481500Y-33182000D03*
X53531500Y-36532000D03*
D17*
X108842000Y-53397000D03*
X108842000Y-56077000D03*
X106042000Y-56077000D03*
X106042000Y-53397000D03*
D18*
X90360500Y-40951000D03*
X91630500Y-40951000D03*
X92900500Y-40951000D03*
X94170500Y-40951000D03*
X94170500Y-36011000D03*
X92900500Y-36011000D03*
X91630500Y-36011000D03*
X90360500Y-36011000D03*
G36*
G01*
X74722000Y-55514001D02*
X74722000Y-54213999D01*
G75*
G02*
X74971999Y-53964000I249999J0D01*
G01*
X76047001Y-53964000D01*
G75*
G02*
X76297000Y-54213999I0J-249999D01*
G01*
X76297000Y-55514001D01*
G75*
G02*
X76047001Y-55764000I-249999J0D01*
G01*
X74971999Y-55764000D01*
G75*
G02*
X74722000Y-55514001I0J249999D01*
G01*
G37*
G36*
G01*
X78897000Y-55514001D02*
X78897000Y-54213999D01*
G75*
G02*
X79146999Y-53964000I249999J0D01*
G01*
X80222001Y-53964000D01*
G75*
G02*
X80472000Y-54213999I0J-249999D01*
G01*
X80472000Y-55514001D01*
G75*
G02*
X80222001Y-55764000I-249999J0D01*
G01*
X79146999Y-55764000D01*
G75*
G02*
X78897000Y-55514001I0J249999D01*
G01*
G37*
G36*
G01*
X110041700Y-96370600D02*
X109566700Y-96370600D01*
G75*
G02*
X109329200Y-96133100I0J237500D01*
G01*
X109329200Y-95558100D01*
G75*
G02*
X109566700Y-95320600I237500J0D01*
G01*
X110041700Y-95320600D01*
G75*
G02*
X110279200Y-95558100I0J-237500D01*
G01*
X110279200Y-96133100D01*
G75*
G02*
X110041700Y-96370600I-237500J0D01*
G01*
G37*
G36*
G01*
X110041700Y-94620600D02*
X109566700Y-94620600D01*
G75*
G02*
X109329200Y-94383100I0J237500D01*
G01*
X109329200Y-93808100D01*
G75*
G02*
X109566700Y-93570600I237500J0D01*
G01*
X110041700Y-93570600D01*
G75*
G02*
X110279200Y-93808100I0J-237500D01*
G01*
X110279200Y-94383100D01*
G75*
G02*
X110041700Y-94620600I-237500J0D01*
G01*
G37*
G36*
G01*
X108200200Y-96370600D02*
X107725200Y-96370600D01*
G75*
G02*
X107487700Y-96133100I0J237500D01*
G01*
X107487700Y-95558100D01*
G75*
G02*
X107725200Y-95320600I237500J0D01*
G01*
X108200200Y-95320600D01*
G75*
G02*
X108437700Y-95558100I0J-237500D01*
G01*
X108437700Y-96133100D01*
G75*
G02*
X108200200Y-96370600I-237500J0D01*
G01*
G37*
G36*
G01*
X108200200Y-94620600D02*
X107725200Y-94620600D01*
G75*
G02*
X107487700Y-94383100I0J237500D01*
G01*
X107487700Y-93808100D01*
G75*
G02*
X107725200Y-93570600I237500J0D01*
G01*
X108200200Y-93570600D01*
G75*
G02*
X108437700Y-93808100I0J-237500D01*
G01*
X108437700Y-94383100D01*
G75*
G02*
X108200200Y-94620600I-237500J0D01*
G01*
G37*
G36*
G01*
X114305501Y-81495700D02*
X113405499Y-81495700D01*
G75*
G02*
X113155500Y-81245701I0J249999D01*
G01*
X113155500Y-80595699D01*
G75*
G02*
X113405499Y-80345700I249999J0D01*
G01*
X114305501Y-80345700D01*
G75*
G02*
X114555500Y-80595699I0J-249999D01*
G01*
X114555500Y-81245701D01*
G75*
G02*
X114305501Y-81495700I-249999J0D01*
G01*
G37*
G36*
G01*
X114305501Y-79445700D02*
X113405499Y-79445700D01*
G75*
G02*
X113155500Y-79195701I0J249999D01*
G01*
X113155500Y-78545699D01*
G75*
G02*
X113405499Y-78295700I249999J0D01*
G01*
X114305501Y-78295700D01*
G75*
G02*
X114555500Y-78545699I0J-249999D01*
G01*
X114555500Y-79195701D01*
G75*
G02*
X114305501Y-79445700I-249999J0D01*
G01*
G37*
G36*
G01*
X66311400Y-97830199D02*
X66311400Y-99680201D01*
G75*
G02*
X66061401Y-99930200I-249999J0D01*
G01*
X64311399Y-99930200D01*
G75*
G02*
X64061400Y-99680201I0J249999D01*
G01*
X64061400Y-97830199D01*
G75*
G02*
X64311399Y-97580200I249999J0D01*
G01*
X66061401Y-97580200D01*
G75*
G02*
X66311400Y-97830199I0J-249999D01*
G01*
G37*
G36*
G01*
X61211400Y-97830199D02*
X61211400Y-99680201D01*
G75*
G02*
X60961401Y-99930200I-249999J0D01*
G01*
X59211399Y-99930200D01*
G75*
G02*
X58961400Y-99680201I0J249999D01*
G01*
X58961400Y-97830199D01*
G75*
G02*
X59211399Y-97580200I249999J0D01*
G01*
X60961401Y-97580200D01*
G75*
G02*
X61211400Y-97830199I0J-249999D01*
G01*
G37*
G36*
G01*
X68362001Y-53756500D02*
X66511999Y-53756500D01*
G75*
G02*
X66262000Y-53506501I0J249999D01*
G01*
X66262000Y-51756499D01*
G75*
G02*
X66511999Y-51506500I249999J0D01*
G01*
X68362001Y-51506500D01*
G75*
G02*
X68612000Y-51756499I0J-249999D01*
G01*
X68612000Y-53506501D01*
G75*
G02*
X68362001Y-53756500I-249999J0D01*
G01*
G37*
G36*
G01*
X68362001Y-58856500D02*
X66511999Y-58856500D01*
G75*
G02*
X66262000Y-58606501I0J249999D01*
G01*
X66262000Y-56856499D01*
G75*
G02*
X66511999Y-56606500I249999J0D01*
G01*
X68362001Y-56606500D01*
G75*
G02*
X68612000Y-56856499I0J-249999D01*
G01*
X68612000Y-58606501D01*
G75*
G02*
X68362001Y-58856500I-249999J0D01*
G01*
G37*
G36*
G01*
X41394000Y-80164499D02*
X41394000Y-82014501D01*
G75*
G02*
X41144001Y-82264500I-249999J0D01*
G01*
X39393999Y-82264500D01*
G75*
G02*
X39144000Y-82014501I0J249999D01*
G01*
X39144000Y-80164499D01*
G75*
G02*
X39393999Y-79914500I249999J0D01*
G01*
X41144001Y-79914500D01*
G75*
G02*
X41394000Y-80164499I0J-249999D01*
G01*
G37*
G36*
G01*
X36294000Y-80164499D02*
X36294000Y-82014501D01*
G75*
G02*
X36044001Y-82264500I-249999J0D01*
G01*
X34293999Y-82264500D01*
G75*
G02*
X34044000Y-82014501I0J249999D01*
G01*
X34044000Y-80164499D01*
G75*
G02*
X34293999Y-79914500I249999J0D01*
G01*
X36044001Y-79914500D01*
G75*
G02*
X36294000Y-80164499I0J-249999D01*
G01*
G37*
G36*
G01*
X26805000Y-54201501D02*
X26805000Y-52351499D01*
G75*
G02*
X27054999Y-52101500I249999J0D01*
G01*
X28805001Y-52101500D01*
G75*
G02*
X29055000Y-52351499I0J-249999D01*
G01*
X29055000Y-54201501D01*
G75*
G02*
X28805001Y-54451500I-249999J0D01*
G01*
X27054999Y-54451500D01*
G75*
G02*
X26805000Y-54201501I0J249999D01*
G01*
G37*
G36*
G01*
X31905000Y-54201501D02*
X31905000Y-52351499D01*
G75*
G02*
X32154999Y-52101500I249999J0D01*
G01*
X33905001Y-52101500D01*
G75*
G02*
X34155000Y-52351499I0J-249999D01*
G01*
X34155000Y-54201501D01*
G75*
G02*
X33905001Y-54451500I-249999J0D01*
G01*
X32154999Y-54451500D01*
G75*
G02*
X31905000Y-54201501I0J249999D01*
G01*
G37*
M02*
