M48
; DRILL file {KiCad (5.1.6)-1} date 11/01/21 19:26:53
; FORMAT={-:-/ absolute / metric / decimal}
; #@! TF.CreationDate,2021-11-01T19:26:53+01:00
; #@! TF.GenerationSoftware,Kicad,Pcbnew,(5.1.6)-1
FMAT,2
METRIC
T1C0.400
T2C0.500
T3C0.762
T4C0.800
T5C0.900
T6C1.000
T7C1.349
T8C1.500
T9C1.750
T10C2.000
T11C2.500
T12C2.700
T13C3.200
%
G90
G05
T1
X45.441Y-77.521
X46.177Y-33.045
X46.177Y-38.202
X46.177Y-46.05
X48.666Y-41.275
X49.53Y-46.507
X55.321Y-46.457
X56.388Y-31.217
X62.484Y-87.732
X64.922Y-39.751
X64.922Y-43.967
X69.825Y-39.98
X70.663Y-43.612
X74.117Y-55.829
X74.27Y-41.681
X75.209Y-41.681
X75.286Y-52.73
X81.661Y-63.119
X84.277Y-78.842
X89.916Y-89.687
X93.142Y-38.481
X95.606Y-43.155
X96.596Y-42.85
X105.969Y-88.824
X106.426Y-87.681
X106.934Y-86.462
X108.864Y-94.894
X110.706Y-65.634
X111.262Y-58.218
X111.411Y-62.782
X111.947Y-66.446
X112.014Y-57.963
X112.7Y-95.021
X113.411Y-52.375
X113.617Y-62.526
X114.579Y-94.92
X114.967Y-68.56
X115.227Y-53.772
X115.926Y-53.772
X116.51Y-94.818
X117.313Y-67.208
X117.703Y-66.357
X117.913Y-67.8
X118.542Y-94.767
X121.26Y-64.948
X122.085Y-48.704
X122.212Y-52.514
X122.25Y-65.405
X123.673Y-64.211
X126.822Y-85.141
T2
X51.994Y-39.649
X52.006Y-38.506
X62.636Y-67.259
X64.516Y-33.02
X69.596Y-33.02
X71.171Y-86.462
X74.778Y-68.58
X75.717Y-34.849
X76.606Y-88.621
X76.759Y-90.424
X76.987Y-87.376
X77.648Y-56.845
X78.537Y-86.665
X80.67Y-74.574
X81.077Y-76.2
X83.693Y-86.665
X83.82Y-88.925
X84.049Y-76.352
X84.968Y-70.16
X86.944Y-70.104
X87.528Y-33.833
X88.24Y-95.25
X88.773Y-70.104
X89.027Y-37.998
X90.399Y-91.415
X91.186Y-34.087
X92.202Y-74.32
X92.558Y-75.26
X92.786Y-93.802
X93.499Y-42.586
X93.599Y-81.255
X94.1Y-43.187
X94.386Y-46.203
X94.386Y-47.701
X102.641Y-94.056
X102.743Y-85.799
X103.073Y-86.741
X103.276Y-88.392
X104.064Y-68.097
X104.216Y-53.226
X104.47Y-67.234
X105.131Y-66.548
X105.74Y-65.938
X106.147Y-65.202
X108.153Y-71.653
X109.842Y-73.569
X109.842Y-74.419
X111.049Y-52.121
X111.344Y-69.698
X111.684Y-68.91
X112.217Y-53.289
X112.217Y-61.697
X112.268Y-75.159
X114.122Y-69.494
X114.249Y-58.064
X114.808Y-61.493
X114.808Y-77.318
X115.189Y-58.09
X115.824Y-77.495
X116.535Y-63.652
X116.891Y-77.292
X117.424Y-63.652
X102.705Y-72.912
X102.705Y-74.612
T3
X36.005Y-52.451
X38.544Y-52.451
X41.084Y-52.451
X43.624Y-52.451
X46.164Y-52.451
X48.704Y-52.451
X51.244Y-52.451
X53.784Y-52.451
X56.325Y-52.451
X58.864Y-52.451
X31.496Y-77.47
X36.576Y-77.47
X51.816Y-77.47
X84.582Y-41.402
X84.582Y-43.942
X84.582Y-46.482
X84.582Y-49.022
X84.582Y-51.562
X84.582Y-54.102
X28.448Y-58.42
X28.448Y-60.96
X28.448Y-63.5
X28.448Y-66.04
X28.448Y-68.58
X28.448Y-71.12
X28.448Y-73.66
X97.536Y-59.944
X97.536Y-62.484
X97.536Y-65.024
X97.536Y-67.564
X97.536Y-70.104
T4
X105.093Y-99.06
X107.093Y-99.06
X109.093Y-99.06
X111.093Y-99.06
X125.857Y-60.199
X125.857Y-62.199
X125.857Y-64.199
X125.857Y-66.199
X125.857Y-68.199
X101.536Y-37.846
X115.316Y-99.06
X117.316Y-99.06
X119.316Y-99.06
X121.316Y-99.06
X73.407Y-80.581
X75.407Y-80.581
X77.407Y-80.581
X79.407Y-80.581
X81.407Y-80.581
X74.168Y-70.739
X74.168Y-72.739
X74.168Y-74.739
X117.094Y-46.863
X101.536Y-46.863
X117.094Y-37.846
T5
X42.799Y-45.161
X51.384Y-71.577
X77.013Y-85.852
X83.261Y-65.303
X86.665Y-59.817
X100.279Y-75.336
X126.136Y-88.062
X128.079Y-86.119
X130.226Y-76.86
T6
X31.242Y-58.42
X68.732Y-97.282
X71.272Y-97.282
X97.384Y-98.755
X99.924Y-98.755
X31.242Y-66.04
X136.652Y-61.468
X136.652Y-63.758
X136.652Y-66.048
X136.652Y-68.338
X136.652Y-70.628
X138.632Y-60.323
X138.632Y-62.613
X138.632Y-64.903
X138.632Y-67.193
X138.632Y-69.483
X140.612Y-61.468
X140.612Y-63.758
X140.612Y-66.048
X140.612Y-68.338
X140.612Y-70.628
X126.492Y-45.72
X73.889Y-97.282
X76.429Y-97.282
X48.616Y-98.755
X51.156Y-98.755
X53.696Y-98.755
X56.236Y-98.755
T7
X98.298Y-33.782
X103.947Y-33.772
X114.798Y-33.782
X120.396Y-33.782
T8
X36.005Y-67.691
X58.864Y-67.691
T9
X28.448Y-43.688
X36.068Y-43.688
X132.588Y-43.688
X140.208Y-43.688
X28.448Y-88.392
X36.068Y-88.392
X132.588Y-88.392
X140.208Y-88.392
T10
X62.611Y-52.959
X62.611Y-75.819
X96.901Y-52.959
X96.901Y-75.819
T11
X61.976Y-49.022
X61.976Y-83.058
T12
X41.91Y-96.012
X127.254Y-35.814
X127.254Y-96.012
X41.91Y-35.814
X84.582Y-96.012
X84.582Y-35.814
T13
X138.702Y-53.283
X138.702Y-78.283
T0
M30
